<svg width="72" height="22" viewBox="0 0 72 22" fill="none" xmlns="http://www.w3.org/2000/svg">
<path d="M0 18.511L0.683853 20.1344C2.06784 19.1167 3.37042 18.0022 4.59159 16.7907C5.8616 15.5147 6.97693 14.1175 7.93758 12.5991H12.1628V18.7775H4.05427V21.152H22.7381V18.7775H15.5821V12.5991H21.517V10.2247H9.28087C9.93216 8.85169 10.4858 7.43025 10.9417 5.96035H22.9335V3.53744H11.5767C11.7883 2.55213 11.9919 1.55874 12.1872 0.557269L8.62144 0.436122C8.44233 1.48605 8.23066 2.51982 7.98643 3.53744H1.48982V5.96035H7.327C5.87788 10.7254 3.43555 14.909 0 18.511Z" fill="#1E2124"/>
<path d="M25.498 10.2731V12.6476H34.7788V17.8811C34.7788 18.188 34.7544 18.4787 34.7056 18.7533C34.673 18.9633 34.5916 19.141 34.4613 19.2863C34.3474 19.3833 34.2171 19.4559 34.0706 19.5044C33.7775 19.569 33.4925 19.5932 33.2157 19.5771L30.5047 19.4559V20.6674C31.1235 21.0712 31.791 21.3862 32.5075 21.6123C33.1099 21.79 33.7205 21.8789 34.3392 21.8789C35.0068 21.8789 35.6744 21.8142 36.3419 21.685C36.6839 21.6204 37.0095 21.4912 37.3189 21.2974C37.6608 21.0389 37.8969 20.7159 38.0271 20.3282C38.1737 19.8113 38.2469 19.2783 38.2469 18.7291V12.6476H47.1859V10.2731H38.2469V9.23128L46.2822 4.04626V1.64758H27.3541V4.02203H40.9824L34.7788 8.18943V10.2731H25.498Z" fill="#1E2124"/>
<path d="M49.7748 4.1674V6.39648H53.9023C53.2999 7.76946 52.6079 9.0859 51.8263 10.3458C50.9796 11.6057 50.019 12.7687 48.9444 13.8348L49.3351 15.4824C50.2632 14.9655 51.1425 14.3678 51.9729 13.6894V21.9273H53.5115C53.9674 21.9273 54.3501 21.7658 54.6594 21.4427C54.9199 21.1358 55.0502 20.7885 55.0502 20.4009V12.8656C55.7829 13.4471 56.5889 13.8994 57.4681 14.2225L58.2252 13.3987V16.6454H59.6906C60.0651 16.6615 60.3908 16.5404 60.6676 16.2819C60.9769 15.9589 61.1316 15.5712 61.1316 15.1189V8.81938H67.6038V16.6454H69.0692C69.4925 16.6615 69.8507 16.5162 70.1438 16.2093C70.3881 15.9023 70.5102 15.547 70.5102 15.1432V6.68722H65.4545V4.53084H71.2429V2.39868H65.4545V0.193832H62.5482V6.68722H58.2252V12.793C57.3134 11.7753 56.3935 10.7577 55.4654 9.74009C56.1493 8.70631 56.7843 7.62408 57.3704 6.49339V4.1674H55.2944L55.8806 3.77973C55.2782 2.53598 54.7083 1.27606 54.171 0L51.1425 0.581498C51.3704 1.35683 51.7286 2.05947 52.2171 2.68943C52.7707 3.31938 53.4383 3.81204 54.2198 4.1674H49.7748ZM71.2673 21.9758L72 20.6432C69.8019 19.0279 67.6282 17.3965 65.479 15.7489C65.7069 14.9736 65.8209 14.174 65.8209 13.3502V9.81278H62.9389V12.9141C62.9064 13.7702 62.8005 14.6021 62.6214 15.4097C62.4098 16.185 62.0597 16.8796 61.5712 17.4934C60.9037 18.2203 60.1384 18.826 59.2754 19.3106C58.3636 19.7952 57.4274 20.2313 56.4668 20.6189L56.9552 22C58.4857 21.5962 59.9674 21.0308 61.4003 20.304C62.5563 19.7225 63.5495 18.931 64.3799 17.9295C66.464 19.5932 68.7598 20.942 71.2673 21.9758Z" fill="#1E2124"/>
</svg>
