<svg width="99" height="95" viewBox="0 0 99 95" fill="none" xmlns="http://www.w3.org/2000/svg">
<path fill-rule="evenodd" clip-rule="evenodd" d="M80.6292 18.938C75.6672 8.735 63.1153 0.00200117 48.9043 1.17065e-06C41.4473 -0.00199883 30.0553 2.558 21.5423 12.852C15.8573 19.726 13.9433 27.771 15.1413 35.794C15.9643 41.306 19.0343 48.578 23.4273 53.178C25.0833 41.517 31.2253 32.346 39.2783 25.605C53.8183 14.497 69.3412 15.126 80.6292 18.938" fill="currentColor"/>
<path fill-rule="evenodd" clip-rule="evenodd" d="M91.9744 36.4321C83.0784 24.8871 67.7005 21.6571 53.8185 26.8051C54.2665 26.9401 54.7135 27.0731 55.1595 27.2241C75.7125 34.2261 86.8205 56.5231 79.9705 77.0251C78.1475 82.4791 75.2295 87.2491 71.5535 91.1921C75.9815 89.9661 80.5135 88.2131 84.4015 85.2171C100.054 73.1561 103.135 50.9161 91.9744 36.4321" fill="currentColor"/>
<path fill-rule="evenodd" clip-rule="evenodd" d="M48.865 73.3135C45.742 73.3135 42.717 72.9545 39.807 72.3045C39.452 72.2315 39.086 72.1885 38.706 72.2055C37.844 72.2425 37.071 72.5405 36.349 73.0035L26.751 79.1565C26.482 79.3275 26.222 79.4615 25.896 79.4755C25.067 79.5115 24.367 78.8625 24.331 78.0305C24.315 77.6545 24.448 77.2755 24.526 76.9145C24.573 76.6985 25.59 72.0855 26.224 69.2075C26.298 68.8835 26.356 68.5715 26.342 68.2385C26.299 67.2375 25.773 66.3725 25.004 65.8545C14.889 58.9565 7.95105 48.1175 6.42505 36.9735C3.88105 40.9725 2.52605 44.1505 1.20005 48.7835C-3.74495 66.0705 7.07804 86.7805 24.74 92.5815C45.052 99.2525 64.434 91.7645 71.129 74.4895C71.943 72.3915 72.833 68.8285 73.017 65.8685C65.904 71.1015 58.373 73.3135 48.865 73.3135" fill="currentColor"/>
</svg>
