<svg width="210" height="76" viewBox="0 0 210 76" fill="none" xmlns="http://www.w3.org/2000/svg">
<path fill-rule="evenodd" clip-rule="evenodd" d="M92.6074 0.524506C89.4961 0.508942 86.373 0.493317 83.25 0.540009C79.8438 8.31335 76.3701 16.0667 72.8301 23.8C71.8398 26.11 70.6201 29.17 72.7197 31.26C74.7246 33.0785 77.4297 33.0196 80.043 32.9627C80.4307 32.9543 80.8164 32.9459 81.1973 32.9436C81.6943 32.9407 82.1846 32.9483 82.6602 32.98C81.7432 35.295 80.7109 37.5635 79.6787 39.8317C78.1328 43.2267 76.5869 46.6211 75.4297 50.17C74.3604 53.09 77.0303 56.09 79.9502 56.09C83.2627 56.3154 86.582 56.2782 89.9033 56.241C91.8857 56.2187 93.8682 56.1964 95.8496 56.23L96.9414 53.7915C98.3096 50.7366 99.6777 47.6826 101.021 44.61C100.374 44.61 99.7246 44.6196 99.0742 44.6293C96.6143 44.6657 94.1426 44.7024 91.7705 44.22C93.7471 39.2562 95.9443 34.39 98.1406 29.5257C99.5996 26.2956 101.058 23.0663 102.45 19.81C100.824 19.6187 99.1143 19.704 97.4023 19.7893C94.6387 19.9271 91.8711 20.0651 89.4502 19.04C90.5938 15.1859 92.3047 11.5239 94.0166 7.85977L94.0254 7.84027L94.0342 7.82187L94.04 7.80621L94.0459 7.79285C95.167 5.39484 96.2891 2.99536 97.25 0.540009L95.7695 0.537872L93.876 0.53064L92.625 0.524506H92.6162H92.6074ZM40.8008 1.44H27.1709C27.0732 12.817 27.0674 24.1974 27.0615 35.581C27.0576 44.0789 27.0537 52.5785 27.0107 61.08C27.0889 61.3967 27.0918 61.7272 27.0195 62.0453C26.9473 62.3635 26.8027 62.6605 26.5957 62.9128C26.3887 63.1651 26.126 63.3658 25.8291 63.499C25.6748 63.5681 25.5127 63.6181 25.3467 63.6481C25.1934 63.676 25.0371 63.6868 24.8809 63.68C23.042 63.7877 21.1982 63.777 19.3516 63.7664L18.5752 63.7623L17.6904 63.76C19.3008 67.72 21.04 71.62 22.8408 75.49C23.8652 75.4517 24.9199 75.4728 25.9834 75.4942C29.6348 75.5676 33.3916 75.6431 36.3809 73.32C39.8906 70.74 40.96 66.15 40.8906 62.02C40.8887 56.9932 40.8896 51.9658 40.8906 46.9381C40.8945 31.7721 40.8984 16.6032 40.8008 1.44ZM156 0.589996H169.841V5.79001C176.48 5.53 184.21 5.54999 189.011 10.93C193.011 15.3497 192.896 21.2898 192.786 26.993C192.754 28.6321 192.723 30.2517 192.79 31.81C197.79 31.9 203.38 33.08 206.471 37.42C209.182 41.2443 209.07 45.8999 208.961 50.4491V50.4615C208.924 51.9986 208.887 53.5235 208.96 55C208.948 55.3503 208.942 55.7052 208.94 56.0638C208.939 56.2847 208.94 56.507 208.942 56.7305C208.946 57.1539 208.955 57.5816 208.966 58.0121L208.978 58.547V58.5693C209.086 63.2458 209.2 68.1802 205.551 71.56C201.791 75.6219 196.271 75.564 191.018 75.5089C189.507 75.493 188.019 75.4774 186.601 75.56C184.967 72.2513 183.534 68.8566 182.102 65.4609L182.09 65.4326C181.834 64.8249 181.578 64.2172 181.32 63.61C182.89 63.5652 184.459 63.5817 186.028 63.5981C188.317 63.6221 190.605 63.6461 192.891 63.48C193.488 63.444 194.048 63.172 194.445 62.7238C194.843 62.2756 195.046 61.688 195.011 61.09C195.195 57.399 195.195 53.701 195.011 50.01C195.08 47.4 192.37 45.74 190.011 45.94C185.518 45.8734 181.029 45.8956 176.539 45.9178C174.294 45.9289 172.048 45.94 169.801 45.94V75.51H155.95V45.92H142.11V32.02C146.71 32.02 151.32 32.02 155.92 31.95C156.007 27.95 156.007 23.9233 155.92 19.87C152.86 19.82 149.801 19.78 146.73 19.81V5.88H155.91L156 0.589996ZM169.771 19.77C169.771 23.8367 169.801 27.9033 169.86 31.97H179.2C179.2 31.5435 179.203 31.1168 179.208 30.69C179.216 30.0948 179.227 29.4993 179.237 28.9036C179.286 26.2616 179.334 23.6158 179.061 20.97C177.542 19.3657 175.272 19.5501 173.041 19.7314C171.906 19.8235 170.781 19.9149 169.771 19.77ZM138.3 5.81H106.58C106.56 10.45 106.57 15.1033 106.61 19.77H115.3V61.51C112.812 61.54 110.319 61.552 107.827 61.5568L105.683 61.5594L102.84 61.56C100.69 66.18 98.5898 70.82 96.5 75.46H142.94V61.56C140.715 61.535 138.487 61.535 136.26 61.535C134.032 61.535 131.805 61.535 129.58 61.51V19.74H138.3V5.81ZM197.93 7.09C201.43 4.19 207.24 6.09 208.55 10.36C210.22 14.28 207.09 19.13 202.93 19.51C200.987 19.6826 199.039 19.6525 197.094 19.6225C196.445 19.6125 195.798 19.6025 195.15 19.6C195.188 18.7177 195.156 17.7813 195.125 16.8256V16.7985V16.7713V16.7442C195.012 13.1842 194.89 9.36984 197.93 7.09ZM6.99902 19.7267C6 19.7234 5 19.72 4 19.72C3.27051 28.84 2.56055 38 1.93066 47.05C1.77734 49.1219 1.33301 51.162 0.610352 53.11C2.9502 58.48 5.29004 63.83 7.79004 69.11C13.3906 61.62 15.4707 52.18 16.0508 43.01C16.2422 39.9508 16.4932 36.8932 16.7441 33.8352C17.1318 29.0964 17.5205 24.3569 17.6904 19.61C14.1279 19.7506 10.5664 19.7387 6.99902 19.7267ZM50.0996 19.72H63.9297L64.4502 26.4533C64.9814 33.2989 65.5127 40.1444 66.0098 46.99C66.1484 49.0933 66.5928 51.1651 67.3301 53.14C64.9893 58.49 62.6299 63.83 60.1592 69.14C54.9795 62.23 52.79 53.59 52.0596 45.14C51.6182 40.0255 51.2383 34.889 50.8584 29.7549C50.7207 27.8922 50.583 26.0297 50.4424 24.1688C50.3311 22.6847 50.2168 21.2016 50.0996 19.72ZM73.6602 60.46C71.5068 65.0933 69.373 69.7433 67.2598 74.41C71.9268 75.7878 76.7773 75.6358 81.623 75.4839C84.1279 75.4055 86.6318 75.327 89.1094 75.46C91.25 70.83 93.3799 66.1899 95.46 61.53C93.1699 61.4418 90.8662 61.4846 88.5625 61.5273C83.5537 61.6204 78.5439 61.7135 73.6602 60.46Z" fill="white"/>
</svg>
