<svg width="52" height="52" viewBox="0 0 52 52" fill="none" xmlns="http://www.w3.org/2000/svg">
<mask id="mask0" mask-type="alpha" maskUnits="userSpaceOnUse" x="0" y="0" width="53" height="53">
<path fill-rule="evenodd" clip-rule="evenodd" d="M0 0H52V52H0V0Z" fill="white"/>
</mask>
<g mask="url(#mask0)">
<path fill-rule="evenodd" clip-rule="evenodd" d="M52 26.0001C52 11.6406 40.3593 0 25.9999 0C11.6406 0 0 11.6406 0 26.0001C0 40.3594 11.6406 52 25.9999 52C40.3593 52 52 40.3594 52 26.0001Z" fill="#D70110"/>
<path fill-rule="evenodd" clip-rule="evenodd" d="M24.1057 40.9478C23.8077 40.4552 23.603 39.8748 23.5135 39.1414C23.424 38.4083 23.45 37.5222 23.473 36.6863C23.4961 35.8503 23.5164 35.0645 23.5307 34.3649C23.5451 33.6652 23.5534 33.0521 23.565 32.1725C23.5766 31.2928 23.5912 30.147 23.6069 28.878C23.6227 27.6091 23.6398 26.2171 23.6563 24.8433C23.6727 23.4694 23.6889 22.1137 23.7005 21.1494C23.7122 20.185 23.7194 19.6118 23.7253 19.1499C23.7309 18.6879 23.7354 18.3372 23.7266 18.0241C23.7178 17.7111 23.6959 17.4358 23.6572 17.1893C23.6185 16.9429 23.563 16.7253 23.4892 16.5315C23.4155 16.3375 23.3234 16.167 23.2143 16.0284C23.1051 15.89 22.9788 15.7829 22.8094 15.6962C22.64 15.6095 22.4274 15.5429 22.1711 15.4922C21.9149 15.4416 21.6149 15.4069 21.2341 15.3746C20.8533 15.3423 20.3916 15.3125 19.9912 15.2874C19.5908 15.2621 19.2517 15.2413 18.9115 15.2208C18.5714 15.1999 18.2304 15.1792 17.9385 15.1614C17.6466 15.1434 17.404 15.1282 17.2076 15.1C17.0113 15.0717 16.8611 15.0307 16.7451 14.971C16.6289 14.9113 16.5464 14.8333 16.4808 14.7285C16.4152 14.6234 16.3664 14.4915 16.3259 14.3287C16.2854 14.1658 16.2532 13.9722 16.2294 13.7477C16.2054 13.5234 16.1897 13.2682 16.1825 13.0176C16.1751 12.767 16.1763 12.5204 16.1863 12.2939C16.1964 12.0675 16.2158 11.8607 16.247 11.6742C16.2781 11.4878 16.3214 11.3217 16.3857 11.1838C16.4499 11.0459 16.5348 10.9363 16.6541 10.8538C16.773 10.7716 16.9262 10.7166 17.1339 10.6711C17.3417 10.6254 17.6042 10.589 18.0531 10.5456C18.5021 10.5022 19.1377 10.452 19.8174 10.4244C20.4972 10.3967 21.2213 10.3916 21.9658 10.4143C22.7105 10.4374 23.4758 10.4882 24.3033 10.5761C25.1308 10.6641 26.0207 10.7887 26.8977 10.9491C27.7749 11.1093 28.6394 11.3052 29.4845 11.5415C30.3297 11.778 31.1556 12.0548 31.9333 12.351C32.7113 12.6471 33.441 12.9625 34.1496 13.3089C34.8581 13.6552 35.5456 14.0325 36.1317 14.3775C36.7182 14.7224 37.2029 15.0348 37.5125 15.2435C37.8219 15.4522 37.9559 15.5572 38.0346 15.6364C38.1135 15.7157 38.1372 15.769 38.1328 15.8258C38.128 15.8825 38.0951 15.9426 38.0458 15.9803C37.9963 16.0182 37.9304 16.0339 37.8374 16.0382C37.7444 16.0423 37.624 16.0352 37.4373 16.022C37.2505 16.0086 36.9969 15.9894 36.4671 15.9478C35.9376 15.906 35.1318 15.842 34.3006 15.776C33.4697 15.71 32.6136 15.6421 31.9868 15.5918C31.3599 15.5415 30.9622 15.5087 30.6214 15.4817C30.2808 15.4546 29.9968 15.433 29.7245 15.4285C29.452 15.4238 29.1911 15.4361 28.9466 15.4828C28.7021 15.5297 28.4743 15.6113 28.2714 15.7527C28.0684 15.8941 27.8904 16.0955 27.7634 16.3803C27.6364 16.665 27.5606 17.0332 27.5196 17.5387C27.4786 18.0442 27.4727 18.6871 27.4709 19.2338C27.4692 19.7807 27.4715 20.2314 27.4724 21.1633C27.4732 22.095 27.4723 23.5077 27.4715 24.8861C27.4707 26.2646 27.4699 27.6087 27.4693 28.8811C27.4685 30.1533 27.4678 31.3538 27.4672 32.2432C27.4666 33.1327 27.4663 33.7112 27.4659 34.4079C27.4655 35.1048 27.4648 35.92 27.4645 36.76C27.464 37.5999 27.4635 38.4647 27.4686 39.2016C27.4738 39.9386 27.4846 40.5476 27.4881 41.0693C27.4917 41.5909 27.4879 42.0253 27.3702 42.3239C27.2525 42.6226 27.0206 42.786 26.6376 42.7509C26.2545 42.7158 25.72 42.4825 25.2574 42.1637C24.7946 41.8447 24.4037 41.4402 24.1057 40.9478Z" fill="white"/>
</g>
</svg>
