<svg width="52" height="52" viewBox="0 0 52 52" fill="none" xmlns="http://www.w3.org/2000/svg">
<path fill-rule="evenodd" clip-rule="evenodd" d="M52 4.72723C52 2.11819 49.8818 0 47.2728 0H4.72723C2.11819 0 0 2.11819 0 4.72723V47.2728C0 49.8818 2.11819 52 4.72723 52H47.2728C49.8818 52 52 49.8818 52 47.2728V4.72723Z" fill="url(#paint0_linear)"/>
<path fill-rule="evenodd" clip-rule="evenodd" d="M15.7422 26.5078H21.6328V17.2656H15.7422V26.5078Z" fill="white"/>
<path fill-rule="evenodd" clip-rule="evenodd" d="M30.3672 26.5078H36.2578V17.2656H30.3672V26.5078Z" fill="white"/>
<path fill-rule="evenodd" clip-rule="evenodd" d="M8.42969 34.7344H14.3203V25.4922H8.42969V34.7344Z" fill="white"/>
<path fill-rule="evenodd" clip-rule="evenodd" d="M23.0547 34.7344H28.9453V25.4922H23.0547V34.7344Z" fill="white"/>
<path fill-rule="evenodd" clip-rule="evenodd" d="M37.6797 34.7344H43.5703V25.4922H37.6797V34.7344Z" fill="white"/>
<defs>
<linearGradient id="paint0_linear" x1="115.357" y1="41.1451" x2="42.8527" y2="-44.5602" gradientUnits="userSpaceOnUse">
<stop stop-color="#CE4CFE"/>
<stop offset="1" stop-color="#5E55FA"/>
</linearGradient>
</defs>
</svg>
