<svg width="52" height="52" viewBox="0 0 52 52" fill="none" xmlns="http://www.w3.org/2000/svg">
<path fill-rule="evenodd" clip-rule="evenodd" d="M26 52C40.3594 52 52 40.3594 52 26C52 11.6406 40.3594 0 26 0C11.6406 0 0 11.6406 0 26C0 40.3594 11.6406 52 26 52Z" fill="url(#paint0_linear)"/>
<path fill-rule="evenodd" clip-rule="evenodd" d="M18.75 16.25C17.3693 16.25 16.25 17.3693 16.25 18.75V33.447C16.25 34.8277 17.3693 35.947 18.75 35.947C20.1307 35.947 21.25 34.8277 21.25 33.447V18.75C21.25 17.3693 20.1307 16.25 18.75 16.25ZM26.2121 16.25C24.8523 16.25 23.75 17.3523 23.75 18.7121C23.75 20.0719 24.8523 21.1742 26.2121 21.1742H34.8079C36.1677 21.1742 37.27 20.0719 37.27 18.7121C37.27 17.3523 36.1677 16.25 34.8079 16.25H26.2121ZM26.2121 23.6364C24.8523 23.6364 23.75 24.7387 23.75 26.0985C23.75 27.4583 24.8523 28.5606 26.2121 28.5606H30.4545C31.8143 28.5606 32.9167 27.4583 32.9167 26.0985C32.9167 24.7387 31.8143 23.6364 30.4545 23.6364H26.2121ZM23.75 33.4848C23.75 32.125 24.8523 31.0227 26.2121 31.0227H34.8079C36.1677 31.0227 37.27 32.125 37.27 33.4848C37.27 34.8446 36.1677 35.9469 34.8079 35.9469H26.2121C24.8523 35.9469 23.75 34.8446 23.75 33.4848Z" fill="white"/>
<defs>
<linearGradient id="paint0_linear" x1="-26" y1="26" x2="26" y2="78" gradientUnits="userSpaceOnUse">
<stop stop-color="#0CB1E6"/>
<stop offset="1" stop-color="#23ECA4"/>
</linearGradient>
</defs>
</svg>
