<svg width="52" height="52" viewBox="0 0 52 52" fill="none" xmlns="http://www.w3.org/2000/svg">
<rect width="52" height="52" rx="6" fill="url(#paint0_linear)"/>
<path fill-rule="evenodd" clip-rule="evenodd" d="M41.5275 25.2284C40.1533 24.7725 38.6184 24.9662 37.1696 24.8665C36.9831 24.858 36.6675 24.858 36.6159 24.9548C36.5212 25.1144 36.5068 25.405 36.5986 25.556C37.6372 27.3624 39.2897 28.5676 41.4128 29.5278C41.2091 29.901 39.1291 33.9326 37.5138 35.0751C35.3478 36.5937 32.9034 37.1123 30.3759 36.3544C29.2197 36.0182 28.2672 35.0238 27.3462 34.209C26.9847 33.8785 27.0766 33.3628 27.5901 32.8841C28.5082 32.0607 29.3631 32.092 30.0804 31.1034C30.7746 30.1489 29.9799 27.8895 28.4278 27.6758C27.1052 27.5049 24.7842 27.5419 23.4731 27.8069C21.6886 28.163 21.3472 29.7785 22.6153 31.0863C23.1604 31.639 23.6912 32.1975 24.2506 32.7388C24.9707 33.434 24.9793 34.1121 24.2764 34.8301C22.6727 36.4855 20.5984 36.8815 18.3492 36.5738C15.2449 36.1635 13.3055 34.3429 11.9915 31.8385C11.5899 31.0777 11.1308 30.3255 10.712 29.5477C12.8465 28.5334 14.7142 27.1943 15.7355 25.0688C15.6868 24.9833 15.638 24.8922 15.572 24.8038C15.156 24.9121 14.74 25.1144 14.3097 25.123C12.792 25.1771 11.2858 25.2113 9.76808 25.1315C9.49553 25.1315 9.13978 24.7754 8.96764 24.5132C7.84875 22.6214 4.0904 13.5439 12.8092 9.10773C13.7961 8.61483 14.7945 8.13047 15.8388 7.8541L16.229 7.75722C17.3163 7.53499 18.4467 7.4837 19.6029 7.74298C21.003 8.04214 22.2969 8.82851 23.5764 9.48667C24.1961 9.80578 24.6207 10.4212 25.183 10.8144C25.3781 10.9768 26.8327 10.9939 26.9302 10.8856C28.0491 9.48667 29.6672 8.6889 31.3169 8.10482C34.4785 6.95945 38.2913 7.40678 40.9136 9.15617C50.2779 15.3816 43.3579 25.8295 41.5275 25.2284Z" fill="white"/>
<path fill-rule="evenodd" clip-rule="evenodd" d="M32.829 39.6965C31.5954 41.5627 30.2843 43.3918 27.86 44.0899C27.1112 44.2922 25.2435 44.4432 24.5693 44.1839C23.0774 43.5856 21.4306 43.0585 20.6417 41.5C20.3318 40.8561 19.7638 40.3432 19.3679 39.7335C19.1183 39.366 19.0752 39.0924 19.6404 38.7733C21.4938 37.6451 24.4086 37.3288 26.6665 37.4542C28.7608 37.2405 30.8064 37.7362 32.6454 38.8702C32.8348 38.9699 32.9495 39.517 32.829 39.6965Z" fill="white"/>
<path fill-rule="evenodd" clip-rule="evenodd" d="M19.1206 15.9315C17.5857 15.6381 16.002 15.5412 14.427 15.4358C14.1975 15.4187 13.8331 15.6096 13.7585 15.7948C13.6868 15.98 13.8647 16.319 14.0339 16.49C15.2217 17.7863 16.6332 18.812 18.3288 19.3819C19.1809 19.6611 20.0875 19.7779 21.1547 20.0172C20.908 19.0115 20.6469 18.3419 20.6153 17.6382C20.5408 16.6837 19.8809 16.0882 19.1206 15.9315Z" fill="#F75176"/>
<path fill-rule="evenodd" clip-rule="evenodd" d="M38.2165 15.47C36.4378 15.2791 34.6561 15.2791 33.0237 16.0882C31.4458 16.8689 31.5462 18.3761 31.2822 19.8235C33.3823 20.0144 37.855 17.7721 38.6555 16.1908C38.7272 16.0426 38.3973 15.4956 38.2165 15.47Z" fill="#F75176"/>
<defs>
<linearGradient id="paint0_linear" x1="52" y1="52" x2="52" y2="0" gradientUnits="userSpaceOnUse">
<stop stop-color="#F02A4E"/>
<stop offset="1" stop-color="#F94C7A"/>
</linearGradient>
</defs>
</svg>
