<svg width="52" height="52" viewBox="0 0 52 52" fill="none" xmlns="http://www.w3.org/2000/svg">
<mask id="mask0" mask-type="alpha" maskUnits="userSpaceOnUse" x="0" y="0" width="53" height="53">
<path fill-rule="evenodd" clip-rule="evenodd" d="M0 0H52V52H0V0Z" fill="white"/>
</mask>
<g mask="url(#mask0)">
<path fill-rule="evenodd" clip-rule="evenodd" d="M52 26.0001C52 11.6406 40.3593 0 25.9999 0C11.6406 0 0 11.6406 0 26.0001C0 40.3594 11.6406 52 25.9999 52C40.3593 52 52 40.3594 52 26.0001" fill="#D70110"/>
<path fill-rule="evenodd" clip-rule="evenodd" d="M24.1057 40.9479C23.8077 40.4553 23.603 39.8749 23.5135 39.1415C23.424 38.4084 23.45 37.5223 23.473 36.6864C23.4961 35.8504 23.5164 35.0646 23.5307 34.365C23.5451 33.6654 23.5534 33.0522 23.565 32.1726C23.5766 31.2929 23.5912 30.1471 23.6069 28.8781C23.6227 27.6092 23.6398 26.2172 23.6563 24.8435C23.6727 23.4695 23.6889 22.1139 23.7005 21.1495C23.7122 20.1851 23.7194 19.6119 23.7253 19.15C23.7309 18.688 23.7354 18.3373 23.7266 18.0243C23.7178 17.7112 23.6959 17.4359 23.6572 17.1894C23.6185 16.943 23.563 16.7255 23.4892 16.5316C23.4155 16.3376 23.3234 16.1672 23.2143 16.0286C23.1051 15.8901 22.9788 15.7831 22.8094 15.6964C22.64 15.6097 22.4274 15.543 22.1711 15.4923C21.9149 15.4417 21.6149 15.407 21.2341 15.3748C20.8533 15.3424 20.3916 15.3126 19.9912 15.2875C19.5908 15.2622 19.2517 15.2415 18.9115 15.2209C18.5714 15.2001 18.2304 15.1794 17.9385 15.1615C17.6466 15.1435 17.404 15.1284 17.2076 15.1001C17.0113 15.0718 16.8611 15.0308 16.7451 14.9711C16.6289 14.9115 16.5464 14.8334 16.4808 14.7286C16.4152 14.6235 16.3664 14.4916 16.3259 14.3288C16.2854 14.1659 16.2532 13.9723 16.2294 13.7478C16.2054 13.5235 16.1897 13.2683 16.1825 13.0177C16.1751 12.7671 16.1763 12.5205 16.1863 12.2941C16.1964 12.0676 16.2158 11.8608 16.247 11.6743C16.2781 11.4879 16.3214 11.3218 16.3857 11.184C16.4499 11.046 16.5348 10.9364 16.6541 10.8539C16.773 10.7718 16.9262 10.7168 17.1339 10.6712C17.3417 10.6255 17.6042 10.5892 18.0531 10.5457C18.5021 10.5023 19.1377 10.4521 19.8174 10.4246C20.4972 10.3969 21.2213 10.3917 21.9658 10.4145C22.7105 10.4375 23.4758 10.4884 24.3033 10.5762C25.1308 10.6642 26.0207 10.7889 26.8977 10.9492C27.7749 11.1094 28.6394 11.3053 29.4845 11.5417C30.3297 11.7781 31.1556 12.0549 31.9333 12.3511C32.7113 12.6472 33.441 12.9626 34.1496 13.3091C34.8581 13.6554 35.5456 14.0326 36.1317 14.3776C36.7182 14.7225 37.2029 15.0349 37.5125 15.2437C37.8219 15.4523 37.9559 15.5574 38.0346 15.6366C38.1135 15.7158 38.1372 15.7691 38.1328 15.8259C38.128 15.8826 38.0951 15.9428 38.0458 15.9804C37.9963 16.0183 37.9304 16.034 37.8374 16.0383C37.7444 16.0424 37.624 16.0353 37.4373 16.0221C37.2505 16.0088 36.9969 15.9895 36.4671 15.9479C35.9376 15.9061 35.1318 15.8421 34.3006 15.7761C33.4697 15.7101 32.6136 15.6423 31.9868 15.5919C31.3599 15.5416 30.9622 15.5088 30.6214 15.4818C30.2808 15.4547 29.9968 15.4331 29.7245 15.4286C29.452 15.4239 29.1911 15.4362 28.9466 15.483C28.7021 15.5298 28.4743 15.6115 28.2714 15.7528C28.0684 15.8942 27.8904 16.0956 27.7634 16.3804C27.6364 16.6652 27.5606 17.0333 27.5196 17.5388C27.4786 18.0443 27.4727 18.6872 27.4709 19.2339C27.4692 19.7808 27.4715 20.2315 27.4724 21.1635C27.4732 22.0951 27.4723 23.5078 27.4715 24.8862C27.4707 26.2647 27.4699 27.6088 27.4693 28.8812C27.4685 30.1535 27.4678 31.3539 27.4672 32.2434C27.4666 33.1328 27.4663 33.7113 27.4659 34.4081C27.4655 35.105 27.4648 35.9201 27.4645 36.7602C27.464 37.6001 27.4635 38.4648 27.4686 39.2017C27.4738 39.9387 27.4846 40.5477 27.4881 41.0694C27.4917 41.5911 27.4879 42.0254 27.3702 42.3241C27.2525 42.6228 27.0206 42.7861 26.6376 42.751C26.2545 42.7159 25.72 42.4826 25.2574 42.1639C24.7946 41.8448 24.4037 41.4403 24.1057 40.9479" fill="white"/>
</g>
</svg>
