<?xml version="1.0" encoding="UTF-8"?>
<svg width="22px" height="22px" viewBox="0 0 22 22" version="1.1" xmlns="http://www.w3.org/2000/svg" xmlns:xlink="http://www.w3.org/1999/xlink">
    <!-- Generator: Sketch 46 (44423) - http://www.bohemiancoding.com/sketch -->
    <title>Group</title>
    <desc>Created with Sketch.</desc>
    <defs></defs>
    <g id="Page-1" stroke="none" stroke-width="1" fill="none" fill-rule="evenodd">
        <g id="Home" transform="translate(-39.000000, -37.000000)" fill="#27344A">
            <g id="Group-32" transform="translate(39.000000, 37.000000)">
                <g id="Group">
                    <g id="Group-33" transform="translate(1.000000, 1.000000)">
                        <path d="M0.914285714,6.59778951 L0.914285714,1 L0.914285714,1 C0.914285714,0.44771525 1.36200096,1.01453063e-16 1.91428571,0 L5.48914387,0 L5.48914387,2.22044605e-16 C6.04142862,1.20591542e-16 6.48914387,0.44771525 6.48914387,1 C6.48914387,1.19072963 6.43459913,1.37748133 6.33194308,1.5382281 L2.75708492,7.13601761 L2.75708492,7.13601761 C2.45982975,7.60148276 1.84152276,7.73784389 1.37605761,7.44058872 C1.08838448,7.25687501 0.914285714,6.93912008 0.914285714,6.59778951 Z" id="矩形_1-2-copy"></path>
                        <path d="M18.1745378,13.3531215 L18.1745378,18.9355188 L18.1745378,18.9355188 C18.1745378,19.4878035 17.7268225,19.9355188 17.1745378,19.9355188 L13.6018035,19.9355188 L13.6018035,19.9355188 C13.0495188,19.9355188 12.6018035,19.4878035 12.6018035,18.9355188 C12.6018035,18.7444558 12.6565389,18.5573919 12.7595321,18.3964651 L16.3322664,12.8140678 L16.3322664,12.8140678 C16.6299775,12.3488942 17.2484178,12.213139 17.7135915,12.5108501 C18.0007913,12.694658 18.1745378,13.012139 18.1745378,13.3531215 Z" id="矩形_1-3-copy"></path>
                        <path d="M13.1977578,0 L17.6138019,0 L17.6138019,1.33226763e-15 C18.1660866,1.23081457e-15 18.6138019,0.44771525 18.6138019,1 C18.6138019,1.1928657 18.5580295,1.38161668 18.4532053,1.54350882 L6.79831071,19.5435088 L6.79831071,19.5435088 C6.61400603,19.8281518 6.2980088,20 5.95890726,20 L1.54286321,20 L1.54286321,20 C0.990578456,20 0.542863205,19.5522847 0.542863205,19 C0.542863205,18.8071343 0.598635539,18.6183833 0.703459751,18.4564912 L12.3583544,0.456491178 L12.3583544,0.456491178 C12.542659,0.171848171 12.8586563,-2.49122101e-15 13.1977578,-2.55351296e-15 Z" id="矩形_2-copy"></path>
                    </g>
                </g>
            </g>
        </g>
    </g>
</svg>