<svg width="22" height="26" viewBox="0 0 22 26" fill="none" xmlns="http://www.w3.org/2000/svg">
<path fill-rule="evenodd" clip-rule="evenodd" d="M0.450376 9.30254V1.78321C0.450376 1.04134 1.03406 0.439941 1.75406 0.439941H6.41455C7.13455 0.439941 7.71823 1.04134 7.71823 1.78321C7.71823 2.03941 7.64713 2.29027 7.51329 2.50619L2.85281 10.0255C2.46528 10.6508 1.6592 10.8339 1.05238 10.4346C0.677346 10.1879 0.450376 9.76104 0.450376 9.30254ZM21.546 16.7142V24.2161C21.546 24.9583 20.9621 25.56 20.2418 25.56H15.5821C14.8617 25.56 14.2778 24.9583 14.2778 24.2161C14.2778 23.9594 14.3492 23.708 14.4835 23.4917L19.1433 15.9898C19.5316 15.3647 20.3382 15.1822 20.9449 15.5823C21.3194 15.8293 21.546 16.256 21.546 16.7142ZM20.7826 0.440552H15.4064C14.9935 0.440552 14.6088 0.656116 14.3845 1.01317L0.195514 23.5922C0.0678986 23.7952 0 24.032 0 24.2739C0 24.9667 0.54506 25.5283 1.21742 25.5283H6.59362C7.00645 25.5283 7.39116 25.3128 7.61553 24.9557L21.8045 2.37671C21.9321 2.17364 22 1.93687 22 1.69494C22 1.00216 21.4549 0.440552 20.7826 0.440552Z" fill="white"/>
</svg>
