<?xml version="1.0" standalone="no"?>
<!DOCTYPE svg PUBLIC "-//W3C//DTD SVG 1.1//EN" "http://www.w3.org/Graphics/SVG/1.1/DTD/svg11.dtd" >
<svg xmlns="http://www.w3.org/2000/svg" xmlns:xlink="http://www.w3.org/1999/xlink" version="1.1">
<metadata>
Created by FontForge 20161003 at Sun Jul  8 07:30:15 2018
 By www-data
Copyright (c) 2011-2013, Sol Matas (www.huertatipografica.com.ar), with Reserved Font Name "Bitter".
</metadata>
<defs>
<font id="BitterBold" horiz-adv-x="601" >
  <font-face 
    font-family="BitterBold"
    font-weight="700"
    font-stretch="normal"
    units-per-em="1000"
    panose-1="0 0 8 0 0 0 0 0 0 0"
    ascent="800"
    descent="-200"
    x-height="540"
    cap-height="705"
    bbox="-67 -365 1258 1124"
    underline-thickness="50"
    underline-position="-150"
    unicode-range="U+000D-FB02"
  />
<missing-glyph horiz-adv-x="500" 
d="M0 0v700h500v-700h-500zM250 395l170 255h-340zM280 350l170 -255v510zM80 50h340l-170 255zM50 605v-510l170 255z" />
    <glyph glyph-name="fi" unicode="fi" horiz-adv-x="755" 
d="M130 532v40q0 106 61 160.5t201 54.5q59 0 120 -9.5t92 -18.5l31 -9l-2 -141h-110l-13 60q-59 8 -108 8q-67 0 -94.5 -22.5t-27.5 -64.5v-58l375 8v-435l70 -25v-80h-290v80l70 25v327h-225v-327l70 -25v-80h-300v80l80 25v327h-90v83z" />
    <glyph glyph-name="fl" unicode="fl" horiz-adv-x="748" 
d="M130 530v47q0 210 255 210q61 0 128 -6.5t103 -12.5l37 -6v-657l90 -25v-80h-310v80l70 25v563q-57 9 -106 9q-117 0 -117 -82v-65h130l-3 -100h-127v-325l70 -25v-80h-300v80l80 25v325h-90v85z" />
    <glyph glyph-name=".notdef" horiz-adv-x="500" 
d="M0 0v700h500v-700h-500zM250 395l170 255h-340zM280 350l170 -255v510zM80 50h340l-170 255zM50 605v-510l170 255z" />
    <glyph glyph-name=".null" horiz-adv-x="0" 
 />
    <glyph glyph-name="nonmarkingreturn" horiz-adv-x="333" 
 />
    <glyph glyph-name="CR" unicode="&#xd;" horiz-adv-x="600" 
 />
    <glyph glyph-name="space" unicode=" " horiz-adv-x="235" 
 />
    <glyph glyph-name="exclam" unicode="!" horiz-adv-x="340" 
d="M109 256l-18 509h156l-18 -504zM85 78q0 41 25.5 65.5t60.5 24.5q41 0 62.5 -23.5t21.5 -66.5q0 -42 -25.5 -66.5t-61.5 -24.5q-83 0 -83 91z" />
    <glyph glyph-name="quotedbl" unicode="&#x22;" horiz-adv-x="441" 
d="M57 500v282h135l-22 -282h-113zM258 500v282h136l-23 -282h-113z" />
    <glyph glyph-name="numbersign" unicode="#" horiz-adv-x="730" 
d="M196 470l18 130h127l-18 -130h126l17 130h127l-17 -130h94v-103h-108l-16 -123h99v-103h-113l-18 -141h-127l18 141h-125l-19 -141h-127l19 141h-93v103h106l17 123h-98v103h111zM419 244l16 123h-125l-17 -123h126z" />
    <glyph glyph-name="dollar" unicode="$" horiz-adv-x="552" 
d="M225 -146v135q-41 2 -83.5 10t-64.5 15l-22 7v177h92l15 -75q34 -18 87 -18q48 0 80 18.5t32 52.5q0 21 -17 37t-44 26.5t-59.5 21t-65 26t-59.5 36t-44 56t-17 81.5q0 76 46 124t124 63v118h107v-114q38 -3 77 -12t59 -17l20 -7l-4 -164h-86l-19 74q-42 15 -80 15
q-47 0 -72 -17.5t-25 -45.5q0 -29 31.5 -48.5t76 -34t89.5 -34.5t76.5 -61t31.5 -101q0 -81 -47.5 -133.5t-127.5 -69.5v-141h-107z" />
    <glyph glyph-name="percent" unicode="%" horiz-adv-x="935" 
d="M55 529q0 87 51 137.5t129 50.5q76 0 122.5 -46t46.5 -131q0 -86 -51 -138t-130 -52q-77 0 -122.5 44.5t-45.5 134.5zM170 533q0 -96 58 -96q61 0 61 99q0 95 -59 95q-60 0 -60 -98zM519 165q0 87 51 137.5t129 50.5q76 0 122.5 -46t46.5 -131q0 -86 -51 -138t-130 -52
q-77 0 -122.5 44.5t-45.5 134.5zM634 169q0 -96 58 -96q61 0 61 99q0 95 -59 95q-60 0 -60 -98zM742 712l-418 -720h-145l418 720h145z" />
    <glyph glyph-name="ampersand" unicode="&#x26;" horiz-adv-x="677" 
d="M520 517h-94q-7 27 -16 65q-34 13 -90 13q-46 0 -70.5 -23t-24.5 -56q0 -43 33.5 -67t81.5 -24h307v-85l-70 -23v-106q0 -104 -72.5 -163.5t-196.5 -59.5q-127 0 -190 54t-63 146q0 37 15.5 70.5t39 55.5t40.5 34.5t32 19.5q-52 32 -73 59q-33 43 -33 99q0 93 67.5 142
t184.5 49q52 0 112 -15t85 -27zM432 317h-75q-65 0 -106 -27t-41 -81q0 -47 29 -73t79 -26q53 0 83.5 30t30.5 85v92z" />
    <glyph glyph-name="quotesingle" unicode="'" horiz-adv-x="240" 
d="M55 500v282h135l-22 -282h-113z" />
    <glyph glyph-name="parenleft" unicode="(" horiz-adv-x="353" 
d="M220 770h130q-72 -110 -114 -240t-42 -248q0 -130 41.5 -269t113.5 -243h-129q-87 123 -126.5 241.5t-39.5 268.5q0 138 40 251.5t126 238.5z" />
    <glyph glyph-name="parenright" unicode=")" horiz-adv-x="350" 
d="M-1 770h130q86 -125 126 -238.5t40 -251.5q0 -150 -39.5 -269t-126.5 -241h-129q72 104 113.5 243t41.5 269q0 118 -42 248t-114 240z" />
    <glyph glyph-name="asterisk" unicode="*" horiz-adv-x="417" 
d="M194 555l10 -44l-60 -111l-77 54l82 98zM260 550l82 -95l-73 -55l-65 111l11 44zM204 587l-34 30l-14 119l93 2l-9 -122zM223 576l17 40l111 49l31 -90l-122 -25zM188 574l-39 -22l-124 21l30 89l115 -45z" />
    <glyph glyph-name="plus" unicode="+" horiz-adv-x="620" 
d="M244 329v204h133v-204h200v-118h-200v-211h-133v211h-202v118h202z" />
    <glyph glyph-name="comma" unicode="," horiz-adv-x="303" 
d="M103 -185l-63 52q60 80 60 120q0 12 -14.5 39t-14.5 53q0 40 24.5 64.5t61.5 24.5q38 0 61 -24t23 -68q0 -113 -138 -261z" />
    <glyph glyph-name="hyphen" unicode="-" horiz-adv-x="395" 
d="M340 335v-125h-285v125h285z" />
    <glyph glyph-name="period" unicode="." horiz-adv-x="300" 
d="M65 78q0 41 25.5 65.5t60.5 24.5q41 0 62.5 -23.5t21.5 -66.5q0 -42 -25 -66.5t-61 -24.5q-41 0 -62.5 23.5t-21.5 67.5z" />
    <glyph glyph-name="slash" unicode="/" horiz-adv-x="516" 
d="M506 705l-334 -705h-152l333 705h153z" />
    <glyph glyph-name="zero" unicode="0" horiz-adv-x="645" 
d="M332 717q143 0 200.5 -87.5t57.5 -267.5q0 -375 -268 -375q-137 0 -199.5 90.5t-62.5 269.5q0 182 64.5 276t207.5 94zM326 592q-57 0 -80.5 -53t-23.5 -187q0 -130 24 -185t80 -55t78.5 55t22.5 190q0 132 -22 183.5t-79 51.5z" />
    <glyph glyph-name="one" unicode="1" horiz-adv-x="538" 
d="M86 0v115h140v430l-153 -98l-58 106l238 152h128v-590h135v-115h-430z" />
    <glyph glyph-name="two" unicode="2" horiz-adv-x="607" 
d="M40 0v122q78 63 119 97t90.5 79.5t72.5 74t39 61t16 61.5q0 46 -32 73t-85 27q-24 0 -47 -4.5t-35 -8.5l-11 -5l-10 -85h-105l-5 185q113 40 220 40q130 0 201.5 -45.5t71.5 -151.5q0 -51 -17.5 -98t-58.5 -97.5t-86.5 -94t-120.5 -108.5h300v-122h-517z" />
    <glyph glyph-name="three" unicode="3" horiz-adv-x="592" 
d="M42 500l-5 175q123 42 223 42q257 0 257 -180q0 -64 -32 -108.5t-93 -60.5q63 -14 101.5 -57.5t38.5 -100.5q0 -59 -24.5 -103t-66 -69.5t-91 -37.5t-105.5 -12q-57 0 -112 13.5t-81 26.5l-27 14l42 110q90 -42 178 -42q61 0 94 26t33 76q0 46 -37 72t-105 26h-78v105h83
q130 0 130 97q0 38 -29 60.5t-81 22.5q-22 0 -46.5 -3.5t-38.5 -7.5l-13 -4l-10 -80h-105z" />
    <glyph glyph-name="four" unicode="4" horiz-adv-x="627" 
d="M495 142v-142h-154v142h-311l-15 118q279 411 313 460l167 -15v-440h100v-123h-100zM343 529l-178 -264h178v264z" />
    <glyph glyph-name="five" unicode="5" horiz-adv-x="560" 
d="M17 42l43 110q90 -42 177 -42q50 0 82 26.5t32 73.5q0 56 -46.5 81.5t-139.5 25.5h-108l17 388h410l-3 -123h-265l-7 -150q145 0 226.5 -54.5t81.5 -152.5q0 -110 -77.5 -173.5t-186.5 -63.5q-60 0 -119 13.5t-88 26.5z" />
    <glyph glyph-name="six" unicode="6" horiz-adv-x="623" 
d="M520 707l-7 -117q-30 5 -78 5q-60 0 -105 -20.5t-66.5 -49.5t-34.5 -58t-15 -49l-2 -21q71 43 156 43q96 0 158 -54.5t62 -155.5q0 -105 -75 -174t-188 -69q-129 0 -199.5 86t-70.5 222q0 189 95.5 305.5t279.5 116.5q26 0 48.5 -2.5t31.5 -4.5zM208 287v-24
q0 -78 32.5 -115.5t83.5 -37.5q48 0 77 28.5t29 76.5q0 107 -108 107q-28 0 -56.5 -9t-43.5 -17z" />
    <glyph glyph-name="seven" unicode="7" horiz-adv-x="531" 
d="M515 597l-262 -597h-165l259 580h-221l-20 -93h-101v218h510v-108z" />
    <glyph glyph-name="eight" unicode="8" horiz-adv-x="618" 
d="M556 528q0 -99 -109 -150q126 -59 126 -172q0 -98 -76 -158.5t-199 -60.5q-121 0 -187 56.5t-66 148.5q0 105 128 169q-105 59 -105 160q0 93 68 144.5t185 51.5q113 0 174 -52t61 -137zM217 521q0 -35 27.5 -56t80.5 -41q81 34 81 97q0 33 -26 53.5t-69 20.5
q-44 0 -69 -20.5t-25 -53.5zM415 202q0 38 -30 60.5t-90 45.5q-93 -42 -93 -109q0 -43 27.5 -66t78.5 -23t79 24t28 68z" />
    <glyph glyph-name="nine" unicode="9" horiz-adv-x="617" 
d="M100 -3l7 117q30 -4 78 -4q61 0 106.5 20t67 49t34 58t13.5 49l2 20q-71 -41 -156 -41q-96 0 -158 54t-62 155q0 106 75 174.5t188 68.5q129 0 199.5 -85.5t70.5 -221.5q0 -123 -39 -216.5t-125 -150t-211 -56.5q-26 0 -48.5 2.5t-31.5 4.5zM412 418v27q0 76 -32.5 113
t-83.5 37q-48 0 -77 -28.5t-29 -77.5q0 -51 27.5 -79t80.5 -28q28 0 56.5 9t43.5 18z" />
    <glyph glyph-name="colon" unicode=":" horiz-adv-x="305" 
d="M67 378q0 42 25.5 66.5t61.5 24.5q83 0 83 -91q0 -41 -25.5 -65.5t-60.5 -24.5q-41 0 -62.5 23.5t-21.5 66.5zM67 78q0 41 25.5 65.5t61.5 24.5q83 0 83 -90q0 -42 -25 -66.5t-61 -24.5q-41 0 -62.5 23.5t-21.5 67.5z" />
    <glyph glyph-name="semicolon" unicode=";" horiz-adv-x="311" 
d="M73 378q0 42 25 66.5t61 24.5q41 0 62.5 -23.5t21.5 -67.5q0 -41 -25.5 -65.5t-60.5 -24.5q-41 0 -62.5 23.5t-21.5 66.5zM106 -185l-64 52q60 80 60 120q0 12 -14.5 39t-14.5 53q0 40 24.5 64.5t62.5 24.5t60.5 -24t22.5 -68q0 -112 -137 -261z" />
    <glyph glyph-name="less" unicode="&#x3c;" horiz-adv-x="597" 
d="M557 -10l-517 218v120l517 219v-130l-355 -150l355 -145v-132z" />
    <glyph glyph-name="equal" unicode="=" horiz-adv-x="600" 
d="M550 437v-115h-500v115h500zM550 222v-115h-500v115h500z" />
    <glyph glyph-name="greater" unicode="&#x3e;" horiz-adv-x="597" 
d="M40 417v130l517 -219v-120l-517 -218v132l355 145z" />
    <glyph glyph-name="question" unicode="?" horiz-adv-x="464" 
d="M236 253l-133 -6q-9 65 -9 98q0 32 26.5 65.5t58 57t58 55.5t26.5 63q0 66 -90 66q-19 0 -41.5 -3t-35.5 -5l-12 -3l-19 104q83 24 149 24q54 0 97 -13.5t73 -49.5t30 -92q0 -43 -18.5 -81t-45 -66t-53 -53t-45 -51.5t-18.5 -51.5zM94 78q0 41 25.5 65.5t60.5 24.5
q41 0 62.5 -23.5t21.5 -66.5q0 -42 -25.5 -66.5t-61.5 -24.5q-83 0 -83 91z" />
    <glyph glyph-name="at" unicode="@" horiz-adv-x="820" 
d="M518 107l41 -82l-22 -11t-59 -18t-92 -11q-164 0 -251.5 92.5t-87.5 267.5q0 172 101.5 272t272.5 100q167 0 263 -91t96 -260q0 -103 -52.5 -161t-134.5 -58q-85 0 -120 62l-16 -16t-41 -26t-61 -16q-53 0 -83 31t-30 84q0 119 168 119h46v34q0 47 -58 47q-20 0 -47 -4
t-44 -8l-17 -5l-19 74q80 30 151 30q77 0 112 -30t35 -96v-166q0 -35 35 -35q31 0 48.5 34.5t17.5 100.5q0 122 -65.5 190.5t-188.5 68.5q-124 0 -191.5 -70.5t-67.5 -199.5q0 -130 58.5 -199t177.5 -69q30 0 61.5 6t47.5 12zM456 319h-39q-70 0 -70 -44q0 -17 11 -27
t30 -10q34 0 68 34v47z" />
    <glyph glyph-name="A" unicode="A" horiz-adv-x="748" 
d="M743 85v-85h-318v85l75 27l-24 73h-222l-25 -72l78 -28v-85h-302v85l73 28l220 589l160 3l215 -592zM443 292l-75 237l-79 -237h154z" />
    <glyph glyph-name="B" unicode="B" horiz-adv-x="658" 
d="M265 705h105q101 0 160.5 -43.5t59.5 -129.5q0 -127 -120 -165q143 -41 143 -160q0 -207 -260 -207h-318v85l75 30v470l-75 30v85zM265 417h58q112 0 112 93q0 37 -23.5 56t-61.5 19h-85v-168zM265 120h83q52 0 79.5 22.5t27.5 64.5q0 54 -32 79.5t-100 25.5h-58v-192z
" />
    <glyph glyph-name="C" unicode="C" horiz-adv-x="667" 
d="M522 480l-23 96q-47 16 -112 16q-165 0 -165 -245q0 -230 170 -230q44 0 91.5 17.5t72.5 35.5l26 17l55 -90q-4 -4 -12 -11.5t-34.5 -26.5t-55.5 -33t-72.5 -26t-87.5 -12q-153 0 -236.5 90.5t-83.5 263.5q0 175 91 275t246 100q54 0 112 -11.5t90 -23.5l31 -12l-5 -190
h-98z" />
    <glyph glyph-name="D" unicode="D" horiz-adv-x="733" 
d="M115 115v470l-75 30v85l230 5h95q152 0 235 -88t83 -255q0 -168 -90 -265t-243 -97h-310v85zM270 120h83q78 0 120 54.5t42 182.5q0 122 -39 175t-116 53h-90v-465z" />
    <glyph glyph-name="E" unicode="E" horiz-adv-x="622" 
d="M477 420v-110h-202v-190h179l23 82h90v-202h-522v85l75 30v470l-75 30v85l230 5h280v-193h-90l-25 73h-165v-165h202z" />
    <glyph glyph-name="F" unicode="F" horiz-adv-x="580" 
d="M45 0v85l75 30v470l-75 30v85l230 5h280v-190h-93l-25 70h-162v-175h207v-110h-207v-185l92 -30v-85h-322z" />
    <glyph glyph-name="G" unicode="G" horiz-adv-x="750" 
d="M527 490l-25 86q-47 16 -113 16q-167 0 -167 -245q0 -232 170 -232q23 0 50.5 4.5t43.5 8.5l16 5v126l-75 23v82l288 5v-87l-68 -23v-204q-12 -8 -33.5 -19t-92.5 -29.5t-146 -18.5q-153 0 -236.5 90.5t-83.5 263.5q0 175 91 275t246 100q54 0 112 -11.5t90 -23.5l31 -12
l-5 -180h-93z" />
    <glyph glyph-name="H" unicode="H" horiz-adv-x="792" 
d="M35 0v85l75 30v470l-75 30v85l310 5v-90l-80 -30v-160h262v160l-80 30v85l310 5v-90l-75 -30v-470l75 -30v-85h-310v85l80 30v190h-262v-190l80 -30v-85h-310z" />
    <glyph glyph-name="I" unicode="I" horiz-adv-x="385" 
d="M40 0v85l75 30v470l-75 30v85l305 5v-90l-75 -30v-470l75 -30v-85h-305z" />
    <glyph glyph-name="J" unicode="J" horiz-adv-x="384" 
d="M274 585v-479q0 -137 -50.5 -201.5t-177.5 -64.5l-76 7l13 103h48q88 0 88 96v539l-75 30v85l305 5v-90z" />
    <glyph glyph-name="K" unicode="K" horiz-adv-x="720" 
d="M35 0v85l75 30v472l-75 30v83l305 5v-88l-75 -30v-172h68l167 285l185 5v-88l-95 -28l-131 -218l186 -256l75 -30v-85h-305v85l60 30l-137 190h-73v-190l75 -30v-85h-305z" />
    <glyph glyph-name="L" unicode="L" horiz-adv-x="540" 
d="M413 120l22 110h95v-230h-500v85l75 30v470l-75 30v85l305 5v-90l-75 -30v-465h153z" />
    <glyph glyph-name="M" unicode="M" horiz-adv-x="878" 
d="M35 0v85l75 30v470l-75 30v85l258 5l150 -333l157 328l240 5v-90l-72 -30v-470l75 -30v-85h-298v85l78 30v376l-27 -66l-113 -235l-108 -5l-115 237l-17 52v-359l77 -30v-85h-285z" />
    <glyph glyph-name="N" unicode="N" horiz-adv-x="787" 
d="M35 0v85l75 30v470l-75 30v85l240 5l270 -462v342l-73 30v85l285 5v-90l-75 -30v-585h-167l-268 453v-338l78 -30v-85h-290z" />
    <glyph glyph-name="O" unicode="O" horiz-adv-x="755" 
d="M385 717q150 0 232.5 -93.5t82.5 -261.5q0 -169 -92.5 -272t-242.5 -103t-230 92t-80 268q0 172 88.5 271t241.5 99zM380 592q-78 0 -116.5 -55.5t-38.5 -184.5q0 -124 35 -182t110 -58q78 0 119 57.5t41 187.5q0 122 -37 178.5t-113 56.5z" />
    <glyph glyph-name="P" unicode="P" horiz-adv-x="623" 
d="M35 0v85l75 30v470l-75 30v85l230 5h95q114 0 178.5 -56t64.5 -154q0 -124 -73.5 -187t-211.5 -63h-53v-130l75 -30v-85h-305zM265 362h53q63 0 96.5 29t33.5 84q0 50 -26.5 80t-76.5 30h-80v-223z" />
    <glyph glyph-name="Q" unicode="Q" horiz-adv-x="742" 
d="M542 -147l-202 136q-139 9 -212 100t-73 258q0 171 91 270.5t246 99.5q153 0 235.5 -93.5t82.5 -261.5q0 -129 -55 -221t-153 -130q8 -5 44.5 -29.5t53.5 -34.5t45.5 -21t49.5 -11q14 0 37 8.5t39 17.5l16 9q10 -15 29 -44t24 -36q-12 -8 -31 -19.5t-64.5 -31
t-74.5 -19.5q-50 0 -128 53zM387 592q-85 0 -126 -57.5t-41 -182.5q0 -240 157 -240q85 0 126.5 60t41.5 185q0 121 -38 178t-120 57z" />
    <glyph glyph-name="R" unicode="R" horiz-adv-x="675" 
d="M35 0v85l75 30v470l-75 30v85l230 5h76q125 0 192.5 -51.5t67.5 -152.5q0 -133 -113 -189q25 -29 42 -65l67 -137l68 -25v-85h-185l-84 185q-27 60 -42.5 76t-53.5 16h-35v-162l72 -30v-85h-302zM265 382h57q59 0 92 27.5t33 77.5q0 43 -27 70.5t-73 27.5h-82v-203z" />
    <glyph glyph-name="S" unicode="S" horiz-adv-x="605" 
d="M164 217l15 -84q40 -21 98 -21q51 0 86 21.5t35 59.5q0 27 -25 47t-62.5 31t-81.5 29.5t-81.5 40t-62.5 64t-25 100.5q0 101 70.5 156.5t183.5 55.5q50 0 105 -10t85 -20l30 -10l-5 -182h-92l-25 85q-45 15 -88 15q-51 0 -78.5 -20t-27.5 -51q0 -27 25 -47t62.5 -31.5
t81 -29.5t81 -39t62.5 -62t25 -96q0 -109 -75.5 -170.5t-194.5 -61.5q-50 0 -106 9.5t-87 19.5l-30 9v192h102z" />
    <glyph glyph-name="T" unicode="T" horiz-adv-x="600" 
d="M222 115v470h-95l-25 -95h-92v215h580v-215h-93l-25 95h-95v-470l95 -30v-85h-345v85z" />
    <glyph glyph-name="U" unicode="U" horiz-adv-x="789" 
d="M264 585v-315q0 -87 29 -123.5t102 -36.5q76 0 102.5 40.5t26.5 134.5v300l-78 30v85l308 5v-90l-75 -30v-300q0 -150 -66.5 -223.5t-222.5 -73.5q-149 0 -215 68t-66 214v315l-74 30v85l307 5v-90z" />
    <glyph glyph-name="V" unicode="V" horiz-adv-x="724" 
d="M5 615v85l310 5v-90l-74 -29l92 -287l32 -123l32 118l99 291l-76 30v85l299 5v-90l-73 -30l-211 -585h-160l-202 587z" />
    <glyph glyph-name="W" unicode="W" horiz-adv-x="1035" 
d="M5 615v85l297 5v-90l-73 -30l86 -360l140 472l135 8l134 -479l96 359l-75 30v85l285 5v-90l-72 -30l-171 -585h-142l-131 475l-24 -95l-115 -380h-138l-162 586z" />
    <glyph glyph-name="X" unicode="X" horiz-adv-x="740" 
d="M10 0v85l62 25l202 244l-186 242l-58 19v85l300 5v-90l-50 -17l103 -137l98 133l-54 21v85l288 5v-90l-66 -20l-184 -233l195 -253l70 -24v-85h-310v85l46 20l-110 148l-112 -144l63 -24v-85h-297z" />
    <glyph glyph-name="Y" unicode="Y" horiz-adv-x="667" 
d="M180 0v85l75 30v129l-183 344l-65 27v85l283 5v-90l-51 -21l100 -215l106 214l-55 22v85l270 5v-90l-69 -27l-181 -343v-130l75 -30v-85h-305z" />
    <glyph glyph-name="Z" unicode="Z" horiz-adv-x="615" 
d="M30 105l355 480h-210l-25 -90h-95v210h530v-113l-348 -472h228l22 100h95v-220h-552v105z" />
    <glyph glyph-name="bracketleft" unicode="[" horiz-adv-x="352" 
d="M67 -230v1000l250 -5v-103l-119 -11v-763l119 -11v-102z" />
    <glyph glyph-name="backslash" unicode="\" horiz-adv-x="506" 
d="M341 0l-334 705h153l333 -705h-152z" />
    <glyph glyph-name="bracketright" unicode="]" horiz-adv-x="352" 
d="M152 -111v762l-120 11v103l250 5v-1000l-250 5v103z" />
    <glyph glyph-name="asciicircum" unicode="^" horiz-adv-x="595" 
d="M50 320l192 385h110l193 -385h-129l-121 245l-120 -245h-125z" />
    <glyph glyph-name="underscore" unicode="_" horiz-adv-x="496" 
d="M498 -80v-100h-500v100h500z" />
    <glyph glyph-name="grave" unicode="`" horiz-adv-x="320" 
d="M92 849l223 -178l-49 -73l-242 147z" />
    <glyph glyph-name="a" unicode="a" 
d="M376 0l-18 65q-9 -8 -24 -20.5t-57.5 -33.5t-80.5 -21q-73 0 -114.5 41t-41.5 116q0 165 241 165h70v55q0 73 -77 73q-23 0 -45 -4t-33 -8l-10 -3l-15 -63h-90l-7 148q121 40 217 40q114 0 162 -45t48 -153v-247l75 -18v-80zM351 227h-57q-58 0 -83.5 -15.5t-25.5 -49.5
q0 -60 59 -60q24 0 50.5 14.5t41.5 29.5l15 14v67z" />
    <glyph glyph-name="b" unicode="b" horiz-adv-x="618" 
d="M230 775v-278q69 53 143 53q100 0 152.5 -69t52.5 -196q0 -143 -74 -220t-216 -77q-49 0 -101 5.5t-79 10.5l-28 6v657l-75 20v80zM230 385v-269q23 -8 74 -8q119 0 119 167q0 155 -98 155q-27 0 -50.5 -11t-34.5 -23z" />
    <glyph glyph-name="c" unicode="c" horiz-adv-x="525" 
d="M460 163l50 -88q-97 -85 -215 -85q-123 0 -191.5 72t-68.5 200q0 134 72.5 211t202.5 77q38 0 82 -8.5t68 -17.5l25 -9l-5 -164h-90l-14 71q-29 8 -69 8q-55 0 -86 -37.5t-31 -110.5q0 -83 31.5 -127.5t93.5 -44.5q20 0 38 3.5t35 10.5t26.5 12t26 15t19.5 12z" />
    <glyph glyph-name="d" unicode="d" horiz-adv-x="638" 
d="M405 0l-9 53q-63 -63 -151 -63q-103 0 -154 70t-51 197q0 143 68.5 218t204.5 75q31 0 75 -10v127l-80 20v80l230 8v-668l80 -20v-80zM388 167v248q-32 15 -78 15q-115 0 -115 -165q0 -155 96 -155q28 0 52.5 14t34.5 28z" />
    <glyph glyph-name="e" unicode="e" horiz-adv-x="564" 
d="M523 237h-332q4 -60 36.5 -93.5t84.5 -33.5q37 0 79 12t65 24l24 11l43 -83q-11 -9 -31 -23t-80 -37.5t-117 -23.5q-127 0 -193.5 70.5t-66.5 199.5q0 133 71 211.5t196 78.5q110 0 168.5 -63t58.5 -172q0 -17 -1.5 -35.5t-3.5 -30.5zM193 330h181q0 45 -20 72.5
t-62 27.5q-41 0 -67 -27.5t-32 -72.5z" />
    <glyph glyph-name="f" unicode="f" horiz-adv-x="462" 
d="M130 530v45q0 98 55.5 155t159.5 57q48 0 92.5 -9.5t64.5 -18.5l20 -9l-3 -147h-90l-15 70q-24 4 -57 4q-77 0 -77 -85v-62h130l-3 -100h-127v-325l100 -25v-80h-330v80l80 25v325h-90v85z" />
    <glyph glyph-name="g" unicode="g" horiz-adv-x="610" 
d="M230 90h148q96 0 148 -40t52 -115q0 -86 -70.5 -138t-209.5 -52q-126 0 -192 33t-66 112q0 38 26 68t52 41l27 11q-7 1 -17 4t-26.5 20t-16.5 42q0 31 52 113q-77 51 -77 156q0 99 66.5 152t173.5 53q67 0 118 -24l172 4v-80l-82 -14q0 -1 5 -13.5t8.5 -29.5t3.5 -36
q0 -104 -65 -154.5t-175 -50.5q-12 0 -23.5 1t-19 2.5t-8.5 1.5zM295 447q-85 0 -85 -95q0 -100 80 -100q46 0 65.5 24t19.5 76q0 95 -80 95zM338 -20h-105q-5 -2 -13 -7t-21.5 -22t-13.5 -36q0 -36 29.5 -48t95.5 -12q68 0 98 16t30 52q0 32 -23.5 44.5t-76.5 12.5z" />
    <glyph glyph-name="h" unicode="h" horiz-adv-x="670" 
d="M250 775v-293q82 68 168 68q76 0 116.5 -47.5t40.5 -132.5v-265l70 -25v-80h-272v80l52 24v242q0 80 -66 80q-25 0 -52 -13t-42 -27l-15 -13v-268l53 -25v-80h-283v80l80 25v562l-80 20v80z" />
    <glyph glyph-name="i" unicode="i" horiz-adv-x="365" 
d="M97 705q0 41 25.5 65.5t60.5 24.5q84 0 84 -90q0 -42 -25.5 -66.5t-58.5 -24.5q-41 0 -63.5 23.5t-22.5 67.5zM265 105l70 -25v-80h-300v80l80 25v325l-80 25v80l230 5v-435z" />
    <glyph glyph-name="j" unicode="j" horiz-adv-x="337" 
d="M97 705q0 40 24.5 65t61.5 25q84 0 84 -90q0 -40 -24.5 -65.5t-59.5 -25.5q-41 0 -63.5 23.5t-22.5 67.5zM265 540v-527q0 -135 -48.5 -196.5t-171.5 -61.5l-76 7l12 98h52q44 0 63 24.5t19 74.5v471l-80 25v80z" />
    <glyph glyph-name="k" unicode="k" horiz-adv-x="633" 
d="M250 339h66l68 102l-44 14v80l258 5v-85l-70 -13l-93 -131l112 -207l76 -24v-80h-185l-124 244h-64v-139l55 -25v-80h-285v80l80 25v562l-80 20v80l230 8v-436z" />
    <glyph glyph-name="l" unicode="l" horiz-adv-x="346" 
d="M251 105l90 -25v-80h-321v80l80 25v562l-80 20v80l231 8v-670z" />
    <glyph glyph-name="m" unicode="m" horiz-adv-x="993" 
d="M968 80v-80h-271v80l53 25v238q0 42 -13.5 62t-44.5 20q-29 0 -56.5 -13t-41.5 -26l-13 -13v-268l52 -25v-80h-254v80l52 25v238q0 43 -13 62.5t-44 19.5q-29 0 -57 -13t-41 -26l-14 -13v-268l53 -25v-80h-280v80l77 25v325l-76 25v80l209 5l7 -71q10 9 27 22.5t63 36
t85 22.5q101 0 138 -86q15 15 35 31t63 35.5t83 19.5q77 0 115.5 -47t38.5 -133v-265z" />
    <glyph glyph-name="n" unicode="n" horiz-adv-x="685" 
d="M247 540l7 -69q11 9 29 21.5t66.5 34t88.5 21.5q72 0 112 -47.5t40 -130.5v-265l70 -25v-80h-275v80l55 25v238q0 35 -18.5 57.5t-49.5 22.5q-28 0 -54.5 -14.5t-39.5 -28.5l-13 -14v-261l55 -25v-80h-285v80l80 25v325l-80 25v80z" />
    <glyph glyph-name="o" unicode="o" horiz-adv-x="592" 
d="M305 550q121 0 186.5 -70.5t65.5 -199.5q0 -134 -72.5 -212t-194.5 -78q-255 0 -255 275q0 134 73 209.5t197 75.5zM300 430q-57 0 -83.5 -36.5t-26.5 -123.5q0 -83 25 -121.5t80 -38.5t81 38.5t26 126.5q0 155 -102 155z" />
    <glyph glyph-name="p" unicode="p" horiz-adv-x="638" 
d="M20 535l213 5l9 -56q8 7 21.5 18t52 29.5t74.5 18.5q102 0 155 -70.5t53 -194.5q0 -141 -67 -218t-196 -77q-42 0 -85 10v-127l95 -23v-80h-323v80l78 23v557l-80 25v80zM250 375v-255q34 -15 78 -15q62 0 88.5 41t26.5 121q0 163 -100 163q-29 0 -52 -14t-32 -28z" />
    <glyph glyph-name="q" unicode="q" horiz-adv-x="598" 
d="M608 -230h-320v80l95 25v169q-7 -6 -20.5 -15t-51 -24t-71.5 -15q-102 0 -153.5 70.5t-51.5 194.5q0 139 74 217t216 78q49 0 101 -6t80 -12l27 -6v-651l75 -25v-80zM383 155v272q-28 8 -78 8q-115 0 -115 -170q0 -155 99 -155q28 0 51.5 11t33.5 23z" />
    <glyph glyph-name="r" unicode="r" horiz-adv-x="491" 
d="M245 540l9 -69q8 9 22 22t50.5 35t66.5 22q24 0 47.5 -4.5t34.5 -9.5l11 -4l-8 -192h-90l-15 85q-26 0 -53 -14t-41 -28l-14 -14v-264l100 -25v-80h-330v80l80 25v325l-80 25v80z" />
    <glyph glyph-name="s" unicode="s" horiz-adv-x="487" 
d="M128 175l8 -65q35 -10 84 -10q82 0 82 49q0 22 -27.5 37.5t-67 28t-78.5 29.5t-66.5 51.5t-27.5 83.5q0 88 59 129.5t147 41.5q40 0 86.5 -7.5t72.5 -14.5l27 -8l-4 -150h-85l-15 60q-29 10 -69 10q-69 0 -69 -51q0 -22 27.5 -36.5t66.5 -26t78.5 -27t67 -48.5t27.5 -81
q0 -85 -62.5 -132.5t-167.5 -47.5q-42 0 -88 5.5t-71 10.5l-25 6v163h90z" />
    <glyph glyph-name="t" unicode="t" horiz-adv-x="436" 
d="M390 128l36 -76q-84 -62 -170 -62q-81 0 -114.5 50.5t-33.5 144.5v230h-93v97l93 13v138l150 27v-165h140v-110h-140v-220q0 -50 11 -70t42 -20q36 0 79 23z" />
    <glyph glyph-name="u" unicode="u" horiz-adv-x="669" 
d="M15 455v80l230 5v-345q0 -42 14 -61t47 -19q29 0 57 13.5t42 27.5l14 13v261l-80 25v80l230 5v-435l80 -20v-78l-211 -7l-10 70q-9 -9 -25 -22.5t-62 -35.5t-88 -22q-75 0 -116.5 47.5t-41.5 131.5v261z" />
    <glyph glyph-name="v" unicode="v" horiz-adv-x="599" 
d="M332 455v80l262 5v-85l-57 -13l-161 -442h-165l-158 439l-48 16v80l262 5v-85l-56 -10l91 -295l88 292z" />
    <glyph glyph-name="w" unicode="w" horiz-adv-x="876" 
d="M676 440l-61 15v80l256 5v-85l-53 -12l-133 -443h-153l-79 255l-18 78l-25 -109l-73 -224h-152l-136 441l-44 14v80l262 5v-85l-63 -12l66 -281l106 361l132 22l109 -383z" />
    <glyph glyph-name="x" unicode="x" horiz-adv-x="582" 
d="M567 455l-62 -13l-115 -172l113 -170l74 -20v-80h-272v80l31 11l-53 88l-108 -179h-170v80l75 20l110 165l-121 177l-54 13v80l259 5v-85l-30 -6l52 -88l104 174l167 5v-85z" />
    <glyph glyph-name="y" unicode="y" 
d="M5 455v80l267 5v-85l-56 -10l89 -280l85 277l-58 13v80l269 5v-85l-62 -13l-147 -410q-22 -59 -41.5 -99.5t-51.5 -84t-77 -66t-102 -22.5l-97 8l14 107h65q28 0 51.5 12.5t40 36t24.5 38.5t18 37l-178 440z" />
    <glyph glyph-name="z" unicode="z" horiz-adv-x="505" 
d="M472 447l-250 -337h146l17 85h90v-195h-435v92l254 338h-137l-15 -73h-90v183h420v-93z" />
    <glyph glyph-name="braceleft" unicode="{" horiz-adv-x="404" 
d="M253 570v-105q0 -69 -20.5 -110t-71.5 -60q92 -36 92 -142v-173q0 -60 25 -81t96 -21v-103h-67q-100 0 -141 49t-41 163v154q0 50 -21 77t-74 27v100q53 0 74 27t21 77v141q0 97 45 141t137 44h67v-103q-71 0 -96 -21t-25 -81z" />
    <glyph glyph-name="bar" unicode="|" horiz-adv-x="278" 
d="M80 755h118v-985h-118v985z" />
    <glyph glyph-name="braceright" unicode="}" horiz-adv-x="409" 
d="M160 436v134q0 60 -24.5 81t-95.5 21v103h67q93 0 137.5 -44.5t44.5 -140.5v-141q0 -50 21 -77t74 -27v-100q-53 0 -74 -27t-21 -77v-154q0 -114 -42 -163t-141 -49h-66v103q71 0 95.5 21t24.5 81v173q0 106 93 142q-93 36 -93 141z" />
    <glyph glyph-name="asciitilde" unicode="~" horiz-adv-x="626" 
d="M105 209l-62 51q2 5 6.5 13t19.5 28t32 35.5t45 28.5t58 13q44 0 108.5 -33.5t98.5 -33.5q24 0 48 13.5t36 27.5l12 14l66 -50q-2 -5 -6.5 -13t-20 -28.5t-32.5 -36.5t-44 -29t-55 -13q-43 0 -112.5 33.5t-104.5 33.5q-24 0 -47 -13.5t-35 -27.5z" />
    <glyph glyph-name="nbspace" unicode="&#xa0;" horiz-adv-x="235" 
 />
    <glyph glyph-name="exclamdown" unicode="&#xa1;" horiz-adv-x="337" 
d="M252 466q0 -41 -25.5 -65.5t-60.5 -24.5q-41 0 -62.5 23.5t-21.5 66.5q0 42 25.5 66.5t61.5 24.5q83 0 83 -91zM230 288l19 -509h-157l18 504z" />
    <glyph glyph-name="cent" unicode="&#xa2;" horiz-adv-x="510" 
d="M223 0v110q-89 16 -137 80t-48 163q0 102 47.5 169t137.5 86v97h108v-91q32 -3 65.5 -11.5t51.5 -15.5l17 -7l-5 -152h-85l-14 69q-29 8 -64 8q-112 0 -112 -133q0 -157 119 -157q15 0 30 2.5t25.5 5.5t24 9t19.5 9.5t18.5 11t14.5 8.5l49 -78q-70 -62 -154 -75v-108
h-108z" />
    <glyph glyph-name="sterling" unicode="&#xa3;" horiz-adv-x="625" 
d="M60 85l50 20q29 12 38 33t9 69q0 10 -5 113h-92v93l85 14q-3 42 -3 83q0 98 52 152.5t161 54.5q57 0 110 -8.5t77 -17.5l25 -9v-162h-90l-20 74q-37 6 -85 6q-82 0 -82 -88q0 -42 2 -82h144v-110h-136q5 -58 5 -98q0 -30 -7.5 -54.5t-16 -36t-13.5 -11.5h186l23 100h93
v-220h-510v85z" />
    <glyph glyph-name="currency" unicode="&#xa4;" horiz-adv-x="624" 
d="M51 117l76 75q-22 47 -22 104q0 58 26 104l-79 80l74 80l80 -80q53 30 111 30q56 0 104 -25l77 76l74 -80l-74 -74q25 -47 25 -105q0 -61 -28 -111l78 -77l-75 -79l-79 78q-48 -28 -107 -28q-66 0 -111 27l-75 -75zM227 298q0 -109 87 -109q88 0 88 109q0 105 -88 105
q-87 0 -87 -105z" />
    <glyph glyph-name="yen" unicode="&#xa5;" horiz-adv-x="672" 
d="M178 403l-102 184l-66 28v85l282 5v-90l-51 -21l101 -209l106 208l-56 22v85l270 5v-90l-70 -27l-103 -185h95v-90h-500v90h94zM257 110v53h-173v90h500v-90h-172v-53l75 -25v-85h-305v85z" />
    <glyph glyph-name="brokenbar" unicode="&#xa6;" horiz-adv-x="297" 
d="M87 765h118v-400h-118v400zM87 145h118v-410h-118v410z" />
    <glyph glyph-name="section" unicode="&#xa7;" horiz-adv-x="534" 
d="M172 52l14 -88q21 -6 51 -6q36 0 56.5 18t20.5 49q0 32 -26 60t-63 52t-74 51t-63 68.5t-26 92.5q0 97 70 148q-30 48 -30 107q0 81 56.5 132t144.5 51q39 0 78 -7.5t58 -15.5l19 -8l-4 -165h-79l-17 86q-25 6 -47 6q-37 0 -57.5 -19t-20.5 -49q0 -33 26 -62t63 -53
t73.5 -51.5t62.5 -68.5t26 -92q0 -95 -70 -146q30 -47 30 -102q0 -85 -56 -136.5t-145 -51.5q-37 0 -76 7t-59 15l-20 7l2 171h82zM188 366q0 -28 19.5 -50t68.5 -54.5t65 -45.5q18 22 18 56q0 28 -19.5 50t-69 54.5t-65.5 44.5q-17 -23 -17 -55z" />
    <glyph glyph-name="dieresis" unicode="&#xa8;" horiz-adv-x="544" 
d="M90 712q0 35 21.5 56.5t52.5 21.5q35 0 53.5 -20.5t18.5 -57.5q0 -36 -21.5 -57t-52.5 -21q-72 0 -72 78zM308 712q0 35 22 56.5t52 21.5q72 0 72 -78q0 -36 -21.5 -57t-52.5 -21q-72 0 -72 78z" />
    <glyph glyph-name="copyright" unicode="&#xa9;" horiz-adv-x="823" 
d="M37 345q0 161 106.5 267.5t267.5 106.5q162 0 268 -102t106 -262t-111 -267t-273 -107q-161 0 -262.5 101t-101.5 263zM139 350q0 -123 73 -199t194 -76q122 0 199.5 76.5t77.5 198.5q0 121 -77.5 198t-199.5 77q-121 0 -194 -76.5t-73 -198.5zM523 273l37 -57
q-77 -64 -152 -64q-85 0 -134.5 49.5t-49.5 140.5q0 97 51.5 154t143.5 57q28 0 60 -7.5t51 -15.5l18 -7l-3 -112h-69l-11 55q-25 6 -48 6q-83 0 -83 -117q0 -120 87 -120q28 0 57 12.5t45 25.5z" />
    <glyph glyph-name="ordfeminine" unicode="&#xaa;" horiz-adv-x="488" 
d="M289 322l-14 50q-6 -6 -16 -15.5t-40.5 -25.5t-60.5 -16q-54 0 -83.5 30t-29.5 86q0 118 171 118h46v36q0 22 -13.5 34t-36.5 12q-15 0 -30.5 -2.5t-23.5 -4.5l-8 -2l-9 -43h-71l-6 109q95 29 163 29q82 0 115 -33.5t33 -109.5v-168l53 -12v-66zM262 484h-39
q-70 0 -70 -45q0 -16 11 -26t29 -10q16 0 33.5 8.5t26.5 16.5l9 9v47zM428 235v-100h-373v100h373z" />
    <glyph glyph-name="guillemotleft" unicode="&#xab;" horiz-adv-x="599" 
d="M207 49l-152 177v77l152 177l83 -55l-109 -160l109 -160zM461 49l-156 177v77l156 177l83 -55l-113 -160l113 -160z" />
    <glyph glyph-name="logicalnot" unicode="&#xac;" horiz-adv-x="642" 
d="M587 375v-295h-127v180h-400v115h527z" />
    <glyph glyph-name="softhyphen" unicode="&#xad;" horiz-adv-x="395" 
d="M340 335v-125h-285v125h285z" />
    <glyph glyph-name="registered" unicode="&#xae;" horiz-adv-x="723" 
d="M45 449q0 137 90.5 227t226.5 90t226 -85.5t90 -220.5q0 -136 -94.5 -226.5t-232.5 -90.5q-135 0 -220.5 85t-85.5 221zM143 455q0 -101 57.5 -162.5t156.5 -61.5q100 0 162 62t62 162t-62 161.5t-162 61.5q-99 0 -156.5 -61t-57.5 -162zM222 302v45l34 12v198l-34 14v42
l143 2q56 1 89.5 -22.5t33.5 -68.5q0 -58 -53 -84q8 -5 17 -22l31 -59l33 -12v-45h-90l-41 91q-8 18 -14 24t-15 6h-23v-64l33 -12v-45h-144zM333 476h26q21 0 36 11t15 29q0 40 -44 40h-33v-80z" />
    <glyph glyph-name="macron" unicode="&#xaf;" horiz-adv-x="310" 
d="M305 747v-105h-300v105h300z" />
    <glyph glyph-name="degree" unicode="&#xb0;" horiz-adv-x="426" 
d="M45 580q0 72 47 116.5t121 44.5t121 -42.5t47 -113.5q0 -76 -47 -121t-121 -45q-75 0 -121.5 43t-46.5 118zM145 584q0 -36 17.5 -56t50.5 -20t50.5 20t17.5 56q0 32 -18.5 50t-49.5 18t-49.5 -18t-18.5 -50z" />
    <glyph glyph-name="plusminus" unicode="&#xb1;" horiz-adv-x="622" 
d="M245 405v147h133v-147h192v-117h-192v-151h-133v151h-193v117h193zM570 78v-114h-518v114h518z" />
    <glyph glyph-name="twosuperior" unicode="&#xb2;" horiz-adv-x="404" 
d="M33 280v100q127 97 154 125q38 40 38 74q0 39 -51 39q-11 0 -21.5 -2t-16.5 -4l-5 -1l-7 -53h-85l-3 132q77 25 148 25q82 0 129.5 -29.5t47.5 -90.5q0 -57 -34 -99t-123 -111h161v-105h-332z" />
    <glyph glyph-name="threesuperior" unicode="&#xb3;" horiz-adv-x="395" 
d="M32 574l-3 118q86 23 155 23q81 0 124.5 -28.5t43.5 -82.5q0 -39 -22 -64.5t-59 -35.5q38 -7 64.5 -33.5t26.5 -63.5q0 -68 -53.5 -101.5t-136.5 -33.5q-35 0 -73.5 9.5t-60.5 18.5l-21 10l27 84q62 -27 119 -27q31 0 49.5 14.5t18.5 32.5q0 45 -73 45h-54v75h55
q68 0 68 48q0 40 -55 40l-53 -6l-5 -42h-82z" />
    <glyph glyph-name="acute" unicode="&#xb4;" horiz-adv-x="291" 
d="M291 747l-68 104l-223 -178l49 -73z" />
    <glyph glyph-name="micro" unicode="&#xb5;" horiz-adv-x="659" 
d="M91 432l-74 20v80l221 8v-349q0 -74 58 -74q29 0 58.5 13.5t45.5 27.5l15 14v260l-74 20v80l221 8v-435l76 -20v-78l-203 -7l-10 71q-9 -9 -24.5 -22.5t-55.5 -36t-70 -22.5q-21 0 -37 6v-231h-147v667z" />
    <glyph glyph-name="paragraph" unicode="&#xb6;" horiz-adv-x="721" 
d="M236 -65v338q-80 8 -133 69.5t-53 148.5q0 93 60.5 153.5t164.5 60.5h185l206 -8v-80l-80 -20v-767h-126v767h-105v-767h-201v83z" />
    <glyph glyph-name="periodcentered" unicode="&#xb7;" horiz-adv-x="299" 
d="M61 306q0 44 25 69t65 25q86 0 86 -94q0 -44 -24.5 -68.5t-64.5 -24.5q-87 0 -87 93z" />
    <glyph glyph-name="cedilla" unicode="&#xb8;" horiz-adv-x="431" 
d="M95 -201l31 55q40 -21 78 -21q23 0 36.5 10.5t13.5 27.5q0 43 -82 43v86h85v-43q40 -8 63 -31t23 -58q0 -45 -35 -73t-91 -28q-30 0 -60.5 8t-46.5 16z" />
    <glyph glyph-name="onesuperior" unicode="&#xb9;" horiz-adv-x="393" 
d="M59 280v89h96v209l-91 -55l-49 83l158 99h109v-336h91v-89h-314z" />
    <glyph glyph-name="ordmasculine" unicode="&#xba;" horiz-adv-x="504" 
d="M249 717q89 0 139.5 -50.5t50.5 -142.5t-56.5 -150.5t-145.5 -58.5q-90 0 -141 49.5t-51 145.5q0 94 57.5 150.5t146.5 56.5zM244 625q-74 0 -74 -111q0 -107 72 -107t72 113q0 105 -70 105zM431 235v-100h-378v100h378z" />
    <glyph glyph-name="guillemotright" unicode="&#xbb;" horiz-adv-x="599" 
d="M55 425l83 55l156 -177v-77l-156 -177l-83 56l113 160zM309 425l83 55l152 -177v-77l-152 -177l-83 56l109 160z" />
    <glyph glyph-name="onequarter" unicode="&#xbc;" horiz-adv-x="1072" 
d="M959 170h58v-93h-58v-77h-127v77h-200l-14 84l197 269l144 -17v-243zM808 705l-408 -705h-145l408 705h145zM832 170v127l-95 -127h95zM89 280v89h96v209l-91 -55l-49 83l158 99h109v-336h80v-89h-303z" />
    <glyph glyph-name="onehalf" unicode="&#xbd;" horiz-adv-x="1075" 
d="M89 280v89h96v209l-91 -55l-49 83l158 99h109v-336h80v-89h-303zM809 705l-408 -705h-145l408 705h145zM683 0v100q126 97 150 122q42 42 42 78q0 38 -52 38q-11 0 -21.5 -2t-15.5 -4l-6 -1l-6 -53h-85l-3 132q76 25 147 25q83 0 130.5 -29.5t47.5 -90.5q0 -57 -34 -99
t-123 -111h161v-105h-332z" />
    <glyph glyph-name="threequarters" unicode="&#xbe;" horiz-adv-x="1054" 
d="M797 430l144 -17v-243h58v-93h-58v-77h-127v77h-199l-14 84zM791 705l-408 -705h-145l408 705h145zM814 170v132l-97 -132h97zM55 566l-4 117q87 23 156 23q81 0 124 -28.5t43 -81.5q0 -79 -81 -101q37 -6 64.5 -33t27.5 -64q0 -67 -53.5 -100.5t-136.5 -33.5
q-35 0 -74 9t-60 19l-21 9l27 84q61 -26 118 -26q26 0 47.5 12.5t21.5 34.5q0 45 -74 45h-53v74h55q67 0 67 50q0 39 -54 39q-13 0 -26.5 -2t-20.5 -4l-7 -1l-5 -41h-81z" />
    <glyph glyph-name="questiondown" unicode="&#xbf;" horiz-adv-x="461" 
d="M370 466q0 -41 -25.5 -65.5t-60.5 -24.5q-41 0 -62.5 23.5t-21.5 66.5q0 42 25 66.5t61 24.5q41 0 62.5 -23.5t21.5 -67.5zM228 291l132 6q9 -65 9 -98q0 -32 -26.5 -65.5t-57.5 -57t-57.5 -55.5t-26.5 -63q0 -66 90 -66q19 0 41 3t35 5l13 3l19 -104q-84 -24 -149 -24
q-54 0 -97 13.5t-73 49.5t-30 92q0 43 18.5 81t45 66t53 53t45 51.5t18.5 51.5z" />
    <glyph glyph-name="Agrave" unicode="&#xc0;" horiz-adv-x="748" 
d="M303 956l215 -141l-46 -80l-227 112zM743 85v-85h-318v85l75 27l-24 73h-222l-25 -72l78 -28v-85h-302v85l73 28l220 589l160 3l215 -592zM443 292l-75 237l-79 -237h154z" />
    <glyph glyph-name="Aacute" unicode="&#xc1;" horiz-adv-x="748" 
d="M352 735l-46 80l215 141l58 -109zM743 85v-85h-318v85l75 27l-24 73h-222l-25 -72l78 -28v-85h-302v85l73 28l220 589l160 3l215 -592zM443 292l-75 237l-79 -237h154z" />
    <glyph glyph-name="Acircumflex" unicode="&#xc2;" horiz-adv-x="758" 
d="M180 808l153 131l89 8l162 -139l-48 -66l-151 98l-157 -98zM743 85v-85h-318v85l75 27l-24 73h-222l-25 -72l78 -28v-85h-302v85l73 28l220 589l160 3l215 -592zM443 292l-75 237l-79 -237h154z" />
    <glyph glyph-name="Atilde" unicode="&#xc3;" horiz-adv-x="758" 
d="M228 777l-48 39q2 4 5 11.5t15 26.5t25 33.5t35 26.5t45 12q36 0 90.5 -23t83.5 -23q17 0 34.5 10.5t26.5 21.5l8 10l55 -42q-2 -4 -6 -11t-17.5 -25t-28 -32t-37.5 -25t-46 -11q-36 0 -87.5 19.5t-80.5 19.5q-19 0 -37 -9.5t-27 -19.5zM743 85v-85h-318v85l75 27l-24 73
h-222l-25 -72l78 -28v-85h-302v85l73 28l220 589l160 3l215 -592zM443 292l-75 237l-79 -237h154z" />
    <glyph glyph-name="Adieresis" unicode="&#xc4;" horiz-adv-x="748" 
d="M743 85v-85h-318v85l75 27l-24 73h-222l-25 -72l78 -28v-85h-302v85l73 28l220 589l160 3l215 -592zM443 292l-75 237l-79 -237h154zM226 847q0 35 21.5 56.5t52.5 21.5q35 0 53.5 -20.5t18.5 -57.5q0 -36 -21.5 -57t-52.5 -21q-72 0 -72 78zM444 847q0 35 22 56.5
t52 21.5q72 0 72 -78q0 -36 -21.5 -57t-52.5 -21q-72 0 -72 78z" />
    <glyph glyph-name="Aring" unicode="&#xc5;" horiz-adv-x="748" 
d="M743 85v-85h-318v85l75 27l-24 73h-222l-25 -72l78 -28v-85h-302v85l73 28l220 589h1q-49 35 -49 100q0 60 40.5 96.5t93.5 36.5t93 -34t40 -93q0 -71 -57 -109l213 -586zM384 863q-22 0 -35.5 -15t-13.5 -43q0 -57 49 -57q21 0 34.5 15t13.5 43q0 57 -48 57zM443 292
l-75 237l-79 -237h154z" />
    <glyph glyph-name="AE" unicode="&#xc6;" horiz-adv-x="971" 
d="M831 420v-110h-202v-190h177l23 82h92v-202h-521v85l74 30v77h-193l-39 -81l61 -26v-85h-298v85l84 30l229 470l-85 30v85l191 5h485v-195h-93l-25 75h-162v-165h202zM460 585l-132 -285h146v285h-14z" />
    <glyph glyph-name="Ccedilla" unicode="&#xc7;" horiz-adv-x="667" 
d="M582 187l55 -90q-3 -3 -9.5 -9t-27.5 -22t-43.5 -29t-57.5 -26t-71 -19v-36q85 -17 85 -90q0 -44 -36 -72t-90 -28q-30 0 -61.5 8.5t-47.5 17.5l-16 8l32 56q42 -23 82 -23q21 0 33.5 10t12.5 27q0 43 -82 43v77q-137 9 -211 99t-74 253q0 175 91 275t246 100
q54 0 112 -11.5t90 -23.5l31 -12l-5 -190h-98l-23 96q-47 16 -112 16q-165 0 -165 -245q0 -230 170 -230q44 0 91.5 17.5t72.5 35.5z" />
    <glyph glyph-name="Egrave" unicode="&#xc8;" horiz-adv-x="622" 
d="M217 956l215 -141l-46 -80l-227 112zM477 420v-110h-202v-190h179l23 82h90v-202h-522v85l75 30v470l-75 30v85l230 5h280v-193h-90l-25 73h-165v-165h202z" />
    <glyph glyph-name="Eacute" unicode="&#xc9;" horiz-adv-x="622" 
d="M266 735l-46 80l215 141l58 -109zM477 420v-110h-202v-190h179l23 82h90v-202h-522v85l75 30v470l-75 30v85l230 5h280v-193h-90l-25 73h-165v-165h202z" />
    <glyph glyph-name="Ecircumflex" unicode="&#xca;" horiz-adv-x="622" 
d="M127 808l153 131l89 8l162 -139l-48 -66l-151 98l-157 -98zM477 420v-110h-202v-190h179l23 82h90v-202h-522v85l75 30v470l-75 30v85l230 5h280v-193h-90l-25 73h-165v-165h202z" />
    <glyph glyph-name="Edieresis" unicode="&#xcb;" horiz-adv-x="622" 
d="M140 848q0 35 21.5 56.5t52.5 21.5q35 0 53.5 -20.5t18.5 -57.5q0 -36 -21.5 -57t-52.5 -21q-72 0 -72 78zM358 848q0 35 22 56.5t52 21.5q72 0 72 -78q0 -36 -21.5 -57t-52.5 -21q-72 0 -72 78zM477 420v-110h-202v-190h179l23 82h90v-202h-522v85l75 30v470l-75 30v85
l230 5h280v-193h-90l-25 73h-165v-165h202z" />
    <glyph glyph-name="Igrave" unicode="&#xcc;" horiz-adv-x="385" 
d="M77 956l215 -141l-46 -80l-227 112zM40 0v85l75 30v470l-75 30v85l305 5v-90l-75 -30v-470l75 -30v-85h-305z" />
    <glyph glyph-name="Iacute" unicode="&#xcd;" horiz-adv-x="385" 
d="M133 735l-46 80l215 141l58 -109zM40 0v85l75 30v470l-75 30v85l305 5v-90l-75 -30v-470l75 -30v-85h-305z" />
    <glyph glyph-name="Icircumflex" unicode="&#xce;" horiz-adv-x="385" 
d="M-15 808l153 131l89 8l162 -139l-48 -66l-151 98l-157 -98zM40 0v85l75 30v470l-75 30v85l305 5v-90l-75 -30v-470l75 -30v-85h-305z" />
    <glyph glyph-name="Idieresis" unicode="&#xcf;" horiz-adv-x="404" 
d="M26 847q0 35 21.5 56.5t52.5 21.5q35 0 53.5 -20.5t18.5 -57.5q0 -36 -21.5 -57t-52.5 -21q-72 0 -72 78zM234 847q0 35 22 56.5t52 21.5q72 0 72 -78q0 -36 -21.5 -57t-52.5 -21q-72 0 -72 78zM54 0v85l75 30v470l-75 30v85l305 5v-90l-75 -30v-470l75 -30v-85h-305z
" />
    <glyph glyph-name="Eth" unicode="&#xd0;" horiz-adv-x="741" 
d="M115 422v163l-75 30v85l230 5h99q151 0 234 -88t83 -255q0 -168 -90 -265t-242 -97h-314v85l75 30v197h-68v110h68zM390 422v-110h-121v-192h87q79 0 121 54.5t42 182.5q0 121 -39.5 174.5t-115.5 53.5h-95v-163h121z" />
    <glyph glyph-name="Ntilde" unicode="&#xd1;" horiz-adv-x="785" 
d="M230 777l-48 39q2 4 5 11.5t15 26.5t25 33.5t35 26.5t45 12q36 0 90.5 -23t83.5 -23q17 0 34.5 10.5t26.5 21.5l8 10l55 -42q-2 -4 -6 -11t-17.5 -25t-28 -32t-37.5 -25t-46 -11q-36 0 -87.5 19.5t-80.5 19.5q-19 0 -37 -9.5t-27 -19.5zM35 0v85l75 30v470l-75 30v85
l240 5l270 -462v342l-73 30v85l285 5v-90l-75 -30v-585h-167l-268 453v-338l78 -30v-85h-290z" />
    <glyph glyph-name="Ograve" unicode="&#xd2;" horiz-adv-x="755" 
d="M267 956l215 -141l-46 -80l-227 112zM385 717q150 0 232.5 -93.5t82.5 -261.5q0 -169 -92.5 -272t-242.5 -103t-230 92t-80 268q0 172 88.5 271t241.5 99zM380 592q-78 0 -116.5 -55.5t-38.5 -184.5q0 -124 35 -182t110 -58q78 0 119 57.5t41 187.5q0 122 -37 178.5
t-113 56.5z" />
    <glyph glyph-name="Oacute" unicode="&#xd3;" horiz-adv-x="755" 
d="M311 735l-46 80l215 141l58 -109zM385 717q150 0 232.5 -93.5t82.5 -261.5q0 -169 -92.5 -272t-242.5 -103t-230 92t-80 268q0 172 88.5 271t241.5 99zM380 592q-78 0 -116.5 -55.5t-38.5 -184.5q0 -124 35 -182t110 -58q78 0 119 57.5t41 187.5q0 122 -37 178.5
t-113 56.5z" />
    <glyph glyph-name="Ocircumflex" unicode="&#xd4;" horiz-adv-x="755" 
d="M179 808l153 131l89 8l162 -139l-48 -66l-151 98l-157 -98zM385 717q150 0 232.5 -93.5t82.5 -261.5q0 -169 -92.5 -272t-242.5 -103t-230 92t-80 268q0 172 88.5 271t241.5 99zM380 592q-78 0 -116.5 -55.5t-38.5 -184.5q0 -124 35 -182t110 -58q78 0 119 57.5t41 187.5
q0 122 -37 178.5t-113 56.5z" />
    <glyph glyph-name="Otilde" unicode="&#xd5;" horiz-adv-x="755" 
d="M212 777l-48 39q2 4 5 11.5t15 26.5t25 33.5t35 26.5t45 12q36 0 90.5 -23t83.5 -23q17 0 34.5 10.5t26.5 21.5l8 10l55 -42q-2 -4 -6 -11t-17.5 -25t-28 -32t-37.5 -25t-46 -11q-36 0 -87.5 19.5t-80.5 19.5q-19 0 -37 -9.5t-27 -19.5zM385 717q150 0 232.5 -93.5
t82.5 -261.5q0 -169 -92.5 -272t-242.5 -103t-230 92t-80 268q0 172 88.5 271t241.5 99zM380 592q-78 0 -116.5 -55.5t-38.5 -184.5q0 -124 35 -182t110 -58q78 0 119 57.5t41 187.5q0 122 -37 178.5t-113 56.5z" />
    <glyph glyph-name="Odieresis" unicode="&#xd6;" horiz-adv-x="755" 
d="M385 717q150 0 232.5 -93.5t82.5 -261.5q0 -169 -92.5 -272t-242.5 -103t-230 92t-80 268q0 172 88.5 271t241.5 99zM380 592q-78 0 -116.5 -55.5t-38.5 -184.5q0 -124 35 -182t110 -58q78 0 119 57.5t41 187.5q0 122 -37 178.5t-113 56.5zM194 847q0 35 21.5 56.5
t52.5 21.5q35 0 53.5 -20.5t18.5 -57.5q0 -36 -21.5 -57t-52.5 -21q-72 0 -72 78zM412 847q0 35 22 56.5t52 21.5q72 0 72 -78q0 -36 -21.5 -57t-52.5 -21q-72 0 -72 78z" />
    <glyph glyph-name="multiply" unicode="&#xd7;" horiz-adv-x="613" 
d="M306 354l170 170l84 -85l-169 -169l169 -169l-84 -85l-170 170l-169 -170l-84 85l169 169l-169 169l84 85z" />
    <glyph glyph-name="Oslash" unicode="&#xd8;" horiz-adv-x="765" 
d="M72 -59l78 128q-90 92 -90 278q0 172 89 271t241 99q78 0 139 -27l62 103l89 -51l-67 -109q92 -94 92 -271q0 -168 -92.5 -271t-242.5 -103q-76 0 -135 24l-74 -122zM385 592q-77 0 -117 -54t-40 -175q0 -86 21 -132q27 45 209 344q-32 17 -73 17zM516 473l-210 -344
q29 -17 69 -17q163 0 163 245q0 70 -22 116z" />
    <glyph glyph-name="Ugrave" unicode="&#xd9;" horiz-adv-x="789" 
d="M277 956l215 -141l-46 -80l-227 112zM264 585v-315q0 -87 29 -123.5t102 -36.5q76 0 102.5 40.5t26.5 134.5v300l-78 30v85l308 5v-90l-75 -30v-300q0 -150 -66.5 -223.5t-222.5 -73.5q-149 0 -215 68t-66 214v315l-74 30v85l307 5v-90z" />
    <glyph glyph-name="Uacute" unicode="&#xda;" horiz-adv-x="789" 
d="M331 735l-46 80l215 141l58 -109zM264 585v-315q0 -87 29 -123.5t102 -36.5q76 0 102.5 40.5t26.5 134.5v300l-78 30v85l308 5v-90l-75 -30v-300q0 -150 -66.5 -223.5t-222.5 -73.5q-149 0 -215 68t-66 214v315l-74 30v85l307 5v-90z" />
    <glyph glyph-name="Ucircumflex" unicode="&#xdb;" horiz-adv-x="789" 
d="M190 808l153 131l89 8l162 -139l-48 -66l-151 98l-157 -98zM264 585v-315q0 -87 29 -123.5t102 -36.5q76 0 102.5 40.5t26.5 134.5v300l-78 30v85l308 5v-90l-75 -30v-300q0 -150 -66.5 -223.5t-222.5 -73.5q-149 0 -215 68t-66 214v315l-74 30v85l307 5v-90z" />
    <glyph glyph-name="Udieresis" unicode="&#xdc;" horiz-adv-x="789" 
d="M213 847q0 35 21.5 56.5t52.5 21.5q35 0 53.5 -20.5t18.5 -57.5q0 -36 -21.5 -57t-52.5 -21q-72 0 -72 78zM431 847q0 35 22 56.5t52 21.5q72 0 72 -78q0 -36 -21.5 -57t-52.5 -21q-72 0 -72 78zM264 585v-315q0 -87 29 -123.5t102 -36.5q76 0 102.5 40.5t26.5 134.5v300
l-78 30v85l308 5v-90l-75 -30v-300q0 -150 -66.5 -223.5t-222.5 -73.5q-149 0 -215 68t-66 214v315l-74 30v85l307 5v-90z" />
    <glyph glyph-name="Yacute" unicode="&#xdd;" horiz-adv-x="667" 
d="M306 735l-46 80l215 141l58 -109zM180 0v85l75 30v129l-183 344l-65 27v85l283 5v-90l-51 -21l100 -215l106 214l-55 22v85l270 5v-90l-69 -27l-181 -343v-130l75 -30v-85h-305z" />
    <glyph glyph-name="Thorn" unicode="&#xde;" horiz-adv-x="629" 
d="M35 0v85l75 30v470l-75 30v85l315 5v-90l-85 -30v-30h99q114 0 177 -48t63 -137q0 -108 -75.5 -159t-209.5 -51h-54v-45l85 -30v-85h-315zM265 267h64q58 0 90 23.5t32 69.5q0 41 -28.5 63t-76.5 22h-81v-178z" />
    <glyph glyph-name="germandbls" unicode="&#xdf;" horiz-adv-x="753" 
d="M135 522v48q0 98 66.5 157.5t176.5 59.5q120 0 186 -45.5t66 -123.5q0 -40 -17.5 -72.5t-39 -50t-39 -40.5t-17.5 -45q0 -25 24 -43.5t57.5 -32.5t67.5 -31t58 -50.5t24 -80.5q0 -82 -61 -132t-158 -50q-36 0 -78.5 5.5t-67.5 10.5l-25 6v161h90l10 -67q27 -11 66 -11
q72 0 72 54q0 24 -24 41.5t-58 31.5t-67.5 32t-57.5 53t-24 84q0 39 18.5 69.5t40.5 46.5t40.5 39.5t18.5 50.5q0 38 -31 59t-72 21q-46 0 -71.5 -26.5t-25.5 -73.5v-577h-228v80l80 25v315h-100v87z" />
    <glyph glyph-name="agrave" unicode="&#xe0;" 
d="M179 849l223 -178l-49 -73l-242 147zM376 0l-18 65q-9 -8 -24 -20.5t-57.5 -33.5t-80.5 -21q-73 0 -114.5 41t-41.5 116q0 165 241 165h70v55q0 73 -77 73q-23 0 -45 -4t-33 -8l-10 -3l-15 -63h-90l-7 148q121 40 217 40q114 0 162 -45t48 -153v-247l75 -18v-80zM351 227
h-57q-58 0 -83.5 -15.5t-25.5 -49.5q0 -60 59 -60q24 0 50.5 14.5t41.5 29.5l15 14v67z" />
    <glyph glyph-name="aacute" unicode="&#xe1;" 
d="M436 747l-68 104l-223 -178l49 -73zM376 0l-18 65q-9 -8 -24 -20.5t-57.5 -33.5t-80.5 -21q-73 0 -114.5 41t-41.5 116q0 165 241 165h70v55q0 73 -77 73q-23 0 -45 -4t-33 -8l-10 -3l-15 -63h-90l-7 148q121 40 217 40q114 0 162 -45t48 -153v-247l75 -18v-80zM351 227
h-57q-58 0 -83.5 -15.5t-25.5 -49.5q0 -60 59 -60q24 0 50.5 14.5t41.5 29.5l15 14v67z" />
    <glyph glyph-name="acircumflex" unicode="&#xe2;" 
d="M67 664l164 153l89 8l175 -161l-48 -66l-164 120l-168 -120zM376 0l-18 65q-9 -8 -24 -20.5t-57.5 -33.5t-80.5 -21q-73 0 -114.5 41t-41.5 116q0 165 241 165h70v55q0 73 -77 73q-23 0 -45 -4t-33 -8l-10 -3l-15 -63h-90l-7 148q121 40 217 40q114 0 162 -45t48 -153
v-247l75 -18v-80zM351 227h-57q-58 0 -83.5 -15.5t-25.5 -49.5q0 -60 59 -60q24 0 50.5 14.5t41.5 29.5l15 14v67z" />
    <glyph glyph-name="atilde" unicode="&#xe3;" 
d="M116 630l-47 46q2 4 5 11.5t15 26.5t25 33.5t35 26.5t45 12q36 0 86.5 -23t79.5 -23q17 0 34.5 10.5t25.5 21.5l9 10l53 -46q-2 -4 -5.5 -11.5t-15 -26.5t-25 -33t-35 -26t-44.5 -12q-36 0 -87.5 22t-80.5 22q-19 0 -37 -10.5t-27 -20.5zM376 0l-18 65q-9 -8 -24 -20.5
t-57.5 -33.5t-80.5 -21q-73 0 -114.5 41t-41.5 116q0 165 241 165h70v55q0 73 -77 73q-23 0 -45 -4t-33 -8l-10 -3l-15 -63h-90l-7 148q121 40 217 40q114 0 162 -45t48 -153v-247l75 -18v-80zM351 227h-57q-58 0 -83.5 -15.5t-25.5 -49.5q0 -60 59 -60q24 0 50.5 14.5
t41.5 29.5l15 14v67z" />
    <glyph glyph-name="adieresis" unicode="&#xe4;" 
d="M376 0l-18 65q-9 -8 -24 -20.5t-57.5 -33.5t-80.5 -21q-73 0 -114.5 41t-41.5 116q0 165 241 165h70v55q0 73 -77 73q-23 0 -45 -4t-33 -8l-10 -3l-15 -63h-90l-7 148q121 40 217 40q114 0 162 -45t48 -153v-247l75 -18v-80zM351 227h-57q-58 0 -83.5 -15.5t-25.5 -49.5
q0 -60 59 -60q24 0 50.5 14.5t41.5 29.5l15 14v67zM104 698q0 35 21.5 56.5t52.5 21.5q35 0 53.5 -20.5t18.5 -57.5q0 -36 -21.5 -57t-52.5 -21q-72 0 -72 78zM322 698q0 35 22 56.5t52 21.5q72 0 72 -78q0 -36 -21.5 -57t-52.5 -21q-72 0 -72 78z" />
    <glyph glyph-name="aring" unicode="&#xe5;" 
d="M162 724q0 60 40.5 96.5t93.5 36.5t93 -34t40 -93t-40.5 -96t-92.5 -37q-54 0 -94 34t-40 93zM247 727q0 -57 49 -57q21 0 34.5 15t13.5 43q0 57 -48 57q-22 0 -35.5 -15t-13.5 -43zM376 0l-18 65q-9 -8 -24 -20.5t-57.5 -33.5t-80.5 -21q-73 0 -114.5 41t-41.5 116
q0 165 241 165h70v55q0 73 -77 73q-23 0 -45 -4t-33 -8l-10 -3l-15 -63h-90l-7 148q121 40 217 40q114 0 162 -45t48 -153v-247l75 -18v-80zM351 227h-57q-58 0 -83.5 -15.5t-25.5 -49.5q0 -60 59 -60q24 0 50.5 14.5t41.5 29.5l15 14v67z" />
    <glyph glyph-name="ae" unicode="&#xe6;" horiz-adv-x="866" 
d="M830 235h-331q4 -59 36.5 -92t84.5 -33q37 0 78.5 12t64.5 24l23 11l44 -83q-12 -9 -33 -23t-81.5 -37.5t-115.5 -23.5q-146 0 -208 100q-85 -100 -197 -100q-71 0 -113 42t-42 115q0 165 240 165h70v55q0 72 -77 72q-22 0 -44 -3.5t-33 -7.5l-11 -4l-15 -62h-90l-7 148
q0 2 33 11t86.5 18.5t95.5 9.5q112 0 156 -58q67 59 166 59q108 0 167 -62t59 -172q0 -17 -1.5 -36.5t-2.5 -31.5zM499 325h183q0 105 -82 105q-42 0 -68.5 -28t-32.5 -77zM350 227h-57q-58 0 -84 -15.5t-26 -49.5q0 -28 15.5 -44t44.5 -16q23 0 50 15t42 30l15 15v65z" />
    <glyph glyph-name="ccedilla" unicode="&#xe7;" horiz-adv-x="525" 
d="M460 163l50 -88q-79 -68 -171 -81v-34q39 -8 62.5 -31.5t23.5 -58.5q0 -43 -36 -71t-89 -28q-30 0 -61 8t-47 16l-16 8l31 55q42 -21 82 -21q22 0 34.5 10t12.5 27q0 21 -22.5 32.5t-60.5 11.5v75q-104 11 -161 81.5t-57 187.5q0 134 72.5 211t202.5 77q38 0 82 -8.5
t68 -17.5l25 -9l-5 -163h-90l-14 70q-29 8 -69 8q-55 0 -86 -37t-31 -111q0 -83 31.5 -127.5t93.5 -44.5q20 0 38 3.5t35 10.5t26.5 12t26 15t19.5 12z" />
    <glyph glyph-name="egrave" unicode="&#xe8;" horiz-adv-x="564" 
d="M194 849l223 -178l-49 -73l-242 147zM523 237h-332q4 -60 36.5 -93.5t84.5 -33.5q37 0 79 12t65 24l24 11l43 -83q-11 -9 -31 -23t-80 -37.5t-117 -23.5q-127 0 -193.5 70.5t-66.5 199.5q0 133 71 211.5t196 78.5q110 0 168.5 -63t58.5 -172q0 -17 -1.5 -35.5t-3.5 -30.5
zM193 330h181q0 45 -20 72.5t-62 27.5q-41 0 -67 -27.5t-32 -72.5z" />
    <glyph glyph-name="eacute" unicode="&#xe9;" horiz-adv-x="564" 
d="M391 849l-223 -178l49 -73l242 147zM523 237h-332q4 -60 36.5 -93.5t84.5 -33.5q37 0 79 12t65 24l24 11l43 -83q-11 -9 -31 -23t-80 -37.5t-117 -23.5q-127 0 -193.5 70.5t-66.5 199.5q0 133 71 211.5t196 78.5q110 0 168.5 -63t58.5 -172q0 -17 -1.5 -35.5t-3.5 -30.5z
M193 330h181q0 45 -20 72.5t-62 27.5q-41 0 -67 -27.5t-32 -72.5z" />
    <glyph glyph-name="ecircumflex" unicode="&#xea;" horiz-adv-x="564" 
d="M72 664l164 153l89 8l175 -161l-48 -66l-164 120l-168 -120zM523 237h-332q4 -60 36.5 -93.5t84.5 -33.5q37 0 79 12t65 24l24 11l43 -83q-11 -9 -31 -23t-80 -37.5t-117 -23.5q-127 0 -193.5 70.5t-66.5 199.5q0 133 71 211.5t196 78.5q110 0 168.5 -63t58.5 -172
q0 -17 -1.5 -35.5t-3.5 -30.5zM193 330h181q0 45 -20 72.5t-62 27.5q-41 0 -67 -27.5t-32 -72.5z" />
    <glyph glyph-name="edieresis" unicode="&#xeb;" horiz-adv-x="564" 
d="M523 237h-332q4 -60 36.5 -93.5t84.5 -33.5q37 0 79 12t65 24l24 11l43 -83q-11 -9 -31 -23t-80 -37.5t-117 -23.5q-127 0 -193.5 70.5t-66.5 199.5q0 133 71 211.5t196 78.5q110 0 168.5 -63t58.5 -172q0 -17 -1.5 -35.5t-3.5 -30.5zM193 330h181q0 45 -20 72.5
t-62 27.5q-41 0 -67 -27.5t-32 -72.5zM104 698q0 35 21.5 56.5t52.5 21.5q35 0 53.5 -20.5t18.5 -57.5q0 -36 -21.5 -57t-52.5 -21q-72 0 -72 78zM322 698q0 35 22 56.5t52 21.5q72 0 72 -78q0 -36 -21.5 -57t-52.5 -21q-72 0 -72 78z" />
    <glyph glyph-name="igrave" unicode="&#xec;" horiz-adv-x="362" 
d="M93 849l223 -178l-49 -73l-242 147zM262 105l70 -25v-80h-297v80l80 25v327l-80 20v80l227 8v-435z" />
    <glyph glyph-name="iacute" unicode="&#xed;" horiz-adv-x="362" 
d="M277 849l-223 -178l49 -73l242 147zM262 105l70 -25v-80h-297v80l80 25v327l-80 20v80l227 8v-435z" />
    <glyph glyph-name="icircumflex" unicode="&#xee;" horiz-adv-x="363" 
d="M-28 664l156 153l89 8l166 -161l-49 -66l-154 120l-159 -120zM262 105l70 -25v-80h-297v80l80 25v327l-80 20v80l227 8v-435z" />
    <glyph glyph-name="idieresis" unicode="&#xef;" horiz-adv-x="362" 
d="M-1 698q0 35 21.5 56.5t52.5 21.5q35 0 53.5 -20.5t18.5 -57.5q0 -36 -21.5 -57t-52.5 -21q-72 0 -72 78zM207 698q0 35 22 56.5t52 21.5q72 0 72 -78q0 -36 -21.5 -57t-52.5 -21q-72 0 -72 78zM262 105l70 -25v-80h-297v80l80 25v327l-80 20v80l227 8v-435z" />
    <glyph glyph-name="eth" unicode="&#xf0;" horiz-adv-x="578" 
d="M118 702l46 87q78 -19 147 -61l105 61l58 -79l-81 -46q145 -143 145 -392q0 -129 -70 -206.5t-188 -77.5q-115 0 -180 64t-65 188q0 123 70.5 194t184.5 71q40 0 78 -22q-27 72 -78 120l-117 -67l-58 79l88 50q-41 22 -85 37zM290 390q-100 0 -100 -145q0 -142 95 -142
q53 0 75.5 37.5t22.5 109.5q0 70 -20.5 105t-72.5 35z" />
    <glyph glyph-name="ntilde" unicode="&#xf1;" horiz-adv-x="685" 
d="M180 630l-47 46q2 4 5 11.5t15 26.5t25 33.5t35 26.5t45 12q36 0 86.5 -23t79.5 -23q17 0 34.5 10.5t25.5 21.5l9 10l53 -46q-2 -4 -5.5 -11.5t-15 -26.5t-25 -33t-35 -26t-44.5 -12q-36 0 -87.5 22t-80.5 22q-19 0 -37 -10.5t-27 -20.5zM247 540l7 -69q11 9 29 21.5
t66.5 34t88.5 21.5q72 0 112 -47.5t40 -130.5v-265l70 -25v-80h-275v80l55 25v238q0 35 -18.5 57.5t-49.5 22.5q-28 0 -54.5 -14.5t-39.5 -28.5l-13 -14v-261l55 -25v-80h-285v80l80 25v325l-80 25v80z" />
    <glyph glyph-name="ograve" unicode="&#xf2;" horiz-adv-x="592" 
d="M209 849l223 -178l-49 -73l-242 147zM305 550q121 0 186.5 -70.5t65.5 -199.5q0 -134 -72.5 -212t-194.5 -78q-255 0 -255 275q0 134 73 209.5t197 75.5zM300 430q-57 0 -83.5 -36.5t-26.5 -123.5q0 -83 25 -121.5t80 -38.5t81 38.5t26 126.5q0 155 -102 155z" />
    <glyph glyph-name="oacute" unicode="&#xf3;" horiz-adv-x="592" 
d="M392 849l-223 -178l49 -73l242 147zM305 550q121 0 186.5 -70.5t65.5 -199.5q0 -134 -72.5 -212t-194.5 -78q-255 0 -255 275q0 134 73 209.5t197 75.5zM300 430q-57 0 -83.5 -36.5t-26.5 -123.5q0 -83 25 -121.5t80 -38.5t81 38.5t26 126.5q0 155 -102 155z" />
    <glyph glyph-name="ocircumflex" unicode="&#xf4;" horiz-adv-x="592" 
d="M80 664l164 153l89 8l175 -161l-48 -66l-164 120l-168 -120zM305 550q121 0 186.5 -70.5t65.5 -199.5q0 -134 -72.5 -212t-194.5 -78q-255 0 -255 275q0 134 73 209.5t197 75.5zM300 430q-57 0 -83.5 -36.5t-26.5 -123.5q0 -83 25 -121.5t80 -38.5t81 38.5t26 126.5
q0 155 -102 155z" />
    <glyph glyph-name="otilde" unicode="&#xf5;" horiz-adv-x="592" 
d="M136 630l-47 46q2 4 5 11.5t15 26.5t25 33.5t35 26.5t45 12q36 0 86.5 -23t79.5 -23q17 0 34.5 10.5t25.5 21.5l9 10l53 -46q-2 -4 -5.5 -11.5t-15 -26.5t-25 -33t-35 -26t-44.5 -12q-36 0 -87.5 22t-80.5 22q-19 0 -37 -10.5t-27 -20.5zM305 550q121 0 186.5 -70.5
t65.5 -199.5q0 -134 -72.5 -212t-194.5 -78q-255 0 -255 275q0 134 73 209.5t197 75.5zM300 430q-57 0 -83.5 -36.5t-26.5 -123.5q0 -83 25 -121.5t80 -38.5t81 38.5t26 126.5q0 155 -102 155z" />
    <glyph glyph-name="odieresis" unicode="&#xf6;" horiz-adv-x="592" 
d="M305 550q121 0 186.5 -70.5t65.5 -199.5q0 -134 -72.5 -212t-194.5 -78q-255 0 -255 275q0 134 73 209.5t197 75.5zM300 430q-57 0 -83.5 -36.5t-26.5 -123.5q0 -83 25 -121.5t80 -38.5t81 38.5t26 126.5q0 155 -102 155zM114 698q0 35 21.5 56.5t52.5 21.5
q35 0 53.5 -20.5t18.5 -57.5q0 -36 -21.5 -57t-52.5 -21q-72 0 -72 78zM332 698q0 35 22 56.5t52 21.5q72 0 72 -78q0 -36 -21.5 -57t-52.5 -21q-72 0 -72 78z" />
    <glyph glyph-name="divide" unicode="&#xf7;" horiz-adv-x="630" 
d="M228 481q0 44 25 68t64 24q85 0 85 -92q0 -44 -24.5 -68.5t-63.5 -24.5q-86 0 -86 93zM577 323v-115h-525v115h525zM228 51q0 44 25 68t64 24q85 0 85 -92q0 -44 -24.5 -68.5t-63.5 -24.5q-86 0 -86 93z" />
    <glyph glyph-name="oslash" unicode="&#xf8;" horiz-adv-x="602" 
d="M44 -75l72 121q-76 67 -76 219q0 134 73 209.5t197 75.5q51 0 99 -16l65 109l75 -42l-65 -109q78 -70 78 -212q0 -134 -72.5 -212t-194.5 -78q-51 0 -103 14l-73 -121zM206 196l138 231q-18 8 -39 8q-58 0 -84 -38t-26 -128q0 -42 11 -73zM396 345l-139 -232q16 -8 43 -8
q56 0 81.5 40t25.5 130q0 44 -11 70z" />
    <glyph glyph-name="ugrave" unicode="&#xf9;" horiz-adv-x="669" 
d="M220 849l223 -178l-49 -73l-242 147zM15 455v80l230 5v-345q0 -42 14 -61t47 -19q29 0 57 13.5t42 27.5l14 13v261l-80 25v80l230 5v-435l80 -20v-78l-211 -7l-10 70q-9 -9 -25 -22.5t-62 -35.5t-88 -22q-75 0 -116.5 47.5t-41.5 131.5v261z" />
    <glyph glyph-name="uacute" unicode="&#xfa;" horiz-adv-x="669" 
d="M412 849l-223 -178l49 -73l242 147zM15 455v80l230 5v-345q0 -42 14 -61t47 -19q29 0 57 13.5t42 27.5l14 13v261l-80 25v80l230 5v-435l80 -20v-78l-211 -7l-10 70q-9 -9 -25 -22.5t-62 -35.5t-88 -22q-75 0 -116.5 47.5t-41.5 131.5v261z" />
    <glyph glyph-name="ucircumflex" unicode="&#xfb;" horiz-adv-x="669" 
d="M105 664l164 153l89 8l175 -161l-48 -66l-164 120l-168 -120zM15 455v80l230 5v-345q0 -42 14 -61t47 -19q29 0 57 13.5t42 27.5l14 13v261l-80 25v80l230 5v-435l80 -20v-78l-211 -7l-10 70q-9 -9 -25 -22.5t-62 -35.5t-88 -22q-75 0 -116.5 47.5t-41.5 131.5v261z" />
    <glyph glyph-name="udieresis" unicode="&#xfc;" horiz-adv-x="669" 
d="M132 698q0 35 21.5 56.5t52.5 21.5q35 0 53.5 -20.5t18.5 -57.5q0 -36 -21.5 -57t-52.5 -21q-72 0 -72 78zM350 698q0 35 22 56.5t52 21.5q72 0 72 -78q0 -36 -21.5 -57t-52.5 -21q-72 0 -72 78zM15 455v80l230 5v-345q0 -42 14 -61t47 -19q29 0 57 13.5t42 27.5l14 13
v261l-80 25v80l230 5v-435l80 -20v-78l-211 -7l-10 70q-9 -9 -25 -22.5t-62 -35.5t-88 -22q-75 0 -116.5 47.5t-41.5 131.5v261z" />
    <glyph glyph-name="yacute" unicode="&#xfd;" 
d="M453 849l-223 -178l49 -73l242 147zM5 455v80l267 5v-85l-56 -10l89 -280l85 277l-58 13v80l269 5v-85l-62 -13l-147 -410q-22 -59 -41.5 -99.5t-51.5 -84t-77 -66t-102 -22.5l-97 8l14 107h65q28 0 51.5 12.5t40 36t24.5 38.5t18 37l-178 440z" />
    <glyph glyph-name="thorn" unicode="&#xfe;" horiz-adv-x="630" 
d="M250 775v-283q6 6 17.5 16t48.5 26t76 16q98 0 150.5 -71t52.5 -194q0 -141 -71.5 -218t-213.5 -77q-12 0 -27 2t-24 4l-9 2v-130l105 -23v-80h-333v80l78 23v799l-80 20v80zM250 383v-265q25 -13 76 -13q114 0 114 170q0 155 -98 155q-27 0 -50 -12t-32 -24z" />
    <glyph glyph-name="ydieresis" unicode="&#xff;" 
d="M114 698q0 35 21.5 56.5t52.5 21.5q35 0 53.5 -20.5t18.5 -57.5q0 -36 -21.5 -57t-52.5 -21q-72 0 -72 78zM332 698q0 35 22 56.5t52 21.5q72 0 72 -78q0 -36 -21.5 -57t-52.5 -21q-72 0 -72 78zM5 455v80l267 5v-85l-56 -10l89 -280l85 277l-58 13v80l269 5v-85l-62 -13
l-147 -410q-22 -59 -41.5 -99.5t-51.5 -84t-77 -66t-102 -22.5l-97 8l14 107h65q28 0 51.5 12.5t40 36t24.5 38.5t18 37l-178 440z" />
    <glyph glyph-name="Amacron" unicode="&#x100;" horiz-adv-x="748" 
d="M548 907v-105h-300v105h300zM743 85v-85h-318v85l75 27l-24 73h-222l-25 -72l78 -28v-85h-302v85l73 28l220 589l160 3l215 -592zM443 292l-75 237l-79 -237h154z" />
    <glyph glyph-name="amacron" unicode="&#x101;" 
d="M435 752v-105h-300v105h300zM376 0l-18 65q-9 -8 -24 -20.5t-57.5 -33.5t-80.5 -21q-73 0 -114.5 41t-41.5 116q0 165 241 165h70v55q0 73 -77 73q-23 0 -45 -4t-33 -8l-10 -3l-15 -63h-90l-7 148q121 40 217 40q114 0 162 -45t48 -153v-247l75 -18v-80zM351 227h-57
q-58 0 -83.5 -15.5t-25.5 -49.5q0 -60 59 -60q24 0 50.5 14.5t41.5 29.5l15 14v67z" />
    <glyph glyph-name="Abreve" unicode="&#x102;" horiz-adv-x="748" 
d="M225 932l87 9q0 -3 1.5 -8t7 -18t13 -22.5t22.5 -17.5t33 -8q31 0 50 16.5t23 32.5l3 16l87 7q0 -83 -49.5 -129.5t-123.5 -46.5q-66 0 -110 45.5t-44 123.5zM743 85v-85h-318v85l75 27l-24 73h-222l-25 -72l78 -28v-85h-302v85l73 28l220 589l160 3l215 -592zM443 292
l-75 237l-79 -237h154z" />
    <glyph glyph-name="abreve" unicode="&#x103;" 
d="M126 781l87 9q0 -3 1.5 -8t7 -18t13 -22.5t22.5 -17.5t33 -8q31 0 50 16t22 32l4 17l87 7q0 -83 -49.5 -129.5t-123.5 -46.5q-66 0 -110 45.5t-44 123.5zM376 0l-18 65q-9 -8 -24 -20.5t-57.5 -33.5t-80.5 -21q-73 0 -114.5 41t-41.5 116q0 165 241 165h70v55
q0 73 -77 73q-23 0 -45 -4t-33 -8l-10 -3l-15 -63h-90l-7 148q121 40 217 40q114 0 162 -45t48 -153v-247l75 -18v-80zM351 227h-57q-58 0 -83.5 -15.5t-25.5 -49.5q0 -60 59 -60q24 0 50.5 14.5t41.5 29.5l15 14v67z" />
    <glyph glyph-name="Aogonek" unicode="&#x104;" horiz-adv-x="758" 
d="M743 85v-85q-6 -2 -16.5 -6t-37 -16t-46.5 -24t-36.5 -29.5t-16.5 -34.5q0 -36 37 -36l43 6l17 -70q-47 -25 -102 -25q-48 0 -79 25.5t-31 74.5q0 26 15 50.5t39.5 42t41 26.5t32.5 16h-178v85l75 27l-24 73h-222l-25 -72l78 -28v-85h-302v85l73 28l220 589l160 3
l215 -592zM443 292l-75 237l-79 -237h154z" />
    <glyph glyph-name="aogonek" unicode="&#x105;" 
d="M576 87v-80q-5 -3 -13 -7.5t-28.5 -18.5t-36 -27.5t-28.5 -31t-13 -32.5q0 -17 10.5 -26.5t27.5 -9.5l43 6l17 -70q-48 -25 -103 -25q-47 0 -78.5 25.5t-31.5 74.5q0 50 36.5 87t66.5 50l-69 -2l-18 65q-9 -8 -24 -20.5t-57.5 -33.5t-80.5 -21q-73 0 -114.5 41t-41.5 116
q0 165 241 165h70v55q0 73 -77 73q-23 0 -45 -4t-33 -8l-10 -3l-15 -63h-90l-7 148q121 40 217 40q114 0 162 -45t48 -153v-247zM351 227h-57q-58 0 -83.5 -15.5t-25.5 -49.5q0 -60 59 -60q24 0 50.5 14.5t41.5 29.5l15 14v67z" />
    <glyph glyph-name="Cacute" unicode="&#x106;" horiz-adv-x="667" 
d="M301 735l-46 80l215 141l58 -109zM522 480l-23 96q-47 16 -112 16q-165 0 -165 -245q0 -230 170 -230q44 0 91.5 17.5t72.5 35.5l26 17l55 -90q-4 -4 -12 -11.5t-34.5 -26.5t-55.5 -33t-72.5 -26t-87.5 -12q-153 0 -236.5 90.5t-83.5 263.5q0 175 91 275t246 100
q54 0 112 -11.5t90 -23.5l31 -12l-5 -190h-98z" />
    <glyph glyph-name="cacute" unicode="&#x107;" horiz-adv-x="525" 
d="M476 747l-68 104l-223 -178l49 -73zM460 163l50 -88q-97 -85 -215 -85q-123 0 -191.5 72t-68.5 200q0 134 72.5 211t202.5 77q38 0 82 -8.5t68 -17.5l25 -9l-5 -164h-90l-14 71q-29 8 -69 8q-55 0 -86 -37.5t-31 -110.5q0 -83 31.5 -127.5t93.5 -44.5q20 0 38 3.5
t35 10.5t26.5 12t26 15t19.5 12z" />
    <glyph glyph-name="Ccircumflex" unicode="&#x108;" horiz-adv-x="667" 
d="M165 808l153 131l89 8l162 -139l-48 -66l-151 98l-157 -98zM522 480l-23 96q-47 16 -112 16q-165 0 -165 -245q0 -230 170 -230q44 0 91.5 17.5t72.5 35.5l26 17l55 -90q-4 -4 -12 -11.5t-34.5 -26.5t-55.5 -33t-72.5 -26t-87.5 -12q-153 0 -236.5 90.5t-83.5 263.5
q0 175 91 275t246 100q54 0 112 -11.5t90 -23.5l31 -12l-5 -190h-98z" />
    <glyph glyph-name="ccircumflex" unicode="&#x109;" horiz-adv-x="525" 
d="M67 664l164 153l89 8l175 -161l-48 -66l-164 120l-168 -120zM460 163l50 -88q-97 -85 -215 -85q-123 0 -191.5 72t-68.5 200q0 134 72.5 211t202.5 77q38 0 82 -8.5t68 -17.5l25 -9l-5 -164h-90l-14 71q-29 8 -69 8q-55 0 -86 -37.5t-31 -110.5q0 -83 31.5 -127.5
t93.5 -44.5q20 0 38 3.5t35 10.5t26.5 12t26 15t19.5 12z" />
    <glyph glyph-name="Cdotaccent" unicode="&#x10a;" horiz-adv-x="667" 
d="M290 847q0 35 22 56.5t52 21.5q72 0 72 -78q0 -36 -21.5 -57t-52.5 -21q-72 0 -72 78zM522 480l-23 96q-47 16 -112 16q-165 0 -165 -245q0 -230 170 -230q44 0 91.5 17.5t72.5 35.5l26 17l55 -90q-4 -4 -12 -11.5t-34.5 -26.5t-55.5 -33t-72.5 -26t-87.5 -12
q-153 0 -236.5 90.5t-83.5 263.5q0 175 91 275t246 100q54 0 112 -11.5t90 -23.5l31 -12l-5 -190h-98z" />
    <glyph glyph-name="cdotaccent" unicode="&#x10b;" horiz-adv-x="525" 
d="M223 698q0 35 22 56.5t52 21.5q72 0 72 -78q0 -36 -21.5 -57t-52.5 -21q-72 0 -72 78zM460 163l50 -88q-97 -85 -215 -85q-123 0 -191.5 72t-68.5 200q0 134 72.5 211t202.5 77q38 0 82 -8.5t68 -17.5l25 -9l-5 -164h-90l-14 71q-29 8 -69 8q-55 0 -86 -37.5t-31 -110.5
q0 -83 31.5 -127.5t93.5 -44.5q20 0 38 3.5t35 10.5t26.5 12t26 15t19.5 12z" />
    <glyph glyph-name="Ccaron" unicode="&#x10c;" horiz-adv-x="667" 
d="M560 897l-143 -140l-89 -7l-153 147l55 60l141 -106l139 106zM522 480l-23 96q-47 16 -112 16q-165 0 -165 -245q0 -230 170 -230q44 0 91.5 17.5t72.5 35.5l26 17l55 -90q-4 -4 -12 -11.5t-34.5 -26.5t-55.5 -33t-72.5 -26t-87.5 -12q-153 0 -236.5 90.5t-83.5 263.5
q0 175 91 275t246 100q54 0 112 -11.5t90 -23.5l31 -12l-5 -190h-98z" />
    <glyph glyph-name="ccaron" unicode="&#x10d;" horiz-adv-x="525" 
d="M430 824l48 -58l-157 -156l-89 -5l-167 161l54 57l156 -117zM460 163l50 -88q-97 -85 -215 -85q-123 0 -191.5 72t-68.5 200q0 134 72.5 211t202.5 77q38 0 82 -8.5t68 -17.5l25 -9l-5 -164h-90l-14 71q-29 8 -69 8q-55 0 -86 -37.5t-31 -110.5q0 -83 31.5 -127.5
t93.5 -44.5q20 0 38 3.5t35 10.5t26.5 12t26 15t19.5 12z" />
    <glyph glyph-name="Dcaron" unicode="&#x10e;" horiz-adv-x="733" 
d="M549 897l-143 -140l-89 -7l-153 147l55 60l141 -106l139 106zM115 115v470l-75 30v85l230 5h95q152 0 235 -88t83 -255q0 -168 -90 -265t-243 -97h-310v85zM270 120h83q78 0 120 54.5t42 182.5q0 122 -39 175t-116 53h-90v-465z" />
    <glyph glyph-name="dcaron" unicode="&#x10f;" horiz-adv-x="741" 
d="M658 510l-78 28q36 128 32 237l134 5q-1 -97 -88 -270zM405 0l-9 53q-63 -63 -151 -63q-103 0 -154 70t-51 197q0 143 68.5 218t204.5 75q31 0 75 -10v127l-80 20v80l230 8v-668l80 -20v-80zM388 167v248q-32 15 -78 15q-115 0 -115 -165q0 -155 96 -155q28 0 52.5 14
t34.5 28z" />
    <glyph glyph-name="Dcroat" unicode="&#x110;" horiz-adv-x="741" 
d="M115 422v163l-75 30v85l230 5h99q151 0 234 -88t83 -255q0 -168 -90 -265t-242 -97h-314v85l75 30v197h-68v110h68zM390 422v-110h-121v-192h87q79 0 121 54.5t42 182.5q0 121 -39.5 174.5t-115.5 53.5h-95v-163h121z" />
    <glyph glyph-name="dcroat" unicode="&#x111;" horiz-adv-x="638" 
d="M618 87v-80l-213 -7l-9 53q-63 -63 -151 -63q-103 0 -154 70t-51 197q0 143 68.5 218t204.5 75q31 0 75 -10v37h-80v70h80v20l-80 20v80l230 8v-128h77v-70h-77v-470zM388 167v248q-32 15 -78 15q-115 0 -115 -165q0 -155 96 -155q28 0 52.5 14t34.5 28z" />
    <glyph glyph-name="Emacron" unicode="&#x112;" horiz-adv-x="622" 
d="M478 907v-105h-300v105h300zM477 420v-110h-202v-190h179l23 82h90v-202h-522v85l75 30v470l-75 30v85l230 5h280v-193h-90l-25 73h-165v-165h202z" />
    <glyph glyph-name="emacron" unicode="&#x113;" horiz-adv-x="564" 
d="M435 751v-105h-300v105h300zM523 237h-332q4 -60 36.5 -93.5t84.5 -33.5q37 0 79 12t65 24l24 11l43 -83q-11 -9 -31 -23t-80 -37.5t-117 -23.5q-127 0 -193.5 70.5t-66.5 199.5q0 133 71 211.5t196 78.5q110 0 168.5 -63t58.5 -172q0 -17 -1.5 -35.5t-3.5 -30.5z
M193 330h181q0 45 -20 72.5t-62 27.5q-41 0 -67 -27.5t-32 -72.5z" />
    <glyph glyph-name="Ebreve" unicode="&#x114;" horiz-adv-x="622" 
d="M161 932l87 9q0 -3 1.5 -8t7 -18t13 -22.5t22.5 -17.5t33 -8q31 0 50 16.5t23 32.5l3 16l87 7q0 -83 -49.5 -129.5t-123.5 -46.5q-66 0 -110 45.5t-44 123.5zM477 420v-110h-202v-190h179l23 82h90v-202h-522v85l75 30v470l-75 30v85l230 5h280v-193h-90l-25 73h-165
v-165h202z" />
    <glyph glyph-name="ebreve" unicode="&#x115;" horiz-adv-x="564" 
d="M132 781l87 9q0 -3 1.5 -8t7 -18t13 -22.5t22.5 -17.5t33 -8q31 0 50 16t22 32l4 17l87 7q0 -83 -49.5 -129.5t-123.5 -46.5q-66 0 -110 45.5t-44 123.5zM523 237h-332q4 -60 36.5 -93.5t84.5 -33.5q37 0 79 12t65 24l24 11l43 -83q-11 -9 -31 -23t-80 -37.5t-117 -23.5
q-127 0 -193.5 70.5t-66.5 199.5q0 133 71 211.5t196 78.5q110 0 168.5 -63t58.5 -172q0 -17 -1.5 -35.5t-3.5 -30.5zM193 330h181q0 45 -20 72.5t-62 27.5q-41 0 -67 -27.5t-32 -72.5z" />
    <glyph glyph-name="Edotaccent" unicode="&#x116;" horiz-adv-x="622" 
d="M239 847q0 35 22 56.5t52 21.5q72 0 72 -78q0 -36 -21.5 -57t-52.5 -21q-72 0 -72 78zM477 420v-110h-202v-190h179l23 82h90v-202h-522v85l75 30v470l-75 30v85l230 5h280v-193h-90l-25 73h-165v-165h202z" />
    <glyph glyph-name="edotaccent" unicode="&#x117;" horiz-adv-x="564" 
d="M225 698q0 35 22 56.5t52 21.5q72 0 72 -78q0 -36 -21.5 -57t-52.5 -21q-72 0 -72 78zM523 237h-332q4 -60 36.5 -93.5t84.5 -33.5q37 0 79 12t65 24l24 11l43 -83q-11 -9 -31 -23t-80 -37.5t-117 -23.5q-127 0 -193.5 70.5t-66.5 199.5q0 133 71 211.5t196 78.5
q110 0 168.5 -63t58.5 -172q0 -17 -1.5 -35.5t-3.5 -30.5zM193 330h181q0 45 -20 72.5t-62 27.5q-41 0 -67 -27.5t-32 -72.5z" />
    <glyph glyph-name="Eogonek" unicode="&#x118;" horiz-adv-x="622" 
d="M567 202v-202q-12 -7 -29.5 -18.5t-47 -40.5t-29.5 -51q0 -36 37 -36l43 6l17 -70q-47 -25 -102 -25q-48 0 -79 25.5t-31 74.5q0 24 10.5 47t25 38t29.5 27t25 17l11 6h-402v85l75 30v470l-75 30v85l230 5h280v-193h-90l-25 73h-165v-165h202v-110h-202v-190h179l23 82
h90z" />
    <glyph glyph-name="eogonek" unicode="&#x119;" horiz-adv-x="559" 
d="M480 157l43 -83q-27 -19 -58.5 -44.5t-69.5 -68t-38 -68.5q0 -18 10.5 -28.5t27.5 -10.5l42 6l17 -70q-47 -25 -102 -25q-48 0 -79 25.5t-31 72.5q0 65 80 129q-18 -2 -27 -2q-127 0 -193.5 70.5t-66.5 199.5q0 133 71 211.5t196 78.5q110 0 168.5 -63t58.5 -172
q0 -17 -1.5 -35.5t-2.5 -30.5l-1 -12h-332q4 -60 36.5 -93.5t83.5 -33.5q77 0 168 47zM194 330h180q0 45 -20 72.5t-62 27.5q-40 0 -66 -27.5t-32 -72.5z" />
    <glyph glyph-name="Ecaron" unicode="&#x11a;" horiz-adv-x="622" 
d="M518 897l-143 -140l-89 -7l-153 147l55 60l141 -106l139 106zM477 420v-110h-202v-190h179l23 82h90v-202h-522v85l75 30v470l-75 30v85l230 5h280v-193h-90l-25 73h-165v-165h202z" />
    <glyph glyph-name="ecaron" unicode="&#x11b;" horiz-adv-x="564" 
d="M441 824l48 -58l-157 -156l-89 -5l-167 161l54 57l156 -117zM523 237h-332q4 -60 36.5 -93.5t84.5 -33.5q37 0 79 12t65 24l24 11l43 -83q-11 -9 -31 -23t-80 -37.5t-117 -23.5q-127 0 -193.5 70.5t-66.5 199.5q0 133 71 211.5t196 78.5q110 0 168.5 -63t58.5 -172
q0 -17 -1.5 -35.5t-3.5 -30.5zM193 330h181q0 45 -20 72.5t-62 27.5q-41 0 -67 -27.5t-32 -72.5z" />
    <glyph glyph-name="Gcircumflex" unicode="&#x11c;" horiz-adv-x="750" 
d="M173 808l153 131l89 8l162 -139l-48 -66l-151 98l-157 -98zM527 490l-25 86q-47 16 -113 16q-167 0 -167 -245q0 -232 170 -232q23 0 50.5 4.5t43.5 8.5l16 5v126l-75 23v82l288 5v-87l-68 -23v-204q-12 -8 -33.5 -19t-92.5 -29.5t-146 -18.5q-153 0 -236.5 90.5
t-83.5 263.5q0 175 91 275t246 100q54 0 112 -11.5t90 -23.5l31 -12l-5 -180h-93z" />
    <glyph glyph-name="gcircumflex" unicode="&#x11d;" horiz-adv-x="610" 
d="M230 90h148q96 0 148 -40t52 -115q0 -86 -70.5 -138t-209.5 -52q-126 0 -192 33t-66 112q0 38 26 68t52 41l27 11q-7 1 -17 4t-26.5 20t-16.5 42q0 31 52 113q-77 51 -77 156q0 99 66.5 152t173.5 53q67 0 118 -24l172 4v-80l-82 -14q0 -1 5 -13.5t8.5 -29.5t3.5 -36
q0 -104 -65 -154.5t-175 -50.5q-12 0 -23.5 1t-19 2.5t-8.5 1.5zM295 447q-85 0 -85 -95q0 -100 80 -100q46 0 65.5 24t19.5 76q0 95 -80 95zM338 -20h-105q-5 -2 -13 -7t-21.5 -22t-13.5 -36q0 -36 29.5 -48t95.5 -12q68 0 98 16t30 52q0 32 -23.5 44.5t-76.5 12.5zM90 664
l164 153l89 8l175 -161l-48 -66l-164 120l-168 -120z" />
    <glyph glyph-name="Gbreve" unicode="&#x11e;" horiz-adv-x="750" 
d="M224 932l87 9q0 -3 1.5 -8t7 -18t13 -22.5t22.5 -17.5t33 -8q31 0 50 16.5t22 32.5l4 16l87 7q0 -83 -49.5 -129.5t-123.5 -46.5q-66 0 -110 45.5t-44 123.5zM527 490l-25 86q-47 16 -113 16q-167 0 -167 -245q0 -232 170 -232q23 0 50.5 4.5t43.5 8.5l16 5v126l-75 23
v82l288 5v-87l-68 -23v-204q-12 -8 -33.5 -19t-92.5 -29.5t-146 -18.5q-153 0 -236.5 90.5t-83.5 263.5q0 175 91 275t246 100q54 0 112 -11.5t90 -23.5l31 -12l-5 -180h-93z" />
    <glyph glyph-name="gbreve" unicode="&#x11f;" horiz-adv-x="610" 
d="M230 90h148q96 0 148 -40t52 -115q0 -86 -70.5 -138t-209.5 -52q-126 0 -192 33t-66 112q0 38 26 68t52 41l27 11q-7 1 -17 4t-26.5 20t-16.5 42q0 31 52 113q-77 51 -77 156q0 99 66.5 152t173.5 53q67 0 118 -24l172 4v-80l-82 -14q0 -1 5 -13.5t8.5 -29.5t3.5 -36
q0 -104 -65 -154.5t-175 -50.5q-12 0 -23.5 1t-19 2.5t-8.5 1.5zM295 447q-85 0 -85 -95q0 -100 80 -100q46 0 65.5 24t19.5 76q0 95 -80 95zM338 -20h-105q-5 -2 -13 -7t-21.5 -22t-13.5 -36q0 -36 29.5 -48t95.5 -12q68 0 98 16t30 52q0 32 -23.5 44.5t-76.5 12.5z
M141 781l87 9q0 -3 1.5 -8t7 -18t13 -22.5t22.5 -17.5t33 -8q31 0 50 16t23 32l3 17l87 7q0 -83 -49.5 -129.5t-123.5 -46.5q-66 0 -110 45.5t-44 123.5z" />
    <glyph glyph-name="Gdotaccent" unicode="&#x120;" horiz-adv-x="750" 
d="M309 847q0 35 22 56.5t52 21.5q72 0 72 -78q0 -36 -21.5 -57t-52.5 -21q-72 0 -72 78zM527 490l-25 86q-47 16 -113 16q-167 0 -167 -245q0 -232 170 -232q23 0 50.5 4.5t43.5 8.5l16 5v126l-75 23v82l288 5v-87l-68 -23v-204q-12 -8 -33.5 -19t-92.5 -29.5t-146 -18.5
q-153 0 -236.5 90.5t-83.5 263.5q0 175 91 275t246 100q54 0 112 -11.5t90 -23.5l31 -12l-5 -180h-93z" />
    <glyph glyph-name="gdotaccent" unicode="&#x121;" horiz-adv-x="610" 
d="M230 90h148q96 0 148 -40t52 -115q0 -86 -70.5 -138t-209.5 -52q-126 0 -192 33t-66 112q0 38 26 68t52 41l27 11q-7 1 -17 4t-26.5 20t-16.5 42q0 31 52 113q-77 51 -77 156q0 99 66.5 152t173.5 53q67 0 118 -24l172 4v-80l-82 -14q0 -1 5 -13.5t8.5 -29.5t3.5 -36
q0 -104 -65 -154.5t-175 -50.5q-12 0 -23.5 1t-19 2.5t-8.5 1.5zM295 447q-85 0 -85 -95q0 -100 80 -100q46 0 65.5 24t19.5 76q0 95 -80 95zM338 -20h-105q-5 -2 -13 -7t-21.5 -22t-13.5 -36q0 -36 29.5 -48t95.5 -12q68 0 98 16t30 52q0 32 -23.5 44.5t-76.5 12.5z
M223 698q0 35 22 56.5t52 21.5q72 0 72 -78q0 -36 -21.5 -57t-52.5 -21q-72 0 -72 78z" />
    <glyph glyph-name="Gcommaaccent" unicode="&#x122;" horiz-adv-x="750" 
d="M527 490l-25 86q-47 16 -113 16q-167 0 -167 -245q0 -232 170 -232q23 0 50.5 4.5t43.5 8.5l16 5v126l-75 23v82l288 5v-87l-68 -23v-204q-12 -8 -33.5 -19t-92.5 -29.5t-146 -18.5q-153 0 -236.5 90.5t-83.5 263.5q0 175 91 275t246 100q54 0 112 -11.5t90 -23.5l31 -12
l-5 -180h-93zM305 -332l-53 48q58 63 58 86q0 11 -12.5 34t-12.5 41q0 33 21 53t52 20t51.5 -21t20.5 -57q0 -45 -33 -98.5t-92 -105.5z" />
    <glyph glyph-name="gcommaaccent" unicode="&#x123;" horiz-adv-x="610" 
d="M230 90h148q96 0 148 -40t52 -115q0 -86 -70.5 -138t-209.5 -52q-126 0 -192 33t-66 112q0 38 26 68t52 41l27 11q-7 1 -17 4t-26.5 20t-16.5 42q0 31 52 113q-77 51 -77 156q0 99 66.5 152t173.5 53q67 0 118 -24l172 4v-80l-82 -14q0 -1 5 -13.5t8.5 -29.5t3.5 -36
q0 -104 -65 -154.5t-175 -50.5q-12 0 -23.5 1t-19 2.5t-8.5 1.5zM295 447q-85 0 -85 -95q0 -100 80 -100q46 0 65.5 24t19.5 76q0 95 -80 95zM338 -20h-105q-5 -2 -13 -7t-21.5 -22t-13.5 -36q0 -36 29.5 -48t95.5 -12q68 0 98 16t30 52q0 32 -23.5 44.5t-76.5 12.5z
M284 578l-53 48q58 63 58 86q0 11 -12.5 34t-12.5 41q0 33 21 53t52 20t51.5 -21t20.5 -57q0 -45 -33 -98.5t-92 -105.5z" />
    <glyph glyph-name="Hcircumflex" unicode="&#x124;" horiz-adv-x="792" 
d="M201 808l153 131l89 8l162 -139l-48 -66l-151 98l-157 -98zM35 0v85l75 30v470l-75 30v85l310 5v-90l-80 -30v-160h262v160l-80 30v85l310 5v-90l-75 -30v-470l75 -30v-85h-310v85l80 30v190h-262v-190l80 -30v-85h-310z" />
    <glyph glyph-name="hcircumflex" unicode="&#x125;" horiz-adv-x="670" 
d="M-53 840l164 153l89 8l175 -161l-48 -66l-164 120l-168 -120zM250 775v-293q82 68 168 68q76 0 116.5 -47.5t40.5 -132.5v-265l70 -25v-80h-272v80l52 24v242q0 80 -66 80q-25 0 -52 -13t-42 -27l-15 -13v-268l53 -25v-80h-283v80l80 25v562l-80 20v80z" />
    <glyph glyph-name="Hbar" unicode="&#x126;" horiz-adv-x="792" 
d="M682 585v-30h75v-90h-75v-350l75 -30v-85h-307v85l77 30v180h-262v-180l77 -30v-85h-307v85l75 30v350h-75v90h75v30l-75 30v85l307 5v-88l-77 -30v-32h262v32l-77 30v83l307 5v-90zM527 465h-262v-53h262v53z" />
    <glyph glyph-name="hbar" unicode="&#x127;" horiz-adv-x="670" 
d="M645 80v-80h-272v80l52 24v242q0 80 -66 80q-25 0 -52 -13t-42 -27l-15 -13v-268l53 -25v-80h-283v80l80 25v455h-80v80h80v27l-80 20v80l230 8v-135h77v-80h-77v-78q82 68 168 68q76 0 116.5 -47.5t40.5 -132.5v-265z" />
    <glyph glyph-name="Itilde" unicode="&#x128;" horiz-adv-x="375" 
d="M25 777l-48 39q2 4 5 11.5t15 26.5t25 33.5t35 26.5t45 12q36 0 90.5 -23t83.5 -23q17 0 34.5 10.5t25.5 21.5l9 10l55 -42q-2 -4 -6 -11t-17.5 -25t-28 -32t-37.5 -25t-46 -11q-36 0 -87.5 19.5t-80.5 19.5q-19 0 -37 -9.5t-26 -19.5zM40 0v85l75 30v470l-75 30v85
l305 5v-90l-75 -30v-470l75 -30v-85h-305z" />
    <glyph glyph-name="itilde" unicode="&#x129;" horiz-adv-x="361" 
d="M15 630l-47 46q2 4 5 11.5t14.5 26.5t25 33.5t34.5 26.5t43 12q34 0 81.5 -23t70.5 -23q16 0 32.5 10.5t25.5 21.5l8 10l53 -46q-2 -4 -5 -11.5t-15 -26.5t-25 -33t-34 -26t-43 -12q-31 0 -79 22t-75 22q-17 0 -34.5 -10.5t-26.5 -20.5zM262 105l70 -25v-80h-297v80
l80 25v327l-80 20v80l227 8v-435z" />
    <glyph glyph-name="Imacron" unicode="&#x12a;" horiz-adv-x="385" 
d="M343 907v-105h-300v105h300zM40 0v85l75 30v470l-75 30v85l305 5v-90l-75 -30v-470l75 -30v-85h-305z" />
    <glyph glyph-name="imacron" unicode="&#x12b;" horiz-adv-x="362" 
d="M323 752v-105h-300v105h300zM262 105l70 -25v-80h-297v80l80 25v327l-80 20v80l227 8v-435z" />
    <glyph glyph-name="Ibreve" unicode="&#x12c;" horiz-adv-x="385" 
d="M29 932l87 9q0 -3 1.5 -8t7 -18t13 -22.5t22.5 -17.5t33 -8q31 0 50 16.5t23 32.5l3 16l87 7q0 -83 -49.5 -129.5t-123.5 -46.5q-66 0 -110 45.5t-44 123.5zM40 0v85l75 30v470l-75 30v85l305 5v-90l-75 -30v-470l75 -30v-85h-305z" />
    <glyph glyph-name="ibreve" unicode="&#x12d;" horiz-adv-x="362" 
d="M16 781l87 9q0 -3 1.5 -8t7 -18t13 -22.5t22.5 -17.5t33 -8q31 0 50 16t22 32l4 17l87 7q0 -83 -49.5 -129.5t-123.5 -46.5q-66 0 -110 45.5t-44 123.5zM262 105l70 -25v-80h-297v80l80 25v327l-80 20v80l227 8v-435z" />
    <glyph glyph-name="Iogonek" unicode="&#x12e;" horiz-adv-x="375" 
d="M270 585v-470l75 -30v-85q-146 -63 -146 -110q0 -36 37 -36l43 6l17 -70q-47 -25 -102 -25q-48 0 -79 25.5t-31 74.5q0 26 13.5 50.5t35.5 41.5t37 26.5t30 16.5h-160v85l75 30v470l-75 30v85l305 5v-90z" />
    <glyph glyph-name="iogonek" unicode="&#x12f;" horiz-adv-x="365" 
d="M183 614q-41 0 -63.5 23.5t-22.5 67.5q0 41 25.5 65.5t60.5 24.5q84 0 84 -90q0 -42 -25.5 -66.5t-58.5 -24.5zM335 80v-80h-3q-6 -2 -16 -6.5t-35 -18t-44 -26t-35 -29t-16 -30.5q0 -36 37 -36l43 6l17 -70q-47 -25 -102 -25q-48 0 -79 25.5t-31 74.5q0 38 30.5 72
t60.5 49l30 14h-157v80l80 25v325l-80 25v80l230 5v-435z" />
    <glyph glyph-name="Idotaccent" unicode="&#x130;" horiz-adv-x="385" 
d="M115 847q0 35 22 56.5t52 21.5q72 0 72 -78q0 -36 -21.5 -57t-52.5 -21q-72 0 -72 78zM40 0v85l75 30v470l-75 30v85l305 5v-90l-75 -30v-470l75 -30v-85h-305z" />
    <glyph glyph-name="dotlessi" unicode="&#x131;" horiz-adv-x="362" 
d="M262 105l70 -25v-80h-297v80l80 25v327l-80 20v80l227 8v-435z" />
    <glyph glyph-name="IJ" unicode="&#x132;" horiz-adv-x="769" 
d="M40 0v85l75 30v470l-75 30v85l305 5v-90l-75 -30v-470l75 -30v-85h-305zM659 585v-479q0 -137 -50.5 -201.5t-177.5 -64.5l-76 7l13 103h48q88 0 88 96v539l-75 30v85l305 5v-90z" />
    <glyph glyph-name="ij" unicode="&#x133;" horiz-adv-x="702" 
d="M97 705q0 41 25.5 65.5t60.5 24.5q84 0 84 -90q0 -42 -25.5 -66.5t-58.5 -24.5q-41 0 -63.5 23.5t-22.5 67.5zM462 705q0 40 24.5 65t61.5 25q84 0 84 -90q0 -40 -24.5 -65.5t-59.5 -25.5q-41 0 -63.5 23.5t-22.5 67.5zM265 105l70 -25v-80h-300v80l80 25v325l-80 25v80
l230 5v-435zM630 540v-527q0 -135 -48.5 -196.5t-171.5 -61.5l-76 7l12 98h52q44 0 63 24.5t19 74.5v471l-80 25v80z" />
    <glyph glyph-name="Jcircumflex" unicode="&#x134;" horiz-adv-x="384" 
d="M-10 808l153 131l89 8l162 -139l-48 -66l-151 98l-157 -98zM274 585v-479q0 -137 -50.5 -201.5t-177.5 -64.5l-76 7l13 103h48q88 0 88 96v539l-75 30v85l305 5v-90z" />
    <glyph glyph-name="jcircumflex" unicode="&#x135;" horiz-adv-x="333" 
d="M-50 664l164 153l89 8l175 -161l-48 -66l-164 120l-168 -120zM263 540v-527q0 -135 -48 -196.5t-170 -61.5l-76 7l12 93h52q44 0 63 24.5t19 74.5v476l-80 25v80z" />
    <glyph glyph-name="Kcommaaccent" unicode="&#x136;" horiz-adv-x="720" 
d="M35 0v85l75 30v472l-75 30v83l305 5v-88l-75 -30v-172h68l167 285l185 5v-88l-95 -28l-131 -218l186 -256l75 -30v-85h-305v85l60 30l-137 190h-73v-190l75 -30v-85h-305zM310 -332l-53 48q58 63 58 86q0 11 -12.5 34t-12.5 41q0 33 21 53t52 20t51.5 -21t20.5 -57
q0 -45 -33 -98.5t-92 -105.5z" />
    <glyph glyph-name="kcommaaccent" unicode="&#x137;" horiz-adv-x="633" 
d="M250 339h66l68 102l-44 14v80l258 5v-85l-70 -13l-93 -131l112 -207l76 -24v-80h-185l-124 244h-64v-139l55 -25v-80h-285v80l80 25v562l-80 20v80l230 8v-436zM277 -332l-53 48q58 63 58 86q0 11 -12.5 34t-12.5 41q0 33 21 53t52 20t51.5 -21t20.5 -57q0 -45 -33 -98.5
t-92 -105.5z" />
    <glyph glyph-name="kgreenlandic" unicode="&#x138;" horiz-adv-x="648" 
d="M265 339h65l69 101l-44 15v80l258 7v-85l-70 -16l-93 -130l112 -207l76 -24v-80h-185l-124 244h-64v-139l55 -25v-80h-285v80l80 25v325l-80 25v80l230 7v-203z" />
    <glyph glyph-name="Lacute" unicode="&#x139;" horiz-adv-x="540" 
d="M141 735l-46 80l215 141l58 -109zM413 120l22 110h95v-230h-500v85l75 30v470l-75 30v85l305 5v-90l-75 -30v-465h153z" />
    <glyph glyph-name="lacute" unicode="&#x13a;" horiz-adv-x="346" 
d="M81 785l-46 80l215 141l58 -109zM251 105l90 -25v-80h-321v80l80 25v562l-80 20v80l231 8v-670z" />
    <glyph glyph-name="Lcommaaccent" unicode="&#x13b;" horiz-adv-x="540" 
d="M413 120l22 110h95v-230h-500v85l75 30v470l-75 30v85l305 5v-90l-75 -30v-465h153zM235 -332l-53 48q58 63 58 86q0 11 -12.5 34t-12.5 41q0 33 21 53t52 20t51.5 -21t20.5 -57q0 -45 -33 -98.5t-92 -105.5z" />
    <glyph glyph-name="lcommaaccent" unicode="&#x13c;" horiz-adv-x="346" 
d="M251 105l90 -25v-80h-321v80l80 25v562l-80 20v80l231 8v-670zM120 -332l-53 48q58 63 58 86q0 11 -12.5 34t-12.5 41q0 33 21 53t52 20t51.5 -21t20.5 -57q0 -45 -33 -98.5t-92 -105.5z" />
    <glyph glyph-name="Lcaron" unicode="&#x13d;" horiz-adv-x="545" 
d="M413 120l22 110h95v-230h-500v85l75 30v470l-75 30v85l305 5v-90l-75 -30v-465h153zM451 420l-80 28q38 132 33 252l131 5q-2 -120 -84 -285z" />
    <glyph glyph-name="lcaron" unicode="&#x13e;" horiz-adv-x="464" 
d="M386 510l-78 28q36 128 32 237l134 5q-1 -97 -88 -270zM251 105l90 -25v-80h-321v80l80 25v562l-80 20v80l231 8v-670z" />
    <glyph glyph-name="Ldot" unicode="&#x13f;" horiz-adv-x="540" 
d="M413 120l22 110h95v-230h-500v85l75 30v470l-75 30v85l305 5v-90l-75 -30v-465h153zM323 376q0 44 25 69t65 25q86 0 86 -94q0 -44 -24.5 -68.5t-64.5 -24.5q-87 0 -87 93z" />
    <glyph glyph-name="ldot" unicode="&#x140;" horiz-adv-x="507" 
d="M251 105l90 -25v-80h-321v80l80 25v562l-80 20v80l231 8v-670zM326 313q0 44 25 69t65 25q86 0 86 -94q0 -44 -24.5 -68.5t-64.5 -24.5q-87 0 -87 93z" />
    <glyph glyph-name="Lslash" unicode="&#x141;" horiz-adv-x="564" 
d="M421 499l32 -107l-169 -75v-197h153l22 110h95v-230h-500v85l75 30v139l-77 -34l-32 107l109 48v210l-75 30v85l305 5v-90l-75 -30v-147z" />
    <glyph glyph-name="lslash" unicode="&#x142;" horiz-adv-x="431" 
d="M298 468l100 44l23 -111l-123 -54v-242l95 -25v-80h-326v80l80 25v181l-91 -40l-31 106l122 54v261l-80 20v80l231 8v-307z" />
    <glyph glyph-name="Nacute" unicode="&#x143;" horiz-adv-x="787" 
d="M351 735l-46 80l215 141l58 -109zM35 0v85l75 30v470l-75 30v85l240 5l270 -462v342l-73 30v85l285 5v-90l-75 -30v-585h-167l-268 453v-338l78 -30v-85h-290z" />
    <glyph glyph-name="nacute" unicode="&#x144;" horiz-adv-x="685" 
d="M521 747l-68 104l-223 -178l49 -73zM247 540l7 -69q11 9 29 21.5t66.5 34t88.5 21.5q72 0 112 -47.5t40 -130.5v-265l70 -25v-80h-275v80l55 25v238q0 35 -18.5 57.5t-49.5 22.5q-28 0 -54.5 -14.5t-39.5 -28.5l-13 -14v-261l55 -25v-80h-285v80l80 25v325l-80 25v80z
" />
    <glyph glyph-name="Ncommaaccent" unicode="&#x145;" horiz-adv-x="787" 
d="M35 0v85l75 30v470l-75 30v85l240 5l270 -462v342l-73 30v85l285 5v-90l-75 -30v-585h-167l-268 453v-338l78 -30v-85h-290zM340 -332l-53 48q58 63 58 86q0 11 -12.5 34t-12.5 41q0 33 21 53t52 20t51.5 -21t20.5 -57q0 -45 -33 -98.5t-92 -105.5z" />
    <glyph glyph-name="ncommaaccent" unicode="&#x146;" horiz-adv-x="685" 
d="M247 540l7 -69q11 9 29 21.5t66.5 34t88.5 21.5q72 0 112 -47.5t40 -130.5v-265l70 -25v-80h-275v80l55 25v238q0 35 -18.5 57.5t-49.5 22.5q-28 0 -54.5 -14.5t-39.5 -28.5l-13 -14v-261l55 -25v-80h-285v80l80 25v325l-80 25v80zM278 -332l-53 48q58 63 58 86
q0 11 -12.5 34t-12.5 41q0 33 21 53t52 20t51.5 -21t20.5 -57q0 -45 -33 -98.5t-92 -105.5z" />
    <glyph glyph-name="Ncaron" unicode="&#x147;" horiz-adv-x="787" 
d="M587 897l-143 -140l-89 -7l-153 147l55 60l141 -106l139 106zM35 0v85l75 30v470l-75 30v85l240 5l270 -462v342l-73 30v85l285 5v-90l-75 -30v-585h-167l-268 453v-338l78 -30v-85h-290z" />
    <glyph glyph-name="ncaron" unicode="&#x148;" horiz-adv-x="685" 
d="M498 824l48 -58l-157 -156l-89 -5l-167 161l54 57l156 -117zM247 540l7 -69q11 9 29 21.5t66.5 34t88.5 21.5q72 0 112 -47.5t40 -130.5v-265l70 -25v-80h-275v80l55 25v238q0 35 -18.5 57.5t-49.5 22.5q-28 0 -54.5 -14.5t-39.5 -28.5l-13 -14v-261l55 -25v-80h-285v80
l80 25v325l-80 25v80z" />
    <glyph glyph-name="napostrophe" unicode="&#x149;" horiz-adv-x="685" 
d="M31 570l-64 48q4 7 16.5 23t20.5 29t8 21t-10.5 30t-10.5 38q0 30 22.5 50t56.5 20q33 0 54.5 -23t21.5 -56q0 -83 -115 -180zM247 540l7 -69q11 9 29 21.5t66.5 34t88.5 21.5q72 0 112 -47.5t40 -130.5v-265l70 -25v-80h-275v80l55 25v238q0 35 -18.5 57.5t-49.5 22.5
q-28 0 -54.5 -14.5t-39.5 -28.5l-13 -14v-261l55 -25v-80h-285v80l80 25v325l-80 25v80z" />
    <glyph glyph-name="Eng" unicode="&#x14a;" horiz-adv-x="792" 
d="M757 615l-75 -30v-479q0 -136 -50.5 -199.5t-177.5 -63.5l-76 7l13 100h55q67 0 88 37l-287 466v-338l78 -30v-85h-290v85l75 30v470l-75 30v85l240 5l270 -469v349l-73 30v85l285 5v-90z" />
    <glyph glyph-name="eng" unicode="&#x14b;" horiz-adv-x="660" 
d="M247 540l7 -69q11 9 29 21.5t66.5 34t88.5 21.5q74 0 113 -47.5t39 -130.5v-352q0 -137 -48.5 -200t-172.5 -63l-76 7l12 93h52q83 0 83 105v387q0 35 -18.5 57.5t-49.5 22.5q-28 0 -54.5 -14.5t-39.5 -28.5l-13 -14v-265l52 -25v-80h-282v80l80 25v325l-80 25v80z" />
    <glyph glyph-name="Omacron" unicode="&#x14c;" horiz-adv-x="755" 
d="M538 907v-105h-300v105h300zM385 717q150 0 232.5 -93.5t82.5 -261.5q0 -169 -92.5 -272t-242.5 -103t-230 92t-80 268q0 172 88.5 271t241.5 99zM380 592q-78 0 -116.5 -55.5t-38.5 -184.5q0 -124 35 -182t110 -58q78 0 119 57.5t41 187.5q0 122 -37 178.5t-113 56.5z
" />
    <glyph glyph-name="omacron" unicode="&#x14d;" horiz-adv-x="592" 
d="M455 752v-105h-300v105h300zM305 550q121 0 186.5 -70.5t65.5 -199.5q0 -134 -72.5 -212t-194.5 -78q-255 0 -255 275q0 134 73 209.5t197 75.5zM300 430q-57 0 -83.5 -36.5t-26.5 -123.5q0 -83 25 -121.5t80 -38.5t81 38.5t26 126.5q0 155 -102 155z" />
    <glyph glyph-name="Obreve" unicode="&#x14e;" horiz-adv-x="755" 
d="M214 932l87 9q0 -3 1.5 -8t7 -18t13 -22.5t22.5 -17.5t33 -8q31 0 50 16.5t22 32.5l4 16l87 7q0 -83 -49.5 -129.5t-123.5 -46.5q-66 0 -110 45.5t-44 123.5zM385 717q150 0 232.5 -93.5t82.5 -261.5q0 -169 -92.5 -272t-242.5 -103t-230 92t-80 268q0 172 88.5 271
t241.5 99zM380 592q-78 0 -116.5 -55.5t-38.5 -184.5q0 -124 35 -182t110 -58q78 0 119 57.5t41 187.5q0 122 -37 178.5t-113 56.5z" />
    <glyph glyph-name="obreve" unicode="&#x14f;" horiz-adv-x="592" 
d="M134 781l87 9q0 -3 1.5 -8t7 -18t13 -22.5t22.5 -17.5t33 -8q31 0 50 16t22 32l4 17l87 7q0 -83 -49.5 -129.5t-123.5 -46.5q-66 0 -110 45.5t-44 123.5zM305 550q121 0 186.5 -70.5t65.5 -199.5q0 -134 -72.5 -212t-194.5 -78q-255 0 -255 275q0 134 73 209.5t197 75.5z
M300 430q-57 0 -83.5 -36.5t-26.5 -123.5q0 -83 25 -121.5t80 -38.5t81 38.5t26 126.5q0 155 -102 155z" />
    <glyph glyph-name="Ohungarumlaut" unicode="&#x150;" horiz-adv-x="755" 
d="M385 717q150 0 232.5 -93.5t82.5 -261.5q0 -169 -92.5 -272t-242.5 -103t-230 92t-80 268q0 172 88.5 271t241.5 99zM380 592q-78 0 -116.5 -55.5t-38.5 -184.5q0 -124 35 -182t110 -58q78 0 119 57.5t41 187.5q0 122 -37 178.5t-113 56.5zM178 797l177 190l81 -83
l-195 -169zM403 797l177 190l81 -83l-195 -169z" />
    <glyph glyph-name="ohungarumlaut" unicode="&#x151;" horiz-adv-x="592" 
d="M305 550q121 0 186.5 -70.5t65.5 -199.5q0 -134 -72.5 -212t-194.5 -78q-255 0 -255 275q0 134 73 209.5t197 75.5zM300 430q-57 0 -83.5 -36.5t-26.5 -123.5q0 -83 25 -121.5t80 -38.5t81 38.5t26 126.5q0 155 -102 155zM107 659l177 190l81 -83l-195 -169zM332 659
l177 190l81 -83l-195 -169z" />
    <glyph glyph-name="OE" unicode="&#x152;" horiz-adv-x="964" 
d="M794 120l23 80h92v-200h-360q-23 0 -87 -5t-97 -5q-151 0 -230.5 91t-79.5 266q0 172 89 270t241 98q30 0 90.5 -5t86.5 -5h335v-195h-93l-25 75h-162v-165h202v-110h-202v-190h177zM462 120v465q-28 4 -71 4q-86 0 -127 -52t-41 -185q0 -123 36.5 -180t113.5 -57
q20 0 52.5 2.5t36.5 2.5z" />
    <glyph glyph-name="oe" unicode="&#x153;" horiz-adv-x="928" 
d="M848 157l43 -83q-11 -9 -31 -23t-79 -37.5t-115 -23.5q-125 0 -188 87q-72 -87 -190 -87q-253 0 -253 275q0 133 73 209t195 76q119 0 186 -86q67 86 184 86q108 0 166.5 -63t58.5 -172q0 -17 -1.5 -35.5t-2.5 -30.5l-2 -12h-332q4 -60 36.5 -93.5t83.5 -33.5
q17 0 32.5 1.5t30.5 5t26 6.5t24.5 9t20 8.5t19 9t15.5 7.5zM300 430q-56 0 -83 -36.5t-27 -123.5q0 -82 25.5 -121t79.5 -39q56 0 83 38.5t27 126.5q0 155 -105 155zM562 330h180q0 45 -20 72.5t-62 27.5q-40 0 -66 -27.5t-32 -72.5z" />
    <glyph glyph-name="Racute" unicode="&#x154;" horiz-adv-x="675" 
d="M251 735l-46 80l215 141l58 -109zM35 0v85l75 30v470l-75 30v85l230 5h76q125 0 192.5 -51.5t67.5 -152.5q0 -133 -113 -189q25 -29 42 -65l67 -137l68 -25v-85h-185l-84 185q-27 60 -42.5 76t-53.5 16h-35v-162l72 -30v-85h-302zM265 382h57q59 0 92 27.5t33 77.5
q0 43 -27 70.5t-73 27.5h-82v-203z" />
    <glyph glyph-name="racute" unicode="&#x155;" horiz-adv-x="491" 
d="M407 747l-68 104l-223 -178l49 -73zM245 540l9 -69q8 9 22 22t50.5 35t66.5 22q24 0 47.5 -4.5t34.5 -9.5l11 -4l-8 -192h-90l-15 85q-26 0 -53 -14t-41 -28l-14 -14v-264l100 -25v-80h-330v80l80 25v325l-80 25v80z" />
    <glyph glyph-name="Rcommaaccent" unicode="&#x156;" horiz-adv-x="675" 
d="M35 0v85l75 30v470l-75 30v85l230 5h76q125 0 192.5 -51.5t67.5 -152.5q0 -133 -113 -189q25 -29 42 -65l67 -137l68 -25v-85h-185l-84 185q-27 60 -42.5 76t-53.5 16h-35v-162l72 -30v-85h-302zM265 382h57q59 0 92 27.5t33 77.5q0 43 -27 70.5t-73 27.5h-82v-203z
M310 -332l-53 48q58 63 58 86q0 11 -12.5 34t-12.5 41q0 33 21 53t52 20t51.5 -21t20.5 -57q0 -45 -33 -98.5t-92 -105.5z" />
    <glyph glyph-name="rcommaaccent" unicode="&#x157;" horiz-adv-x="491" 
d="M245 540l9 -69q8 9 22 22t50.5 35t66.5 22q24 0 47.5 -4.5t34.5 -9.5l11 -4l-8 -192h-90l-15 85q-26 0 -53 -14t-41 -28l-14 -14v-264l100 -25v-80h-330v80l80 25v325l-80 25v80zM136 -332l-53 48q58 63 58 86q0 11 -12.5 34t-12.5 41q0 33 21 53t52 20t51.5 -21
t20.5 -57q0 -45 -33 -98.5t-92 -105.5z" />
    <glyph glyph-name="Rcaron" unicode="&#x158;" horiz-adv-x="675" 
d="M505 897l-143 -140l-89 -7l-153 147l55 60l141 -106l139 106zM35 0v85l75 30v470l-75 30v85l230 5h76q125 0 192.5 -51.5t67.5 -152.5q0 -133 -113 -189q25 -29 42 -65l67 -137l68 -25v-85h-185l-84 185q-27 60 -42.5 76t-53.5 16h-35v-162l72 -30v-85h-302zM265 382h57
q59 0 92 27.5t33 77.5q0 43 -27 70.5t-73 27.5h-82v-203z" />
    <glyph glyph-name="rcaron" unicode="&#x159;" horiz-adv-x="491" 
d="M415 824l48 -58l-157 -156l-89 -5l-167 161l54 57l156 -117zM245 540l9 -69q8 9 22 22t50.5 35t66.5 22q24 0 47.5 -4.5t34.5 -9.5l11 -4l-8 -192h-90l-15 85q-26 0 -53 -14t-41 -28l-14 -14v-264l100 -25v-80h-330v80l80 25v325l-80 25v80z" />
    <glyph glyph-name="Sacute" unicode="&#x15a;" horiz-adv-x="605" 
d="M236 735l-46 80l215 141l58 -109zM164 217l15 -84q40 -21 98 -21q51 0 86 21.5t35 59.5q0 27 -25 47t-62.5 31t-81.5 29.5t-81.5 40t-62.5 64t-25 100.5q0 101 70.5 156.5t183.5 55.5q50 0 105 -10t85 -20l30 -10l-5 -182h-92l-25 85q-45 15 -88 15q-51 0 -78.5 -20
t-27.5 -51q0 -27 25 -47t62.5 -31.5t81 -29.5t81 -39t62.5 -62t25 -96q0 -109 -75.5 -170.5t-194.5 -61.5q-50 0 -106 9.5t-87 19.5l-30 9v192h102z" />
    <glyph glyph-name="sacute" unicode="&#x15b;" horiz-adv-x="487" 
d="M396 747l-68 104l-223 -178l49 -73zM128 175l8 -65q35 -10 84 -10q82 0 82 49q0 22 -27.5 37.5t-67 28t-78.5 29.5t-66.5 51.5t-27.5 83.5q0 88 59 129.5t147 41.5q40 0 86.5 -7.5t72.5 -14.5l27 -8l-4 -150h-85l-15 60q-29 10 -69 10q-69 0 -69 -51q0 -22 27.5 -36.5
t66.5 -26t78.5 -27t67 -48.5t27.5 -81q0 -85 -62.5 -132.5t-167.5 -47.5q-42 0 -88 5.5t-71 10.5l-25 6v163h90z" />
    <glyph glyph-name="Scircumflex" unicode="&#x15c;" horiz-adv-x="605" 
d="M101 808l153 131l89 8l162 -139l-48 -66l-151 98l-157 -98zM164 217l15 -84q40 -21 98 -21q51 0 86 21.5t35 59.5q0 27 -25 47t-62.5 31t-81.5 29.5t-81.5 40t-62.5 64t-25 100.5q0 101 70.5 156.5t183.5 55.5q50 0 105 -10t85 -20l30 -10l-5 -182h-92l-25 85
q-45 15 -88 15q-51 0 -78.5 -20t-27.5 -51q0 -27 25 -47t62.5 -31.5t81 -29.5t81 -39t62.5 -62t25 -96q0 -109 -75.5 -170.5t-194.5 -61.5q-50 0 -106 9.5t-87 19.5l-30 9v192h102z" />
    <glyph glyph-name="scircumflex" unicode="&#x15d;" horiz-adv-x="487" 
d="M28 664l164 153l89 8l175 -161l-48 -66l-164 120l-168 -120zM128 175l8 -65q35 -10 84 -10q82 0 82 49q0 22 -27.5 37.5t-67 28t-78.5 29.5t-66.5 51.5t-27.5 83.5q0 88 59 129.5t147 41.5q40 0 86.5 -7.5t72.5 -14.5l27 -8l-4 -150h-85l-15 60q-29 10 -69 10
q-69 0 -69 -51q0 -22 27.5 -36.5t66.5 -26t78.5 -27t67 -48.5t27.5 -81q0 -85 -62.5 -132.5t-167.5 -47.5q-42 0 -88 5.5t-71 10.5l-25 6v163h90z" />
    <glyph glyph-name="Scedilla" unicode="&#x15e;" horiz-adv-x="605" 
d="M437 495l-25 85q-45 15 -88 15q-51 0 -78.5 -20t-27.5 -51q0 -27 25 -47t62.5 -31.5t81 -29.5t81 -39t62.5 -62t25 -96q0 -97 -59.5 -156.5t-158.5 -72.5v-33q40 -8 63 -31t23 -58q0 -45 -35 -73t-91 -28q-30 0 -60.5 8t-46.5 16l-15 8l31 55q40 -21 78 -21
q23 0 36.5 10.5t13.5 27.5q0 43 -82 43v74q-44 3 -91.5 12t-72.5 17l-26 8v192h102l15 -84q40 -21 98 -21q51 0 86 21.5t35 59.5q0 27 -25 47t-62.5 31t-81.5 29.5t-81.5 40t-62.5 64t-25 100.5q0 101 70.5 156.5t183.5 55.5q50 0 105 -10t85 -20l30 -10l-5 -182h-92z" />
    <glyph glyph-name="scedilla" unicode="&#x15f;" horiz-adv-x="487" 
d="M338 370l-15 60q-29 10 -69 10q-69 0 -69 -51q0 -22 27.5 -36.5t66.5 -26t78.5 -27t67 -48.5t27.5 -81q0 -75 -50 -121.5t-135 -55.5v-36q40 -8 63 -31t23 -58q0 -45 -35 -73t-91 -28q-30 0 -60.5 8t-46.5 16l-15 8l31 55q40 -21 78 -21q23 0 36.5 10.5t13.5 27.5
q0 43 -82 43v77q-35 2 -71 7.5t-55 9.5l-18 4v163h90l8 -65q35 -10 84 -10q82 0 82 49q0 22 -27.5 37.5t-67 28t-78.5 29.5t-66.5 51.5t-27.5 83.5q0 88 59 129.5t147 41.5q40 0 86.5 -7.5t72.5 -14.5l27 -8l-4 -150h-85z" />
    <glyph glyph-name="Scaron" unicode="&#x160;" horiz-adv-x="605" 
d="M496 897l-143 -140l-89 -7l-153 147l55 60l141 -106l139 106zM164 217l15 -84q40 -21 98 -21q51 0 86 21.5t35 59.5q0 27 -25 47t-62.5 31t-81.5 29.5t-81.5 40t-62.5 64t-25 100.5q0 101 70.5 156.5t183.5 55.5q50 0 105 -10t85 -20l30 -10l-5 -182h-92l-25 85
q-45 15 -88 15q-51 0 -78.5 -20t-27.5 -51q0 -27 25 -47t62.5 -31.5t81 -29.5t81 -39t62.5 -62t25 -96q0 -109 -75.5 -170.5t-194.5 -61.5q-50 0 -106 9.5t-87 19.5l-30 9v192h102z" />
    <glyph glyph-name="scaron" unicode="&#x161;" horiz-adv-x="487" 
d="M409 824l48 -58l-157 -156l-89 -5l-167 161l54 57l156 -117zM128 175l8 -65q35 -10 84 -10q82 0 82 49q0 22 -27.5 37.5t-67 28t-78.5 29.5t-66.5 51.5t-27.5 83.5q0 88 59 129.5t147 41.5q40 0 86.5 -7.5t72.5 -14.5l27 -8l-4 -150h-85l-15 60q-29 10 -69 10
q-69 0 -69 -51q0 -22 27.5 -36.5t66.5 -26t78.5 -27t67 -48.5t27.5 -81q0 -85 -62.5 -132.5t-167.5 -47.5q-42 0 -88 5.5t-71 10.5l-25 6v163h90z" />
    <glyph glyph-name="Tcedilla" unicode="&#x162;" horiz-adv-x="600" 
d="M590 705v-215h-93l-25 95h-95v-470l95 -30v-85h-135v-43q40 -8 63 -31t23 -58q0 -45 -35 -73t-91 -28q-30 0 -60.5 8t-46.5 16l-15 8l31 55q40 -21 78 -21q23 0 36.5 10.5t13.5 27.5q0 43 -82 43v86h-125v85l95 30v470h-95l-25 -95h-92v215h580z" />
    <glyph glyph-name="tcedilla" unicode="&#x163;" horiz-adv-x="436" 
d="M286 -8v-35q40 -8 63 -31t23 -58q0 -45 -35 -73t-91 -28q-30 0 -60.5 8t-45.5 16l-16 8l31 55q40 -21 78 -21q23 0 36.5 10.5t13.5 27.5q0 43 -82 43v84q-93 29 -93 187v230h-93v97l93 13v138l150 27v-165h140v-110h-140v-220q0 -50 11 -70t42 -20q36 0 79 23l36 -76
q-71 -52 -140 -60z" />
    <glyph glyph-name="Tcaron" unicode="&#x164;" horiz-adv-x="600" 
d="M495 897l-143 -140l-89 -7l-153 147l55 60l141 -106l139 106zM222 115v470h-95l-25 -95h-92v215h580v-215h-93l-25 95h-95v-470l95 -30v-85h-345v85z" />
    <glyph glyph-name="tcaron" unicode="&#x165;" horiz-adv-x="459" 
d="M386 560l-78 28q36 128 32 237l134 5q-1 -97 -88 -270zM390 128l36 -76q-84 -62 -170 -62q-81 0 -114.5 50.5t-33.5 144.5v230h-93v97l93 13v138l150 27v-165h140v-110h-140v-220q0 -50 11 -70t42 -20q36 0 79 23z" />
    <glyph glyph-name="Tbar" unicode="&#x166;" horiz-adv-x="600" 
d="M377 585v-190h135v-95h-135v-185l95 -30v-85h-345v85l95 30v185h-135v95h135v190h-95l-25 -95h-92v215h580v-215h-93l-25 95h-95z" />
    <glyph glyph-name="tbar" unicode="&#x167;" horiz-adv-x="446" 
d="M395 128l36 -76q-84 -62 -170 -62q-81 0 -114.5 50.5t-33.5 144.5v72h-91v80h91v78h-93v97l93 13v138l150 27v-165h140v-110h-140v-78h139v-80h-139v-62q0 -50 11 -70t42 -20q36 0 79 23z" />
    <glyph glyph-name="Utilde" unicode="&#x168;" horiz-adv-x="789" 
d="M230 777l-48 39q2 4 5 11.5t15 26.5t25 33.5t35 26.5t45 12q36 0 90.5 -23t83.5 -23q17 0 34.5 10.5t26.5 21.5l8 10l55 -42q-2 -4 -6 -11t-17.5 -25t-28 -32t-37.5 -25t-46 -11q-36 0 -87.5 19.5t-80.5 19.5q-19 0 -37 -9.5t-27 -19.5zM264 585v-315q0 -87 29 -123.5
t102 -36.5q76 0 102.5 40.5t26.5 134.5v300l-78 30v85l308 5v-90l-75 -30v-300q0 -150 -66.5 -223.5t-222.5 -73.5q-149 0 -215 68t-66 214v315l-74 30v85l307 5v-90z" />
    <glyph glyph-name="utilde" unicode="&#x169;" horiz-adv-x="669" 
d="M149 630l-47 46q2 4 5 11.5t15 26.5t25 33.5t35 26.5t45 12q36 0 86.5 -23t79.5 -23q17 0 34.5 10.5t26.5 21.5l8 10l53 -46q-2 -4 -5.5 -11.5t-15 -26.5t-25 -33t-35 -26t-44.5 -12q-36 0 -87.5 22t-80.5 22q-19 0 -37 -10.5t-27 -20.5zM15 455v80l230 5v-345
q0 -42 14 -61t47 -19q29 0 57 13.5t42 27.5l14 13v261l-80 25v80l230 5v-435l80 -20v-78l-211 -7l-10 70q-9 -9 -25 -22.5t-62 -35.5t-88 -22q-75 0 -116.5 47.5t-41.5 131.5v261z" />
    <glyph glyph-name="Umacron" unicode="&#x16a;" horiz-adv-x="789" 
d="M548 907v-105h-300v105h300zM264 585v-315q0 -87 29 -123.5t102 -36.5q76 0 102.5 40.5t26.5 134.5v300l-78 30v85l308 5v-90l-75 -30v-300q0 -150 -66.5 -223.5t-222.5 -73.5q-149 0 -215 68t-66 214v315l-74 30v85l307 5v-90z" />
    <glyph glyph-name="umacron" unicode="&#x16b;" horiz-adv-x="669" 
d="M463 752v-105h-300v105h300zM15 455v80l230 5v-345q0 -42 14 -61t47 -19q29 0 57 13.5t42 27.5l14 13v261l-80 25v80l230 5v-435l80 -20v-78l-211 -7l-10 70q-9 -9 -25 -22.5t-62 -35.5t-88 -22q-75 0 -116.5 47.5t-41.5 131.5v261z" />
    <glyph glyph-name="Ubreve" unicode="&#x16c;" horiz-adv-x="789" 
d="M236 932l87 9q0 -3 1.5 -8t7 -18t13 -22.5t22.5 -17.5t33 -8q31 0 50 16.5t22 32.5l4 16l87 7q0 -83 -49.5 -129.5t-123.5 -46.5q-66 0 -110 45.5t-44 123.5zM264 585v-315q0 -87 29 -123.5t102 -36.5q76 0 102.5 40.5t26.5 134.5v300l-78 30v85l308 5v-90l-75 -30v-300
q0 -150 -66.5 -223.5t-222.5 -73.5q-149 0 -215 68t-66 214v315l-74 30v85l307 5v-90z" />
    <glyph glyph-name="ubreve" unicode="&#x16d;" horiz-adv-x="669" 
d="M154 781l87 9q0 -3 1.5 -8t7 -18t13 -22.5t22.5 -17.5t33 -8q31 0 50 16t22 32l4 17l87 7q0 -83 -49.5 -129.5t-123.5 -46.5q-66 0 -110 45.5t-44 123.5zM15 455v80l230 5v-345q0 -42 14 -61t47 -19q29 0 57 13.5t42 27.5l14 13v261l-80 25v80l230 5v-435l80 -20v-78
l-211 -7l-10 70q-9 -9 -25 -22.5t-62 -35.5t-88 -22q-75 0 -116.5 47.5t-41.5 131.5v261z" />
    <glyph glyph-name="Uring" unicode="&#x16e;" horiz-adv-x="789" 
d="M257 862q0 60 40.5 96.5t93.5 36.5t93 -34t40 -93t-40.5 -96t-92.5 -37q-54 0 -94 34t-40 93zM342 865q0 -57 49 -57q21 0 34.5 15t13.5 43q0 57 -48 57q-22 0 -35.5 -15t-13.5 -43zM264 585v-315q0 -87 29 -123.5t102 -36.5q76 0 102.5 40.5t26.5 134.5v300l-78 30v85
l308 5v-90l-75 -30v-300q0 -150 -66.5 -223.5t-222.5 -73.5q-149 0 -215 68t-66 214v315l-74 30v85l307 5v-90z" />
    <glyph glyph-name="uring" unicode="&#x16f;" horiz-adv-x="669" 
d="M179 724q0 60 40.5 96.5t93.5 36.5t93 -34t40 -93t-40.5 -96t-92.5 -37q-54 0 -94 34t-40 93zM264 727q0 -57 49 -57q21 0 34.5 15t13.5 43q0 57 -48 57q-22 0 -35.5 -15t-13.5 -43zM15 455v80l230 5v-345q0 -42 14 -61t47 -19q29 0 57 13.5t42 27.5l14 13v261l-80 25v80
l230 5v-435l80 -20v-78l-211 -7l-10 70q-9 -9 -25 -22.5t-62 -35.5t-88 -22q-75 0 -116.5 47.5t-41.5 131.5v261z" />
    <glyph glyph-name="Uhungarumlaut" unicode="&#x170;" horiz-adv-x="789" 
d="M190 797l177 190l81 -83l-195 -169zM415 797l177 190l81 -83l-195 -169zM264 585v-315q0 -87 29 -123.5t102 -36.5q76 0 102.5 40.5t26.5 134.5v300l-78 30v85l308 5v-90l-75 -30v-300q0 -150 -66.5 -223.5t-222.5 -73.5q-149 0 -215 68t-66 214v315l-74 30v85l307 5v-90
z" />
    <glyph glyph-name="uhungarumlaut" unicode="&#x171;" horiz-adv-x="669" 
d="M95 659l177 190l81 -83l-195 -169zM320 659l177 190l81 -83l-195 -169zM15 455v80l230 5v-345q0 -42 14 -61t47 -19q29 0 57 13.5t42 27.5l14 13v261l-80 25v80l230 5v-435l80 -20v-78l-211 -7l-10 70q-9 -9 -25 -22.5t-62 -35.5t-88 -22q-75 0 -116.5 47.5t-41.5 131.5
v261z" />
    <glyph glyph-name="Uogonek" unicode="&#x172;" horiz-adv-x="785" 
d="M750 615l-75 -30v-300q0 -109 -32 -170.5t-110 -102.5q-136 -72 -136 -122q0 -36 37 -36l43 6l17 -70q-47 -25 -102 -25q-48 0 -79 25.5t-31 74.5q0 69 84 124q-130 0 -194.5 68.5t-64.5 212.5v315l-75 30v85l308 5v-90l-78 -30v-315q0 -87 29 -123.5t101 -36.5
q76 0 102 40.5t26 134.5v300l-78 30v85l308 5v-90z" />
    <glyph glyph-name="uogonek" unicode="&#x173;" horiz-adv-x="658" 
d="M649 85v-78q-5 -3 -13 -7.5t-28 -18.5t-35.5 -27.5t-28.5 -31t-13 -32.5q0 -17 10.5 -26.5t27.5 -9.5l43 6l17 -70q-48 -25 -103 -25q-47 0 -78.5 25.5t-31.5 74.5t36.5 86.5t67.5 51.5l-82 -3l-10 70q-9 -9 -25 -22.5t-62 -35.5t-88 -22q-75 0 -116.5 47.5t-41.5 131.5
v261l-80 25v80l230 5v-345q0 -42 14 -61t47 -19q29 0 57 13.5t42 27.5l14 13v261l-80 25v80l230 5v-435z" />
    <glyph glyph-name="Wcircumflex" unicode="&#x174;" horiz-adv-x="1035" 
d="M315 808l153 131l89 8l162 -139l-48 -66l-151 98l-157 -98zM5 615v85l297 5v-90l-73 -30l86 -360l140 472l135 8l134 -479l96 359l-75 30v85l285 5v-90l-72 -30l-171 -585h-142l-131 475l-24 -95l-115 -380h-138l-162 586z" />
    <glyph glyph-name="wcircumflex" unicode="&#x175;" horiz-adv-x="876" 
d="M223 664l164 153l89 8l175 -161l-48 -66l-164 120l-168 -120zM676 440l-61 15v80l256 5v-85l-53 -12l-133 -443h-153l-79 255l-18 78l-25 -109l-73 -224h-152l-136 441l-44 14v80l262 5v-85l-63 -12l66 -281l106 361l132 22l109 -383z" />
    <glyph glyph-name="Ycircumflex" unicode="&#x176;" horiz-adv-x="667" 
d="M149 808l153 131l89 8l162 -139l-48 -66l-151 98l-157 -98zM180 0v85l75 30v129l-183 344l-65 27v85l283 5v-90l-51 -21l100 -215l106 214l-55 22v85l270 5v-90l-69 -27l-181 -343v-130l75 -30v-85h-305z" />
    <glyph glyph-name="ycircumflex" unicode="&#x177;" 
d="M95 664l164 153l89 8l175 -161l-48 -66l-164 120l-168 -120zM5 455v80l267 5v-85l-56 -10l89 -280l85 277l-58 13v80l269 5v-85l-62 -13l-147 -410q-22 -59 -41.5 -99.5t-51.5 -84t-77 -66t-102 -22.5l-97 8l14 107h65q28 0 51.5 12.5t40 36t24.5 38.5t18 37l-178 440z
" />
    <glyph glyph-name="Ydieresis" unicode="&#x178;" horiz-adv-x="667" 
d="M148 848q0 35 21.5 56.5t52.5 21.5q35 0 53.5 -20.5t18.5 -57.5q0 -36 -21.5 -57t-52.5 -21q-72 0 -72 78zM366 848q0 35 22 56.5t52 21.5q72 0 72 -78q0 -36 -21.5 -57t-52.5 -21q-72 0 -72 78zM180 0v85l75 30v129l-183 344l-65 27v85l283 5v-90l-51 -21l100 -215
l106 214l-55 22v85l270 5v-90l-69 -27l-181 -343v-130l75 -30v-85h-305z" />
    <glyph glyph-name="Zacute" unicode="&#x179;" horiz-adv-x="615" 
d="M256 735l-46 80l215 141l58 -109zM30 105l355 480h-210l-25 -90h-95v210h530v-113l-348 -472h228l22 100h95v-220h-552v105z" />
    <glyph glyph-name="zacute" unicode="&#x17a;" horiz-adv-x="505" 
d="M436 747l-68 104l-223 -178l49 -73zM472 447l-250 -337h146l17 85h90v-195h-435v92l254 338h-137l-15 -73h-90v183h420v-93z" />
    <glyph glyph-name="Zdotaccent" unicode="&#x17b;" horiz-adv-x="615" 
d="M245 847q0 35 22 56.5t52 21.5q72 0 72 -78q0 -36 -21.5 -57t-52.5 -21q-72 0 -72 78zM30 105l355 480h-210l-25 -90h-95v210h530v-113l-348 -472h228l22 100h95v-220h-552v105z" />
    <glyph glyph-name="zdotaccent" unicode="&#x17c;" horiz-adv-x="505" 
d="M193 698q0 35 22 56.5t52 21.5q72 0 72 -78q0 -36 -21.5 -57t-52.5 -21q-72 0 -72 78zM472 447l-250 -337h146l17 85h90v-195h-435v92l254 338h-137l-15 -73h-90v183h420v-93z" />
    <glyph glyph-name="Zcaron" unicode="&#x17d;" horiz-adv-x="615" 
d="M498 897l-143 -140l-89 -7l-153 147l55 60l141 -106l139 106zM30 105l355 480h-210l-25 -90h-95v210h530v-113l-348 -472h228l22 100h95v-220h-552v105z" />
    <glyph glyph-name="zcaron" unicode="&#x17e;" horiz-adv-x="505" 
d="M434 824l48 -58l-157 -156l-89 -5l-167 161l54 57l156 -117zM472 447l-250 -337h146l17 85h90v-195h-435v92l254 338h-137l-15 -73h-90v183h420v-93z" />
    <glyph glyph-name="longs" unicode="&#x17f;" horiz-adv-x="448" 
d="M130 105v470q0 98 55 155t158 57q48 0 90.5 -9.5t60.5 -18.5l19 -9l-3 -148h-87l-15 74q-20 4 -53 4q-77 0 -77 -88v-487l96 -25v-80h-324v80z" />
    <glyph glyph-name="florin" unicode="&#x192;" horiz-adv-x="440" 
d="M118 465l8 86q10 113 62.5 171t157.5 58l94 -6l-10 -104h-65q-47 0 -65 -22t-23 -74l-10 -109h131l-3 -100h-136l-32 -336q-11 -113 -63 -171t-157 -58l-74 6l13 104h42q47 0 65 22t23 74l33 359h-81v85z" />
    <glyph glyph-name="Aringacute" unicode="&#x1fa;" horiz-adv-x="748" 
d="M743 85v-85h-318v85l75 27l-24 73h-222l-25 -72l78 -28v-85h-302v85l73 28l218 585q-44 36 -44 96t40.5 96.5t93.5 36.5t93 -34t40 -93q0 -70 -56 -109l210 -578zM386 855q-22 0 -35.5 -15t-13.5 -43q0 -57 49 -57q21 0 34.5 15t13.5 43q0 57 -48 57zM443 292l-75 237
l-79 -237h154zM297 936l-31 87l236 101l38 -117z" />
    <glyph glyph-name="aringacute" unicode="&#x1fb;" 
d="M152 709q0 60 40.5 96.5t93.5 36.5t93 -34t40 -93t-40.5 -96t-92.5 -37q-54 0 -94 34t-40 93zM237 712q0 -57 49 -57q21 0 34.5 15t13.5 43q0 57 -48 57q-22 0 -35.5 -15t-13.5 -43zM376 0l-18 65q-9 -8 -24 -20.5t-57.5 -33.5t-80.5 -21q-73 0 -114.5 41t-41.5 116
q0 165 241 165h70v55q0 73 -77 73q-23 0 -45 -4t-33 -8l-10 -3l-15 -63h-90l-7 148q121 40 217 40q114 0 162 -45t48 -153v-247l75 -18v-80zM351 227h-57q-58 0 -83.5 -15.5t-25.5 -49.5q0 -60 59 -60q24 0 50.5 14.5t41.5 29.5l15 14v67zM445 969l-59 109l-237 -158l42 -77
z" />
    <glyph glyph-name="AEacute" unicode="&#x1fc;" horiz-adv-x="971" 
d="M546 735l-46 80l215 141l58 -109zM831 420v-110h-202v-190h177l23 82h92v-202h-521v85l74 30v77h-193l-39 -81l61 -26v-85h-298v85l84 30l229 470l-85 30v85l191 5h485v-195h-93l-25 75h-162v-165h202zM460 585l-132 -285h146v285h-14z" />
    <glyph glyph-name="aeacute" unicode="&#x1fd;" horiz-adv-x="866" 
d="M830 235h-331q4 -59 36.5 -92t84.5 -33q37 0 78.5 12t64.5 24l23 11l44 -83q-12 -9 -33 -23t-81.5 -37.5t-115.5 -23.5q-146 0 -208 100q-85 -100 -197 -100q-71 0 -113 42t-42 115q0 165 240 165h70v55q0 72 -77 72q-22 0 -44 -3.5t-33 -7.5l-11 -4l-15 -62h-90l-7 148
q0 2 33 11t86.5 18.5t95.5 9.5q112 0 156 -58q67 59 166 59q108 0 167 -62t59 -172q0 -17 -1.5 -36.5t-2.5 -31.5zM499 325h183q0 105 -82 105q-42 0 -68.5 -28t-32.5 -77zM350 227h-57q-58 0 -84 -15.5t-26 -49.5q0 -28 15.5 -44t44.5 -16q23 0 50 15t42 30l15 15v65z
M621 747l-68 104l-223 -178l49 -73z" />
    <glyph glyph-name="Oslashacute" unicode="&#x1fe;" horiz-adv-x="765" 
d="M72 -59l78 128q-90 92 -90 278q0 172 89 271t241 99q78 0 139 -27l62 103l89 -51l-67 -109q92 -94 92 -271q0 -168 -92.5 -271t-242.5 -103q-76 0 -135 24l-74 -122zM385 592q-77 0 -117 -54t-40 -175q0 -86 21 -132q27 45 209 344q-32 17 -73 17zM516 473l-210 -344
q29 -17 69 -17q163 0 163 245q0 70 -22 116zM306 735l-46 80l215 141l58 -109z" />
    <glyph glyph-name="oslashacute" unicode="&#x1ff;" horiz-adv-x="602" 
d="M44 -75l72 121q-76 67 -76 219q0 134 73 209.5t197 75.5q51 0 99 -16l65 109l75 -42l-65 -109q78 -70 78 -212q0 -134 -72.5 -212t-194.5 -78q-51 0 -103 14l-73 -121zM206 196l138 231q-18 8 -39 8q-58 0 -84 -38t-26 -128q0 -42 11 -73zM396 345l-139 -232q16 -8 43 -8
q56 0 81.5 40t25.5 130q0 44 -11 70zM446 747l-68 104l-223 -178l49 -73z" />
    <glyph glyph-name="Scommaaccent" unicode="&#x218;" horiz-adv-x="605" 
d="M164 217l15 -84q40 -21 98 -21q51 0 86 21.5t35 59.5q0 27 -25 47t-62.5 31t-81.5 29.5t-81.5 40t-62.5 64t-25 100.5q0 101 70.5 156.5t183.5 55.5q50 0 105 -10t85 -20l30 -10l-5 -182h-92l-25 85q-45 15 -88 15q-51 0 -78.5 -20t-27.5 -51q0 -27 25 -47t62.5 -31.5
t81 -29.5t81 -39t62.5 -62t25 -96q0 -109 -75.5 -170.5t-194.5 -61.5q-50 0 -106 9.5t-87 19.5l-30 9v192h102zM265 -332l-53 48q58 63 58 86q0 11 -12.5 34t-12.5 41q0 33 21 53t52 20t51.5 -21t20.5 -57q0 -45 -33 -98.5t-92 -105.5z" />
    <glyph glyph-name="scommaaccent" unicode="&#x219;" horiz-adv-x="487" 
d="M128 175l8 -65q35 -10 84 -10q82 0 82 49q0 22 -27.5 37.5t-67 28t-78.5 29.5t-66.5 51.5t-27.5 83.5q0 88 59 129.5t147 41.5q40 0 86.5 -7.5t72.5 -14.5l27 -8l-4 -150h-85l-15 60q-29 10 -69 10q-69 0 -69 -51q0 -22 27.5 -36.5t66.5 -26t78.5 -27t67 -48.5t27.5 -81
q0 -85 -62.5 -132.5t-167.5 -47.5q-42 0 -88 5.5t-71 10.5l-25 6v163h90zM178 -332l-53 48q58 63 58 86q0 11 -12.5 34t-12.5 41q0 33 21 53t52 20t51.5 -21t20.5 -57q0 -45 -33 -98.5t-92 -105.5z" />
    <glyph glyph-name="Tcommaaccent" unicode="&#x21a;" horiz-adv-x="600" 
d="M222 115v470h-95l-25 -95h-92v215h580v-215h-93l-25 95h-95v-470l95 -30v-85h-345v85zM245 -332l-53 48q58 63 58 86q0 11 -12.5 34t-12.5 41q0 33 21 53t52 20t51.5 -21t20.5 -57q0 -45 -33 -98.5t-92 -105.5z" />
    <glyph glyph-name="tcommaaccent" unicode="&#x21b;" horiz-adv-x="436" 
d="M390 128l36 -76q-84 -62 -170 -62q-81 0 -114.5 50.5t-33.5 144.5v230h-93v97l93 13v138l150 27v-165h140v-110h-140v-220q0 -50 11 -70t42 -20q36 0 79 23zM183 -332l-53 48q58 63 58 86q0 11 -12.5 34t-12.5 41q0 33 21 53t52 20t51.5 -21t20.5 -57q0 -45 -33 -98.5
t-92 -105.5z" />
    <glyph glyph-name="dotlessj" unicode="&#x237;" horiz-adv-x="333" 
d="M263 540v-527q0 -135 -48 -196.5t-170 -61.5l-76 7l12 93h52q44 0 63 24.5t19 74.5v476l-80 25v80z" />
    <glyph glyph-name="circumflex" unicode="&#x2c6;" horiz-adv-x="544" 
d="M70 701l153 131l89 8l162 -139l-48 -66l-151 98l-157 -98z" />
    <glyph glyph-name="caron" unicode="&#x2c7;" horiz-adv-x="385" 
d="M350 824l48 -58l-157 -156l-89 -5l-167 161l54 57l156 -117z" />
    <glyph glyph-name="firsttonechinese" unicode="&#x2c9;" horiz-adv-x="310" 
d="M305 747v-107h-300v107h300z" />
    <glyph glyph-name="breve" unicode="&#x2d8;" horiz-adv-x="440" 
d="M56 765l87 9q0 -3 1.5 -8t7 -18t13 -22.5t22.5 -17.5t33 -8q31 0 50 16t22 32l4 17l87 7q0 -83 -49.5 -129.5t-123.5 -46.5q-66 0 -110 45.5t-44 123.5z" />
    <glyph glyph-name="dotaccent" unicode="&#x2d9;" horiz-adv-x="296" 
d="M75 847q0 35 22 56.5t52 21.5q72 0 72 -78q0 -36 -21.5 -57t-52.5 -21q-72 0 -72 78z" />
    <glyph glyph-name="ring" unicode="&#x2da;" horiz-adv-x="411" 
d="M72 724q0 60 40.5 96.5t93.5 36.5t93 -34t40 -93t-40.5 -96t-92.5 -37q-54 0 -94 34t-40 93zM157 727q0 -57 49 -57q21 0 34.5 15t13.5 43q0 57 -48 57q-22 0 -35.5 -15t-13.5 -43z" />
    <glyph glyph-name="ogonek" unicode="&#x2db;" horiz-adv-x="310" 
d="M156 0h120q-12 -7 -29.5 -18.5t-47 -40.5t-29.5 -51q0 -36 37 -36l43 6l17 -70q-47 -25 -102 -25q-48 0 -79 25.5t-31 74.5q0 38 25.5 72t50.5 49z" />
    <glyph glyph-name="tilde" unicode="&#x2dc;" horiz-adv-x="568" 
d="M127 630l-47 46q2 4 5 11.5t15 26.5t25 33.5t35 26.5t45 12q36 0 86.5 -23t79.5 -23q17 0 34.5 10.5t26.5 21.5l8 10l53 -46q-2 -4 -5.5 -11.5t-15 -26.5t-25 -33t-35 -26t-44.5 -12q-36 0 -87.5 22t-80.5 22q-19 0 -37 -10.5t-27 -20.5z" />
    <glyph glyph-name="hungarumlaut" unicode="&#x2dd;" horiz-adv-x="623" 
d="M80 688l177 190l81 -83l-195 -169zM305 688l177 190l81 -83l-195 -169z" />
    <glyph glyph-name="commaaccent" unicode="&#x326;" horiz-adv-x="0" 
d="M70 -332l-53 48q58 63 58 86q0 11 -12.5 34t-12.5 41q0 33 21 53t52 20t51.5 -21t20.5 -57q0 -45 -33 -98.5t-92 -105.5z" />
    <glyph glyph-name="Gamma" unicode="&#x393;" horiz-adv-x="573" 
d="M568 490h-93l-25 95h-185v-470l95 -30v-85h-325v85l75 30v470l-75 30v85l230 5h303v-215z" />
    <glyph glyph-name="Delta" unicode="&#x394;" horiz-adv-x="664" 
d="M402 723l252 -623v-100h-644v100l259 623h133zM503 112l-179 448l-179 -448h358z" />
    <glyph glyph-name="Pi" unicode="&#x3a0;" horiz-adv-x="796" 
d="M751 117l35 -70q-8 -6 -23 -15.5t-58.5 -25.5t-84.5 -16q-64 0 -103 43.5t-39 136.5v415h-211v-473l83 -25v-87h-320v87l82 25v473l-75 30v85l230 5h441v-90l-75 -30v-421q0 -63 50 -63q13 0 30 4t27 8z" />
    <glyph glyph-name="Omega" unicode="&#x3a9;" horiz-adv-x="757" 
d="M712 130v-130h-276v95q95 67 95 272q0 115 -37 170t-113 55q-78 0 -116.5 -54t-38.5 -176q0 -111 24.5 -171.5t68.5 -94.5l2 -1v-95h-276v120h105q-26 20 -60 86.5t-34 150.5q0 165 89 262.5t241 97.5q149 0 232 -92t83 -253q0 -84 -34 -153t-65 -93h-2z" />
    <glyph glyph-name="mu" unicode="&#x3bc;" horiz-adv-x="659" 
d="M17 452v80l219 8v-349q0 -74 60 -74q29 0 58.5 13.5t45.5 27.5l15 14v260l-74 20v80l221 8v-435l76 -20v-78l-203 -7l-10 71q-9 -9 -24.5 -22.5t-55.5 -36t-70 -22.5q-22 0 -39 6v-231h-145v667z" />
    <glyph glyph-name="pi" unicode="&#x3c0;" horiz-adv-x="690" 
d="M672 117l35 -70q-8 -6 -23 -15.5t-57 -25.5t-81 -16q-61 0 -100 44t-39 136v257h-160v-427h-147v430l-78 22v78l213 10h400v-88l-81 -20v-268q0 -63 50 -63q13 0 30 4t28 8z" />
    <glyph glyph-name="Iegravecy" unicode="&#x400;" horiz-adv-x="622" 
d="M217 956l215 -141l-46 -80l-227 112zM477 420v-110h-202v-190h179l23 82h90v-202h-522v85l75 30v470l-75 30v85l230 5h280v-193h-90l-25 73h-165v-165h202z" />
    <glyph glyph-name="Iocy" unicode="&#x401;" horiz-adv-x="622" 
d="M140 848q0 35 21.5 56.5t52.5 21.5q35 0 53.5 -20.5t18.5 -57.5q0 -36 -21.5 -57t-52.5 -21q-72 0 -72 78zM358 848q0 35 22 56.5t52 21.5q72 0 72 -78q0 -36 -21.5 -57t-52.5 -21q-72 0 -72 78zM477 420v-110h-202v-190h179l23 82h90v-202h-522v85l75 30v470l-75 30v85
l230 5h280v-193h-90l-25 73h-165v-165h202z" />
    <glyph glyph-name="Djecy" unicode="&#x402;" horiz-adv-x="750" 
d="M367 585v-231q93 56 183 56q82 0 128.5 -49.5t46.5 -135.5q0 -116 -48 -176.5t-162 -60.5q-39 0 -81 7l12 105h52q43 0 60 24.5t17 75.5q0 44 -23 67t-62 23q-54 0 -123 -37v-253h-250v85l95 30v470h-85l-25 -95h-92v215h580v-215h-93l-25 95h-105z" />
    <glyph glyph-name="Gjecy" unicode="&#x403;" horiz-adv-x="573" 
d="M263 735l-46 80l215 141l58 -109zM568 490h-93l-25 95h-185v-470l95 -30v-85h-325v85l75 30v470l-75 30v85l230 5h303v-215z" />
    <glyph glyph-name="Ecy" unicode="&#x404;" horiz-adv-x="673" 
d="M573 178l56 -87q-41 -40 -108.5 -71.5t-145.5 -31.5q-153 0 -236.5 90.5t-83.5 263.5q0 174 90.5 272t246.5 103q50 2 106.5 -9t87.5 -22l32 -12l-5 -190h-98l-23 97q-44 11 -99 11q-146 0 -167 -179h252v-110h-254q16 -186 168 -186q37 0 74.5 11t57 21.5t49.5 28.5z
" />
    <glyph glyph-name="Dzecy" unicode="&#x405;" horiz-adv-x="605" 
d="M164 217l15 -84q40 -21 98 -21q51 0 86 21.5t35 59.5q0 27 -25 47t-62.5 31t-81.5 29.5t-81.5 40t-62.5 64t-25 100.5q0 101 70.5 156.5t183.5 55.5q50 0 105 -10t85 -20l30 -10l-5 -182h-92l-25 85q-45 15 -88 15q-51 0 -78.5 -20t-27.5 -51q0 -27 25 -47t62.5 -31.5
t81 -29.5t81 -39t62.5 -62t25 -96q0 -109 -75.5 -170.5t-194.5 -61.5q-50 0 -106 9.5t-87 19.5l-30 9v192h102z" />
    <glyph glyph-name="Icy" unicode="&#x406;" horiz-adv-x="385" 
d="M40 0v85l75 30v470l-75 30v85l305 5v-90l-75 -30v-470l75 -30v-85h-305z" />
    <glyph glyph-name="Yicy" unicode="&#x407;" horiz-adv-x="404" 
d="M26 847q0 35 21.5 56.5t52.5 21.5q35 0 53.5 -20.5t18.5 -57.5q0 -36 -21.5 -57t-52.5 -21q-72 0 -72 78zM234 847q0 35 22 56.5t52 21.5q72 0 72 -78q0 -36 -21.5 -57t-52.5 -21q-72 0 -72 78zM54 0v85l75 30v470l-75 30v85l305 5v-90l-75 -30v-470l75 -30v-85h-305z
" />
    <glyph glyph-name="Jecy" unicode="&#x408;" horiz-adv-x="384" 
d="M274 585v-479q0 -137 -50.5 -201.5t-177.5 -64.5l-76 7l13 103h48q88 0 88 96v539l-75 30v85l305 5v-90z" />
    <glyph glyph-name="Ljecy" unicode="&#x409;" horiz-adv-x="985" 
d="M627 432h98q112 0 178.5 -51t66.5 -157q0 -113 -68.5 -168.5t-193.5 -55.5h-321v85l85 30v470h-152q-3 -47 -27 -290q-6 -55 -14 -97.5t-23 -83.5t-36 -67.5t-52.5 -42.5t-72.5 -16q-44 0 -95 17l25 155q17 -5 37 -5q94 0 116 137q18 112 27 293l-134 30v90h646v-90
l-90 -30v-153zM627 120h76q51 0 79 28t28 76q0 98 -122 98h-61v-202z" />
    <glyph glyph-name="Njecy" unicode="&#x40a;" horiz-adv-x="1030" 
d="M682 431h98q111 0 178 -50t67 -152q0 -113 -69 -171t-193 -58h-311v85l75 30v206h-262v-206l80 -30v-85h-310v85l75 30v470l-75 30v85l310 5v-90l-80 -30v-154h262v154l-75 30v85l320 5v-90l-90 -30v-154zM682 120h76q51 0 79 30.5t28 78.5q0 50 -30 71t-92 21h-61v-201z
" />
    <glyph glyph-name="Tshecy" unicode="&#x40b;" horiz-adv-x="807" 
d="M787 90v-90h-285v90l60 30v96q0 88 -85 88q-50 0 -110 -42v-147l60 -30v-85h-310v85l95 30v470h-85l-25 -95h-92v215h580v-215h-93l-25 95h-105v-221q85 65 175 65q83 0 129 -47.5t46 -132.5v-129z" />
    <glyph glyph-name="Kjecy" unicode="&#x40c;" horiz-adv-x="720" 
d="M312 735l-46 80l215 141l58 -109zM35 0v85l75 30v472l-75 30v83l305 5v-88l-75 -30v-172h68l167 285l185 5v-88l-95 -28l-131 -218l186 -256l75 -30v-85h-305v85l60 30l-137 190h-73v-190l75 -30v-85h-305z" />
    <glyph glyph-name="Iigravecy" unicode="&#x40d;" horiz-adv-x="802" 
d="M436 735l-227 112l58 109l215 -141zM692 587v-475l75 -25v-87h-310v87l80 25v305l-272 -269v-36l80 -27v-85h-310v87l75 25v475l-75 30v83l310 5v-88l-80 -30v-304l272 269v35l-80 30v83l310 5v-88z" />
    <glyph glyph-name="Ushortcy" unicode="&#x40e;" horiz-adv-x="719" 
d="M456 948l128 -7q0 -87 -57.5 -130t-149.5 -44q-91 -1 -149 43t-58 131l128 7v-86q32 -17 79 -17q48 0 79 17v86zM709 705v-90l-80 -30l-155 -365q-99 -232 -239 -232q-73 0 -141 30l27 112q61 -17 104 -17q55 0 94 50l-234 422l-75 30v85l309 5v-90l-80 -30l149 -281
l118 281l-85 30v85z" />
    <glyph glyph-name="Dzhecy" unicode="&#x40f;" horiz-adv-x="765" 
d="M655 585v-470l75 -30v-85h-280l-23 -195h-95l-22 195h-275v85l75 30v470l-75 30v85l310 5v-90l-80 -30v-465h235v465l-80 30v85l310 5v-90z" />
    <glyph glyph-name="Acy" unicode="&#x410;" horiz-adv-x="748" 
d="M743 85v-85h-318v85l75 27l-24 73h-222l-25 -72l78 -28v-85h-302v85l73 28l220 589l160 3l215 -592zM443 292l-75 237l-79 -237h154z" />
    <glyph glyph-name="Becy" unicode="&#x411;" horiz-adv-x="645" 
d="M272 402h98q110 0 177.5 -48t67.5 -142q0 -105 -69 -158.5t-193 -53.5h-318v85l82 30v470l-75 30v85l230 5h303v-206h-93l-25 86h-185v-183zM272 120h76q50 0 78.5 26.5t28.5 65.5q0 85 -122 85h-61v-177z" />
    <glyph glyph-name="Vecy" unicode="&#x412;" horiz-adv-x="658" 
d="M265 705h105q101 0 160.5 -43.5t59.5 -129.5q0 -127 -120 -165q143 -41 143 -160q0 -207 -260 -207h-318v85l75 30v470l-75 30v85zM265 417h58q112 0 112 93q0 37 -23.5 56t-61.5 19h-85v-168zM265 120h83q52 0 79.5 22.5t27.5 64.5q0 54 -32 79.5t-100 25.5h-58v-192z
" />
    <glyph glyph-name="Gecy" unicode="&#x413;" horiz-adv-x="573" 
d="M568 490h-93l-25 95h-185v-470l95 -30v-85h-325v85l75 30v470l-75 30v85l230 5h303v-215z" />
    <glyph glyph-name="Decy" unicode="&#x414;" horiz-adv-x="755" 
d="M735 -195h-95l-57 195h-426l-57 -195h-95l5 290q77 22 105 56t40 136q19 158 25 298l-127 30v90h637v-90l-75 -30v-470l115 -15zM460 585h-160q-7 -144 -25 -297q-7 -54 -10 -75t-13 -48.5t-26 -44.5h234v465z" />
    <glyph glyph-name="Iecy" unicode="&#x415;" horiz-adv-x="622" 
d="M477 420v-110h-202v-190h179l23 82h90v-202h-522v85l75 30v470l-75 30v85l230 5h280v-193h-90l-25 73h-165v-165h202z" />
    <glyph glyph-name="Zhecy" unicode="&#x416;" horiz-adv-x="1055" 
d="M1055 85v-85h-305v85l60 30l-137 190h-73v-190l62 -30v-85h-264v85l62 30v190h-73l-137 -190l60 -30v-85h-305v85l75 30l186 256l-131 218l-95 28v88l186 -5l167 -285h67v172l-75 30v83l290 5v-88l-75 -30v-172h79l167 285l174 5v-88l-95 -28l-131 -218l186 -256z" />
    <glyph glyph-name="Zecy" unicode="&#x417;" horiz-adv-x="600" 
d="M45 500l-5 175q123 42 233 42q267 0 267 -180q0 -64 -32 -108.5t-93 -60.5q63 -14 101.5 -57.5t38.5 -100.5q0 -76 -44 -128t-109 -73.5t-144 -21.5q-117 0 -232 53l37 112q112 -40 192 -40q140 0 140 100q0 46 -38.5 72t-113.5 26h-93v105h98q140 0 140 97
q0 38 -30.5 60.5t-89.5 22.5q-27 0 -54 -3.5t-40 -7.5l-14 -4l-10 -80h-105z" />
    <glyph glyph-name="Iicy" unicode="&#x418;" horiz-adv-x="802" 
d="M692 587v-475l75 -25v-87h-310v87l80 25v305l-272 -269v-36l80 -27v-85h-310v87l75 25v475l-75 30v83l310 5v-88l-80 -30v-304l272 269v35l-80 30v83l310 5v-88z" />
    <glyph glyph-name="Iishortcy" unicode="&#x419;" horiz-adv-x="802" 
d="M486 948l128 -7q0 -87 -57.5 -130t-149.5 -44q-91 -1 -149 43t-58 131l128 7v-86q32 -17 79 -17q48 0 79 17v86zM692 587v-475l75 -25v-87h-310v87l80 25v305l-272 -269v-36l80 -27v-85h-310v87l75 25v475l-75 30v83l310 5v-88l-80 -30v-304l272 269v35l-80 30v83l310 5
v-88z" />
    <glyph glyph-name="Kacy" unicode="&#x41a;" horiz-adv-x="720" 
d="M35 0v85l75 30v472l-75 30v83l305 5v-88l-75 -30v-172h68l167 285l185 5v-88l-95 -28l-131 -218l186 -256l75 -30v-85h-305v85l60 30l-137 190h-73v-190l75 -30v-85h-305z" />
    <glyph glyph-name="Elcy" unicode="&#x41b;" horiz-adv-x="737" 
d="M627 585v-470l75 -30v-85h-315v85l85 30v470h-157q-3 -47 -27 -290q-6 -55 -14 -97.5t-23 -83.5t-36 -67.5t-52.5 -42.5t-72.5 -16q-44 0 -95 17l25 155q17 -5 37 -5q94 0 116 137q18 112 27 293l-134 30v90h636v-90z" />
    <glyph glyph-name="Emcy" unicode="&#x41c;" horiz-adv-x="878" 
d="M35 0v85l75 30v470l-75 30v85l258 5l150 -333l157 328l240 5v-90l-72 -30v-470l75 -30v-85h-298v85l78 30v376l-27 -66l-113 -235l-108 -5l-115 237l-17 52v-359l77 -30v-85h-285z" />
    <glyph glyph-name="Ency" unicode="&#x41d;" horiz-adv-x="792" 
d="M35 0v85l75 30v470l-75 30v85l310 5v-90l-80 -30v-160h262v160l-80 30v85l310 5v-90l-75 -30v-470l75 -30v-85h-310v85l80 30v190h-262v-190l80 -30v-85h-310z" />
    <glyph glyph-name="Ocy" unicode="&#x41e;" horiz-adv-x="755" 
d="M385 717q150 0 232.5 -93.5t82.5 -261.5q0 -169 -92.5 -272t-242.5 -103t-230 92t-80 268q0 172 88.5 271t241.5 99zM380 592q-78 0 -116.5 -55.5t-38.5 -184.5q0 -124 35 -182t110 -58q78 0 119 57.5t41 187.5q0 122 -37 178.5t-113 56.5z" />
    <glyph glyph-name="Pecy" unicode="&#x41f;" horiz-adv-x="790" 
d="M680 585v-470l75 -30v-85h-305v85l75 30v470h-260v-470l75 -30v-85h-305v85l75 30v470l-75 30v85l230 5h490v-90z" />
    <glyph glyph-name="Ercy" unicode="&#x420;" horiz-adv-x="623" 
d="M35 0v85l75 30v470l-75 30v85l230 5h95q114 0 178.5 -56t64.5 -154q0 -124 -73.5 -187t-211.5 -63h-53v-130l75 -30v-85h-305zM265 362h53q63 0 96.5 29t33.5 84q0 50 -26.5 80t-76.5 30h-80v-223z" />
    <glyph glyph-name="Escy" unicode="&#x421;" horiz-adv-x="667" 
d="M522 480l-23 96q-47 16 -112 16q-165 0 -165 -245q0 -230 170 -230q44 0 91.5 17.5t72.5 35.5l26 17l55 -90q-4 -4 -12 -11.5t-34.5 -26.5t-55.5 -33t-72.5 -26t-87.5 -12q-153 0 -236.5 90.5t-83.5 263.5q0 175 91 275t246 100q54 0 112 -11.5t90 -23.5l31 -12l-5 -190
h-98z" />
    <glyph glyph-name="Tecy" unicode="&#x422;" horiz-adv-x="600" 
d="M222 115v470h-95l-25 -95h-92v215h580v-215h-93l-25 95h-95v-470l95 -30v-85h-345v85z" />
    <glyph glyph-name="Ucy" unicode="&#x423;" horiz-adv-x="719" 
d="M709 705v-90l-80 -30l-155 -365q-99 -232 -239 -232q-73 0 -141 30l27 112q61 -17 104 -17q55 0 94 50l-234 422l-75 30v85l309 5v-90l-80 -30l149 -281l118 281l-85 30v85z" />
    <glyph glyph-name="Efcy" unicode="&#x424;" horiz-adv-x="935" 
d="M538 660v-37q175 -8 256 -63.5t81 -171.5q0 -119 -78 -185.5t-259 -78.5v-34l75 -25v-85h-291v85l75 25v32q-172 8 -254.5 66.5t-82.5 179.5q0 118 81.5 180.5t255.5 73.5v38l-75 25v85l291 5v-90zM538 531v-310q114 5 153 35.5t39 109.5q0 87 -43 123t-149 42zM397 221
v310q-103 -8 -147.5 -44.5t-44.5 -117.5q0 -75 41.5 -108.5t150.5 -39.5z" />
    <glyph glyph-name="Hacy" unicode="&#x425;" horiz-adv-x="740" 
d="M10 0v85l62 25l202 244l-186 242l-58 19v85l300 5v-90l-50 -17l103 -137l98 133l-54 21v85l288 5v-90l-66 -20l-184 -233l195 -253l70 -24v-85h-310v85l46 20l-110 148l-112 -144l63 -24v-85h-297z" />
    <glyph glyph-name="Tsecy" unicode="&#x426;" horiz-adv-x="820" 
d="M800 -195h-95l-57 195h-613v85l75 30v470l-75 30v85l310 5v-90l-80 -30v-465h260v465l-80 30v85l310 5v-90l-75 -30v-470l115 -15z" />
    <glyph glyph-name="Checy" unicode="&#x427;" horiz-adv-x="735" 
d="M625 585v-470l75 -30v-85h-330v85l100 30v148l-10 -5q-11 -4 -15 -5.5l-16 -6t-20.5 -6.5t-22.5 -5.5t-27 -5t-30 -3t-34 -1.5q-95 0 -155 56t-60 164v140l-70 30v90h295v-90l-70 -30v-117q0 -65 24 -91.5t76 -26.5q64 0 135 21v214l-70 30v85l300 5v-90z" />
    <glyph glyph-name="Shacy" unicode="&#x428;" horiz-adv-x="1085" 
d="M975 585v-470l75 -30v-85h-1015v85l75 30v470l-75 30v85l300 5v-90l-70 -30v-465h200v465l-70 30v85l295 5v-90l-70 -30v-465h200v465l-75 30v85l305 5v-90z" />
    <glyph glyph-name="Shchacy" unicode="&#x429;" horiz-adv-x="1115" 
d="M1095 -195h-95l-57 195h-908v90l75 25v470l-75 30v85l300 5v-90l-70 -30v-465h200v465l-70 30v85l295 5v-90l-70 -30v-465h200v465l-75 30v85l305 5v-90l-75 -30v-470l115 -15z" />
    <glyph glyph-name="Hardsigncy" unicode="&#x42a;" horiz-adv-x="731" 
d="M368 432h98q112 0 178.5 -51t66.5 -157q0 -113 -68.5 -168.5t-193.5 -55.5h-311v85l75 30v470h-85l-25 -95h-93v215h458v-90l-100 -30v-153zM368 120h76q51 0 79 28t28 76q0 103 -122 103h-61v-207z" />
    <glyph glyph-name="Yerucy" unicode="&#x42b;" horiz-adv-x="975" 
d="M265 427h98q111 0 178 -50t67 -153q0 -113 -68.5 -168.5t-193.5 -55.5h-311v85l75 30v470l-75 30v85l320 5v-90l-90 -30v-158zM865 585v-470l75 -30v-85h-305v85l75 30v470l-75 30v85l305 5v-90zM265 120h76q51 0 79 28t28 76q0 98 -122 98h-61v-202z" />
    <glyph glyph-name="Softsigncy" unicode="&#x42c;" horiz-adv-x="613" 
d="M265 432h98q112 0 178.5 -51t66.5 -157q0 -113 -68.5 -168.5t-193.5 -55.5h-311v85l75 30v470l-75 30v85l320 5v-90l-90 -30v-153zM265 120h76q51 0 79 28t28 76q0 103 -122 103h-61v-207z" />
    <glyph glyph-name="Ereversedcy" unicode="&#x42d;" horiz-adv-x="673" 
d="M60 484l-5 183q113 50 243 50q153 0 236.5 -90.5t83.5 -263.5q0 -174 -92 -274.5t-241 -100.5q-119 0 -241 98l57 91q102 -60 184 -60q68 0 111 46t52 139h-253v110h253q-19 176 -167 176q-28 0 -54 -3t-39 -5l-12 -3l-18 -93h-98z" />
    <glyph glyph-name="Iucy" unicode="&#x42e;" horiz-adv-x="1082" 
d="M265 425h122q20 137 105.5 214.5t219.5 77.5q150 0 232.5 -93.5t82.5 -261.5q0 -169 -92.5 -272t-242.5 -103q-141 0 -220 81t-89 237h-118v-190l80 -30v-85h-310v85l75 30v470l-75 30v85l310 5v-90l-80 -30v-160zM697 112q78 0 119 57.5t41 187.5q0 122 -37 178.5
t-113 56.5q-78 0 -116.5 -55.5t-38.5 -184.5q0 -124 35 -182t110 -58z" />
    <glyph glyph-name="Iacy" unicode="&#x42f;" horiz-adv-x="685" 
d="M343 85l72 30v142h-45q-29 0 -52.5 -21.5t-52.5 -70.5l-95 -165h-180v85l78 25l71 96q4 5 10.5 14t9.5 13t8.5 11.5t8.5 10.5t8 9t8 9t7.5 7t8.5 7t9 5.5t10 5.5q-61 17 -104.5 64.5t-43.5 123.5q0 219 260 219h306v-90l-75 -30v-470l75 -30v-85h-302v85zM415 585h-82
q-48 0 -74 -28t-26 -77q0 -118 140 -118h42v223z" />
    <glyph glyph-name="acy" unicode="&#x430;" 
d="M376 0l-18 65q-9 -8 -24 -20.5t-57.5 -33.5t-80.5 -21q-73 0 -114.5 41t-41.5 116q0 165 241 165h70v55q0 73 -77 73q-23 0 -45 -4t-33 -8l-10 -3l-15 -63h-90l-7 148q121 40 217 40q114 0 162 -45t48 -153v-247l75 -18v-80zM351 227h-57q-58 0 -83.5 -15.5t-25.5 -49.5
q0 -60 59 -60q24 0 50.5 14.5t41.5 29.5l15 14v67z" />
    <glyph glyph-name="becy" unicode="&#x431;" horiz-adv-x="600" 
d="M555 842l-44 -158q-148 -20 -200 -31q-70 -14 -98.5 -51.5t-37.5 -141.5q22 36 63 63t102 27q96 0 156.5 -65.5t60.5 -194.5q0 -141 -72 -220.5t-195 -79.5q-245 0 -245 325q0 224 49 324t163 128q44 12 157 23l43 77zM295 105q55 0 81 39t26 131q0 82 -24 121t-77 39
q-61 0 -88.5 -35.5t-27.5 -129.5q0 -165 110 -165z" />
    <glyph glyph-name="vecy" unicode="&#x432;" horiz-adv-x="620" 
d="M265 540h80q215 0 215 -133q0 -50 -31.5 -83t-91.5 -44q57 -6 100 -37t43 -93q0 -150 -252 -150h-288v80l75 25v325l-75 25v80zM265 317h43q61 0 84 12.5t23 45.5q0 32 -22.5 43.5t-67.5 11.5h-60v-113zM265 110h68q52 0 72 10.5t20 46.5q0 33 -23.5 46.5t-73.5 13.5h-63
v-117z" />
    <glyph glyph-name="gecy" unicode="&#x433;" horiz-adv-x="530" 
d="M405 420l20 -120h95l5 240h-260l-230 -5v-80l80 -25v-325l-80 -25v-80h330v80l-100 25v315h140z" />
    <glyph glyph-name="decy" unicode="&#x434;" horiz-adv-x="680" 
d="M660 80l-10 -255h-95l-21 175h-396l-21 -175h-95l-12 270l47 11q41 10 63.5 37t36 94.5t18.5 192.5l-110 25v85h565v-85l-70 -25v-320zM410 420h-133q-11 -238 -64 -300h197v300z" />
    <glyph glyph-name="iecy" unicode="&#x435;" horiz-adv-x="564" 
d="M523 237h-332q4 -60 36.5 -93.5t84.5 -33.5q37 0 79 12t65 24l24 11l43 -83q-11 -9 -31 -23t-80 -37.5t-117 -23.5q-127 0 -193.5 70.5t-66.5 199.5q0 133 71 211.5t196 78.5q110 0 168.5 -63t58.5 -172q0 -17 -1.5 -35.5t-3.5 -30.5zM193 330h181q0 45 -20 72.5
t-62 27.5q-41 0 -67 -27.5t-32 -72.5z" />
    <glyph glyph-name="zhecy" unicode="&#x436;" horiz-adv-x="893" 
d="M883 80v-80h-185l-123 224h-66v-119l59 -25v-80h-245v80l61 25v119h-72l-123 -224h-179v80l76 24l112 187l-93 151l-70 13v85l258 -5v-80l-44 -14l70 -122h65v111l-46 25v80l171 5v-221h72l70 122l-44 14v80l251 5v-85l-70 -13l-93 -151l112 -187z" />
    <glyph glyph-name="zecy" unicode="&#x437;" horiz-adv-x="483" 
d="M10 33l26 96q101 -19 155 -19q43 0 70 14t27 43q0 33 -24.5 47.5t-85.5 14.5h-50v90h44q59 0 83 14t24 45q0 57 -80 57q-30 0 -78 -10l-6 -54h-91l-5 146q101 23 198 23q103 0 155 -34.5t52 -98.5q0 -102 -123 -125q34 -3 64.5 -15t54 -38.5t23.5 -62.5q0 -88 -65 -127
t-172 -39q-92 0 -196 33z" />
    <glyph glyph-name="iicy" unicode="&#x438;" horiz-adv-x="750" 
d="M630 430v-325l80 -25v-80h-290v80l60 25v190l-210 -160v-30l60 -25v-80h-290v80l80 25v325l-80 25v80l290 5v-85l-60 -25v-189l210 159v30l-60 25v80l290 5v-85z" />
    <glyph glyph-name="iishortcy" unicode="&#x439;" horiz-adv-x="750" 
d="M446 781l128 -7q0 -87 -57.5 -130t-149.5 -44q-91 -1 -149 43t-58 131l128 7v-86q32 -17 79 -17q48 0 79 17v86zM630 430v-325l80 -25v-80h-290v80l60 25v190l-210 -160v-30l60 -25v-80h-290v80l80 25v325l-80 25v80l290 5v-85l-60 -25v-189l210 159v30l-60 25v80l290 5
v-85z" />
    <glyph glyph-name="kacy" unicode="&#x43a;" horiz-adv-x="643" 
d="M260 319h66l68 122l-44 14v80l258 5v-85l-70 -13l-91 -152l110 -186l76 -24v-80h-182l-124 224h-67v-119l55 -25v-80h-285v80l80 25v327l-80 20v80l230 8v-221z" />
    <glyph glyph-name="elcy" unicode="&#x43b;" horiz-adv-x="673" 
d="M568 430v-325l70 -25v-80h-300v80l80 25v315h-125q-5 -90 -12.5 -152t-22 -118t-36.5 -89t-56.5 -52t-81.5 -19q-59 0 -99 14l17 115q32 -6 63 -6q67 0 93.5 73t32.5 244l-113 25v85h560v-85z" />
    <glyph glyph-name="emcy" unicode="&#x43c;" horiz-adv-x="824" 
d="M709 430v-325l80 -25v-80h-265v80l60 25v272l-27 -67l-114 -200l-81 -5l-100 169l-27 72v-241l60 -25v-80h-260v80l80 25v325l-80 25v80l225 5l153 -287l152 282l224 5v-85z" />
    <glyph glyph-name="ency" unicode="&#x43d;" horiz-adv-x="730" 
d="M615 430v-325l80 -25v-80h-290v80l60 25v122h-200v-122l60 -25v-80h-290v80l80 25v325l-80 25v80l290 5v-85l-60 -25v-98h200v98l-60 25v80l290 5v-85z" />
    <glyph glyph-name="ocy" unicode="&#x43e;" horiz-adv-x="592" 
d="M305 550q121 0 186.5 -70.5t65.5 -199.5q0 -134 -72.5 -212t-194.5 -78q-255 0 -255 275q0 134 73 209.5t197 75.5zM300 430q-57 0 -83.5 -36.5t-26.5 -123.5q0 -83 25 -121.5t80 -38.5t81 38.5t26 126.5q0 155 -102 155z" />
    <glyph glyph-name="pecy" unicode="&#x43f;" horiz-adv-x="730" 
d="M615 430v-325l80 -25v-80h-290v80l60 25v315h-190v-315l60 -25v-80h-290v80l80 25v325l-80 25v80l232 5h418v-85z" />
    <glyph glyph-name="ercy" unicode="&#x440;" horiz-adv-x="638" 
d="M20 535l213 5l9 -56q8 7 21.5 18t52 29.5t74.5 18.5q102 0 155 -70.5t53 -194.5q0 -141 -67 -218t-196 -77q-42 0 -85 10v-127l95 -23v-80h-323v80l78 23v557l-80 25v80zM250 375v-255q34 -15 78 -15q62 0 88.5 41t26.5 121q0 163 -100 163q-29 0 -52 -14t-32 -28z" />
    <glyph glyph-name="escy" unicode="&#x441;" horiz-adv-x="525" 
d="M460 163l50 -88q-97 -85 -215 -85q-123 0 -191.5 72t-68.5 200q0 134 72.5 211t202.5 77q38 0 82 -8.5t68 -17.5l25 -9l-5 -164h-90l-14 71q-29 8 -69 8q-55 0 -86 -37.5t-31 -110.5q0 -83 31.5 -127.5t93.5 -44.5q20 0 38 3.5t35 10.5t26.5 12t26 15t19.5 12z" />
    <glyph glyph-name="tecy" unicode="&#x442;" horiz-adv-x="546" 
d="M348 420v-315l100 -25v-80h-350v80l100 25v315h-68l-20 -120h-95l-5 240h526l-5 -240h-95l-20 120h-68z" />
    <glyph glyph-name="ucy" unicode="&#x443;" 
d="M5 455v80l267 5v-85l-56 -10l89 -280l85 277l-58 13v80l269 5v-85l-62 -13l-147 -410q-22 -59 -41.5 -99.5t-51.5 -84t-77 -66t-102 -22.5l-97 8l14 107h65q28 0 51.5 12.5t40 36t24.5 38.5t18 37l-178 440z" />
    <glyph glyph-name="efcy" unicode="&#x444;" horiz-adv-x="742" 
d="M431 775v-220q141 -10 213.5 -78.5t72.5 -191.5q0 -122 -74 -195t-212 -87v-128l80 -25v-80h-281v80l80 25v127q-285 21 -285 268q0 119 74 193.5t211 89.5v114l-80 20v80zM431 454v-350q141 23 141 176q0 79 -33 121.5t-108 52.5zM310 104v348q-140 -26 -140 -177
q0 -79 33 -120t107 -51z" />
    <glyph glyph-name="hacy" unicode="&#x445;" horiz-adv-x="582" 
d="M567 455l-62 -13l-115 -172l113 -170l74 -20v-80h-272v80l31 11l-53 88l-108 -179h-170v80l75 20l110 165l-121 177l-54 13v80l259 5v-85l-30 -6l52 -88l104 174l167 5v-85z" />
    <glyph glyph-name="tsecy" unicode="&#x446;" horiz-adv-x="725" 
d="M705 80l-10 -255h-95l-21 175h-544v80l80 25v325l-80 25v80l290 5v-85l-60 -25v-310h190v310l-60 25v80l290 5v-85l-80 -25v-325z" />
    <glyph glyph-name="checy" unicode="&#x447;" horiz-adv-x="655" 
d="M540 430v-325l80 -25v-80h-320v80l90 25v93q-62 -28 -130 -28q-195 0 -195 199v62l-75 24v80l275 5v-85l-50 -24v-50q0 -57 22.5 -81.5t69.5 -24.5q46 0 83 11v144l-50 25v80l280 5v-85z" />
    <glyph glyph-name="shacy" unicode="&#x448;" horiz-adv-x="1000" 
d="M885 430v-325l80 -25v-80h-930v80l80 25v330l-80 25v80h285v-80l-55 -25v-315h160v310l-55 25v80l260 5v-85l-55 -25v-310h160v310l-55 25v80l285 5v-80z" />
    <glyph glyph-name="shchacy" unicode="&#x449;" horiz-adv-x="1005" 
d="M985 80l-10 -255h-95l-21 175h-824v80l80 25v325l-80 25v80l285 5v-85l-55 -25v-310h160v310l-55 25v80l260 5v-85l-55 -25v-310h160v310l-55 25v80l285 5v-85l-80 -25v-325z" />
    <glyph glyph-name="hardsigncy" unicode="&#x44a;" horiz-adv-x="643" 
d="M353 357h28q71 0 120.5 -14.5t75 -41t36 -56.5t10.5 -70q0 -83 -65.5 -129t-186.5 -46h-268v80l100 25v315h-68l-20 -120h-95l-5 240h428v-85l-90 -25v-73zM353 110h31q84 0 84 60q0 44 -20 60.5t-67 16.5h-28v-137z" />
    <glyph glyph-name="yerucy" unicode="&#x44b;" horiz-adv-x="883" 
d="M265 357h28q71 0 120.5 -14.5t75 -41t36 -56.5t10.5 -70q0 -83 -65.5 -129t-186.5 -46h-248v80l80 25v325l-80 25v80l320 5v-85l-90 -25v-73zM788 430v-325l60 -25v-80h-290v80l80 25v325l-80 25v80l290 5v-85zM265 110h31q84 0 84 60q0 44 -20 60.5t-67 16.5h-28v-137z
" />
    <glyph glyph-name="softsigncy" unicode="&#x44c;" horiz-adv-x="555" 
d="M265 357h28q71 0 120.5 -14.5t75 -41t36 -56.5t10.5 -70q0 -83 -65.5 -129t-186.5 -46h-248v80l80 25v325l-80 25v80l320 5v-85l-90 -25v-73zM265 110h31q84 0 84 60q0 44 -20 60.5t-67 16.5h-28v-137z" />
    <glyph glyph-name="ereversedcy" unicode="&#x44d;" horiz-adv-x="536" 
d="M56 356l-5 153q94 41 185 41q125 0 195 -70t70 -202q0 -129 -69 -207.5t-191 -80.5q-110 -2 -216 79l51 92q88 -51 155 -51q94 0 111 106h-181l5 100h176q-21 114 -118 114q-16 0 -32 -2t-24 -4l-8 -2l-14 -66h-90z" />
    <glyph glyph-name="iucy" unicode="&#x44e;" horiz-adv-x="902" 
d="M265 335h86q19 102 88.5 158.5t175.5 56.5q121 0 186.5 -70.5t65.5 -199.5q0 -134 -72.5 -212t-194.5 -78q-235 0 -254 235h-81v-120l60 -25v-80h-290v80l80 25v325l-80 25v80l290 5v-85l-60 -25v-95zM605 110q59 0 85.5 38t26.5 127q0 78 -25 116.5t-82 38.5
q-60 0 -87.5 -36t-27.5 -124q0 -83 26 -121.5t84 -38.5z" />
    <glyph glyph-name="iacy" unicode="&#x44f;" horiz-adv-x="611" 
d="M501 430v-325l75 -25v-80h-280v80l55 25v100h-30q-34 0 -53.5 -22.5t-46.5 -76.5l-53 -106h-173v80l56 20l40 55q44 60 106 62q-68 18 -107 59.5t-39 103.5q0 160 249 160h276v-85zM351 295v130h-64q-86 0 -86 -60q0 -36 24.5 -53t64.5 -17h61z" />
    <glyph glyph-name="iegravecy" unicode="&#x450;" horiz-adv-x="564" 
d="M194 849l223 -178l-49 -73l-242 147zM523 237h-332q4 -60 36.5 -93.5t84.5 -33.5q37 0 79 12t65 24l24 11l43 -83q-11 -9 -31 -23t-80 -37.5t-117 -23.5q-127 0 -193.5 70.5t-66.5 199.5q0 133 71 211.5t196 78.5q110 0 168.5 -63t58.5 -172q0 -17 -1.5 -35.5t-3.5 -30.5
zM193 330h181q0 45 -20 72.5t-62 27.5q-41 0 -67 -27.5t-32 -72.5z" />
    <glyph glyph-name="iocy" unicode="&#x451;" horiz-adv-x="564" 
d="M523 237h-332q4 -60 36.5 -93.5t84.5 -33.5q37 0 79 12t65 24l24 11l43 -83q-11 -9 -31 -23t-80 -37.5t-117 -23.5q-127 0 -193.5 70.5t-66.5 199.5q0 133 71 211.5t196 78.5q110 0 168.5 -63t58.5 -172q0 -17 -1.5 -35.5t-3.5 -30.5zM193 330h181q0 45 -20 72.5
t-62 27.5q-41 0 -67 -27.5t-32 -72.5zM90 712q0 35 21.5 56.5t52.5 21.5q35 0 53.5 -20.5t18.5 -57.5q0 -36 -21.5 -57t-52.5 -21q-72 0 -72 78zM308 712q0 35 22 56.5t52 21.5q72 0 72 -78q0 -36 -21.5 -57t-52.5 -21q-72 0 -72 78z" />
    <glyph glyph-name="djecy" unicode="&#x452;" horiz-adv-x="630" 
d="M255 555v-98q93 58 158 58q82 0 124.5 -61.5t42.5 -220.5q0 -119 -6 -196.5t-19 -133t-38.5 -84.5t-59.5 -41.5t-87 -12.5q-17 0 -41 3.5t-39 7.5l-15 4l12 93l61 -3q33 -2 49 20t24.5 98t8.5 231q0 73 -9 111.5t-24 49.5t-43 11q-22 0 -47 -10t-39 -20l-13 -10v-246
l53 -25v-80h-283v80l80 25v450h-80v75h80v40l-80 20v80l230 5v-145h190v-75h-190z" />
    <glyph glyph-name="gjecy" unicode="&#x453;" horiz-adv-x="530" 
d="M376 849l-223 -178l49 -73l242 147zM405 420l20 -120h95l5 240h-260l-230 -5v-80l80 -25v-325l-80 -25v-80h330v80l-100 25v315h140z" />
    <glyph glyph-name="ecy" unicode="&#x454;" horiz-adv-x="535" 
d="M460 163l50 -88q-97 -85 -215 -85q-123 0 -191.5 72t-68.5 200q0 134 72.5 211t202.5 77q38 0 82 -8.5t68 -17.5l25 -9l-5 -159h-90l-14 66q-29 8 -69 8q-48 0 -78 -28.5t-37 -85.5h181l-4 -100h-173q23 -106 119 -106q20 0 38 3.5t35 10.5t26.5 12t26 15t19.5 12z" />
    <glyph glyph-name="dzecy" unicode="&#x455;" horiz-adv-x="487" 
d="M128 175l8 -65q35 -10 84 -10q82 0 82 49q0 22 -27.5 37.5t-67 28t-78.5 29.5t-66.5 51.5t-27.5 83.5q0 88 59 129.5t147 41.5q40 0 86.5 -7.5t72.5 -14.5l27 -8l-4 -150h-85l-15 60q-29 10 -69 10q-69 0 -69 -51q0 -22 27.5 -36.5t66.5 -26t78.5 -27t67 -48.5t27.5 -81
q0 -85 -62.5 -132.5t-167.5 -47.5q-42 0 -88 5.5t-71 10.5l-25 6v163h90z" />
    <glyph glyph-name="icy" unicode="&#x456;" horiz-adv-x="365" 
d="M97 705q0 41 25.5 65.5t60.5 24.5q84 0 84 -90q0 -42 -25.5 -66.5t-58.5 -24.5q-41 0 -63.5 23.5t-22.5 67.5zM265 105l70 -25v-80h-300v80l80 25v325l-80 25v80l230 5v-435z" />
    <glyph glyph-name="yicy" unicode="&#x457;" horiz-adv-x="359" 
d="M0 698q0 35 21.5 56.5t52.5 21.5q35 0 53.5 -20.5t18.5 -57.5q0 -36 -21.5 -57t-52.5 -21q-72 0 -72 78zM208 698q0 35 22 56.5t52 21.5q72 0 72 -78q0 -36 -21.5 -57t-52.5 -21q-72 0 -72 78zM263 105l70 -25v-80h-297v80l80 25v327l-80 20v80l227 8v-435z" />
    <glyph glyph-name="jecy" unicode="&#x458;" horiz-adv-x="337" 
d="M97 705q0 40 24.5 65t61.5 25q84 0 84 -90q0 -40 -24.5 -65.5t-59.5 -25.5q-41 0 -63.5 23.5t-22.5 67.5zM265 540v-527q0 -135 -48.5 -196.5t-171.5 -61.5l-76 7l12 98h52q44 0 63 24.5t19 74.5v471l-80 25v80z" />
    <glyph glyph-name="ljecy" unicode="&#x459;" horiz-adv-x="893" 
d="M583 357h43q71 0 120.5 -14.5t75 -41t36 -56.5t10.5 -70q0 -83 -65.5 -129t-186.5 -46h-268v80l85 25v315h-140q-5 -90 -12.5 -152t-22 -118t-36.5 -89t-56.5 -52t-81.5 -19q-59 0 -99 14l17 115q32 -6 63 -6q67 0 93.5 73t32.5 244l-113 25v85h595v-85l-90 -25v-73z
M583 110h46q84 0 84 60q0 44 -20 60.5t-67 16.5h-43v-137z" />
    <glyph glyph-name="njecy" unicode="&#x45a;" horiz-adv-x="912" 
d="M610 345h43q239 0 239 -170q0 -83 -65 -129t-184 -46h-243v80l60 25v130h-195v-130l60 -25v-80h-290v80l80 25v325l-80 25v80l290 5v-85l-60 -25v-85h195v85l-60 25v80l290 5v-85l-80 -25v-85zM610 110h46q81 0 81 60q0 35 -20 50t-64 15h-43v-125z" />
    <glyph glyph-name="tshecy" unicode="&#x45b;" horiz-adv-x="675" 
d="M650 80v-80h-272v80l52 24v207q0 80 -66 80q-25 0 -52 -13.5t-42 -26.5l-15 -13v-233l53 -25v-80h-283v80l80 25v450h-80v75h80v40l-80 20v80l230 5v-145h190v-75h-190v-108q82 68 168 68q76 0 116.5 -47.5t40.5 -132.5v-230z" />
    <glyph glyph-name="kjecy" unicode="&#x45c;" horiz-adv-x="643" 
d="M407 849l-223 -178l49 -73l242 147zM260 319h66l68 122l-44 14v80l258 5v-85l-70 -13l-91 -152l110 -186l76 -24v-80h-182l-124 224h-67v-119l55 -25v-80h-285v80l80 25v327l-80 20v80l230 8v-221z" />
    <glyph glyph-name="iigravecy" unicode="&#x45d;" horiz-adv-x="750" 
d="M416 598l-242 147l68 104l223 -178zM630 430v-325l80 -25v-80h-290v80l60 25v190l-210 -160v-30l60 -25v-80h-290v80l80 25v325l-80 25v80l290 5v-85l-60 -25v-189l210 159v30l-60 25v80l290 5v-85z" />
    <glyph glyph-name="ushortcy" unicode="&#x45e;" 
d="M225 781v-86q32 -17 79 -17q48 0 79 17v86l128 -7q0 -87 -57.5 -130t-149.5 -44q-91 -1 -149 43t-58 131zM5 455v80l267 5v-85l-56 -10l89 -280l85 277l-58 13v80l269 5v-85l-62 -13l-147 -410q-22 -59 -41.5 -99.5t-51.5 -84t-77 -66t-102 -22.5l-97 8l14 107h65
q28 0 51.5 12.5t40 36t24.5 38.5t18 37l-178 440z" />
    <glyph glyph-name="dzhecy" unicode="&#x45f;" horiz-adv-x="720" 
d="M605 430v-325l80 -25v-80h-259l-18 -175h-95l-20 175h-258v80l80 25v325l-80 25v80l290 5v-85l-60 -25v-310h190v310l-60 25v80l290 5v-85z" />
    <glyph glyph-name="Gheupturncy" unicode="&#x490;" horiz-adv-x="568" 
d="M563 900l-5 -195v-120h-293v-470l105 -30v-85h-335v85l75 30v470l-75 30v85l230 5h146l57 195h95z" />
    <glyph glyph-name="gheupturncy" unicode="&#x491;" horiz-adv-x="530" 
d="M265 105l100 -25v-80h-330v80l80 25v325l-80 25v80l230 5h140l20 140h95l5 -260h-260v-315z" />
    <glyph glyph-name="Ustraitstrokecy" unicode="&#x4b0;" horiz-adv-x="667" 
d="M660 705v-90l-69 -27l-164 -310h133v-105h-150v-58l75 -30v-85h-305v85l75 30v58h-150v105h132l-165 310l-65 27v85l283 5v-90l-51 -21l100 -215l106 214l-55 22v85z" />
    <glyph glyph-name="ustraitstrokecy" unicode="&#x4b1;" horiz-adv-x="599" 
d="M594 540v-85l-62 -13l-139 -352h125v-90h-150v-125l100 -25v-80h-350v80l100 25v125h-150v90h125l-135 349l-53 16v80l262 5v-85l-61 -10l96 -303l93 300l-63 13v80z" />
    <glyph glyph-name="Wgrave" unicode="&#x1e80;" horiz-adv-x="1035" 
d="M443 956l215 -141l-46 -80l-227 112zM5 615v85l297 5v-90l-73 -30l86 -360l140 472l135 8l134 -479l96 359l-75 30v85l285 5v-90l-72 -30l-171 -585h-142l-131 475l-24 -95l-115 -380h-138l-162 586z" />
    <glyph glyph-name="wgrave" unicode="&#x1e81;" horiz-adv-x="876" 
d="M352 849l223 -178l-49 -73l-242 147zM676 440l-61 15v80l256 5v-85l-53 -12l-133 -443h-153l-79 255l-18 78l-25 -109l-73 -224h-152l-136 441l-44 14v80l262 5v-85l-63 -12l66 -281l106 361l132 22l109 -383z" />
    <glyph glyph-name="Wacute" unicode="&#x1e82;" horiz-adv-x="1035" 
d="M426 735l-46 80l215 141l58 -109zM5 615v85l297 5v-90l-73 -30l86 -360l140 472l135 8l134 -479l96 359l-75 30v85l285 5v-90l-72 -30l-171 -585h-142l-131 475l-24 -95l-115 -380h-138l-162 586z" />
    <glyph glyph-name="wacute" unicode="&#x1e83;" horiz-adv-x="876" 
d="M601 747l-68 104l-223 -178l49 -73zM676 440l-61 15v80l256 5v-85l-53 -12l-133 -443h-153l-79 255l-18 78l-25 -109l-73 -224h-152l-136 441l-44 14v80l262 5v-85l-63 -12l66 -281l106 361l132 22l109 -383z" />
    <glyph glyph-name="Wdieresis" unicode="&#x1e84;" horiz-adv-x="1035" 
d="M355 847q0 35 21.5 56.5t52.5 21.5q35 0 53.5 -20.5t18.5 -57.5q0 -36 -21.5 -57t-52.5 -21q-72 0 -72 78zM573 847q0 35 22 56.5t52 21.5q72 0 72 -78q0 -36 -21.5 -57t-52.5 -21q-72 0 -72 78zM5 615v85l297 5v-90l-73 -30l86 -360l140 472l135 8l134 -479l96 359
l-75 30v85l285 5v-90l-72 -30l-171 -585h-142l-131 475l-24 -95l-115 -380h-138l-162 586z" />
    <glyph glyph-name="wdieresis" unicode="&#x1e85;" horiz-adv-x="876" 
d="M267 698q0 35 21.5 56.5t52.5 21.5q35 0 53.5 -20.5t18.5 -57.5q0 -36 -21.5 -57t-52.5 -21q-72 0 -72 78zM485 698q0 35 22 56.5t52 21.5q72 0 72 -78q0 -36 -21.5 -57t-52.5 -21q-72 0 -72 78zM676 440l-61 15v80l256 5v-85l-53 -12l-133 -443h-153l-79 255l-18 78
l-25 -109l-73 -224h-152l-136 441l-44 14v80l262 5v-85l-63 -12l66 -281l106 361l132 22l109 -383z" />
    <glyph glyph-name="Ygrave" unicode="&#x1ef2;" horiz-adv-x="667" 
d="M252 956l215 -141l-46 -80l-227 112zM180 0v85l75 30v129l-183 344l-65 27v85l283 5v-90l-51 -21l100 -215l106 214l-55 22v85l270 5v-90l-69 -27l-181 -343v-130l75 -30v-85h-305z" />
    <glyph glyph-name="ygrave" unicode="&#x1ef3;" 
d="M187 849l223 -178l-49 -73l-242 147zM5 455v80l267 5v-85l-56 -10l89 -280l85 277l-58 13v80l269 5v-85l-62 -13l-147 -410q-22 -59 -41.5 -99.5t-51.5 -84t-77 -66t-102 -22.5l-97 8l14 107h65q28 0 51.5 12.5t40 36t24.5 38.5t18 37l-178 440z" />
    <glyph glyph-name="endash" unicode="&#x2013;" horiz-adv-x="500" 
d="M500 385v-118h-500v118h500z" />
    <glyph glyph-name="emdash" unicode="&#x2014;" horiz-adv-x="970" 
d="M970 385v-118h-970v118h970z" />
    <glyph glyph-name="horizontalbar" unicode="&#x2015;" horiz-adv-x="970" 
d="M970 385v-118h-970v118h970z" />
    <glyph glyph-name="underscoredbl" unicode="&#x2017;" horiz-adv-x="496" 
d="M498 -80v-100h-500v100h500zM498 -265v-100h-500v100h500z" />
    <glyph glyph-name="quoteleft" unicode="&#x2018;" horiz-adv-x="311" 
d="M198 787l63 -51q-60 -80 -60 -121q0 -11 14.5 -38t14.5 -54q0 -40 -24.5 -64.5t-61.5 -24.5q-38 0 -61 24t-23 69q0 112 138 260z" />
    <glyph glyph-name="quoteright" unicode="&#x2019;" horiz-adv-x="311" 
d="M114 434l-64 52q60 80 60 120q0 12 -14.5 39t-14.5 53q0 40 24.5 64.5t62.5 24.5t60.5 -24t22.5 -68q0 -112 -137 -261z" />
    <glyph glyph-name="quotesinglbase" unicode="&#x201a;" horiz-adv-x="311" 
d="M111 -210l-64 52q60 80 60 120q0 12 -14.5 39t-14.5 53q0 40 24.5 64.5t62.5 24.5t60.5 -24t22.5 -68q0 -112 -137 -261z" />
    <glyph glyph-name="quotereversed" unicode="&#x201b;" horiz-adv-x="311" 
d="M261 485l-63 -51q-138 148 -138 260q0 45 23 69t61 24q37 0 61.5 -24.5t24.5 -64.5q0 -27 -14.5 -54t-14.5 -38q0 -18 15 -48.5t30 -51.5z" />
    <glyph glyph-name="quotedblleft" unicode="&#x201c;" horiz-adv-x="544" 
d="M198 787l63 -51q-60 -80 -60 -121q0 -11 14.5 -38t14.5 -54q0 -40 -24.5 -64.5t-61.5 -24.5q-38 0 -61 24t-23 69q0 112 138 260zM430 787l64 -51q-60 -80 -60 -121q0 -11 14.5 -38t14.5 -54q0 -40 -24.5 -64.5t-62.5 -24.5t-60.5 24t-22.5 69q0 111 137 260z" />
    <glyph glyph-name="quotedblright" unicode="&#x201d;" horiz-adv-x="544" 
d="M114 434l-64 52q60 80 60 120q0 12 -14.5 39t-14.5 53q0 40 24.5 64.5t62.5 24.5t60.5 -24t22.5 -68q0 -112 -137 -261zM346 434l-63 52q60 80 60 120q0 12 -14.5 39t-14.5 53q0 40 24.5 64.5t61.5 24.5q38 0 61 -24t23 -68q0 -113 -138 -261z" />
    <glyph glyph-name="quotedblbase" unicode="&#x201e;" horiz-adv-x="543" 
d="M111 -210l-64 52q60 80 60 120q0 12 -14.5 39t-14.5 53q0 40 24.5 64.5t62.5 24.5t60.5 -24t22.5 -68q0 -112 -137 -261zM343 -210l-63 52q60 80 60 120q0 12 -14.5 39t-14.5 53q0 40 24.5 64.5t61.5 24.5q38 0 61 -24t23 -68q0 -113 -138 -261z" />
    <glyph glyph-name="dagger" unicode="&#x2020;" horiz-adv-x="515" 
d="M200 610l-5 142l125 8l-7 -150h167v-95l-223 -34l-222 34v95h165zM257 426l79 17l-16 -392l-63 -51l-62 51l-16 392z" />
    <glyph glyph-name="daggerdbl" unicode="&#x2021;" horiz-adv-x="515" 
d="M200 610l-5 142l125 8l-7 -150h167v-95l-223 -34l-222 34v95h165zM257 431l176 29v-99l-176 -42l-176 42v99zM257 270l72 16l-9 -235l-63 -51l-62 51l-9 235z" />
    <glyph glyph-name="bullet" unicode="&#x2022;" horiz-adv-x="543" 
d="M80 315q0 78 55.5 133.5t133.5 55.5t133.5 -55.5t55.5 -133.5t-55.5 -133.5t-133.5 -55.5t-133.5 55.5t-55.5 133.5z" />
    <glyph glyph-name="ellipsis" unicode="&#x2026;" horiz-adv-x="780" 
d="M52 78q0 41 25.5 65.5t61.5 24.5q83 0 83 -90q0 -42 -25 -66.5t-61 -24.5q-41 0 -62.5 23.5t-21.5 67.5zM305 78q0 41 25.5 65.5t60.5 24.5q41 0 62.5 -23.5t21.5 -66.5q0 -42 -25 -66.5t-61 -24.5q-41 0 -62.5 23.5t-21.5 67.5zM557 78q0 41 25.5 65.5t61.5 24.5
q83 0 83 -90q0 -42 -25 -66.5t-61 -24.5q-41 0 -62.5 23.5t-21.5 67.5z" />
    <glyph glyph-name="perthousand" unicode="&#x2030;" horiz-adv-x="1313" 
d="M55 529q0 87 51 137.5t129 50.5q76 0 122.5 -46t46.5 -131q0 -86 -51 -138t-130 -52q-77 0 -122.5 44.5t-45.5 134.5zM170 533q0 -96 58 -96q61 0 61 99q0 95 -59 95q-60 0 -60 -98zM519 165q0 87 51 137.5t129 50.5q76 0 122.5 -46t46.5 -131q0 -86 -51 -138t-130 -52
q-77 0 -122.5 44.5t-45.5 134.5zM634 169q0 -96 58 -96q61 0 61 99q0 95 -59 95q-60 0 -60 -98zM909 165q0 87 51 137.5t129 50.5q76 0 122.5 -46t46.5 -131q0 -86 -51 -138t-130 -52q-77 0 -122.5 44.5t-45.5 134.5zM1024 169q0 -96 58 -96q61 0 61 99q0 95 -59 95
q-60 0 -60 -98zM742 712l-418 -720h-145l418 720h145z" />
    <glyph glyph-name="minute" unicode="&#x2032;" horiz-adv-x="259" 
d="M50 506l25 281l134 -11l-46 -279z" />
    <glyph glyph-name="second" unicode="&#x2033;" horiz-adv-x="464" 
d="M50 506l25 281l134 -11l-46 -279zM255 506l25 281l134 -11l-46 -279z" />
    <glyph glyph-name="guilsinglleft" unicode="&#x2039;" horiz-adv-x="339" 
d="M206 49l-156 177v77l156 177l83 -55l-113 -160l113 -160z" />
    <glyph glyph-name="guilsinglright" unicode="&#x203a;" horiz-adv-x="339" 
d="M55 425l83 55l156 -177v-77l-156 -177l-83 56l113 160z" />
    <glyph glyph-name="exclamdbl" unicode="&#x203c;" horiz-adv-x="615" 
d="M109 256l-18 509h156l-18 -504zM384 256l-18 509h156l-18 -504zM85 78q0 41 25.5 65.5t60.5 24.5q41 0 62.5 -23.5t21.5 -66.5q0 -42 -25.5 -66.5t-61.5 -24.5q-83 0 -83 91zM360 78q0 41 25.5 65.5t60.5 24.5q41 0 62.5 -23.5t21.5 -66.5q0 -42 -25.5 -66.5t-61.5 -24.5
q-83 0 -83 91z" />
    <glyph glyph-name="overline" unicode="&#x203e;" horiz-adv-x="578" 
d="M468 711v-95h-470v95h470z" />
    <glyph glyph-name="fraction" unicode="&#x2044;" horiz-adv-x="614" 
d="M524 772l100 -67l-539 -779l-100 67z" />
    <glyph glyph-name="foursuperior" unicode="&#x2074;" horiz-adv-x="433" 
d="M211 710l144 -17v-243h58v-93h-58v-77h-127v77h-199l-14 84zM228 450v132l-97 -132h97z" />
    <glyph glyph-name="nsuperior" unicode="&#x207f;" horiz-adv-x="544" 
d="M190 709l5 -50q8 6 20.5 15t47.5 24.5t63 15.5q113 0 113 -127v-184l50 -17v-63h-196v64l35 16v168q0 25 -13.5 41t-35.5 16q-18 0 -37 -11.5t-29 -22.5l-10 -12v-179l35 -16v-64h-198v63l50 17v223l-50 14v63z" />
    <glyph glyph-name="franc" unicode="&#x20a3;" horiz-adv-x="600" 
d="M275 585v-165h202v-110h-202v-51h128v-95h-128v-49l92 -30v-85h-322v85l75 30v49h-75v95h75v326l-75 30v85l230 5h280v-190h-93l-25 70h-162z" />
    <glyph glyph-name="lira" unicode="&#x20a4;" horiz-adv-x="625" 
d="M436 374h-376v90h83q-1 15 -1 46q0 98 52 152.5t161 54.5q57 0 110 -8.5t77 -17.5l25 -9v-163h-90l-20 75q-37 6 -85 6q-82 0 -82 -88v-19l1 -29h145v-90zM570 220v-220h-510v85l50 19q29 11 38 32.5t9 70.5v14h-97v90h376v-90h-131q0 -68 -37 -101h186l23 100h93z" />
    <glyph glyph-name="peseta" unicode="&#x20a7;" horiz-adv-x="724" 
d="M674 434h-71q-34 -189 -280 -189h-53v-130l75 -30v-85h-305v85l75 30v319h-75v90h75v61l-75 30v85l230 5h95q105 0 168.5 -48t72.5 -133h68v-90zM270 524h175q-22 61 -95 61h-80v-61zM270 362h53q101 0 124 72h-177v-72z" />
    <glyph glyph-name="euro" unicode="&#x20ac;" horiz-adv-x="637" 
d="M489 510l-16 70q-38 15 -93 15q-31 0 -54.5 -13.5t-35.5 -32.5t-20 -38.5t-10 -32.5l-2 -14h199v-90h-430v90h72q9 50 28.5 92.5t52.5 80t85.5 59t119.5 21.5q47 0 97.5 -10.5t77.5 -20.5l27 -11l-5 -165h-93zM457 311v-90h-192q30 -105 127 -105q38 0 78 14t61 28l21 15
l55 -88q-4 -4 -11 -10.5t-31 -23t-50 -29.5t-65.5 -23.5t-79.5 -10.5q-69 0 -121 23t-81 61.5t-43.5 73.5t-22.5 75h-75v90h430z" />
    <glyph glyph-name="careof" unicode="&#x2105;" horiz-adv-x="1067" 
d="M831 428q90 0 143 -55.5t53 -158.5q0 -101 -58.5 -160t-149.5 -59t-144 52t-53 158t59 164.5t150 58.5zM826 331q-79 0 -79 -123q0 -116 77 -116q78 0 78 119q0 120 -76 120zM365 415l45 -68q-80 -70 -170 -70q-91 0 -145.5 56.5t-54.5 153.5q0 106 55.5 164.5
t159.5 58.5q30 0 65.5 -7t55.5 -15l21 -7l-4 -133h-76l-12 60q-28 7 -58 7q-86 0 -86 -119q0 -121 96 -121q55 0 108 40zM790 705l-408 -705h-145l408 705h145z" />
    <glyph glyph-name="literSign" unicode="&#x2113;" horiz-adv-x="524" 
d="M64 170l-54 85q72 48 119 90v185q0 255 206 255q67 0 110.5 -46t43.5 -114q0 -174 -205 -329v-58q0 -136 90 -136l73 6l12 -98q-68 -23 -125 -23q-97 0 -151 54.5t-54 152.5v17q-27 -18 -65 -41zM284 547v-87q65 89 65 167q0 43 -30 43q-12 0 -20 -10t-11 -32t-3.5 -37.5
t-0.5 -43.5z" />
    <glyph glyph-name="numero" unicode="&#x2116;" horiz-adv-x="1246" 
d="M996 717q88 0 139 -50.5t51 -142.5t-56.5 -150.5t-145.5 -58.5q-90 0 -141 49.5t-51 145.5q0 94 57.5 150.5t146.5 56.5zM991 625q-74 0 -74 -111q0 -107 72 -107t72 113q0 105 -70 105zM35 0v85l75 30v470l-75 30v85l240 5l270 -462v342l-73 30v85l285 5v-90l-75 -30
v-585h-167l-268 453v-338l78 -30v-85h-290zM1178 235v-100h-378v100h378z" />
    <glyph glyph-name="trademark" unicode="&#x2122;" horiz-adv-x="921" 
d="M149 383v256h-56l-13 -70h-55v136h350v-136h-55l-17 70h-56v-256l50 -15v-48h-198v48zM407 320v48l50 15v252l-50 14v53l152 3l89 -176l90 173l146 3v-54l-49 -16v-252l49 -15v-48h-178v48l45 15v188l-79 -145l-59 -7l-79 146v-182l45 -15v-48h-172z" />
    <glyph glyph-name="Ohm" unicode="&#x2126;" horiz-adv-x="757" 
d="M712 130v-130h-276v95q95 67 95 272q0 115 -37 170t-113 55q-78 0 -116.5 -54t-38.5 -176q0 -111 24.5 -171.5t68.5 -94.5l2 -1v-95h-276v120h105q-26 20 -60 86.5t-34 150.5q0 165 89 262.5t241 97.5q149 0 232 -92t83 -253q0 -84 -34 -153t-65 -93h-2z" />
    <glyph glyph-name="estimated" unicode="&#x212e;" horiz-adv-x="665" 
d="M171 360v-197q65 -62 164 -62q64 0 125 23t99 62l26 -26q-42 -45 -112 -72.5t-138 -27.5q-128 0 -206.5 77.5t-78.5 207.5q0 124 85.5 209.5t209.5 85.5q120 0 200 -80t80 -200h-454zM505 395v140q-70 65 -160 65q-100 0 -174 -74v-131h334z" />
    <glyph glyph-name="oneeighth" unicode="&#x215b;" horiz-adv-x="1114" 
d="M1040 317q0 -71 -75 -96q89 -35 89 -101q0 -60 -53 -96.5t-141 -36.5q-86 0 -137.5 34t-51.5 86q0 21 8 39t16 27.5t25 20t22.5 12.5t19.5 8q-70 34 -70 100q0 55 49 86t135 31q79 0 121.5 -32t42.5 -82zM812 301q0 -18 17.5 -29.5t49.5 -21.5q41 16 41 51q0 18 -15.5 29
t-42.5 11q-50 0 -50 -40zM924 123q0 32 -74 55q-49 -19 -49 -51q0 -23 19.5 -36.5t45.5 -13.5t42 11.5t16 34.5zM89 280v89h96v209l-91 -55l-49 83l158 99h109v-336h80v-89h-303zM808 705l-408 -705h-145l408 705h145z" />
    <glyph glyph-name="threeeighths" unicode="&#x215c;" horiz-adv-x="1094" 
d="M1020 317q0 -71 -75 -96q89 -35 89 -101q0 -60 -53 -96.5t-141 -36.5q-86 0 -137.5 34t-51.5 86q0 21 8 39t16 27.5t25 20t22.5 12.5t19.5 8q-70 34 -70 100q0 55 49 86t135 31q79 0 121.5 -32t42.5 -82zM792 301q0 -18 17.5 -29.5t49.5 -21.5q41 16 41 51q0 18 -15.5 29
t-42.5 11q-50 0 -50 -40zM904 123q0 32 -74 55q-49 -19 -49 -51q0 -23 19.5 -36.5t45.5 -13.5t42 11.5t16 34.5zM55 566l-4 117q87 23 156 23q81 0 124 -28.5t43 -81.5q0 -79 -81 -101q37 -6 64.5 -33t27.5 -64q0 -67 -53.5 -100.5t-136.5 -33.5q-35 0 -74 9t-60 19l-21 9
l27 84q61 -26 118 -26q26 0 47.5 12.5t21.5 34.5q0 45 -74 45h-53v74h55q67 0 67 50q0 39 -54 39q-13 0 -26.5 -2t-20.5 -4l-7 -1l-5 -41h-81zM791 705l-408 -705h-145l408 705h145z" />
    <glyph glyph-name="fiveeighths" unicode="&#x215d;" horiz-adv-x="1094" 
d="M1020 317q0 -71 -75 -96q89 -35 89 -101q0 -60 -53 -96.5t-141 -36.5q-86 0 -137.5 34t-51.5 86q0 21 8 39t16 27.5t25 20t22.5 12.5t19.5 8q-70 34 -70 100q0 55 49 86t135 31q79 0 121.5 -32t42.5 -82zM792 301q0 -18 17.5 -29.5t49.5 -21.5q41 16 41 51q0 18 -15.5 29
t-42.5 11q-50 0 -50 -40zM904 123q0 32 -74 55q-49 -19 -49 -51q0 -23 19.5 -36.5t45.5 -13.5t42 11.5t16 34.5zM37 297l38 86q53 -24 108 -24q31 0 52.5 12.5t21.5 32.5q0 31 -25.5 40.5t-87.5 9.5h-80l13 251h287l-2 -92h-170l-6 -74q99 0 150 -33.5t51 -95.5
q0 -68 -54 -107t-131 -39q-42 0 -83.5 8t-61.5 16zM791 705l-408 -705h-145l408 705h145z" />
    <glyph glyph-name="seveneighths" unicode="&#x215e;" horiz-adv-x="1044" 
d="M970 317q0 -71 -75 -96q89 -35 89 -101q0 -60 -53 -96.5t-141 -36.5q-86 0 -137.5 34t-51.5 86q0 21 8 39t16 27.5t25 20t22.5 12.5t19.5 8q-70 34 -70 100q0 55 49 86t135 31q79 0 121.5 -32t42.5 -82zM742 301q0 -18 17.5 -29.5t49.5 -21.5q41 16 41 51q0 18 -15.5 29
t-42.5 11q-50 0 -50 -40zM854 123q0 32 -74 55q-49 -19 -49 -51q0 -23 19.5 -36.5t45.5 -13.5t42 11.5t16 34.5zM390 632l-171 -362h-137l166 342h-119l-9 -48h-80l-5 141h355v-73zM741 705l-408 -705h-145l408 705h145z" />
    <glyph glyph-name="arrowleft" unicode="&#x2190;" horiz-adv-x="677" 
d="M235 258l129 -150l-82 -68l-234 247v58l232 249l81 -75l-125 -141h441v-120h-442z" />
    <glyph glyph-name="arrowup" unicode="&#x2191;" horiz-adv-x="635" 
d="M252 397l-150 -129l-68 82l247 234h58l249 -232l-75 -81l-141 125v-396h-120v397z" />
    <glyph glyph-name="arrowright" unicode="&#x2192;" horiz-adv-x="677" 
d="M441 378l-125 141l81 75l232 -249v-58l-234 -247l-82 68l129 150h-442v120h441z" />
    <glyph glyph-name="arrowdown" unicode="&#x2193;" horiz-adv-x="625" 
d="M370 174l150 129l68 -82l-247 -234h-58l-249 232l75 81l141 -125v396h120v-397z" />
    <glyph glyph-name="arrowboth" unicode="&#x2194;" horiz-adv-x="787" 
d="M261 71l-200 206v58l197 208l68 -68l-94 -119h328l-96 117l66 69l200 -206v-58l-197 -208l-68 68l94 119h-328l96 -117z" />
    <glyph glyph-name="arrowupdown" unicode="&#x2195;" horiz-adv-x="593" 
d="M20 441l206 200h58l208 -197l-68 -70l-115 96v-328l113 98l69 -68l-206 -200h-58l-208 197l68 70l115 -96v328l-113 -98z" />
    <glyph glyph-name="arrowupdownbase" unicode="&#x21a8;" horiz-adv-x="628" 
d="M89 441l206 200h58l208 -197l-68 -70l-115 96v-330l113 100l69 -68l-206 -200h-58l-208 197l68 70l115 -98v330l-113 -98zM565 -85v-100h-470v100h470z" />
    <glyph glyph-name="partialdiff" unicode="&#x2202;" horiz-adv-x="628" 
d="M136 658l-20 105q84 22 154 22q80 0 139.5 -29t94.5 -81.5t52 -121t17 -153.5q0 -81 -17.5 -153.5t-52.5 -132t-93.5 -94.5t-134.5 -35q-113 0 -176.5 61.5t-63.5 173.5q0 114 56 179.5t159 65.5q44 0 88 -13t66 -26l21 -13q2 12 2 37q0 106 -42.5 160.5t-139.5 54.5z
M418 296q-6 6 -17 14.5t-46.5 22.5t-71.5 14q-50 0 -74 -32.5t-24 -84.5q0 -47 26 -81t69 -34q35 0 62 18.5t40.5 45t22.5 53.5t11 46z" />
    <glyph glyph-name="increment" unicode="&#x2206;" horiz-adv-x="664" 
d="M402 723l252 -623v-100h-644v100l259 623h133zM503 112l-179 448l-179 -448h358z" />
    <glyph glyph-name="product" unicode="&#x220f;" horiz-adv-x="735" 
d="M110 595l-78 22v78l218 10h452v-88l-80 -22v-830h-142v827h-228v-827h-142v830z" />
    <glyph glyph-name="summation" unicode="&#x2211;" horiz-adv-x="614" 
d="M296 238l-269 365v102h532v-193h-93l-25 80h-242l255 -340l-267 -374h268l16 85h98v-198h-537v103z" />
    <glyph glyph-name="minus" unicode="&#x2212;" horiz-adv-x="580" 
d="M530 347v-117h-480v117h480z" />
    <glyph glyph-name="divisionslash" unicode="&#x2215;" horiz-adv-x="607" 
d="M520 773l97 -68l-535 -762l-97 68z" />
    <glyph glyph-name="bulletoperator" unicode="&#x2219;" horiz-adv-x="349" 
d="M60 315q0 43 32 75t75 32t75 -32t32 -75t-32 -75t-75 -32t-75 32t-32 75z" />
    <glyph glyph-name="radical" unicode="&#x221a;" horiz-adv-x="697" 
d="M10 525l182 5l118 -382l180 622l217 5v-84l-108 -18l-217 -673h-163l-151 426l-58 16v83z" />
    <glyph glyph-name="infinity" unicode="&#x221e;" horiz-adv-x="910" 
d="M675 110q-51 0 -99 18.5t-69 33t-59 45.5q-63 -53 -97 -70q-55 -27 -121 -27q-87 0 -138.5 47.5t-51.5 132.5t54 135t141 50q68 0 117.5 -24t105.5 -70q1 1 10.5 8.5t13.5 11t15.5 12t18.5 13t20 12t23 12t24.5 10t27.5 8.5t28.5 5t30.5 2q89 0 144.5 -45.5t55.5 -129.5
q0 -86 -54 -138t-141 -52zM662 360q-36 0 -112 -65q68 -65 108 -65q30 0 48.5 17.5t18.5 47.5t-16.5 47.5t-46.5 17.5zM245 225q44 0 112 65q-1 1 -8 7t-10 9t-10.5 9.5t-12.5 10t-12 9t-13.5 8.5t-13.5 6t-14 4.5t-13 1.5q-65 0 -65 -60q0 -31 15.5 -50.5t44.5 -19.5z" />
    <glyph glyph-name="orthogonal" unicode="&#x221f;" horiz-adv-x="596" 
d="M586 130v-130h-526v540h150v-410h376z" />
    <glyph glyph-name="intersection" unicode="&#x2229;" horiz-adv-x="635" 
d="M405 0v420q0 93 -17 129t-68 36q-52 0 -71 -37.5t-19 -132.5v-415h-170v410q0 159 57 229.5t203 70.5q144 0 199.5 -64.5t55.5 -220.5v-425h-170z" />
    <glyph glyph-name="integral" unicode="&#x222b;" horiz-adv-x="398" 
d="M-15 -290l9 108q50 -5 75 -5q86 0 80 102q-8 132 -52 681q-9 121 32 182.5t146 61.5q23 0 51.5 -4.5t45.5 -9.5l16 -4q-4 -36 -11 -109q-35 7 -65 7q-79 0 -70 -105q4 -53 23.5 -302t28.5 -355q23 -265 -187 -265q-29 0 -59.5 4.5t-46.5 8.5z" />
    <glyph glyph-name="approxequal" unicode="&#x2248;" horiz-adv-x="640" 
d="M118 286l-63 44q2 5 6.5 13t19.5 28.5t32 36t45 28.5t58 13q44 0 108.5 -34t98.5 -34q25 0 49.5 13.5t35.5 27.5l12 14l65 -44q-2 -5 -6.5 -13t-20 -29t-32.5 -37t-44 -29t-55 -13q-43 0 -112.5 34t-104.5 34q-24 0 -47 -13.5t-34 -26.5zM118 91l-63 44q2 5 6.5 13
t19.5 28.5t32 36t45 28.5t58 13q44 0 108.5 -34t98.5 -34q25 0 49.5 14t35.5 28l12 13l65 -44q-2 -5 -6.5 -13t-20 -29t-32.5 -37t-44 -29t-55 -13q-43 0 -112.5 34t-104.5 34q-24 0 -47 -13t-34 -27z" />
    <glyph glyph-name="notequal" unicode="&#x2260;" horiz-adv-x="640" 
d="M328 442l53 110h132l-53 -110h117v-115h-172l-47 -98h219v-115h-273l-55 -114h-132l55 114h-110v115h164l47 98h-211v115h266z" />
    <glyph glyph-name="equivalence" unicode="&#x2261;" horiz-adv-x="600" 
d="M550 437v-115h-500v115h500zM550 247v-115h-500v115h500zM550 57v-115h-500v115h500z" />
    <glyph glyph-name="lessequal" unicode="&#x2264;" horiz-adv-x="582" 
d="M537 135l-492 170v120l492 165v-123l-345 -103l345 -107v-122zM537 94v-119h-492v119h492z" />
    <glyph glyph-name="greaterequal" unicode="&#x2265;" horiz-adv-x="582" 
d="M45 467v123l492 -165v-120l-492 -170v122l345 107zM45 -25v119h492v-119h-492z" />
    <glyph glyph-name="house" unicode="&#x2302;" horiz-adv-x="627" 
d="M552 316v-316h-477v316l206 226h65zM412 121v146q-18 19 -48 53.5t-51 56.5l-98 -109v-147h197z" />
    <glyph glyph-name="logicalnotReversed" unicode="&#x2310;" horiz-adv-x="642" 
d="M582 260h-400v-180h-127v295h527v-115z" />
    <glyph glyph-name="integraltp" unicode="&#x2320;" horiz-adv-x="399" 
d="M110 -307v872q0 133 39.5 199t147.5 66q26 0 56.5 -4t48.5 -8l17 -5l-9 -108q-40 5 -65 5q-80 0 -80 -90v-927h-155z" />
    <glyph glyph-name="integralbt" unicode="&#x2321;" horiz-adv-x="389" 
d="M279 830v-872q0 -133 -39.5 -199t-147.5 -66q-26 0 -56.5 4.5t-47.5 8.5l-18 4l9 108q40 -5 65 -5q80 0 80 90v927h155z" />
    <glyph glyph-name="lozenge" unicode="&#x25ca;" horiz-adv-x="560" 
d="M212 775h130l198 -410l-195 -410h-130l-199 411zM283 100l116 257l-124 274l-117 -257z" />
    <glyph glyph-name="cyrbreve" unicode="&#xf6d4;" horiz-adv-x="440" 
d="M140 781v-86q32 -17 79 -17q48 0 79 17v86l128 -7q0 -87 -57.5 -130t-149.5 -44q-91 -1 -149 43t-58 131z" />
    <glyph glyph-name="grave.Cup" horiz-adv-x="273" 
d="M58 956l215 -141l-46 -80l-227 112z" />
    <glyph glyph-name="tilde.Cup" horiz-adv-x="423" 
d="M48 777l-48 39q2 4 5 11.5t15 26.5t25 33.5t35 26.5t45 12q36 0 90.5 -23t83.5 -23q17 0 34.5 10.5t26.5 21.5l8 10l55 -42q-2 -4 -6 -11t-17.5 -25t-28 -32t-37.5 -25t-46 -11q-36 0 -87.5 19.5t-80.5 19.5q-19 0 -37 -9.5t-27 -19.5z" />
    <glyph glyph-name="acute.x" horiz-adv-x="320" 
d="M237 849l-223 -178l49 -73l242 147z" />
    <glyph glyph-name="caron.x" horiz-adv-x="166" 
d="M78 510l-78 28q36 128 32 237l134 5q-1 -97 -88 -270z" />
    <glyph glyph-name="circumflex.x" horiz-adv-x="562" 
d="M67 679l164 153l89 8l175 -161l-48 -66l-164 120l-168 -120z" />
    <glyph glyph-name="grave.x" horiz-adv-x="320" 
d="M92 849l223 -178l-49 -73l-242 147z" />
    <glyph glyph-name="Igravecy" horiz-adv-x="802" 
d="M436 735l-227 112l58 109l215 -141zM692 587v-475l75 -25v-87h-310v87l80 25v305l-272 -269v-36l80 -27v-85h-310v87l75 25v475l-75 30v83l310 5v-88l-80 -30v-304l272 269v35l-80 30v83l310 5v-88z" />
    <glyph glyph-name="NULL" horiz-adv-x="600" 
 />
    <glyph glyph-name="ShortIcy" horiz-adv-x="802" 
d="M492 946l128 -7q0 -87 -57.5 -130t-149.5 -44q-91 -1 -149 43t-58 131l128 7v-86q32 -17 79 -17q48 0 79 17v86zM692 587v-475l75 -25v-87h-310v87l80 25v305l-272 -269v-36l80 -27v-85h-310v87l75 25v475l-75 30v83l310 5v-88l-80 -30v-304l272 269v35l-80 30v83l310 5
v-88z" />
    <glyph glyph-name="foundryicon" horiz-adv-x="676" 
d="M583 0h-491q-92 0 -92 92v491q0 93 92 93h491q93 0 93 -93v-491q0 -92 -93 -92zM266 452l-56 -33q-9 -3 -11 -3q-6 0 -6 9v136h-86v-400h86v209q0 14 27 14q50 0 50 -65v-158h86v207q0 37 -25.5 60.5t-64.5 23.5zM390 403h29q13 0 13 -11v-153q0 -36 25.5 -60.5
t64.5 -24.5l73 43v29q-18 -5 -31 -5q-46 0 -46 67v104q0 11 11 11h67v42h-67q-11 0 -11 12v32h-25l-103 -65v-21z" />
    <glyph glyph-name="asterisk.alt" horiz-adv-x="422" 
d="M209 593l-37 40l-18 111h104l-18 -111zM191 582l-54 -6l-110 42l50 90l95 -75zM224 583l16 50l95 75l52 -87l-110 -46zM190 567l-18 -49l-95 -76l-52 88l112 46zM277 575l110 -46l-50 -88l-98 77l-14 47zM208 557l31 -39l19 -110h-104l18 110z" />
    <glyph glyph-name="acute.Cup" horiz-adv-x="273" 
d="M46 735l-46 80l215 141l58 -109z" />
    <glyph glyph-name="caron.Cup" horiz-adv-x="385" 
d="M385 897l-143 -140l-89 -7l-153 147l55 60l141 -106l139 106z" />
    <glyph glyph-name="circumflex.Cup" horiz-adv-x="428" 
d="M0 786l164 153l89 8l175 -161l-48 -66l-164 120l-168 -120z" />
    </font>
</defs>
</svg>
