<svg xmlns="http://www.w3.org/2000/svg" fill="none" viewBox="0 0 36 36">
  <path d="M1.12593 22.1565V3.35817C1.12593 1.5035 2.58513 0 4.38515 0H16.0364C17.8364 0 19.2956 1.5035 19.2956 3.35817C19.2956 3.99867 19.1178 4.62582 18.7832 5.16563L7.13201 23.964C6.16319 25.5271 4.148 25.985 2.63095 24.9868C1.69336 24.3698 1.12593 23.3027 1.12593 22.1565Z" fill="#000"/>
  <path d="M53.8651 40.6855V59.4402C53.8651 61.2957 52.4053 62.7999 50.6045 62.7999H38.9552C37.1544 62.7999 35.6945 61.2957 35.6945 59.4402C35.6945 58.7983 35.873 58.1699 36.2088 57.6292L47.8582 38.8744C48.8289 37.3116 50.8454 36.8555 52.3622 37.8557C53.2986 38.4733 53.8651 39.5399 53.8651 40.6855Z" fill="#000"/>
  <path d="M51.9564 0.00149367H38.5159C37.4839 0.00149367 36.5221 0.540405 35.9612 1.43304L0.488785 57.8805C0.169747 58.3882 0 58.9801 0 59.5849C0 61.3169 1.36265 62.7209 3.04356 62.7209H16.4841C17.5161 62.7209 18.4779 62.182 19.0388 61.2894L54.5112 4.84189C54.8303 4.3342 55 3.74229 55 3.13747C55 1.40552 53.6373 0.00149367 51.9564 0.00149367Z" fill="#000"/>
	<style>
    @media (prefers-color-scheme:dark){:root{filter:invert(100%)}}
  </style>
</svg>
