<svg xmlns="http://www.w3.org/2000/svg" fill="none" viewBox="0 0 36 36">
  <path fill="#000" d="M6.01184 13.9858V5.82203C6.01184 5.01659 6.67511 4.36365 7.4933 4.36365H12.7893C13.6075 4.36365 14.2708 5.01659 14.2708 5.82203C14.2708 6.10019 14.19 6.37255 14.0379 6.60698L8.74187 14.7707C8.3015 15.4495 7.3855 15.6484 6.69593 15.2149C6.26976 14.947 6.01184 14.4836 6.01184 13.9858ZM29.9841 22.0326V30.1775C29.9841 30.9833 29.3205 31.6365 28.502 31.6365H23.2068C22.3883 31.6365 21.7247 30.9833 21.7247 30.1775C21.7247 29.8987 21.8059 29.6258 21.9585 29.391L27.2537 21.2462C27.6949 20.5675 28.6115 20.3694 29.3009 20.8038C29.7266 21.0719 29.9841 21.5351 29.9841 22.0326ZM29.1166 4.36415H23.0072C22.5381 4.36415 22.101 4.59818 21.846 4.98584L5.72218 29.4998C5.57716 29.7203 5.5 29.9774 5.5 30.24C5.5 30.9922 6.11939 31.6019 6.88344 31.6019H12.9928C13.4619 31.6019 13.899 31.3679 14.154 30.9802L30.2778 6.46623C30.4228 6.24575 30.5 5.9887 30.5 5.72603C30.5 4.97388 29.8806 4.36415 29.1166 4.36415Z"/>
	<style>
    @media (prefers-color-scheme:dark){:root{filter:invert(100%)}}
  </style>
</svg>
