<svg viewBox="0 0 30 30" fill="none" xmlns="http://www.w3.org/2000/svg">
<path fill-rule="evenodd" clip-rule="evenodd" d="M4.45038 11.3025V3.78321C4.45038 3.04134 5.03406 2.43994 5.75406 2.43994H10.4145C11.1346 2.43994 11.7182 3.04134 11.7182 3.78321C11.7182 4.03941 11.6471 4.29027 11.5133 4.50619L6.85281 12.0255C6.46528 12.6508 5.6592 12.8339 5.05238 12.4346C4.67735 12.1879 4.45038 11.761 4.45038 11.3025ZM25.546 18.7142V26.2161C25.546 26.9583 24.9621 27.56 24.2418 27.56H19.5821C18.8617 27.56 18.2778 26.9583 18.2778 26.2161C18.2778 25.9594 18.3492 25.708 18.4835 25.4917L23.1433 17.9898C23.5316 17.3647 24.3382 17.1822 24.9449 17.5823C25.3194 17.8293 25.546 18.256 25.546 18.7142ZM24.7826 2.44055H19.4064C18.9935 2.44055 18.6088 2.65612 18.3845 3.01317L4.19551 25.5922C4.0679 25.7952 4 26.032 4 26.2739C4 26.9667 4.54506 27.5283 5.21742 27.5283H10.5936C11.0065 27.5283 11.3912 27.3128 11.6155 26.9557L25.8045 4.37671C25.9321 4.17364 26 3.93687 26 3.69494C26 3.00216 25.4549 2.44055 24.7826 2.44055Z" fill="white"/>
</svg>
