<?xml version="1.0" encoding="UTF-8"?><!DOCTYPE svg PUBLIC "-//W3C//DTD SVG 1.1//EN" "http://www.w3.org/Graphics/SVG/1.1/DTD/svg11.dtd"><svg xmlns="http://www.w3.org/2000/svg" xmlns:xlink="http://www.w3.org/1999/xlink" height="75" viewBox="0 0 52 75" width="52"><svg height="37.1" viewBox="0 0 44 38" width="44" x="4" y="4"><path fill="#1D2026" d="M39.7 37.1h-2c-.3 0-.5-.2-.6-.5h-1c-1 0-1.7-.7-1.7-1.6V23.5c0-.9.8-1.6 1.7-1.6h1c0-.3.3-.5.6-.5h2.2c1.2 0 2.2 1 2.2 2.2v2.1h.8v-2.4c0-12.2-9.4-22-20.9-22S1.1 11 1.1 23.2v2.4H2v-2.1c0-1.2 1-2.2 2.2-2.2h2.2c.3 0 .5.2.6.5h1c1 0 1.7.7 1.7 1.6V35c0 .9-.8 1.6-1.7 1.6H7c0 .3-.3.5-.6.5h-2c-1.3 0-2.3-1-2.3-2.3v-1.9H.6c-.3 0-.6-.3-.6-.6v-9.1C0 10.4 9.9 0 22 0s22 10.4 22 23.2v9.1c0 .3-.3.6-.6.6H42v1.9c0 1.3-1 2.3-2.3 2.3zM38.3 36h1.4c.6 0 1.2-.5 1.2-1.2V23.6c0-.6-.5-1-1-1h-1.5V36zM4.2 22.5c-.6 0-1 .5-1 1v11.3c0 .6.5 1.2 1.2 1.2h1.5V22.5H4.2zm31.9.5c-.3 0-.6.2-.6.5V35c0 .3.3.5.6.5h1V23h-1zM6.9 35.5h1c.3 0 .6-.2.6-.5V23.5c0-.3-.3-.5-.6-.5h-1v12.5zM42 31.8h.8v-5H42v5zm-40.9 0H2v-5h-.9v5z"/></svg><svg height="25" viewBox="0 0 25 25" width="25" x="4" y="46"><path fill="#FFF" d="M25 .7l-.7-.7-11.8 11.8L.7 0 0 .7l11.8 11.8L0 24.3l.7.7 11.8-11.8L24.3 25l.7-.7-11.8-11.8z"/></svg></svg>