<?xml version="1.0" encoding="UTF-8"?>
<svg width="668px" height="200px" viewBox="0 0 668 200" version="1.1" xmlns="http://www.w3.org/2000/svg" xmlns:xlink="http://www.w3.org/1999/xlink">
    <!-- Generator: Sketch 42 (36781) - http://www.bohemiancoding.com/sketch -->
    <title>zuonx-logo-color</title>
    <desc>Created with Sketch.</desc>
    <defs></defs>
    <g id="Page-1" stroke="none" stroke-width="1" fill="none" fill-rule="evenodd">
        <g id="Desktop" transform="translate(-156.000000, -195.000000)">
            <g id="zuonx-logo-color" transform="translate(156.000000, 195.000000)">
                <g id="Group-3">
                    <g id="Logo-Copy">
                        <rect id="矩形_1" fill="#FFFFFF" x="0" y="0" width="200" height="200" rx="20"></rect>
                        <g id="Group" transform="translate(47.000000, 45.000000)">
                            <path d="M11.3633866,46.672487 C8.40126997,51.337303 6,50.6433101 6,45.1212962 L6,4.008413 C6,1.79462763 7.7837733,0 9.99789262,0 L37.0021074,0 C39.2100825,0 40.0365464,1.51727106 38.8567246,3.37528428 L11.3633866,46.672487 Z" id="矩形_1-2" fill="#2C85EA"></path>
                            <path d="M95.0190698,63.298167 C97.9864591,58.6351267 100.392003,59.3325468 100.392003,64.8469577 L100.392003,105.855218 C100.392003,108.064229 98.6082301,109.854986 96.3941107,109.854986 L69.389896,109.854986 C67.1819208,109.854986 66.355457,108.340987 67.5418428,106.476667 L95.0190698,63.298167 Z" id="矩形_1-3" fill="#F15168"></path>
                            <path d="M67.6517939,3.36723678 C68.84908,1.50756326 71.6129566,0 73.8162657,0 L103.003406,0 C105.210664,0 106.025822,1.5131331 104.832122,3.36723678 L38.3482061,106.632763 C37.15092,108.492437 34.3870434,110 32.1837343,110 L2.99659361,110 C0.789335907,110 -0.0258219056,108.486867 1.16787822,106.632763 L67.6517939,3.36723678 Z" id="矩形_2" fill="#F9C422"></path>
                        </g>
                    </g>
                    <g id="Group-4" transform="translate(161.000000, 45.000000)" fill="#FFFFFF">
                        <path d="M39,110 C24.3937494,109.804052 14.2046621,106.668924 8,101 C2.8107827,94.6670824 2.84217094e-14,84.5269032 2.84217094e-14,70 L2.84217094e-14,4.00218213 C2.84217094e-14,1.79183797 1.78994178,0 3.99040483,0 L35.0095952,0 C37.2134349,0 39,1.79486856 39,3.996266 L39,110 Z" id="UONX"></path>
                        <path d="M68.9995986,109.54513 C66.7906813,109.620273 65,107.887744 65,105.672268 C65,105.672268 65,106.64092 65,105 L65,3.99882955 C65,1.79033697 66.7974567,0 68.9994661,0 L100.447475,0 C102.656319,0 104.446941,1.79992695 104.446941,4.00048389 L104.446941,69.970297 C104.446941,84.2819197 101.603947,94.3927097 95.9178727,100.30297 C90.7681039,105.645394 82.1425497,108.707632 70.0409979,109.489749 C68.4228169,109.594331 68.9995986,109.54513 68.9995986,109.54513 Z" id="Path"></path>
                    </g>
                    <g id="Group-2" transform="translate(485.500000, 100.500000) rotate(-180.000000) translate(-485.500000, -100.500000) translate(434.000000, 45.000000)" fill="#FFFFFF">
                        <path d="M38.2411124,106.506892 C38.2411124,108.720696 36.4463571,110.453444 34.2347346,110.358756 C34.2347346,110.358756 34.0219703,110.3889 32.0600047,110.225045 C21.0056258,109.30183 13.075135,106.248767 8.26834862,101.065797 C2.75608865,95.1105876 0,84.9229028 0,70.5024369 L0,3.99252047 C0,1.7875123 1.79315674,0 4.00220356,0 L34.2389088,0 C36.4492648,0 38.2411124,1.78861686 38.2411124,4.00242878 L38.2411124,104.855674 L38.2411124,106.506892 Z" id="Path-Copy"></path>
                        <path d="M68.0022036,110.515338 C65.7918476,110.515338 64,108.723369 64,106.516749 L64,3.99858932 C64,1.79022942 65.7931567,0 68.0022036,0 L98.2389088,0 C100.449265,0 102.241112,1.79196915 102.241112,3.99858932 L102.241112,106.516749 C102.241112,108.725109 100.447956,110.515338 98.2389088,110.515338 L68.0022036,110.515338 Z" id="Path-Copy-2"></path>
                    </g>
                    <g id="Group-5" transform="translate(293.000000, 44.000000)" fill="#FFFFFF">
                        <path d="M74.971624,110.559457 C72.7781566,110.802762 71,109.208536 71,107.009432 C71,107.009432 71,107.88943 71,106 L71,7 L71,3.99644896 C71,1.78927114 72.782936,0.205833125 74.9674148,0.482972305 C74.9674148,0.482972305 76.5328421,0.598605848 79.0963012,1.14574321 C90.4009234,3.55856932 99.0741858,9.18454317 105.116273,18.0237624 C111.513107,27.4020271 114.711475,39.9061925 114.711475,55.5366337 C114.711475,71.1670749 111.513107,83.6712402 105.116273,93.049505 C98.7031121,102.36776 89.4033487,108.097018 77.2167665,110.237393 C75.2218679,110.587765 74.971624,110.559457 74.971624,110.559457 Z" id="Path"></path>
                        <path d="M43.6353228,106.995986 C43.6353228,109.207342 41.8588592,110.818209 39.6627855,110.566257 C39.6627855,110.566257 39.7164551,110.624319 37.8574017,110.312492 C25.4614111,108.233256 16.0407524,102.478967 9.59520188,93.049505 C3.19836864,83.6712402 0,71.1670749 0,55.5366337 C0,39.9061925 3.19836864,27.4020271 9.59520188,18.0237624 C16.02536,8.55194322 25.4961505,2.76975457 38.0078003,0.677076293 C39.8198571,0.373994616 39.6515621,0.44342054 39.6515621,0.44342054 C41.8517324,0.198526138 43.6353228,1.7818583 43.6353228,3.99173028 L43.6353228,6 L43.6353228,106 L43.6353228,106.995986 Z" id="Path"></path>
                    </g>
                </g>
                <g id="Group" transform="translate(615.500000, 100.000000) scale(-1, 1) translate(-615.500000, -100.000000) translate(563.000000, 45.000000)" fill="#FFFFFF">
                    <path d="M5.42183331,0 C4.86417148,0 4.85462657,0 5.42183331,0 L38.4023612,0 C38.960023,0 38.9695679,0 38.4023612,0 L5.42183331,0 Z" id="矩形_1-2"></path>
                    <path d="M67.0333,3.36723678 C68.2305861,1.50756326 70.9944627,0 73.1977718,0 L102.384912,0 C104.59217,0 105.407328,1.5131331 104.213628,3.36723678 L37.7297122,106.632763 C36.5324261,108.492437 33.7685494,110 31.5652403,110 L2.37809968,110 C0.170841981,110 -0.644315831,108.486867 0.549384297,106.632763 L67.0333,3.36723678 Z" id="矩形_2"></path>
                    <path d="M1.22875296,3.37057329 C0.0354170423,1.50905707 0.862032621,0 3.07187754,0 L39.0866111,0 C41.2978766,0 42.1234251,1.50857962 40.9298418,3.37057329 L23.2404045,30.9661491 C22.0471272,32.8276653 20.112701,32.8281427 18.919059,30.9661491 L1.22875296,3.37057329 Z" id="矩形_2" transform="translate(21.079482, 16.181233) scale(-1, 1) rotate(-360.000000) translate(-21.079482, -16.181233) "></path>
                    <path d="M61.5482243,79.3710551 C60.3547178,77.5092728 61.1740087,76 63.3837349,76 L101.331064,76 C103.538295,76 104.362602,77.5054142 103.166681,79.3710551 L84.5188922,108.461662 C83.3254443,110.323445 81.3929091,110.327303 80.196929,108.461662 L61.5482243,79.3710551 Z" id="矩形_2" transform="translate(82.357725, 92.929723) scale(-1, -1) translate(-82.357725, -92.929723) "></path>
                </g>
            </g>
        </g>
    </g>
</svg>