<?xml version="1.0" standalone="no"?>
<!DOCTYPE svg PUBLIC "-//W3C//DTD SVG 1.1//EN" "http://www.w3.org/Graphics/SVG/1.1/DTD/svg11.dtd" >
<svg xmlns="http://www.w3.org/2000/svg" xmlns:xlink="http://www.w3.org/1999/xlink" version="1.1">
<metadata>
Created by FontForge 20161003 at Thu Dec 28 03:36:56 2017
 By www-data
Copyright (c) Olivier Gourvat - Mostardesign Studio, 2012. All rights reserved.
</metadata>
<defs>
<font id="SofiaProBlack" horiz-adv-x="580" >
  <font-face 
    font-family="SofiaProBlack"
    font-weight="900"
    font-stretch="normal"
    units-per-em="1000"
    panose-1="2 11 0 0 0 0 0 0 0 0"
    ascent="750"
    descent="-250"
    x-height="466"
    cap-height="689"
    bbox="-186 -302 1207 1138"
    underline-thickness="50"
    underline-position="-150"
    unicode-range="U+0020-FB04"
  />
<missing-glyph horiz-adv-x="635" 
d="M555 0h-475v665h475v-665zM185 431h62q0 37 21 60t53 23q33 0 56.5 -20.5t23.5 -52.5q0 -31 -24 -50q-15 -17 -33 -21q-47 -13 -70 -38.5t-23 -71.5v-38h62v38q0 21 12 32t38 18q44 13 71.5 48.5t27.5 82.5q0 59 -42 97q-41 38 -99 38q-57 0 -97 -40q-39 -40 -39 -105z
M283 88q18 0 31.5 12.5t13.5 30.5t-13.5 30.5t-31.5 12.5q-19 0 -32.5 -12.5t-13.5 -30.5t13.5 -30.5t32.5 -12.5z" />
    <glyph glyph-name="f_f" unicode="ff" horiz-adv-x="797" 
d="M746 711h60v-151h-60q-63 0 -65 -77v-17h98v-117h-98v-349h-159v349h-256v-349h-159v349h-87v117h87v17q0 110 59 169t165 59h60v-151h-60q-63 0 -65 -77v-17h256v17q0 110 59 169t165 59z" />
    <glyph glyph-name="fi" unicode="fi" horiz-adv-x="728" 
d="M510 0v349h-244v-349h-159v349h-87v117h87v17q0 110 59 169t165 59h60v-151h-60q-63 0 -65 -77v-17h263h140v-466h-159zM493 621q0 38 28.5 64t67.5 26q40 0 67.5 -26t27.5 -64t-27.5 -64.5t-67.5 -26.5q-39 0 -67.5 27t-28.5 64z" />
    <glyph glyph-name="fl" unicode="fl" horiz-adv-x="712" 
d="M493 0v560h-162q-63 0 -65 -77v-17h98v-117h-98v-349h-159v349h-87v117h87v17q0 110 59 169t165 59h321v-711h-159z" />
    <glyph glyph-name="f_f_i" unicode="ffi" horiz-adv-x="1143" 
d="M1084 0h-159v349h-244v-349h-159v349h-256v-349h-159v349h-87v117h87v17q0 110 59 169t165 59h60v-151h-60q-63 0 -65 -77v-17h256v17q0 110 59 169t165 59h60v-151h-60q-63 0 -65 -77v-17h403v-466zM908 621q0 38 28.5 64t67.5 26q40 0 67.5 -26t27.5 -64t-27.5 -64.5
t-67.5 -26.5q-39 0 -67.5 27t-28.5 64z" />
    <glyph glyph-name="f_f_l" unicode="ffl" horiz-adv-x="1127" 
d="M1067 0h-159v560h-162q-63 0 -65 -77v-17h98v-117h-98v-349h-159v349h-256v-349h-159v349h-87v117h87v17q0 110 59 169t165 59h60v-151h-60q-63 0 -65 -77v-17h256v17q0 110 59 169t165 59h321v-711z" />
    <glyph glyph-name="f_f_j" unicode="ffj" horiz-adv-x="1121" 
d="M838 -237h-60v151h60q63 0 65 77v358h-222v-349h-159v349h-256v-349h-159v349h-87v117h87v17q0 110 59 169t165 59h60v-151h-60q-63 0 -65 -77v-17h256v17q0 110 59 169t165 59h60v-151h-60q-63 0 -65 -77v-17h381v-475q0 -110 -59 -169t-165 -59zM887 621q0 38 28.5 64
t67.5 26q40 0 67.5 -26t27.5 -64t-27.5 -64.5t-67.5 -26.5q-39 0 -67.5 27t-28.5 64z" />
    <glyph glyph-name="f_j" unicode="fj" horiz-adv-x="706" 
d="M423 -237h-60v151h60q63 0 65 77v358h-222v-349h-159v349h-87v117h87v17q0 110 59 169t165 59h60v-151h-60q-63 0 -65 -77v-17h381v-475q0 -110 -59 -169t-165 -59zM472 621q0 38 28.5 64t67.5 26q40 0 67.5 -26t27.5 -64t-27.5 -64.5t-67.5 -26.5q-39 0 -67.5 27
t-28.5 64z" />
    <glyph glyph-name=".notdef" horiz-adv-x="635" 
d="M555 0h-475v665h475v-665zM185 431h62q0 37 21 60t53 23q33 0 56.5 -20.5t23.5 -52.5q0 -31 -24 -50q-15 -17 -33 -21q-47 -13 -70 -38.5t-23 -71.5v-38h62v38q0 21 12 32t38 18q44 13 71.5 48.5t27.5 82.5q0 59 -42 97q-41 38 -99 38q-57 0 -97 -40q-39 -40 -39 -105z
M283 88q18 0 31.5 12.5t13.5 30.5t-13.5 30.5t-31.5 12.5q-19 0 -32.5 -12.5t-13.5 -30.5t13.5 -30.5t32.5 -12.5z" />
    <glyph glyph-name=".null" horiz-adv-x="0" 
 />
    <glyph glyph-name="nonmarkingreturn" horiz-adv-x="333" 
 />
    <glyph glyph-name="space" unicode=" " horiz-adv-x="238" 
 />
    <glyph glyph-name="exclam" unicode="!" horiz-adv-x="295" 
d="M213 231h-131l-18 458h167zM52 84q0 39 27.5 65t66.5 26q40 0 68 -26t28 -65t-28 -66t-68 -27q-39 0 -66.5 27t-27.5 66z" />
    <glyph glyph-name="quotedbl" unicode="&#x22;" horiz-adv-x="414" 
d="M184 689l-20 -301h-89l-20 301h129zM359 689l-20 -301h-89l-20 301h129z" />
    <glyph glyph-name="numbersign" unicode="#" horiz-adv-x="751" 
d="M397 255l54 165h-100l-53 -165h99zM534 689h119l-55 -174h119l-27 -95h-119l-53 -165h119l-29 -95h-118l-54 -160h-118l52 160h-100l-53 -160h-118l54 160h-118l27 95h117l52 165h-116l28 95h117l53 174h121l-54 -174h99z" />
    <glyph glyph-name="dollar" unicode="$" horiz-adv-x="584" 
d="M254 696v109h77v-110q89 -12 141.5 -68t52.5 -144h-167q0 64 -72 64q-34 0 -53.5 -15t-19.5 -40q0 -37 64 -56l79 -25q191 -59 191 -210q0 -93 -63 -146q-62 -52 -153 -61v-120h-77v119q-100 10 -158 66.5t-58 145.5h169q5 -67 85 -67q37 0 61 16.5t24 45.5q0 7 -2 15
q-3 8 -21 20.5t-46 21.5l-81 27q-178 48 -180 203q0 85 57 142q58 56 150 67z" />
    <glyph glyph-name="percent" unicode="%" horiz-adv-x="699" 
d="M465 656h95l-330 -656h-94zM302 535q0 -56 -39 -95q-40 -38 -95 -38t-95 38q-38 40 -38 95t38 95q39 39 95 39t95 -40q39 -39 39 -94zM216 535q0 19 -14 33.5t-34 14.5t-33.5 -14t-13.5 -34t13.5 -33.5t33.5 -13.5t34 13.5t14 33.5zM435 29q-38 40 -38 95t38 95
q39 39 95 39t95 -39t39 -95t-39 -95q-40 -38 -95 -38t-95 38zM496 158q-13 -14 -13 -34t13 -34q14 -13 34 -13t34 13q14 14 14 34t-14 34t-34 14t-34 -14z" />
    <glyph glyph-name="ampersand" unicode="&#x26;" horiz-adv-x="709" 
d="M267 -10q-99 0 -157 55q-59 56 -59 144q0 64 33 108.5t86 59.5q-43 8 -72.5 51.5t-29.5 100.5q0 76 58 128q58 54 151 60q131 9 210 -85l-120 -96q-23 27 -52 27q-32 0 -51 -18t-19 -40q0 -15 9 -38q15 -31 70 -31h90v71h147v-76h86v-117h-86v-83q0 -73 22 -90.5t84 12.5
v-118q-88 -34 -148.5 -17t-77.5 82q-22 -40 -74 -66q-51 -24 -100 -24zM414 267v17h-95q-38 0 -62.5 -21t-25.5 -49q0 -28 24 -48.5t64 -20.5q11 0 25 4.5t31.5 16t28.5 38t10 63.5z" />
    <glyph glyph-name="quotesingle" unicode="'" horiz-adv-x="239" 
d="M184 689l-20 -301h-89l-20 301h129z" />
    <glyph glyph-name="parenleft" unicode="(" horiz-adv-x="398" 
d="M34 226q0 198 97 334q98 137 237 137v-116q-45 0 -93 -54q-49 -53 -80 -137q-31 -81 -31 -164q0 -81 31 -161q31 -79 79 -132q48 -51 94 -51v-115q-140 0 -237 132q-97 130 -97 327z" />
    <glyph glyph-name="parenright" unicode=")" horiz-adv-x="398" 
d="M364 226q0 -197 -97 -327q-97 -132 -237 -132v115q46 0 93 51q47 50 79 132t32 161q0 80 -32 164q-32 86 -79 137q-48 54 -93 54v116q138 0 236 -137t98 -334z" />
    <glyph glyph-name="asterisk" unicode="*" horiz-adv-x="472" 
d="M238 450l-76 -110l-76 58l82 101l-126 36l31 93l121 -48l-8 131h100l-9 -130l123 47l29 -93l-125 -34l83 -104l-78 -55z" />
    <glyph glyph-name="plus" unicode="+" horiz-adv-x="503" 
d="M457 289v-108h-152v-152h-108v152h-151v108h151v151h108v-151h152z" />
    <glyph glyph-name="comma" unicode="," horiz-adv-x="275" 
d="M79 -123l-82 40q41 57 59 105q19 48 19 136h141q0 -165 -137 -281z" />
    <glyph glyph-name="hyphen" unicode="-" horiz-adv-x="471" 
d="M413 310v-135h-355v135h355z" />
    <glyph glyph-name="period" unicode="." horiz-adv-x="288" 
d="M49 84q0 39 27.5 65t66.5 26q40 0 68 -26t28 -65t-28 -66t-68 -27q-39 0 -66.5 27t-27.5 66z" />
    <glyph glyph-name="slash" unicode="/" horiz-adv-x="501" 
d="M145 0h-116l327 689h116z" />
    <glyph glyph-name="zero" unicode="0" horiz-adv-x="604" 
d="M215 327q0 -84 22.5 -133t66.5 -49q85 0 85 182q0 184 -85 184q-44 0 -66.5 -49.5t-22.5 -134.5zM55 327q0 339 249 339q140 0 194 -99q51 -91 51 -240q0 -336 -245 -336q-249 0 -249 336z" />
    <glyph glyph-name="one" unicode="1" horiz-adv-x="396" 
d="M36 394v137l278 140v-671h-163v446z" />
    <glyph glyph-name="two" unicode="2" horiz-adv-x="568" 
d="M296 144h213v-144h-461v90l271 314q30 34 30 60q0 23 -17.5 38t-51.5 15q-38 0 -57 -22t-26 -67l-144 22q16 102 78.5 159t160.5 57q88 0 153 -57q64 -57 64 -145t-68 -164z" />
    <glyph glyph-name="three" unicode="3" horiz-adv-x="549" 
d="M243 278h-67v123h67q47 0 60 32q9 23 9 41q0 16 -18 37q-16 22 -50 22q-50 0 -89 -41l-94 77q31 48 87.5 74.5t122.5 22.5q88 -5 144 -59q57 -54 55 -126q0 -80 -86 -127q54 -20 84.5 -62t30.5 -96q0 -94 -74 -150q-73 -54 -179 -54q-72 0 -128.5 32t-83.5 89l102 90
q13 -30 42 -51t68 -21q45 0 70 21.5t25 53.5q0 31 -26 51.5t-72 20.5z" />
    <glyph glyph-name="four" unicode="4" horiz-adv-x="630" 
d="M504 283h78v-131h-78v-152h-162v152h-323l283 504h202v-373zM342 283v219l-117 -219h117z" />
    <glyph glyph-name="five" unicode="5" horiz-adv-x="604" 
d="M400 239q0 42 -30 67t-79 25q-93 0 -162 -70l-69 39l52 356h398v-139h-272l-14 -89q53 36 121 36q89 0 151 -62t62 -163q0 -108 -77 -179q-76 -70 -203 -70q-68 0 -132 34q-65 35 -106 91l124 90q54 -64 114 -64q52 0 86 31q36 32 36 67z" />
    <glyph glyph-name="six" unicode="6" horiz-adv-x="598" 
d="M347 421q62 0 129 -44q34 -22 55 -65.5t21 -96.5q0 -99 -66 -162q-67 -62 -185 -62q-94 0 -161 62q-66 63 -79 167q-9 50 -7 103t9 103.5t28.5 94.5t51.5 77t79 51.5t110 16.5q74 -3 125 -32t83 -96l-130 -62q-24 51 -83 51q-70 0 -98 -64q-24 -58 -24 -115q7 27 45.5 50
t96.5 23zM228 212q0 -34 23 -56.5t59 -22.5t60 23t24 56q0 31 -23.5 53.5t-60.5 22.5q-34 0 -58 -23t-24 -53z" />
    <glyph glyph-name="seven" unicode="7" horiz-adv-x="549" 
d="M299 511h-259v145h496l-262 -656h-180z" />
    <glyph glyph-name="eight" unicode="8" horiz-adv-x="611" 
d="M211 220q0 -37 27 -61.5t69 -24.5t68.5 24.5t26.5 61.5q0 34 -26 59t-64 25h-8q-40 0 -66.5 -24.5t-26.5 -59.5zM90 487q0 77 64 128t153 51q87 0 149 -51q61 -49 61 -128q0 -38 -16 -72t-42 -46q43 -13 75 -63q31 -49 31 -102q0 -94 -75 -154q-76 -59 -183 -59t-184 59
q-75 60 -75 154q0 57 27.5 102.5t74.5 62.5q-27 17 -43.5 50.5t-16.5 67.5zM240 481q0 -26 18.5 -43t48.5 -17q29 0 47 17t18 43q0 23 -18 40.5t-43 17.5h-6q-27 0 -46 -17t-19 -41z" />
    <glyph glyph-name="nine" unicode="9" horiz-adv-x="598" 
d="M252 236q-62 0 -129 44q-34 22 -55 65.5t-21 96.5q0 100 66 161q66 63 185 63q95 0 160 -62q66 -62 80 -167q9 -50 7 -103t-9 -103.5t-28.5 -94.5t-51.5 -77t-79 -51.5t-110 -16.5q-74 3 -125 32t-83 96l130 62q24 -51 83 -51q71 0 97 64q25 57 25 115q-7 -27 -45.5 -50
t-96.5 -23zM371 445q0 34 -23 56.5t-59 22.5t-60 -23t-24 -56q0 -31 23.5 -53.5t60.5 -22.5q34 0 58 23t24 53z" />
    <glyph glyph-name="colon" unicode=":" horiz-adv-x="309" 
d="M60 84q0 39 27.5 65t66.5 26t66.5 -26t27.5 -65t-27.5 -66t-66.5 -27t-66.5 27t-27.5 66zM60 384q0 39 27.5 66t66.5 27t66.5 -27t27.5 -66t-27.5 -65t-66.5 -26t-66.5 26t-27.5 65z" />
    <glyph glyph-name="semicolon" unicode=";" horiz-adv-x="300" 
d="M61 384q0 39 27.5 66t66.5 27t66.5 -27t27.5 -66t-27.5 -65t-66.5 -26t-66.5 26t-27.5 65zM92 -123l-82 40q41 57 59 105q19 48 19 136h141q0 -165 -137 -281z" />
    <glyph glyph-name="less" unicode="&#x3c;" horiz-adv-x="616" 
d="M543 176v-116l-500 192v122l500 191v-115l-353 -138z" />
    <glyph glyph-name="equal" unicode="=" horiz-adv-x="592" 
d="M526 165h-460v102h460v-102zM66 471h460v-102h-460v102z" />
    <glyph glyph-name="greater" unicode="&#x3e;" horiz-adv-x="616" 
d="M573 374v-122l-500 -192v116l353 136l-353 138v115z" />
    <glyph glyph-name="question" unicode="?" horiz-adv-x="496" 
d="M280 231h-143v12q0 65 15 105q19 50 89 80l37 16q34 13 34 50q0 26 -17.5 40t-48.5 14q-27 0 -45.5 -18.5t-18.5 -45.5h-144q0 103 56.5 159t154.5 56q94 0 153 -53q58 -52 58 -142q0 -70 -33.5 -118.5t-94.5 -70.5q-30 -11 -41 -29.5t-11 -54.5zM116 84q0 39 27.5 65
t66.5 26q40 0 68 -26t28 -65t-28 -66t-68 -27q-39 0 -66.5 27t-27.5 66z" />
    <glyph glyph-name="at" unicode="@" horiz-adv-x="963" 
d="M577 150v125q0 47 -33 79q-32 33 -78 33q-45 0 -78 -33q-33 -32 -33 -79q0 -44 33 -77t78 -33q43 0 71 16v-98q-25 -13 -71 -13q-86 0 -147 60q-60 60 -60 145q0 87 60 147q61 60 147 60t145 -58q60 -57 63 -139v-140q0 -29 16.5 -45t39.5 -16q59 0 81 75q19 66 19 129
q0 139 -104 232q-103 94 -250 94q-141 0 -239 -101q-97 -100 -97 -243t97 -240q98 -98 239 -98h61v-97h-61q-182 0 -307 126q-125 127 -125 309q0 183 125 311q126 129 307 129q118 3 223 -53t167.5 -155t60.5 -214q0 -102 -43 -192q-22 -47 -63 -75.5t-91 -28.5
q-69 0 -111 39.5t-42 118.5z" />
    <glyph glyph-name="A" unicode="A" horiz-adv-x="667" 
d="M678 0h-177l-58 158h-217l-58 -158h-179l254 689h182zM400 302l-67 227l-62 -227h129z" />
    <glyph glyph-name="B" unicode="B" horiz-adv-x="644" 
d="M570 504q0 -39 -23 -80t-74 -56q65 -11 99 -59q34 -49 34 -105q0 -86 -55 -145q-56 -59 -172 -59h-302v689h282q96 0 153 -51q58 -51 58 -134zM245 543v-120h90q26 0 42 15.5t16 41.5q0 63 -56 63h-92zM351 286h-106v-140h107q36 0 56.5 20.5t20.5 50.5q0 29 -20.5 49
t-57.5 20z" />
    <glyph glyph-name="C" unicode="C" horiz-adv-x="707" 
d="M545 245l137 -96q-48 -73 -126 -115.5t-167 -42.5q-145 0 -248 103t-103 250q0 146 102 250q104 104 249 104q90 0 168 -42.5t126 -115.5l-139 -97q-24 40 -65.5 63.5t-89.5 23.5q-77 0 -129 -55q-53 -55 -53 -131t53 -131q52 -54 129 -54q48 0 89.5 23t66.5 63z" />
    <glyph glyph-name="D" unicode="D" horiz-adv-x="705" 
d="M350 540h-105v-391h105q69 0 107 56q39 57 39 138q0 82 -39 139q-37 58 -107 58zM350 0h-273v689h273q145 0 229 -98q84 -97 84 -248q0 -150 -84 -247q-83 -96 -229 -96z" />
    <glyph glyph-name="E" unicode="E" horiz-adv-x="581" 
d="M533 146v-146h-456v689h447v-146h-280v-132h246v-143h-246v-122h289z" />
    <glyph glyph-name="F" unicode="F" horiz-adv-x="545" 
d="M246 267v-267h-169v689h443v-146h-274v-132h217v-144h-217z" />
    <glyph glyph-name="G" unicode="G" horiz-adv-x="756" 
d="M662 576l-124 -105q-58 72 -145 72q-78 0 -132 -58q-54 -59 -54 -141t54 -142q54 -59 132 -59q135 0 158 92h-193v134h375q0 -189 -92 -284q-91 -94 -248 -94q-149 0 -252 103t-103 250t103 250q104 104 252 104q81 0 152 -32.5t117 -89.5z" />
    <glyph glyph-name="H" unicode="H" horiz-adv-x="701" 
d="M244 417h210v272h170v-689h-170v268h-210v-268h-167v689h167v-272z" />
    <glyph glyph-name="I" unicode="I" horiz-adv-x="321" 
d="M244 0h-167v689h167v-689z" />
    <glyph glyph-name="J" unicode="J" horiz-adv-x="323" 
d="M-97 -211l15 150q34 -12 96 -12q63 0 63 80v682h169v-682q0 -105 -57 -171q-55 -66 -175 -66q-57 0 -111 19z" />
    <glyph glyph-name="K" unicode="K" horiz-adv-x="633" 
d="M590 689l-259 -340l322 -349h-229l-180 210v-210h-167v689h167v-197l137 197h209z" />
    <glyph glyph-name="L" unicode="L" horiz-adv-x="518" 
d="M494 146v-146h-417v689h169v-543h248z" />
    <glyph glyph-name="M" unicode="M" horiz-adv-x="913" 
d="M263 689l194 -419l191 419h141l84 -689h-172l-42 371l-139 -291h-126l-140 291l-43 -371h-172l85 689h139z" />
    <glyph glyph-name="N" unicode="N" horiz-adv-x="678" 
d="M434 318v371h167v-689h-146l-211 376v-376h-167v689h151z" />
    <glyph glyph-name="O" unicode="O" horiz-adv-x="779" 
d="M38 344q0 146 102 250q104 104 249 104q147 0 249 -104q103 -103 103 -250t-103 -250q-102 -103 -249 -103q-145 0 -248 103t-103 250zM389 159q78 0 130 54q54 54 54 131t-54 131q-54 55 -130 55q-77 0 -129 -55q-53 -55 -53 -131t53 -131q52 -54 129 -54z" />
    <glyph glyph-name="P" unicode="P" horiz-adv-x="618" 
d="M244 230v-230h-167v689h285q113 0 175 -68q61 -67 61 -162t-61 -162t-175 -67h-118zM354 543h-110v-169h110q47 -2 66.5 41.5t0 87t-66.5 40.5z" />
    <glyph glyph-name="Q" unicode="Q" horiz-adv-x="786" 
d="M604 59l64 -108l-116 -69l-72 119q-39 -10 -87 -10q-149 0 -252 103t-103 250t103 250q104 104 252 104q149 0 252 -103q104 -104 104 -251q0 -84 -38.5 -159t-106.5 -126zM342 232l116 68l61 -100q61 55 61 144q0 83 -55 139q-55 58 -132 58q-79 0 -133 -57
q-53 -58 -53 -140q0 -65 36.5 -115.5t95.5 -69.5q15 -7 52 -10z" />
    <glyph glyph-name="R" unicode="R" horiz-adv-x="642" 
d="M244 230v-230h-167v689h285q113 0 175 -68q61 -67 61 -162q0 -79 -43 -140q-42 -61 -122 -81l168 -238h-194l-148 230h-15zM354 543h-110v-169h110q47 -2 66.5 41.5t0 87t-66.5 40.5z" />
    <glyph glyph-name="S" unicode="S" horiz-adv-x="586" 
d="M40 205h169q5 -67 85 -67q37 0 61 16.5t24 45.5q0 7 -2 15q-3 8 -21 20.5t-46 21.5l-81 27q-178 48 -180 203q0 93 68 152t173 59q106 0 171 -58q66 -57 66 -157h-167q0 64 -72 64q-34 0 -53.5 -15t-19.5 -40q0 -37 64 -56l79 -25q191 -59 191 -210q0 -72 -41 -122
q-74 -88 -214 -88q-117 0 -185 58q-69 59 -69 156z" />
    <glyph glyph-name="T" unicode="T" horiz-adv-x="577" 
d="M205 0v543h-178v146h523v-146h-178v-543h-167z" />
    <glyph glyph-name="U" unicode="U" horiz-adv-x="682" 
d="M69 251v438h168v-438q0 -46 31 -74q32 -29 73 -29q40 0 72 29t32 74v438h168v-438q0 -115 -81 -188q-80 -72 -191 -72t-192 72q-80 74 -80 188z" />
    <glyph glyph-name="V" unicode="V" horiz-adv-x="592" 
d="M369 0h-147l-210 689h174l110 -420l108 420h176z" />
    <glyph glyph-name="W" unicode="W" horiz-adv-x="883" 
d="M372 590h139l77 -293l120 392h182l-234 -689h-129l-87 335l-84 -335h-130l-232 689h181l119 -392z" />
    <glyph glyph-name="X" unicode="X" horiz-adv-x="677" 
d="M339 498l117 191h200l-218 -323l238 -366h-197l-140 233l-141 -233h-196l237 366l-218 323h202z" />
    <glyph glyph-name="Y" unicode="Y" horiz-adv-x="663" 
d="M415 307v-307h-168v310l-269 379h199l153 -250l156 250h198z" />
    <glyph glyph-name="Z" unicode="Z" horiz-adv-x="602" 
d="M41 0v123l295 421h-282v145h501v-123l-299 -420h299v-146h-514z" />
    <glyph glyph-name="bracketleft" unicode="[" horiz-adv-x="342" 
d="M311 -230h-243v919h243v-108h-114v-700h114v-111z" />
    <glyph glyph-name="backslash" unicode="\" horiz-adv-x="501" 
d="M29 689h116l327 -689h-116z" />
    <glyph glyph-name="bracketright" unicode="]" horiz-adv-x="342" 
d="M31 581v108h243v-919h-243v111h114v700h-114z" />
    <glyph glyph-name="underscore" unicode="_" horiz-adv-x="762" 
d="M705 -34v-107h-648v107h648z" />
    <glyph glyph-name="grave" unicode="`" horiz-adv-x="547" 
d="M267 549l-138 174h148l93 -174h-103z" />
    <glyph glyph-name="a" unicode="a" horiz-adv-x="608" 
d="M389 416v50h159v-466h-159v53q-44 -62 -129 -62q-92 0 -159 67q-68 68 -68 176t68 176t159 68q38 0 73.5 -16.5t55.5 -45.5zM223 301q-28 -28 -28 -68t28 -69q29 -28 69 -28t68 28q29 29 29 69t-29 68q-28 29 -68 29t-69 -29z" />
    <glyph glyph-name="b" unicode="b" horiz-adv-x="609" 
d="M60 711h159v-288q49 55 129 55q91 0 159 -68t68 -176t-68 -176q-67 -67 -159 -67q-45 0 -82.5 19.5t-55.5 56.5v-67h-150v711zM384 164q29 29 29 69t-29 68q-28 29 -68 29t-69 -29q-28 -28 -28 -68t28 -69q29 -28 69 -28t68 28z" />
    <glyph glyph-name="c" unicode="c" horiz-adv-x="526" 
d="M365 180l133 -74q-76 -115 -206 -115q-108 0 -184 67q-75 68 -75 176q0 109 76 176q77 68 183 68q129 0 205 -115l-130 -78q-28 46 -82 46q-40 0 -68.5 -28.5t-28.5 -68.5t28.5 -68.5t68.5 -28.5q50 0 80 43z" />
    <glyph glyph-name="d" unicode="d" horiz-adv-x="608" 
d="M389 423v288h159v-711h-150v67q-18 -37 -55.5 -56.5t-82.5 -19.5q-92 0 -159 67q-68 68 -68 176t68 176t159 68q80 0 129 -55zM223 301q-28 -28 -28 -68t28 -69q29 -28 69 -28t68 28q29 29 29 69t-29 68q-28 29 -68 29t-69 -29z" />
    <glyph glyph-name="e" unicode="e" horiz-adv-x="550" 
d="M523 240q0 -12 -3 -51h-334q4 -31 35 -51t72 -20q56 0 89 39q11 -10 56 -41q42 -29 54 -38q-66 -87 -211 -87q-102 0 -176 68q-72 69 -72 177q0 106 72 174q74 68 176 68q103 0 172 -66q70 -64 70 -172zM186 278h186q-9 36 -35.5 52.5t-57.5 16.5q-18 0 -33 -4
q-18 -4 -36.5 -22t-23.5 -43z" />
    <glyph glyph-name="f" unicode="f" horiz-adv-x="382" 
d="M331 711h60v-151h-60q-63 0 -65 -77v-17h98v-117h-98v-349h-159v349h-87v117h87v17q0 110 59 169t165 59z" />
    <glyph glyph-name="g" unicode="g" horiz-adv-x="608" 
d="M223 301q-28 -28 -28 -68t28 -69q29 -28 69 -28t68 28q29 29 29 69t-29 68q-28 29 -68 29t-69 -29zM43 -84l134 54q12 -28 39.5 -45t63.5 -17q60 0 91.5 38t31.5 112q-37 -67 -143 -67q-92 0 -159 67q-68 68 -68 176t68 176t159 68q38 0 73.5 -16.5t55.5 -45.5v50h159
v-407q0 -144 -69 -220t-199 -76q-80 0 -144.5 42t-92.5 111z" />
    <glyph glyph-name="h" unicode="h" horiz-adv-x="590" 
d="M219 245v-245h-159v711h159v-318q10 39 52 62q43 23 79 23q92 0 139 -59t47 -171v-248h-159v243q0 36 -23 58.5t-53 22.5q-35 0 -58.5 -20.5t-23.5 -58.5z" />
    <glyph glyph-name="i" unicode="i" horiz-adv-x="279" 
d="M60 466h159v-466h-159v466zM43 621q0 38 28.5 64t67.5 26q40 0 67.5 -26t27.5 -64t-27.5 -64.5t-67.5 -26.5q-39 0 -67.5 27t-28.5 64z" />
    <glyph glyph-name="j" unicode="j" horiz-adv-x="279" 
d="M-5 -237h-60v151h60q63 0 65 77v17v458h159v-458v-17q0 -110 -59 -169t-165 -59zM44 621q0 38 28.5 64t67.5 26q40 0 67.5 -26t27.5 -64t-27.5 -64.5t-67.5 -26.5q-39 0 -67.5 27t-28.5 64z" />
    <glyph glyph-name="k" unicode="k" horiz-adv-x="538" 
d="M542 0h-190l-133 168v-168h-159v711h159v-358l91 113h195l-172 -207z" />
    <glyph glyph-name="l" unicode="l" horiz-adv-x="279" 
d="M219 0h-159v711h159v-711z" />
    <glyph glyph-name="m" unicode="m" horiz-adv-x="884" 
d="M525 245v-245h-160v243q0 40 -22 60.5t-54 20.5t-51 -19.5t-19 -59.5v-245h-159v466h159v-73q10 40 47 63q35 22 72 22q128 0 167 -99q24 48 62.5 73.5t76.5 25.5q99 0 142.5 -56.5t43.5 -173.5v-248h-159v243q0 40 -22 60.5t-54 20.5t-51 -19.5t-19 -59.5z" />
    <glyph glyph-name="n" unicode="n" horiz-adv-x="590" 
d="M219 245v-245h-159v466h159v-73q10 39 52 62q43 23 79 23q92 0 139 -59t47 -171v-248h-159v243q0 40 -22 60.5t-54 20.5q-35 0 -58.5 -20t-23.5 -59z" />
    <glyph glyph-name="o" unicode="o" horiz-adv-x="563" 
d="M280 -9q-101 0 -175 68q-72 67 -72 175t72 176q74 68 175 68q102 0 176 -68t74 -176q0 -107 -74 -175t-176 -68zM211 302q-28 -28 -28 -68t28 -69q29 -28 69 -28t68 28q29 29 29 69t-29 68q-28 29 -68 29t-69 -29z" />
    <glyph glyph-name="p" unicode="p" horiz-adv-x="609" 
d="M219 43v-273h-159v696h150v-67q18 38 56 58.5t82 20.5q92 0 159 -67q68 -68 68 -176q0 -109 -68 -177q-67 -67 -159 -67q-83 0 -129 52zM316 333q-40 0 -68 -30q-29 -31 -29 -70q-2 -39 29 -66.5t68.5 -27.5t67.5 28q23 20 27.5 50t-6 56t-35 44t-54.5 16z" />
    <glyph glyph-name="q" unicode="q" horiz-adv-x="608" 
d="M548 -230h-159v273q-46 -52 -129 -52q-92 0 -159 67q-68 68 -68 177q0 108 68 176q67 67 159 67q44 0 82 -20.5t56 -58.5v67h150v-696zM389 233q0 39 -29 70q-28 30 -68 30q-30 2 -54 -16t-35 -44t-6.5 -56t26.5 -50q31 -28 69 -28t68.5 27.5t28.5 66.5z" />
    <glyph glyph-name="r" unicode="r" horiz-adv-x="429" 
d="M219 153v-153h-159v466h151v-115q17 61 57 94t90 33q42 0 69 -13l-39 -150q-33 12 -72 12q-50 0 -73.5 -39t-23.5 -135z" />
    <glyph glyph-name="s" unicode="s" horiz-adv-x="481" 
d="M244 166l-59 16q-74 20 -114 62q-15 17 -22 37q-8 26 -8 58q0 54 56 96q56 43 134 43q84 0 144 -39t60 -122h-149q0 42 -47 42q-39 0 -39 -26q0 -22 35 -30l83 -23q84 -23 110 -72q20 -36 20 -69q0 -73 -64 -110q-65 -38 -147 -38q-80 0 -142 44q-61 45 -61 121h149
q0 -20 14.5 -34t39.5 -14q21 0 35 8.5t14 22.5q0 10 -8 15t-34 12z" />
    <glyph glyph-name="t" unicode="t" horiz-adv-x="378" 
d="M105 633h157v-167h98v-117h-98v-349h-157v349h-85v117h85v167z" />
    <glyph glyph-name="u" unicode="u" horiz-adv-x="590" 
d="M371 221v245h159v-466h-159v73q-10 -39 -52 -61q-41 -21 -79 -21q-92 0 -139 59t-47 171v245h159v-240q0 -40 22 -60.5t54 -20.5q36 0 59 18.5t23 57.5z" />
    <glyph glyph-name="v" unicode="v" horiz-adv-x="529" 
d="M531 466l-199 -466h-136l-198 466h171l96 -265l94 265h172z" />
    <glyph glyph-name="w" unicode="w" horiz-adv-x="759" 
d="M512 209l70 257h170l-160 -466h-135l-78 279l-74 -279h-135l-165 466h170l70 -257l71 257h125z" />
    <glyph glyph-name="x" unicode="x" horiz-adv-x="544" 
d="M185 0h-183l184 252l-155 214h183l60 -88l57 88h182l-154 -214l182 -252h-182l-87 128z" />
    <glyph glyph-name="y" unicode="y" horiz-adv-x="518" 
d="M261 240l87 226h169l-288 -696h-167l117 292l-183 404h174z" />
    <glyph glyph-name="z" unicode="z" horiz-adv-x="512" 
d="M237 322h-184v144h412v-116l-200 -206h200v-144h-425v114z" />
    <glyph glyph-name="braceleft" unicode="{" horiz-adv-x="414" 
d="M27 187v85q25 0 43 16.5t18 44.5v154q-1 90 58 146q61 56 146 56h93v-108h-80q-44 0 -66 -27.5t-22 -73.5v-136q0 -49 -30 -79q-28 -30 -61 -36q32 -5 61 -35q30 -30 30 -79v-136q0 -46 22 -73.5t66 -27.5h80v-108h-93q-85 0 -146 56q-59 56 -58 146v154q0 28 -18 44.5
t-43 16.5z" />
    <glyph glyph-name="bar" unicode="|" horiz-adv-x="213" 
d="M145 -126h-77v931h77v-931z" />
    <glyph glyph-name="braceright" unicode="}" horiz-adv-x="414" 
d="M387 272v-85q-25 0 -43 -16.5t-18 -44.5v-154q2 -90 -59 -146q-59 -56 -145 -56h-93v108h80q44 0 66 27.5t22 73.5v136q0 48 29 79q30 30 62 35q-32 6 -62 36q-29 31 -29 79v136q0 46 -22 73.5t-66 27.5h-80v108h93q86 0 145 -56q61 -56 59 -146v-154q0 -28 18 -44.5
t43 -16.5z" />
    <glyph glyph-name="exclamdown" unicode="&#xa1;" horiz-adv-x="279" 
d="M223 -229h-167l18 458h131zM44 385q0 39 27.5 66t66.5 27q40 0 68 -27t28 -66t-28 -65t-68 -26q-39 0 -66.5 26t-27.5 65z" />
    <glyph glyph-name="cent" unicode="&#xa2;" horiz-adv-x="540" 
d="M245 473v125h77v-122q110 -11 179 -113l-130 -78q-28 46 -82 46q-40 0 -68.5 -28.5t-28.5 -68.5t28.5 -68.5t68.5 -28.5q50 0 80 43l133 -74q-70 -102 -180 -113v-119h-77v122q-91 15 -149 79q-59 65 -59 159q0 93 59 158q58 64 149 81z" />
    <glyph glyph-name="sterling" unicode="&#xa3;" horiz-adv-x="702" 
d="M410 360v-64h-100v-163h167q16 0 22 9.5t6 31.5v50h156v-86q0 -58 -42 -98q-40 -40 -96 -40h-485v133h112v163h-78v64h78v118q0 99 59 160q60 60 157 60q239 0 239 -241h-158q0 81 -71 81q-30 0 -48 -21.5t-18 -54.5v-102h100z" />
    <glyph glyph-name="currency" unicode="&#xa4;" horiz-adv-x="616" 
d="M231 339q0 -32 22.5 -54.5t54.5 -22.5q33 0 55.5 22.5t22.5 54.5q0 33 -22.5 55.5t-55.5 22.5q-32 0 -54.5 -22.5t-22.5 -55.5zM201 164l-71 -72l-69 69l71 72q-29 47 -29 106t30 107l-72 72l69 69l72 -72q50 30 106 30q59 0 107 -30l71 72l69 -69l-72 -73
q31 -52 31 -106q0 -59 -30 -106l71 -72l-69 -69l-71 72q-48 -30 -107 -30t-107 30z" />
    <glyph glyph-name="yen" unicode="&#xa5;" horiz-adv-x="766" 
d="M538 689h198l-254 -362h131v-70h-145v-99h145v-69h-145v-89h-170v89h-145v69h145v99h-145v70h132l-255 362h199l153 -250z" />
    <glyph glyph-name="brokenbar" unicode="&#xa6;" horiz-adv-x="217" 
d="M70 -126v382h77v-382h-77zM70 805h77v-379h-77v379z" />
    <glyph glyph-name="section" unicode="&#xa7;" horiz-adv-x="556" 
d="M320 202v-136q-25 -5 -48 -5q-92 0 -156 60q-63 60 -63 157v204q0 96 63 156q64 60 156 60q77 0 142 -45q63 -44 77 -132l-131 -39q-9 39 -33.5 58.5t-54.5 19.5q-33 0 -56.5 -22.5t-23.5 -55.5v-204q0 -38 24.5 -58t64.5 -20q19 0 39 2zM236 288v136q25 5 48 5
q92 0 155 -60q64 -60 64 -157v-204q0 -96 -64 -156q-63 -60 -155 -60q-78 0 -142 45q-63 44 -77 132l131 39q9 -39 33.5 -58.5t54.5 -19.5q33 0 56.5 22.5t23.5 55.5v204q0 38 -24.5 58t-64.5 20q-19 0 -39 -2z" />
    <glyph glyph-name="dieresis" unicode="&#xa8;" 
d="M120 641q0 30 22.5 51t54.5 21q31 0 53 -21t22 -51q0 -31 -21.5 -52t-53.5 -21t-54.5 21t-22.5 52zM308 641q0 30 23 51t55 21q31 0 52.5 -21t21.5 -51q0 -31 -21.5 -52t-52.5 -21q-32 0 -55 21t-23 52z" />
    <glyph glyph-name="copyright" unicode="&#xa9;" horiz-adv-x="792" 
d="M543 245q-24 -37 -64 -59.5t-84 -22.5q-74 0 -123 52q-50 53 -50 125q0 73 50 125q49 52 123 52q94 0 146 -79l-66 -46q-34 46 -80 46q-39 0 -64 -28t-25 -70q0 -40 25 -68t64 -28q47 0 81 46zM148 93q-101 104 -101 250t101 250q102 104 248 104t248 -104t102 -250
q0 -147 -102 -250t-248 -103t-248 103zM204 537q-79 -79 -79 -194t79 -194q80 -80 192 -80t192 80q79 79 79 194t-79 194q-80 81 -192 81t-192 -81z" />
    <glyph glyph-name="ordfeminine" unicode="&#xaa;" horiz-adv-x="473" 
d="M401 316h-86v33q-40 -40 -95 -40q-70 0 -120 48q-49 49 -49 127t49 126q50 48 120 48q54 0 95 -38v31h86v-335zM315 485q0 38 -26.5 62.5t-63.5 24.5t-62 -24.5t-25 -62.5q0 -39 25 -64.5t62 -25.5q39 0 64.5 24.5t25.5 65.5zM401 198h-335v68h335v-68z" />
    <glyph glyph-name="guillemotleft" unicode="&#xab;" horiz-adv-x="528" 
d="M174 26l-138 207l138 207h119l-138 -207l138 -207h-119zM369 26l-138 207l138 207h119l-138 -207l138 -207h-119z" />
    <glyph glyph-name="logicalnot" unicode="&#xac;" horiz-adv-x="620" 
d="M414 245h-350v134h485v-281h-135v147z" />
    <glyph glyph-name="registered" unicode="&#xae;" horiz-adv-x="792" 
d="M358 438v-81h53q15 0 25.5 13t10.5 29q0 14 -9.5 26.5t-23.5 12.5h-56zM539 174h-101l-73 109h-7v-109h-84v339h142q54 0 85.5 -32.5t31.5 -81.5q0 -39 -21 -69.5t-57 -42.5zM148 93q-101 104 -101 250t101 250q102 104 248 104t248 -104t102 -250q0 -147 -102 -250
t-248 -103t-248 103zM204 537q-79 -79 -79 -194t79 -194q80 -80 192 -80t192 80q79 79 79 194t-79 194q-80 81 -192 81t-192 -81z" />
    <glyph glyph-name="overscore" unicode="&#xaf;" horiz-adv-x="528" 
d="M408 666v-87h-288v87h288z" />
    <glyph glyph-name="degree" unicode="&#xb0;" horiz-adv-x="368" 
d="M40 529q0 59 42 101q42 43 101 43q60 0 102 -43q43 -42 43 -101q0 -60 -43 -103q-42 -42 -102 -42q-59 0 -101 42q-42 44 -42 103zM122 529q0 -27 17.5 -45t43.5 -18q27 0 45 18t18 45q0 26 -18 44t-45 18q-25 0 -43 -18t-18 -44z" />
    <glyph glyph-name="plusminus" unicode="&#xb1;" horiz-adv-x="544" 
d="M65 109h414v-110h-414v110zM479 406v-108h-153v-142h-108v142h-153v108h153v140h108v-140h153z" />
    <glyph glyph-name="twosuperior" unicode="&#xb2;" horiz-adv-x="343" 
d="M29 485v61l166 187q13 19 4 35t-31 16q-35 0 -41 -40l-98 14q19 126 147 126q53 0 93 -35q39 -35 39 -87q-2 -59 -41 -98l-85 -88h128v-91h-281z" />
    <glyph glyph-name="threesuperior" unicode="&#xb3;" horiz-adv-x="337" 
d="M145 652h-42v74h42q45 0 45 37q0 13 -11.5 22t-32.5 9q-38 0 -60 -25l-55 57q40 58 133 58q54 0 91 -34q38 -34 37 -77q0 -47 -56 -76q70 -25 73 -88q3 -62 -43 -96q-47 -33 -113 -33q-104 0 -137 68l54 54q27 -37 79 -37q29 0 44.5 13t15.5 34q0 18 -18.5 29t-45.5 11z
" />
    <glyph glyph-name="acute" unicode="&#xb4;" horiz-adv-x="547" 
d="M129 549l93 174h148l-138 -174h-103z" />
    <glyph glyph-name="mu" unicode="&#xb5;" horiz-adv-x="598" 
d="M205 -190h-137v656h159v-243q0 -40 22 -60.5t54 -20.5q35 0 58.5 20t23.5 59v245h159v-466h-159v73q-10 -40 -53 -63q-40 -22 -78 -22q-21 0 -49 5v-183z" />
    <glyph glyph-name="paragraph" unicode="&#xb6;" horiz-adv-x="747" 
d="M250 689h101v-735h-111v301q-85 4 -147 68q-60 63 -60 149q0 90 63 153q63 64 154 64zM568 581h-40v-658q0 -55 -39 -95q-39 -42 -98 -42h-153v97h142q20 0 31 12.5t11 33.5v760h153q58 0 97 -41q40 -40 40 -96v-86h-98v73q0 18 -13.5 30t-32.5 12z" />
    <glyph glyph-name="middot" unicode="&#xb7;" horiz-adv-x="287" 
d="M49 387q0 39 27.5 65t66.5 26t67 -26t28 -65t-28 -65.5t-67 -26.5q-40 0 -67 26t-27 66z" />
    <glyph glyph-name="cedilla" unicode="&#xb8;" horiz-adv-x="534" 
d="M298 -86l-54 109h67l54 -83q11 -20 11 -51q0 -44 -31 -74q-31 -31 -73 -31q-48 0 -79.5 34.5t-29.5 94.5l70 -4q-4 -41 25 -52q25 -8 38 13q12 17 2 44z" />
    <glyph glyph-name="onesuperior" unicode="&#xb9;" horiz-adv-x="243" 
d="M20 712v87l176 91v-405h-106v259z" />
    <glyph glyph-name="ordmasculine" unicode="&#xba;" horiz-adv-x="460" 
d="M55 485q0 77 50 125q51 48 124 48q74 0 125 -48t51 -125q0 -78 -52 -127q-50 -49 -124 -49t-124 49q-50 50 -50 127zM318 485q0 39 -25 63t-64 24t-64 -24t-25 -63t25 -64.5t64 -25.5t64 25.5t25 64.5zM397 198h-335v68h335v-68z" />
    <glyph glyph-name="guillemotright" unicode="&#xbb;" horiz-adv-x="528" 
d="M354 440l138 -207l-138 -207h-119l138 207l-138 207h119zM159 440l138 -207l-138 -207h-119l138 207l-138 207h119z" />
    <glyph glyph-name="onequarter" unicode="&#xbc;" horiz-adv-x="830" 
d="M643 302l-62 -122h62v122zM793 180v-87h-45v-93h-105v93h-197l161 301h141v-214h45zM38 489v87l176 91v-405h-106v259zM655 667l-451 -676h-94l452 676h93z" />
    <glyph glyph-name="onehalf" unicode="&#xbd;" horiz-adv-x="835" 
d="M37 489v87l176 91v-405h-106v259zM654 667l-451 -676h-94l452 676h93zM677 248q12 20 3.5 35.5t-30.5 15.5q-35 0 -41 -40l-98 14q19 126 147 126q53 0 93 -35q39 -34 39 -87q-2 -59 -41 -98l-85 -88h128v-91h-281v61z" />
    <glyph glyph-name="threequarters" unicode="&#xbe;" horiz-adv-x="922" 
d="M165 429h-42v74h42q45 0 45 37q0 13 -11.5 22t-32.5 9q-38 0 -60 -25l-55 57q40 58 133 58q54 0 91 -34q38 -34 37 -77q0 -47 -56 -76q70 -25 73 -88q3 -62 -43 -96q-46 -33 -113 -33q-104 0 -137 68l54 54q27 -37 79 -37q29 0 44.5 13t15.5 34q0 18 -18.5 29t-45.5 11z
M673 180h62v122zM840 394v-214h45v-87h-45v-93h-105v93h-197l161 301h141zM202 -9l452 676h93l-451 -676h-94z" />
    <glyph glyph-name="questiondown" unicode="&#xbf;" horiz-adv-x="487" 
d="M212 233h143v-12q0 -65 -15 -105q-19 -50 -89 -80l-37 -16q-34 -13 -34 -50q0 -26 17.5 -40t48.5 -14q27 0 45.5 18.5t18.5 45.5h144q0 -103 -56.5 -159t-154.5 -56q-94 0 -153 53q-58 52 -58 142q0 70 33.5 118.5t94.5 70.5q30 11 41 29.5t11 54.5zM376 385
q0 -39 -27.5 -65t-66.5 -26q-40 0 -68 26t-28 65t28 66t68 27q39 0 66.5 -27t27.5 -66z" />
    <glyph glyph-name="Agrave" unicode="&#xc0;" horiz-adv-x="667" 
d="M678 0h-177l-58 158h-217l-58 -158h-179l254 689h182zM400 302l-67 227l-62 -227h129zM305 749l-138 174h148l93 -174h-103z" />
    <glyph glyph-name="Aacute" unicode="&#xc1;" horiz-adv-x="667" 
d="M443 158h-217l-58 -158h-179l254 689h182l253 -689h-177zM271 302h129l-67 227zM243 749l93 174h148l-138 -174h-103z" />
    <glyph glyph-name="Acircumflex" unicode="&#xc2;" horiz-adv-x="667" 
d="M678 0h-177l-58 158h-217l-58 -158h-179l254 689h182zM400 302l-67 227l-62 -227h129zM253 757h-107l109 173h156l110 -173h-108l-80 89z" />
    <glyph glyph-name="Atilde" unicode="&#xc3;" horiz-adv-x="667" 
d="M678 0h-177l-58 158h-217l-58 -158h-179l254 689h182zM400 302l-67 227l-62 -227h129zM290 797q-9 0 -17 -11.5t-9 -31.5h-75q3 63 32 96.5t69 33.5q23 0 50 -21q28 -20 37 -20t17 11t9 30h75q-3 -62 -32 -95t-69 -33q-21 0 -50 20q-27 21 -37 21z" />
    <glyph glyph-name="Adieresis" unicode="&#xc4;" horiz-adv-x="667" 
d="M443 158h-217l-58 -158h-179l254 689h182l253 -689h-177zM271 302h129l-67 227zM163 841q0 30 22.5 51t54.5 21q31 0 53 -21t22 -51q0 -31 -21.5 -52t-53.5 -21t-54.5 21t-22.5 52zM351 841q0 30 23 51t55 21q31 0 52.5 -21t21.5 -51q0 -31 -21.5 -52t-52.5 -21
q-32 0 -55 21t-23 52z" />
    <glyph glyph-name="Aring" unicode="&#xc5;" horiz-adv-x="667" 
d="M443 158h-217l-58 -158h-179l254 689h182l253 -689h-177zM271 302h129l-67 227zM206 873q0 53 36 91q38 38 90 38q53 0 91 -38q37 -37 37 -91q0 -53 -37 -90t-91 -37q-53 0 -90 37q-36 37 -36 90zM268 873q0 -28 18.5 -46.5t45.5 -18.5q28 0 47.5 18.5t19.5 46.5
t-19.5 48t-47.5 20q-27 0 -45.5 -19.5t-18.5 -48.5z" />
    <glyph glyph-name="AE" unicode="&#xc6;" horiz-adv-x="936" 
d="M333 296h96v188zM174 0h-202l435 689h472v-146h-281v-132h246v-141h-246v-124h289v-146h-457v1l-1 -1v152h-160z" />
    <glyph glyph-name="Ccedilla" unicode="&#xc7;" horiz-adv-x="708" 
d="M367 -86l-41 83q-123 22 -206 120q-82 97 -82 227q0 146 102 250q104 104 249 104q90 0 168 -42.5t126 -115.5l-139 -97q-24 40 -65.5 63.5t-89.5 23.5q-77 0 -129 -55q-53 -55 -53 -131t53 -131q52 -54 129 -54q48 0 89.5 23t66.5 63l137 -96q-48 -71 -122 -113
t-160 -45l34 -51q11 -20 11 -51q0 -44 -31 -74q-31 -31 -73 -31q-48 0 -79.5 34.5t-29.5 94.5l70 -4q-4 -41 25 -52q25 -8 38 13q12 17 2 44z" />
    <glyph glyph-name="Egrave" unicode="&#xc8;" horiz-adv-x="581" 
d="M533 146v-146h-456v689h447v-146h-280v-132h246v-143h-246v-122h289zM269 749l-138 174h148l93 -174h-103z" />
    <glyph glyph-name="Eacute" unicode="&#xc9;" horiz-adv-x="581" 
d="M77 0v689h447v-146h-280v-132h246v-143h-246v-122h289v-146h-456zM209 749l93 174h148l-138 -174h-103z" />
    <glyph glyph-name="Ecircumflex" unicode="&#xca;" horiz-adv-x="581" 
d="M533 146v-146h-456v689h447v-146h-280v-132h246v-143h-246v-122h289zM205 757h-107l109 173h156l110 -173h-108l-80 89z" />
    <glyph glyph-name="Edieresis" unicode="&#xcb;" horiz-adv-x="581" 
d="M77 0v689h447v-146h-280v-132h246v-143h-246v-122h289v-146h-456zM115 841q0 30 22.5 51t54.5 21q31 0 53 -21t22 -51q0 -31 -21.5 -52t-53.5 -21t-54.5 21t-22.5 52zM303 841q0 30 23 51t55 21q31 0 52.5 -21t21.5 -51q0 -31 -21.5 -52t-52.5 -21q-32 0 -55 21t-23 52z
" />
    <glyph glyph-name="Igrave" unicode="&#xcc;" horiz-adv-x="321" 
d="M244 0h-167v689h167v-689zM142 749l-138 174h148l93 -174h-103z" />
    <glyph glyph-name="Iacute" unicode="&#xcd;" horiz-adv-x="321" 
d="M77 689h167v-689h-167v689zM76 749l93 174h148l-138 -174h-103z" />
    <glyph glyph-name="Icircumflex" unicode="&#xce;" horiz-adv-x="321" 
d="M244 0h-167v689h167v-689zM80 757h-107l109 173h156l110 -173h-108l-80 89z" />
    <glyph glyph-name="Idieresis" unicode="&#xcf;" horiz-adv-x="321" 
d="M77 689h167v-689h-167v689zM-9 841q0 30 22.5 51t54.5 21q31 0 53 -21t22 -51q0 -31 -21.5 -52t-53.5 -21t-54.5 21t-22.5 52zM179 841q0 30 23 51t55 21q31 0 52.5 -21t21.5 -51q0 -31 -21.5 -52t-52.5 -21q-32 0 -55 21t-23 52z" />
    <glyph glyph-name="Eth" unicode="&#xd0;" horiz-adv-x="722" 
d="M368 383v-101h-106v-133h105q69 0 107 56q39 57 39 138q0 82 -39 139q-37 58 -107 58h-105v-157h106zM94 0v282h-94v101h94v306h273q145 0 229 -98q84 -97 84 -248q0 -150 -84 -247q-82 -96 -229 -96h-273z" />
    <glyph glyph-name="Ntilde" unicode="&#xd1;" horiz-adv-x="678" 
d="M295 797q-9 0 -17 -11.5t-9 -31.5h-75q3 63 32 96.5t69 33.5q23 0 50 -21q28 -20 37 -20t17 11t9 30h75q-3 -62 -32 -95t-69 -33q-21 0 -50 20q-28 21 -37 21zM434 318v371h167v-689h-146l-211 376v-376h-167v689h151z" />
    <glyph glyph-name="Ograve" unicode="&#xd2;" horiz-adv-x="779" 
d="M38 344q0 146 102 250q104 104 249 104q147 0 249 -104q103 -103 103 -250t-103 -250q-102 -103 -249 -103q-145 0 -248 103t-103 250zM389 159q78 0 130 54q54 54 54 131t-54 131q-54 55 -130 55q-77 0 -129 -55q-53 -55 -53 -131t53 -131q52 -54 129 -54zM321 749
l-138 174h148l93 -174h-103z" />
    <glyph glyph-name="Oacute" unicode="&#xd3;" horiz-adv-x="779" 
d="M38 344q0 146 102 250q104 104 249 104q147 0 249 -104q103 -103 103 -250t-103 -250q-102 -103 -249 -103q-145 0 -248 103t-103 250zM389 159q78 0 130 54q54 54 54 131t-54 131q-54 55 -130 55q-77 0 -129 -55q-53 -55 -53 -131t53 -131q52 -54 129 -54zM343 749
l93 174h148l-138 -174h-103z" />
    <glyph glyph-name="Ocircumflex" unicode="&#xd4;" horiz-adv-x="779" 
d="M38 344q0 146 102 250q104 104 249 104q147 0 249 -104q103 -103 103 -250t-103 -250q-102 -103 -249 -103q-145 0 -248 103t-103 250zM389 159q78 0 130 54q54 54 54 131t-54 131q-54 55 -130 55q-77 0 -129 -55q-53 -55 -53 -131t53 -131q52 -54 129 -54zM309 757h-107
l109 173h156l110 -173h-108l-80 89z" />
    <glyph glyph-name="Otilde" unicode="&#xd5;" horiz-adv-x="779" 
d="M38 344q0 146 102 250q104 104 249 104q147 0 249 -104q103 -103 103 -250t-103 -250q-102 -103 -249 -103q-145 0 -248 103t-103 250zM389 159q78 0 130 54q54 54 54 131t-54 131q-54 55 -130 55q-77 0 -129 -55q-53 -55 -53 -131t53 -131q52 -54 129 -54zM346 797
q-9 0 -17 -11.5t-9 -31.5h-75q3 63 32 96.5t69 33.5q23 0 50 -21q28 -20 37 -20t17 11t9 30h75q-3 -62 -32 -95t-69 -33q-20 0 -49 20q-29 21 -38 21z" />
    <glyph glyph-name="Odieresis" unicode="&#xd6;" horiz-adv-x="779" 
d="M38 344q0 146 102 250q104 104 249 104q147 0 249 -104q103 -103 103 -250t-103 -250q-102 -103 -249 -103q-145 0 -248 103t-103 250zM389 159q78 0 130 54q54 54 54 131t-54 131q-54 55 -130 55q-77 0 -129 -55q-53 -55 -53 -131t53 -131q52 -54 129 -54zM219 841
q0 30 22.5 51t54.5 21q31 0 53 -21t22 -51q0 -31 -21.5 -52t-53.5 -21t-54.5 21t-22.5 52zM407 841q0 30 23 51t55 21q31 0 52.5 -21t21.5 -51q0 -31 -21.5 -52t-52.5 -21q-32 0 -55 21t-23 52z" />
    <glyph glyph-name="multiply" unicode="&#xd7;" horiz-adv-x="486" 
d="M356 444l76 -76l-114 -115l114 -112l-76 -77l-114 113l-112 -110l-76 77l111 109l-112 113l76 77l113 -113z" />
    <glyph glyph-name="Oslash" unicode="&#xd8;" horiz-adv-x="778" 
d="M388 158q76 0 130 54q54 56 54 132q0 58 -33 104l-253 -259q46 -31 102 -31zM206 344q0 -60 33 -109l255 261q-44 35 -106 35q-77 0 -129 -55q-53 -55 -53 -132zM170 68l15 15l-96 -98l-47 47l80 82q-85 100 -85 230q0 146 102 250q104 104 249 104q128 0 223 -81l79 81
l47 -46l-80 -82q83 -101 83 -226q0 -147 -103 -250q-102 -103 -249 -103q-123 0 -218 77z" />
    <glyph glyph-name="Ugrave" unicode="&#xd9;" horiz-adv-x="682" 
d="M69 251v438h168v-438q0 -46 31 -74q32 -29 73 -29q40 0 72 29t32 74v438h168v-438q0 -115 -81 -188q-80 -72 -191 -72t-192 72q-80 74 -80 188zM309 749l-138 174h148l93 -174h-103z" />
    <glyph glyph-name="Uacute" unicode="&#xda;" horiz-adv-x="682" 
d="M613 251q0 -115 -81 -188q-80 -72 -191 -72t-192 72q-80 74 -80 188v438h168v-438q0 -46 31 -74q32 -29 73 -29q40 0 72 29t32 74v438h168v-438zM276 749l93 174h148l-138 -174h-103z" />
    <glyph glyph-name="Ucircumflex" unicode="&#xdb;" horiz-adv-x="682" 
d="M69 251v438h168v-438q0 -46 31 -74q32 -29 73 -29q40 0 72 29t32 74v438h168v-438q0 -115 -81 -188q-80 -72 -191 -72t-192 72q-80 74 -80 188zM260 757h-107l109 173h156l110 -173h-108l-80 89z" />
    <glyph glyph-name="Udieresis" unicode="&#xdc;" horiz-adv-x="682" 
d="M613 251q0 -115 -81 -188q-80 -72 -191 -72t-192 72q-80 74 -80 188v438h168v-438q0 -46 31 -74q32 -29 73 -29q40 0 72 29t32 74v438h168v-438zM171 841q0 30 22.5 51t54.5 21q31 0 53 -21t22 -51q0 -31 -21.5 -52t-53.5 -21t-54.5 21t-22.5 52zM359 841q0 30 23 51
t55 21q31 0 52.5 -21t21.5 -51q0 -31 -21.5 -52t-52.5 -21q-32 0 -55 21t-23 52z" />
    <glyph glyph-name="Yacute" unicode="&#xdd;" horiz-adv-x="663" 
d="M415 307v-307h-168v310l-269 379h199l153 -250l156 250h198zM262 749l93 174h148l-138 -174h-103z" />
    <glyph glyph-name="Thorn" unicode="&#xde;" horiz-adv-x="575" 
d="M324 118h-80v-118h-167v689h167v-111h80q98 0 162 -63q66 -61 66 -165t-66 -168q-64 -64 -162 -64zM389 347q0 43 -22 68t-58 25h-65v-184h65q36 0 58 24.5t22 66.5z" />
    <glyph glyph-name="germandbls" unicode="&#xdf;" horiz-adv-x="591" 
d="M252 1l37 141q25 -3 40 -3q33 0 56.5 25t23.5 58q0 10 -3 22t-11.5 28t-28 26.5t-47.5 10.5h-37v135h21q24 0 36.5 15t12.5 40q0 21 -16.5 36.5t-49.5 15.5q-67 0 -67 -96v-455h-159v455q0 242 221 242q97 0 159 -54q61 -54 61 -122q0 -108 -68 -134q55 -13 90 -60.5
t35 -108.5q0 -104 -59 -165.5t-171 -61.5q-45 0 -76 10z" />
    <glyph glyph-name="agrave" unicode="&#xe0;" horiz-adv-x="608" 
d="M389 416v50h159v-466h-159v53q-44 -62 -129 -62q-92 0 -159 67q-68 68 -68 176t68 176t159 68q38 0 73.5 -16.5t55.5 -45.5zM223 301q-28 -28 -28 -68t28 -69q29 -28 69 -28t68 28q29 29 29 69t-29 68q-28 29 -68 29t-69 -29zM289 549l-138 174h148l93 -174h-103z" />
    <glyph glyph-name="aacute" unicode="&#xe1;" horiz-adv-x="608" 
d="M389 466h159v-466h-159v53q-44 -62 -129 -62q-92 0 -159 67q-68 68 -68 176t68 176t159 68q38 0 73.5 -16.5t55.5 -45.5v50zM223 164q29 -28 69 -28t68 28q29 29 29 69t-29 68q-28 29 -68 29t-69 -29q-28 -28 -28 -68t28 -69zM227 549l93 174h148l-138 -174h-103z" />
    <glyph glyph-name="acircumflex" unicode="&#xe2;" horiz-adv-x="608" 
d="M389 416v50h159v-466h-159v53q-44 -62 -129 -62q-92 0 -159 67q-68 68 -68 176t68 176t159 68q38 0 73.5 -16.5t55.5 -45.5zM223 301q-28 -28 -28 -68t28 -69q29 -28 69 -28t68 28q29 29 29 69t-29 68q-28 29 -68 29t-69 -29zM225 557h-107l109 173h156l110 -173h-108
l-80 89z" />
    <glyph glyph-name="atilde" unicode="&#xe3;" horiz-adv-x="608" 
d="M389 416v50h159v-466h-159v53q-44 -62 -129 -62q-92 0 -159 67q-68 68 -68 176t68 176t159 68q38 0 73.5 -16.5t55.5 -45.5zM223 301q-28 -28 -28 -68t28 -69q29 -28 69 -28t68 28q29 29 29 69t-29 68q-28 29 -68 29t-69 -29zM262 597q-9 0 -17 -11.5t-9 -31.5h-75
q3 63 32 96.5t69 33.5q23 0 50 -21q28 -20 37 -20t17 11t9 30h75q-3 -62 -32 -95t-69 -33q-20 0 -49 20q-28 21 -38 21z" />
    <glyph glyph-name="adieresis" unicode="&#xe4;" horiz-adv-x="608" 
d="M389 466h159v-466h-159v53q-44 -62 -129 -62q-92 0 -159 67q-68 68 -68 176t68 176t159 68q38 0 73.5 -16.5t55.5 -45.5v50zM223 164q29 -28 69 -28t68 28q29 29 29 69t-29 68q-28 29 -68 29t-69 -29q-28 -28 -28 -68t28 -69zM135 641q0 30 22.5 51t54.5 21q31 0 53 -21
t22 -51q0 -31 -21.5 -52t-53.5 -21t-54.5 21t-22.5 52zM323 641q0 30 23 51t55 21q31 0 52.5 -21t21.5 -51q0 -31 -21.5 -52t-52.5 -21q-32 0 -55 21t-23 52z" />
    <glyph glyph-name="aring" unicode="&#xe5;" horiz-adv-x="608" 
d="M389 466h159v-466h-159v53q-44 -62 -129 -62q-92 0 -159 67q-68 68 -68 176t68 176t159 68q38 0 73.5 -16.5t55.5 -45.5v50zM223 164q29 -28 69 -28t68 28q29 29 29 69t-29 68q-28 29 -68 29t-69 -29q-28 -28 -28 -68t28 -69zM178 673q0 53 36 91q38 38 90 38
q53 0 91 -38q37 -37 37 -91q0 -53 -37 -90t-91 -37q-53 0 -90 37q-36 37 -36 90zM240 673q0 -28 18.5 -46.5t45.5 -18.5q28 0 47.5 18.5t19.5 46.5t-19.5 48t-47.5 20q-27 0 -45.5 -19.5t-18.5 -48.5z" />
    <glyph glyph-name="ae" unicode="&#xe6;" horiz-adv-x="984" 
d="M957 240q0 -12 -3 -51h-334q4 -31 35 -51t72 -20q56 0 89 39q11 -10 56 -41q42 -29 54 -38q-66 -87 -211 -87q-98 0 -167 60v-51h-159v53q-44 -62 -129 -62q-92 0 -159 67q-68 68 -68 176t68 176t159 68q38 0 73.5 -16.5t55.5 -45.5v50h159v-47q68 59 167 59
q103 0 172 -66q70 -64 70 -172zM223 301q-28 -28 -28 -68t28 -69q29 -28 69 -28t68 28q29 29 29 69t-29 68q-28 29 -68 29t-69 -29zM620 278h186q-9 36 -35.5 52.5t-57.5 16.5q-18 0 -33 -4q-18 -4 -36.5 -22t-23.5 -43z" />
    <glyph glyph-name="ccedilla" unicode="&#xe7;" horiz-adv-x="526" 
d="M305 -8l36 -52q11 -19 11 -51q0 -44 -31 -74q-31 -31 -73 -31q-48 0 -79.5 34.5t-29.5 94.5l70 -4q-4 -41 25 -52q25 -8 38 13q12 17 2 44l-43 84q-87 18 -142 81q-56 64 -56 155q0 109 76 176q77 68 183 68q129 0 205 -115l-139 -84q-22 42 -77 42q-35 0 -60.5 -26
t-25.5 -61t25.5 -61t60.5 -26q54 0 75 38l142 -79q-72 -108 -193 -114z" />
    <glyph glyph-name="egrave" unicode="&#xe8;" horiz-adv-x="550" 
d="M523 240q0 -12 -3 -51h-334q4 -31 35 -51t72 -20q56 0 89 39q11 -10 56 -41q42 -29 54 -38q-66 -87 -211 -87q-102 0 -176 68q-72 69 -72 177q0 106 72 174q74 68 176 68q103 0 172 -66q70 -64 70 -172zM186 278h186q-9 36 -35.5 52.5t-57.5 16.5q-18 0 -33 -4
q-18 -4 -36.5 -22t-23.5 -43zM240 549l-138 174h148l93 -174h-103z" />
    <glyph glyph-name="eacute" unicode="&#xe9;" horiz-adv-x="550" 
d="M222 549l93 174h148l-138 -174h-103zM523 240q0 -12 -3 -51h-334q4 -31 35 -51t72 -20q56 0 89 39q11 -10 56 -41q42 -29 54 -38q-66 -87 -211 -87q-102 0 -176 68q-72 69 -72 177q0 106 72 174q74 68 176 68q103 0 172 -66q70 -64 70 -172zM186 278h186q-12 38 -40 54.5
t-53 14.5q-32 0 -58.5 -16.5t-34.5 -52.5z" />
    <glyph glyph-name="ecircumflex" unicode="&#xea;" horiz-adv-x="550" 
d="M523 240q0 -12 -3 -51h-334q4 -31 35 -51t72 -20q56 0 89 39q11 -10 56 -41q42 -29 54 -38q-66 -87 -211 -87q-102 0 -176 68q-72 69 -72 177q0 106 72 174q74 68 176 68q103 0 172 -66q70 -64 70 -172zM186 278h186q-9 36 -35.5 52.5t-57.5 16.5q-18 0 -33 -4
q-18 -4 -36.5 -22t-23.5 -43zM198 557h-107l109 173h156l110 -173h-108l-80 89z" />
    <glyph glyph-name="edieresis" unicode="&#xeb;" horiz-adv-x="550" 
d="M108 641q0 30 22.5 51t54.5 21q31 0 53 -21t22 -51q0 -31 -21.5 -52t-53.5 -21t-54.5 21t-22.5 52zM296 641q0 30 23 51t55 21q31 0 52.5 -21t21.5 -51q0 -31 -21.5 -52t-52.5 -21q-32 0 -55 21t-23 52zM523 240q0 -12 -3 -51h-334q4 -31 35 -51t72 -20q56 0 89 39
q11 -10 56 -41q42 -29 54 -38q-66 -87 -211 -87q-102 0 -176 68q-72 69 -72 177q0 106 72 174q74 68 176 68q103 0 172 -66q70 -64 70 -172zM186 278h186q-12 38 -40 54.5t-53 14.5q-32 0 -58.5 -16.5t-34.5 -52.5z" />
    <glyph glyph-name="igrave" unicode="&#xec;" horiz-adv-x="277" 
d="M60 0v467h157v-467h-157zM114 549l-138 174h148l93 -174h-103z" />
    <glyph glyph-name="iacute" unicode="&#xed;" horiz-adv-x="277" 
d="M217 467v-467h-157v467h157zM61 549l93 174h148l-138 -174h-103z" />
    <glyph glyph-name="icircumflex" unicode="&#xee;" horiz-adv-x="277" 
d="M60 0v467h157v-467h-157zM57 557h-107l109 173h156l110 -173h-108l-80 89z" />
    <glyph glyph-name="idieresis" unicode="&#xef;" horiz-adv-x="277" 
d="M217 467v-467h-157v467h157zM-32 641q0 30 22.5 51t54.5 21q31 0 53 -21t22 -51q0 -31 -21.5 -52t-53.5 -21t-54.5 21t-22.5 52zM156 641q0 30 23 51t55 21q31 0 52.5 -21t21.5 -51q0 -31 -21.5 -52t-52.5 -21q-32 0 -55 21t-23 52z" />
    <glyph glyph-name="eth" unicode="&#xf0;" horiz-adv-x="552" 
d="M275 147q37 0 61 24t24 62q0 36 -24.5 59.5t-60.5 23.5t-60 -23.5t-24 -59.5q0 -38 24 -62t60 -24zM379 661l34 -46l-81 -34l140 -203q46 -65 46 -145q0 -107 -71 -175q-70 -67 -172 -67q-101 0 -171 67t-70 175q0 84 47.5 145.5t125.5 79.5q28 5 64 7l-52 71l-85 -33
l-27 49l81 31l-74 106h145l42 -62z" />
    <glyph glyph-name="ntilde" unicode="&#xf1;" horiz-adv-x="590" 
d="M219 245v-245h-159v466h159v-73q10 39 52 62q43 23 79 23q92 0 139 -59t47 -171v-248h-159v243q0 40 -22 60.5t-54 20.5q-35 0 -58.5 -20t-23.5 -59zM252 597q-9 0 -17 -11.5t-9 -31.5h-75q3 63 32 96.5t69 33.5q23 0 50 -21q28 -20 37 -20t17 11t9 30h75q-3 -62 -32 -95
t-69 -33q-20 0 -49 20q-28 21 -38 21z" />
    <glyph glyph-name="ograve" unicode="&#xf2;" horiz-adv-x="563" 
d="M280 -9q-101 0 -175 68q-72 67 -72 175t72 176q74 68 175 68q102 0 176 -68t74 -176q0 -107 -74 -175t-176 -68zM211 302q-28 -28 -28 -68t28 -69q29 -28 69 -28t68 28q29 29 29 69t-29 68q-28 29 -68 29t-69 -29zM223 549l-138 174h148l93 -174h-103z" />
    <glyph glyph-name="oacute" unicode="&#xf3;" horiz-adv-x="563" 
d="M280 -9q-101 0 -175 68q-72 67 -72 175t72 176q74 68 175 68q102 0 176 -68t74 -176q0 -107 -74 -175t-176 -68zM211 165q29 -28 69 -28t68 28q29 29 29 69t-29 68q-28 29 -68 29t-69 -29q-28 -28 -28 -68t28 -69zM218 549l93 174h148l-138 -174h-103z" />
    <glyph glyph-name="ocircumflex" unicode="&#xf4;" horiz-adv-x="563" 
d="M280 -9q-101 0 -175 68q-72 67 -72 175t72 176q74 68 175 68q102 0 176 -68t74 -176q0 -107 -74 -175t-176 -68zM211 302q-28 -28 -28 -68t28 -69q29 -28 69 -28t68 28q29 29 29 69t-29 68q-28 29 -68 29t-69 -29zM201 557h-107l109 173h156l110 -173h-108l-80 89z" />
    <glyph glyph-name="otilde" unicode="&#xf5;" horiz-adv-x="563" 
d="M280 -9q-101 0 -175 68q-72 67 -72 175t72 176q74 68 175 68q102 0 176 -68t74 -176q0 -107 -74 -175t-176 -68zM211 302q-28 -28 -28 -68t28 -69q29 -28 69 -28t68 28q29 29 29 69t-29 68q-28 29 -68 29t-69 -29zM238 597q-9 0 -17 -11.5t-9 -31.5h-75q3 63 32 96.5
t69 33.5q23 0 50 -21q28 -20 37 -20t17 11t9 30h75q-3 -62 -32 -95t-69 -33q-20 0 -49 20q-28 21 -38 21z" />
    <glyph glyph-name="odieresis" unicode="&#xf6;" horiz-adv-x="563" 
d="M280 -9q-101 0 -175 68q-72 67 -72 175t72 176q74 68 175 68q102 0 176 -68t74 -176q0 -107 -74 -175t-176 -68zM211 165q29 -28 69 -28t68 28q29 29 29 69t-29 68q-28 29 -68 29t-69 -29q-28 -28 -28 -68t28 -69zM112 641q0 30 22.5 51t54.5 21q31 0 53 -21t22 -51
q0 -31 -21.5 -52t-53.5 -21t-54.5 21t-22.5 52zM300 641q0 30 23 51t55 21q31 0 52.5 -21t21.5 -51q0 -31 -21.5 -52t-52.5 -21q-32 0 -55 21t-23 52z" />
    <glyph glyph-name="divide" unicode="&#xf7;" horiz-adv-x="621" 
d="M250 14q-24 24 -24 59t24 57q24 23 59 23t59 -23q25 -22 25 -57t-25 -59q-24 -23 -59 -23t-59 23zM226 460q0 34 24 57t59 23t59.5 -23t24.5 -57q0 -36 -24 -58.5t-60 -22.5t-59.5 22.5t-23.5 58.5zM571 320v-102h-521v102h521z" />
    <glyph glyph-name="oslash" unicode="&#xf8;" horiz-adv-x="563" 
d="M132 37l-55 -56l-41 41l53 54q-56 67 -56 158q0 108 72 176q74 68 175 68q86 0 153 -49l51 52l41 -40l-50 -51q55 -65 55 -156q0 -107 -74 -175t-176 -68q-84 0 -148 46zM183 234q0 -29 13 -48l130 133q-24 12 -46 12q-40 0 -68.5 -28.5t-28.5 -68.5zM280 137
q40 0 68.5 28.5t28.5 68.5q0 20 -11 44l-128 -132q20 -9 42 -9z" />
    <glyph glyph-name="ugrave" unicode="&#xf9;" horiz-adv-x="590" 
d="M371 221v245h159v-466h-159v73q-10 -39 -52 -61q-41 -21 -79 -21q-92 0 -139 59t-47 171v245h159v-240q0 -40 22 -60.5t54 -20.5q36 0 59 18.5t23 57.5zM263 549l-138 174h148l93 -174h-103z" />
    <glyph glyph-name="uacute" unicode="&#xfa;" horiz-adv-x="590" 
d="M371 221v245h159v-466h-159v73q-10 -39 -52 -61q-41 -21 -79 -21q-92 0 -139 59t-47 171v245h159v-240q0 -40 22 -60.5t54 -20.5q36 0 59 18.5t23 57.5zM231 549l93 174h148l-138 -174h-103z" />
    <glyph glyph-name="ucircumflex" unicode="&#xfb;" horiz-adv-x="590" 
d="M371 221v245h159v-466h-159v73q-10 -39 -52 -61q-41 -21 -79 -21q-92 0 -139 59t-47 171v245h159v-240q0 -40 22 -60.5t54 -20.5q36 0 59 18.5t23 57.5zM209 557h-107l109 173h156l110 -173h-108l-80 89z" />
    <glyph glyph-name="udieresis" unicode="&#xfc;" horiz-adv-x="590" 
d="M371 221v245h159v-466h-159v73q-10 -39 -52 -61q-41 -21 -79 -21q-92 0 -139 59t-47 171v245h159v-240q0 -40 22 -60.5t54 -20.5q36 0 59 18.5t23 57.5zM132 641q0 30 22.5 51t54.5 21q31 0 53 -21t22 -51q0 -31 -21.5 -52t-53.5 -21t-54.5 21t-22.5 52zM320 641
q0 30 23 51t55 21q31 0 52.5 -21t21.5 -51q0 -31 -21.5 -52t-52.5 -21q-32 0 -55 21t-23 52z" />
    <glyph glyph-name="yacute" unicode="&#xfd;" horiz-adv-x="518" 
d="M517 466l-288 -696h-167l117 292l-183 404h174l91 -226l87 226h169zM183 549l93 174h148l-138 -174h-103z" />
    <glyph glyph-name="thorn" unicode="&#xfe;" horiz-adv-x="609" 
d="M60 711h159v-288q49 55 129 55q91 0 159 -68t68 -176t-68 -176q-67 -67 -159 -67q-45 0 -82.5 19.5t-55.5 56.5v-297h-150v941zM384 164q29 29 29 69t-29 68q-28 29 -68 29t-69 -29q-28 -28 -28 -68t28 -69q29 -28 69 -28t68 28z" />
    <glyph glyph-name="ydieresis" unicode="&#xff;" horiz-adv-x="518" 
d="M517 466l-288 -696h-167l117 292l-183 404h174l91 -226l87 226h169zM89 641q0 30 22.5 51t54.5 21q31 0 53 -21t22 -51q0 -31 -21.5 -52t-53.5 -21t-54.5 21t-22.5 52zM277 641q0 30 23 51t55 21q31 0 52.5 -21t21.5 -51q0 -31 -21.5 -52t-52.5 -21q-32 0 -55 21t-23 52z
" />
    <glyph glyph-name="Amacron" unicode="&#x100;" horiz-adv-x="667" 
d="M678 0h-177l-58 158h-217l-58 -158h-179l254 689h182zM400 302l-67 227l-62 -227h129zM477 866v-87h-288v87h288z" />
    <glyph glyph-name="amacron" unicode="&#x101;" horiz-adv-x="608" 
d="M389 416v50h159v-466h-159v53q-44 -62 -129 -62q-92 0 -159 67q-68 68 -68 176t68 176t159 68q38 0 73.5 -16.5t55.5 -45.5zM223 301q-28 -28 -28 -68t28 -69q29 -28 69 -28t68 28q29 29 29 69t-29 68q-28 29 -68 29t-69 -29zM449 666v-87h-288v87h288z" />
    <glyph glyph-name="Abreve" unicode="&#x102;" horiz-adv-x="667" 
d="M443 158h-217l-58 -158h-179l254 689h182l253 -689h-177zM271 302h129l-67 227zM197 896h89q0 -27 10.5 -38.5t36.5 -11.5q45 0 45 50h91q0 -59 -38 -95.5t-98 -36.5q-63 0 -99.5 38t-36.5 94z" />
    <glyph glyph-name="abreve" unicode="&#x103;" horiz-adv-x="608" 
d="M389 466h159v-466h-159v53q-44 -62 -129 -62q-92 0 -159 67q-68 68 -68 176t68 176t159 68q38 0 73.5 -16.5t55.5 -45.5v50zM223 164q29 -28 69 -28t68 28q29 29 29 69t-29 68q-28 29 -68 29t-69 -29q-28 -28 -28 -68t28 -69zM169 696h89q0 -27 10.5 -38.5t36.5 -11.5
q45 0 45 50h91q0 -59 -38 -95.5t-98 -36.5q-63 0 -99.5 38t-36.5 94z" />
    <glyph glyph-name="Aogonek" unicode="&#x104;" horiz-adv-x="667" 
d="M400 302l-67 227l-62 -227h129zM425 689l253 -689l-44 -86q-14 -38 12 -54q22 -13 41 5q15 15 12 44l70 4q2 -60 -29.5 -94.5t-79.5 -34.5q-42 0 -73 31q-31 30 -31 74q0 31 11 51l40 60h-106l-58 158h-217l-58 -158h-179l254 689h182z" />
    <glyph glyph-name="aogonek" unicode="&#x105;" horiz-adv-x="608" 
d="M548 466v-466l-44 -86q-14 -38 12 -54q22 -13 41 5q15 15 12 44l70 4q2 -60 -29.5 -94.5t-79.5 -34.5q-42 0 -73 31q-31 30 -31 74q0 31 11 51l40 60h-88v53q-44 -62 -129 -62q-92 0 -159 67q-68 68 -68 176t68 176t159 68q38 0 73.5 -16.5t55.5 -45.5v50h159zM223 301
q-28 -28 -28 -68t28 -69q29 -28 69 -28t68 28q29 29 29 69t-29 68q-28 29 -68 29t-69 -29z" />
    <glyph glyph-name="Cacute" unicode="&#x106;" horiz-adv-x="707" 
d="M682 149q-48 -73 -126 -115.5t-167 -42.5q-145 0 -248 103t-103 250q0 146 102 250q104 104 249 104q90 0 168 -42.5t126 -115.5q1 1 -1 -0.5l-8 -6t-13.5 -9.5t-20.5 -14t-24 -17q-19 -13 -33.5 -23t-25 -17.5t-13.5 -9.5q-24 40 -65.5 63.5t-89.5 23.5q-77 0 -129 -55
q-53 -55 -53 -131t53 -131q52 -54 129 -54q48 0 89.5 23t66.5 63zM326 772l93 174h148l-138 -174h-103z" />
    <glyph glyph-name="cacute" unicode="&#x107;" horiz-adv-x="526" 
d="M281 147q54 0 75 38l142 -79q-76 -115 -206 -115q-108 0 -184 67q-75 68 -75 176q0 109 76 176q77 68 183 68q129 0 205 -115l-139 -84q-22 42 -77 42q-35 0 -60.5 -26t-25.5 -61t25.5 -61t60.5 -26zM226 549l93 174h148l-138 -174h-103z" />
    <glyph glyph-name="Ccircumflex" unicode="&#x108;" horiz-adv-x="707" 
d="M545 245l137 -96q-48 -73 -126 -115.5t-167 -42.5q-145 0 -248 103t-103 250q0 146 102 250q104 104 249 104q90 0 168 -42.5t126 -115.5l-139 -97q-24 40 -65.5 63.5t-89.5 23.5q-77 0 -129 -55q-53 -55 -53 -131t53 -131q52 -54 129 -54q48 0 89.5 23t66.5 63zM307 780
h-107l109 173h156l110 -173h-108l-80 89z" />
    <glyph glyph-name="ccircumflex" unicode="&#x109;" horiz-adv-x="526" 
d="M281 147q54 0 75 38l142 -79q-76 -115 -206 -115q-108 0 -184 67q-75 68 -75 176q0 109 76 176q77 68 183 68q129 0 205 -115l-139 -84q-22 42 -77 42q-35 0 -60.5 -26t-25.5 -61t25.5 -61t60.5 -26zM203 557h-107l109 173h156l110 -173h-108l-80 89z" />
    <glyph glyph-name="Cdotaccent" unicode="&#x10a;" horiz-adv-x="707" 
d="M682 149q-48 -73 -126 -115.5t-167 -42.5q-145 0 -248 103t-103 250q0 146 102 250q104 104 249 104q90 0 168 -42.5t126 -115.5q1 1 -1 -0.5l-8 -6t-13.5 -9.5t-20.5 -14t-24 -17q-19 -13 -33.5 -23t-25 -17.5t-13.5 -9.5q-24 40 -65.5 63.5t-89.5 23.5q-77 0 -129 -55
q-53 -55 -53 -131t53 -131q52 -54 129 -54q48 0 89.5 23t66.5 63zM278 870q0 34 24 57t59 23t59 -23t24 -57q0 -35 -24 -58t-59 -23q-36 0 -59.5 22.5t-23.5 58.5z" />
    <glyph glyph-name="cdotaccent" unicode="&#x10b;" horiz-adv-x="526" 
d="M281 147q54 0 75 38l142 -79q-76 -115 -206 -115q-108 0 -184 67q-75 68 -75 176q0 109 76 176q77 68 183 68q129 0 205 -115l-139 -84q-22 42 -77 42q-35 0 -60.5 -26t-25.5 -61t25.5 -61t60.5 -26zM197 647q0 34 24 57t59 23t59 -23t24 -57q0 -35 -24 -58t-59 -23
q-36 0 -59.5 22.5t-23.5 58.5z" />
    <glyph glyph-name="Ccaron" unicode="&#x10c;" horiz-adv-x="707" 
d="M682 149q-48 -73 -126 -115.5t-167 -42.5q-145 0 -248 103t-103 250q0 146 102 250q104 104 249 104q90 0 168 -42.5t126 -115.5q1 1 -1 -0.5l-8 -6t-13.5 -9.5t-20.5 -14t-24 -17q-19 -13 -33.5 -23t-25 -17.5t-13.5 -9.5q-24 40 -65.5 63.5t-89.5 23.5q-77 0 -129 -55
q-53 -55 -53 -131t53 -131q52 -54 129 -54q48 0 89.5 23t66.5 63zM579 946l-110 -173h-156l-109 173h107l80 -90l80 90h108z" />
    <glyph glyph-name="ccaron" unicode="&#x10d;" horiz-adv-x="526" 
d="M281 147q54 0 75 38l142 -79q-76 -115 -206 -115q-108 0 -184 67q-75 68 -75 176q0 109 76 176q77 68 183 68q129 0 205 -115l-139 -84q-22 42 -77 42q-35 0 -60.5 -26t-25.5 -61t25.5 -61t60.5 -26zM462 723l-110 -173h-156l-109 173h107l80 -90l80 90h108z" />
    <glyph glyph-name="Dcaron" unicode="&#x10e;" horiz-adv-x="705" 
d="M245 149h105q69 0 107 56q39 57 39 138q0 82 -39 139q-37 58 -107 58h-105v-391zM77 689h273q145 0 229 -98q84 -97 84 -248q0 -150 -84 -247q-83 -96 -229 -96h-273v689zM550 923l-110 -173h-156l-109 173h107l80 -90l80 90h108z" />
    <glyph glyph-name="dcaron" unicode="&#x10f;" horiz-adv-x="608" 
d="M647 465l-72 41q34 46 48 91q13 45 15 114h128q-16 -160 -119 -246zM389 711h159v-711h-150v67q-18 -37 -55.5 -56.5t-82.5 -19.5q-92 0 -159 67q-68 68 -68 176t68 176t159 68q80 0 129 -55v288zM223 164q29 -28 69 -28t68 28q29 29 29 69t-29 68q-28 29 -68 29t-69 -29
q-28 -28 -28 -68t28 -69z" />
    <glyph glyph-name="Dcroat" unicode="&#x110;" horiz-adv-x="722" 
d="M368 383v-101h-106v-133h105q69 0 107 56q39 57 39 138q0 82 -39 139q-37 58 -107 58h-105v-157h106zM94 0v282h-94v101h94v306h273q145 0 229 -98q84 -97 84 -248q0 -150 -84 -247q-82 -96 -229 -96h-273z" />
    <glyph glyph-name="dslash" unicode="&#x111;" horiz-adv-x="608" 
d="M389 423v120h-132v80h132v88h159v-88h66v-80h-66v-543h-150v67q-18 -37 -55.5 -56.5t-82.5 -19.5q-92 0 -159 67q-68 68 -68 176t68 176t159 68q80 0 129 -55zM223 301q-28 -28 -28 -68t28 -69q29 -28 69 -28t68 28q29 29 29 69t-29 68q-28 29 -68 29t-69 -29z" />
    <glyph glyph-name="Emacron" unicode="&#x112;" horiz-adv-x="581" 
d="M533 146v-146h-456v689h447v-146h-280v-132h246v-143h-246v-122h289zM429 866v-87h-288v87h288z" />
    <glyph glyph-name="emacron" unicode="&#x113;" horiz-adv-x="550" 
d="M523 240q0 -12 -3 -51h-334q4 -31 35 -51t72 -20q56 0 89 39q11 -10 56 -41q42 -29 54 -38q-66 -87 -211 -87q-102 0 -176 68q-72 69 -72 177q0 106 72 174q74 68 176 68q103 0 172 -66q70 -64 70 -172zM186 278h186q-9 36 -35.5 52.5t-57.5 16.5q-18 0 -33 -4
q-18 -4 -36.5 -22t-23.5 -43zM422 666v-87h-288v87h288z" />
    <glyph glyph-name="Ebreve" unicode="&#x114;" horiz-adv-x="581" 
d="M77 0v689h447v-146h-280v-132h246v-143h-246v-122h289v-146h-456zM149 896h89q0 -27 10.5 -38.5t36.5 -11.5q45 0 45 50h91q0 -59 -38 -95.5t-98 -36.5q-63 0 -99.5 38t-36.5 94z" />
    <glyph glyph-name="ebreve" unicode="&#x115;" horiz-adv-x="550" 
d="M142 696h89q0 -27 10.5 -38.5t36.5 -11.5q45 0 45 50h91q0 -59 -38 -95.5t-98 -36.5q-63 0 -99.5 38t-36.5 94zM523 240q0 -12 -3 -51h-334q4 -31 35 -51t72 -20q56 0 89 39q11 -10 56 -41q42 -29 54 -38q-66 -87 -211 -87q-102 0 -176 68q-72 69 -72 177q0 106 72 174
q74 68 176 68q103 0 172 -66q70 -64 70 -172zM186 278h186q-12 38 -40 54.5t-53 14.5q-32 0 -58.5 -16.5t-34.5 -52.5z" />
    <glyph glyph-name="Edotaccent" unicode="&#x116;" horiz-adv-x="581" 
d="M77 0v689h447v-146h-280v-132h246v-143h-246v-122h289v-146h-456zM202 847q0 34 24 57t59 23t59 -23t24 -57q0 -35 -24 -58t-59 -23q-36 0 -59.5 22.5t-23.5 58.5z" />
    <glyph glyph-name="edotaccent" unicode="&#x117;" horiz-adv-x="550" 
d="M195 647q0 34 24 57t59 23t59 -23t24 -57q0 -35 -24 -58t-59 -23q-36 0 -59.5 22.5t-23.5 58.5zM523 240q0 -12 -3 -51h-334q4 -31 35 -51t72 -20q56 0 89 39q11 -10 56 -41q42 -29 54 -38q-66 -87 -211 -87q-102 0 -176 68q-72 69 -72 177q0 106 72 174q74 68 176 68
q103 0 172 -66q70 -64 70 -172zM186 278h186q-12 38 -40 54.5t-53 14.5q-32 0 -58.5 -16.5t-34.5 -52.5z" />
    <glyph glyph-name="Eogonek" unicode="&#x118;" horiz-adv-x="581" 
d="M244 146h289v-146l-44 -86q-13 -38 12 -54q22 -13 41 5q15 15 12 44l70 4q2 -60 -29.5 -94.5t-79.5 -34.5q-42 0 -73 31q-31 30 -31 74q0 31 11 51l40 60h-385v689h447v-146h-280v-132h246v-143h-246v-122z" />
    <glyph glyph-name="eogonek" unicode="&#x119;" horiz-adv-x="551" 
d="M283 -9q-103 0 -177 68q-73 69 -73 177q0 106 72 174q74 68 176 68q103 0 172 -66q70 -64 70 -172q0 -12 -3 -51h-334q4 -31 35 -51t72 -20q56 0 89 39q11 -10 56 -41q42 -29 54 -38q-1 -1 -31 -33q-61 -67 -89 -131q-14 -38 12 -54q22 -13 41 5q15 15 12 44l70 4
q2 -60 -29.5 -94.5t-79.5 -34.5q-42 0 -73 31q-31 30 -31 74q0 31 11 51l36 56q-37 -5 -58 -5zM186 278h186q-9 36 -35.5 52.5t-57.5 16.5q-18 0 -33 -4q-18 -4 -36.5 -22t-23.5 -43z" />
    <glyph glyph-name="Ecaron" unicode="&#x11a;" horiz-adv-x="581" 
d="M77 0v689h447v-146h-280v-132h246v-143h-246v-122h289v-146h-456zM473 923l-110 -173h-156l-109 173h107l80 -90l80 90h108z" />
    <glyph glyph-name="ecaron" unicode="&#x11b;" horiz-adv-x="550" 
d="M466 723l-110 -173h-156l-109 173h107l80 -90l80 90h108zM523 240q0 -12 -3 -51h-334q4 -31 35 -51t72 -20q56 0 89 39q11 -10 56 -41q42 -29 54 -38q-66 -87 -211 -87q-102 0 -176 68q-72 69 -72 177q0 106 72 174q74 68 176 68q103 0 172 -66q70 -64 70 -172zM186 278
h186q-12 38 -40 54.5t-53 14.5q-32 0 -58.5 -16.5t-34.5 -52.5z" />
    <glyph glyph-name="Gcircumflex" unicode="&#x11c;" horiz-adv-x="756" 
d="M662 576l-124 -105q-58 72 -145 72q-78 0 -132 -58q-54 -59 -54 -141t54 -142q54 -59 132 -59q135 0 158 92h-193v134h375q0 -189 -92 -284q-91 -94 -248 -94q-149 0 -252 103t-103 250t103 250q104 104 252 104q81 0 152 -32.5t117 -89.5zM301 757h-107l109 173h156
l110 -173h-108l-80 89z" />
    <glyph glyph-name="gcircumflex" unicode="&#x11d;" horiz-adv-x="608" 
d="M223 301q-28 -28 -28 -68t28 -69q29 -28 69 -28t68 28q29 29 29 69t-29 68q-28 29 -68 29t-69 -29zM43 -84l134 54q12 -28 39.5 -45t63.5 -17q60 0 91.5 38t31.5 112q-37 -67 -143 -67q-92 0 -159 67q-68 68 -68 176t68 176t159 68q38 0 73.5 -16.5t55.5 -45.5v50h159
v-407q0 -144 -69 -220t-199 -76q-80 0 -144.5 42t-92.5 111zM225 557h-107l109 173h156l110 -173h-108l-80 89z" />
    <glyph glyph-name="Gbreve" unicode="&#x11e;" horiz-adv-x="756" 
d="M255 896h89q0 -27 10.5 -38.5t36.5 -11.5q45 0 45 50h91q0 -59 -38 -95.5t-98 -36.5q-63 0 -99.5 38t-36.5 94zM662 576l-124 -105q-58 72 -145 72q-78 0 -132 -58q-54 -59 -54 -141t54 -142q54 -59 132 -59q135 0 158 92h-193v134h375q0 -189 -92 -284q-91 -94 -248 -94
q-149 0 -252 103t-103 250t103 250q104 104 252 104q81 0 152 -32.5t117 -89.5z" />
    <glyph glyph-name="gbreve" unicode="&#x11f;" horiz-adv-x="608" 
d="M223 301q-28 -28 -28 -68t28 -69q29 -28 69 -28t68 28q29 29 29 69t-29 68q-28 29 -68 29t-69 -29zM43 -84l134 54q12 -28 39.5 -45t63.5 -17q60 0 91.5 38t31.5 112q-37 -67 -143 -67q-92 0 -159 67q-68 68 -68 176t68 176t159 68q38 0 73.5 -16.5t55.5 -45.5v50h159
v-407q0 -144 -69 -220t-199 -76q-80 0 -144.5 42t-92.5 111zM169 696h89q0 -27 10.5 -38.5t36.5 -11.5q45 0 45 50h91q0 -59 -38 -95.5t-98 -36.5q-63 0 -99.5 38t-36.5 94z" />
    <glyph glyph-name="Gdotaccent" unicode="&#x120;" horiz-adv-x="756" 
d="M298 847q0 34 24 57t59 23t59 -23t24 -57q0 -35 -24 -58t-59 -23q-36 0 -59.5 22.5t-23.5 58.5zM662 576l-124 -105q-58 72 -145 72q-78 0 -132 -58q-54 -59 -54 -141t54 -142q54 -59 132 -59q135 0 158 92h-193v134h375q0 -189 -92 -284q-91 -94 -248 -94
q-149 0 -252 103t-103 250t103 250q104 104 252 104q81 0 152 -32.5t117 -89.5z" />
    <glyph glyph-name="gdotaccent" unicode="&#x121;" horiz-adv-x="608" 
d="M223 301q-28 -28 -28 -68t28 -69q29 -28 69 -28t68 28q29 29 29 69t-29 68q-28 29 -68 29t-69 -29zM43 -84l134 54q12 -28 39.5 -45t63.5 -17q60 0 91.5 38t31.5 112q-37 -67 -143 -67q-92 0 -159 67q-68 68 -68 176t68 176t159 68q38 0 73.5 -16.5t55.5 -45.5v50h159
v-407q0 -144 -69 -220t-199 -76q-80 0 -144.5 42t-92.5 111zM222 647q0 34 24 57t59 23t59 -23t24 -57q0 -35 -24 -58t-59 -23q-36 0 -59.5 22.5t-23.5 58.5z" />
    <glyph glyph-name="Gcommaaccent" unicode="&#x122;" horiz-adv-x="756" 
d="M662 576l-124 -105q-58 72 -145 72q-78 0 -132 -58q-54 -59 -54 -141t54 -142q54 -59 132 -59q135 0 158 92h-193v134h375q0 -189 -92 -284q-91 -94 -248 -94q-149 0 -252 103t-103 250t103 250q104 104 252 104q81 0 152 -32.5t117 -89.5zM339 -302l-72 42q34 46 48 91
q13 43 15 113h128q-16 -160 -119 -246z" />
    <glyph glyph-name="gcommaaccent" unicode="&#x123;" horiz-adv-x="608" 
d="M223 301q-28 -28 -28 -68t28 -69q29 -28 69 -28t68 28q29 29 29 69t-29 68q-28 29 -68 29t-69 -29zM43 -84l134 54q12 -28 39.5 -45t63.5 -17q60 0 91.5 38t31.5 112q-37 -67 -143 -67q-92 0 -159 67q-68 68 -68 176t68 176t159 68q38 0 73.5 -16.5t55.5 -45.5v50h159
v-407q0 -144 -69 -220t-199 -76q-80 0 -144.5 42t-92.5 111zM319 777l72 -42q-34 -46 -48 -91q-13 -43 -15 -113h-128q16 160 119 246z" />
    <glyph glyph-name="Hcircumflex" unicode="&#x124;" horiz-adv-x="701" 
d="M244 417h210v272h170v-689h-170v268h-210v-268h-167v689h167v-272zM270 757h-107l109 173h156l110 -173h-108l-80 89z" />
    <glyph glyph-name="hcircumflex" unicode="&#x125;" horiz-adv-x="590" 
d="M219 245v-245h-159v711h159v-318q10 39 52 62q43 23 79 23q92 0 139 -59t47 -171v-248h-159v243q0 36 -23 58.5t-53 22.5q-35 0 -58.5 -20.5t-23.5 -58.5zM60 759h-107l109 173h156l110 -173h-108l-80 89z" />
    <glyph glyph-name="Hbar" unicode="&#x126;" horiz-adv-x="716" 
d="M462 510h-210v-93h210v93zM252 0h-168v510h-73v80h73v99h168v-99h210v99h170v-99h73v-80h-73v-510h-170v269h-210v-269z" />
    <glyph glyph-name="hbar" unicode="&#x127;" horiz-adv-x="590" 
d="M219 0h-159v543h-72v80h72v88h159v-88h126v-80h-126v-150q10 39 52 62q43 23 79 23q92 0 139 -59t47 -171v-248h-159v243q0 36 -23 58.5t-53 22.5q-35 0 -58.5 -20.5t-23.5 -58.5v-245z" />
    <glyph glyph-name="Itilde" unicode="&#x128;" horiz-adv-x="321" 
d="M117 797q-9 0 -17 -11.5t-9 -31.5h-75q3 63 32 96.5t69 33.5q23 0 50 -21q28 -20 37 -20t17 11t9 30h75q-3 -62 -32 -95t-69 -33q-21 0 -50 20q-28 21 -37 21zM244 0h-167v689h167v-689z" />
    <glyph glyph-name="itilde" unicode="&#x129;" horiz-adv-x="277" 
d="M60 0v467h157v-467h-157zM94 597q-9 0 -17 -11.5t-9 -31.5h-75q3 63 32 96.5t69 33.5q23 0 50 -21q28 -20 37 -20t17 11t9 30h75q-3 -62 -32 -95t-69 -33q-20 0 -49 20q-28 21 -38 21z" />
    <glyph glyph-name="Imacron" unicode="&#x12a;" horiz-adv-x="321" 
d="M305 866v-87h-288v87h288zM244 0h-167v689h167v-689z" />
    <glyph glyph-name="imacron" unicode="&#x12b;" horiz-adv-x="277" 
d="M60 0v467h157v-467h-157zM282 666v-87h-288v87h288z" />
    <glyph glyph-name="Ibreve" unicode="&#x12c;" horiz-adv-x="321" 
d="M77 689h167v-689h-167v689zM25 896h89q0 -27 10.5 -38.5t36.5 -11.5q45 0 45 50h91q0 -59 -38 -95.5t-98 -36.5q-63 0 -99.5 38t-36.5 94z" />
    <glyph glyph-name="ibreve" unicode="&#x12d;" horiz-adv-x="277" 
d="M217 467v-467h-157v467h157zM2 696h89q0 -27 10.5 -38.5t36.5 -11.5q45 0 45 50h91q0 -59 -38 -95.5t-98 -36.5q-63 0 -99.5 38t-36.5 94z" />
    <glyph glyph-name="Iogonek" unicode="&#x12e;" horiz-adv-x="321" 
d="M133 -70l40 70h-96v689h167v-689l-44 -96q-14 -38 12 -54q22 -13 41 5q15 15 12 44l70 4q2 -60 -29.5 -94.5t-79.5 -34.5q-42 0 -73 31q-31 30 -31 74q0 31 11 51z" />
    <glyph glyph-name="iogonek" unicode="&#x12f;" horiz-adv-x="279" 
d="M43 621q0 38 28.5 64t67.5 26q40 0 67.5 -26t27.5 -64t-27.5 -64.5t-67.5 -26.5q-39 0 -67.5 27t-28.5 64zM108 -70l40 70h-88v466h159v-466h-1l-43 -96q-13 -38 12 -54q22 -13 41 5q15 15 12 44l70 4q2 -60 -29.5 -94.5t-79.5 -34.5q-42 0 -73 31q-31 30 -31 74
q0 31 11 51z" />
    <glyph glyph-name="Idot" unicode="&#x130;" horiz-adv-x="321" 
d="M77 689h167v-689h-167v689zM78 847q0 34 24 57t59 23t59 -23t24 -57q0 -35 -24 -58t-59 -23q-36 0 -59.5 22.5t-23.5 58.5z" />
    <glyph glyph-name="dotlessi" unicode="&#x131;" horiz-adv-x="279" 
d="M219 0h-159v466h159v-466z" />
    <glyph glyph-name="IJ" unicode="&#x132;" horiz-adv-x="644" 
d="M224 -211l15 150q35 -12 96 -12q63 0 63 80v682h169v-682q0 -105 -57 -171q-55 -66 -175 -66q-57 0 -111 19zM244 0h-167v689h167v-689z" />
    <glyph glyph-name="ij" unicode="&#x133;" horiz-adv-x="558" 
d="M274 -237h-60v151h60q63 0 65 77v17v458h159v-458v-17q0 -110 -59 -169t-165 -59zM323 621q0 38 28.5 64t67.5 26q40 0 67.5 -26t27.5 -64t-27.5 -64.5t-67.5 -26.5q-39 0 -67.5 27t-28.5 64zM60 466h159v-466h-159v466zM43 621q0 38 28.5 64t67.5 26q40 0 67.5 -26
t27.5 -64t-27.5 -64.5t-67.5 -26.5q-39 0 -67.5 27t-28.5 64z" />
    <glyph glyph-name="Jcircumflex" unicode="&#x134;" horiz-adv-x="323" 
d="M-97 -211l15 150q34 -12 96 -12q63 0 63 80v682h169v-682q0 -105 -57 -171q-55 -66 -175 -66q-57 0 -111 19zM84 757h-107l109 173h156l110 -173h-108l-80 89z" />
    <glyph glyph-name="jcircumflex" unicode="&#x135;" horiz-adv-x="279" 
d="M-5 -237h-60v151h60q63 0 65 77v17v458h159v-458v-17q0 -110 -59 -169t-165 -59zM70 557h-107l109 173h156l110 -173h-108l-80 89z" />
    <glyph glyph-name="Kcommaaccent" unicode="&#x136;" horiz-adv-x="633" 
d="M590 689l-259 -340l322 -349h-229l-180 210v-210h-167v689h167v-197l137 197h209zM306 -302l-72 42q34 46 48 91q13 43 15 113h128q-16 -160 -119 -246z" />
    <glyph glyph-name="kcommaaccent" unicode="&#x137;" horiz-adv-x="538" 
d="M542 0h-190l-133 168v-168h-159v711h159v-358l91 113h195l-172 -207zM225 -302l-72 42q34 46 48 91q13 43 15 113h128q-16 -160 -119 -246z" />
    <glyph glyph-name="kgreenlandic" unicode="&#x138;" horiz-adv-x="517" 
d="M314 237l206 -237h-203l-101 146v-146h-156v467h156v-130l88 130h180z" />
    <glyph glyph-name="Lacute" unicode="&#x139;" horiz-adv-x="518" 
d="M77 0v689h169v-543h248v-146h-417zM78 749l93 174h148l-138 -174h-103z" />
    <glyph glyph-name="lacute" unicode="&#x13a;" horiz-adv-x="279" 
d="M60 711h159v-711h-159v711zM71 749l93 174h148l-138 -174h-103z" />
    <glyph glyph-name="Lcommaaccent" unicode="&#x13b;" horiz-adv-x="518" 
d="M494 146v-146h-417v689h169v-543h248zM224 -302l-72 42q34 46 48 91q13 43 15 113h128q-16 -160 -119 -246z" />
    <glyph glyph-name="lcommaaccent" unicode="&#x13c;" horiz-adv-x="279" 
d="M89 -302l-72 42q34 46 48 91q13 43 15 113h128q-16 -160 -119 -246zM219 0h-159v711h159v-711z" />
    <glyph glyph-name="Lcaron" unicode="&#x13d;" horiz-adv-x="527" 
d="M494 146v-146h-417v689h169v-543h248zM399 446l-62 38q34 49 47 92q14 42 16 113h116q-16 -159 -117 -243z" />
    <glyph glyph-name="lcaron" unicode="&#x13e;" horiz-adv-x="279" 
d="M219 0h-159v711h159v-711zM308 468l-62 38q34 49 47 92q14 42 16 113h116q-17 -159 -117 -243z" />
    <glyph glyph-name="Ldot" unicode="&#x13f;" horiz-adv-x="519" 
d="M291 296q0 39 27.5 65t66.5 26t67 -26t28 -65t-28 -65.5t-67 -26.5q-40 0 -67 26t-27 66zM494 146v-146h-417v689h169v-543h248z" />
    <glyph glyph-name="ldot" unicode="&#x140;" horiz-adv-x="508" 
d="M299 296q0 39 27.5 65t66.5 26t67 -26t28 -65t-28 -65.5t-67 -26.5q-40 0 -67 26t-27 66zM219 0h-159v711h159v-711z" />
    <glyph glyph-name="Lslash" unicode="&#x141;" horiz-adv-x="527" 
d="M503 146v-146h-417v265l-75 -46v93l75 46v331h169v-226l99 62v-93l-99 -62v-224h248z" />
    <glyph glyph-name="lslash" unicode="&#x142;" horiz-adv-x="346" 
d="M108 0v276l-92 -57v93l92 57v320h167v-216l84 52v-93l-84 -52v-380h-167z" />
    <glyph glyph-name="Nacute" unicode="&#x143;" horiz-adv-x="678" 
d="M601 689v-689h-146l-211 376v-376h-167v689h151l206 -371v371h167zM270 749l93 174h148l-138 -174h-103z" />
    <glyph glyph-name="nacute" unicode="&#x144;" horiz-adv-x="590" 
d="M219 245v-245h-159v466h159v-73q10 39 52 62q43 23 79 23q92 0 139 -59t47 -171v-248h-159v243q0 40 -22 60.5t-54 20.5q-35 0 -58.5 -20t-23.5 -59zM213 549l93 174h148l-138 -174h-103z" />
    <glyph glyph-name="Ncommaaccent" unicode="&#x145;" horiz-adv-x="678" 
d="M434 318v371h167v-689h-146l-211 376v-376h-167v689h151zM315 -302l-72 42q34 46 48 91q13 43 15 113h128q-16 -160 -119 -246z" />
    <glyph glyph-name="ncommaaccent" unicode="&#x146;" horiz-adv-x="590" 
d="M219 245v-245h-159v466h159v-73q10 39 52 62q43 23 79 23q92 0 139 -59t47 -171v-248h-159v243q0 40 -22 60.5t-54 20.5q-35 0 -58.5 -20t-23.5 -59zM249 -302l-72 42q34 46 48 91q13 43 15 113h128q-16 -160 -119 -246z" />
    <glyph glyph-name="Ncaron" unicode="&#x147;" horiz-adv-x="678" 
d="M601 689v-689h-146l-211 376v-376h-167v689h151l206 -371v371h167zM526 923l-110 -173h-156l-109 173h107l80 -90l80 90h108z" />
    <glyph glyph-name="ncaron" unicode="&#x148;" horiz-adv-x="590" 
d="M219 245v-245h-159v466h159v-73q10 39 52 62q43 23 79 23q92 0 139 -59t47 -171v-248h-159v243q0 40 -22 60.5t-54 20.5q-35 0 -58.5 -20t-23.5 -59zM483 723l-110 -173h-156l-109 173h107l80 -90l80 90h108z" />
    <glyph glyph-name="napostrophe" unicode="&#x149;" horiz-adv-x="645" 
d="M274 245v-245h-159v466h159v-73q10 39 52 62q43 23 79 23q92 0 139 -59t47 -171v-248h-159v243q0 40 -22 60.5t-54 20.5q-35 0 -58.5 -20t-23.5 -59zM6 452l-72 42q34 46 48 91q13 43 15 113h128q-16 -160 -119 -246z" />
    <glyph glyph-name="Eng" unicode="&#x14a;" horiz-adv-x="678" 
d="M445 7v11l-201 358v-376h-167v689h151l206 -371v371h167v-689q-2 -106 -60.5 -168t-171.5 -62q-57 0 -111 19l15 140q35 -12 96 -12q32 0 54 27t22 63z" />
    <glyph glyph-name="eng" unicode="&#x14b;" horiz-adv-x="590" 
d="M378 8v235q0 40 -22 60.5t-55 20.5q-35 0 -58.5 -20t-23.5 -59v-245h-159v466h159v-73q10 39 52 62q43 23 79 23q92 0 139 -59t47 -171v-248q-2 -106 -60.5 -168t-171.5 -62q-57 0 -111 19l15 129q34 -12 96 -12q34 0 54 27.5t20 74.5z" />
    <glyph glyph-name="Omacron" unicode="&#x14c;" horiz-adv-x="779" 
d="M38 344q0 146 102 250q104 104 249 104q147 0 249 -104q103 -103 103 -250t-103 -250q-102 -103 -249 -103q-145 0 -248 103t-103 250zM389 159q78 0 130 54q54 54 54 131t-54 131q-54 55 -130 55q-77 0 -129 -55q-53 -55 -53 -131t53 -131q52 -54 129 -54zM533 866v-87
h-288v87h288z" />
    <glyph glyph-name="omacron" unicode="&#x14d;" horiz-adv-x="563" 
d="M280 -9q-101 0 -175 68q-72 67 -72 175t72 176q74 68 175 68q102 0 176 -68t74 -176q0 -107 -74 -175t-176 -68zM211 302q-28 -28 -28 -68t28 -69q29 -28 69 -28t68 28q29 29 29 69t-29 68q-28 29 -68 29t-69 -29zM425 666v-87h-288v87h288z" />
    <glyph glyph-name="Obreve" unicode="&#x14e;" horiz-adv-x="779" 
d="M38 344q0 146 102 250q104 104 249 104q147 0 249 -104q103 -103 103 -250t-103 -250q-102 -103 -249 -103q-145 0 -248 103t-103 250zM389 159q78 0 130 54q54 54 54 131t-54 131q-54 55 -130 55q-77 0 -129 -55q-53 -55 -53 -131t53 -131q52 -54 129 -54zM253 896h89
q0 -27 10.5 -38.5t36.5 -11.5q45 0 45 50h91q0 -59 -38 -95.5t-98 -36.5q-63 0 -99.5 38t-36.5 94z" />
    <glyph glyph-name="obreve" unicode="&#x14f;" horiz-adv-x="563" 
d="M280 -9q-101 0 -175 68q-72 67 -72 175t72 176q74 68 175 68q102 0 176 -68t74 -176q0 -107 -74 -175t-176 -68zM211 165q29 -28 69 -28t68 28q29 29 29 69t-29 68q-28 29 -68 29t-69 -29q-28 -28 -28 -68t28 -69zM145 696h89q0 -27 10.5 -38.5t36.5 -11.5q45 0 45 50h91
q0 -59 -38 -95.5t-98 -36.5q-63 0 -99.5 38t-36.5 94z" />
    <glyph glyph-name="Ohungarumlaut" unicode="&#x150;" horiz-adv-x="779" 
d="M38 344q0 146 102 250q104 104 249 104q147 0 249 -104q103 -103 103 -250t-103 -250q-102 -103 -249 -103q-145 0 -248 103t-103 250zM389 159q78 0 130 54q54 54 54 131t-54 131q-54 55 -130 55q-77 0 -129 -55q-53 -55 -53 -131t53 -131q52 -54 129 -54zM261 747
l93 173h105l-105 -173h-93zM404 747l107 173h108l-115 -173h-100z" />
    <glyph glyph-name="ohungarumlaut" unicode="&#x151;" horiz-adv-x="563" 
d="M280 -9q-101 0 -175 68q-72 67 -72 175t72 176q74 68 175 68q102 0 176 -68t74 -176q0 -107 -74 -175t-176 -68zM211 165q29 -28 69 -28t68 28q29 29 29 69t-29 68q-28 29 -68 29t-69 -29q-28 -28 -28 -68t28 -69zM160 547l93 173h105l-105 -173h-93zM303 547l107 173
h108l-115 -173h-100z" />
    <glyph glyph-name="OE" unicode="&#x152;" horiz-adv-x="1078" 
d="M1030 146v-146h-456v43q-85 -52 -185 -52q-145 0 -248 103t-103 250q0 146 102 250q104 104 249 104q97 0 185 -53v44h447v-146h-280v-132h246v-143h-246v-122h289zM389 159q78 0 130 54q54 54 54 131t-54 131q-54 55 -130 55q-77 0 -129 -55q-53 -55 -53 -131t53 -131
q52 -54 129 -54z" />
    <glyph glyph-name="oe" unicode="&#x153;" horiz-adv-x="896" 
d="M869 240q0 -12 -3 -51h-334q4 -31 35 -51t72 -20q56 0 89 39q11 -10 56 -41q42 -29 54 -38q-66 -87 -211 -87q-103 0 -173 66q-72 -66 -174 -66q-101 0 -175 68q-72 67 -72 175t72 176q74 68 175 68q102 0 173 -65q71 65 174 65t172 -66q70 -64 70 -172zM211 302
q-28 -28 -28 -68t28 -69q29 -28 69 -28t68 28q29 29 29 69t-29 68q-28 29 -68 29t-69 -29zM532 278h186q-9 36 -35.5 52.5t-57.5 16.5q-18 0 -33 -4q-18 -4 -36.5 -22t-23.5 -43z" />
    <glyph glyph-name="Racute" unicode="&#x154;" horiz-adv-x="642" 
d="M77 0v689h285q113 0 175 -68q61 -67 61 -162q0 -79 -43 -140q-42 -61 -122 -81l168 -238h-194l-148 230h-15v-230h-167zM354 543h-110v-169h110q47 -2 66.5 41.5t0 87t-66.5 40.5zM220 749l93 174h148l-138 -174h-103z" />
    <glyph glyph-name="racute" unicode="&#x155;" horiz-adv-x="429" 
d="M71 549l93 174h148l-138 -174h-103zM219 153v-153h-159v466h151v-115q17 61 57 94t90 33q42 0 69 -13l-39 -150q-33 12 -72 12q-50 0 -73.5 -39t-23.5 -135z" />
    <glyph glyph-name="Rcommaaccent" unicode="&#x156;" horiz-adv-x="642" 
d="M244 230v-230h-167v689h285q113 0 175 -68q61 -67 61 -162q0 -79 -43 -140q-42 -61 -122 -81l168 -238h-194l-148 230h-15zM354 543h-110v-169h110q47 -2 66.5 41.5t0 87t-66.5 40.5zM275 -302l-72 42q34 46 48 91q13 43 15 113h128q-16 -160 -119 -246z" />
    <glyph glyph-name="rcommaaccent" unicode="&#x157;" horiz-adv-x="429" 
d="M219 153v-153h-159v466h151v-115q17 61 57 94t90 33q42 0 69 -13l-39 -150q-33 12 -72 12q-50 0 -73.5 -39t-23.5 -135zM85 -302l-72 42q34 46 48 91q13 43 15 113h128q-16 -160 -119 -246z" />
    <glyph glyph-name="Rcaron" unicode="&#x158;" horiz-adv-x="642" 
d="M77 0v689h285q113 0 175 -68q61 -67 61 -162q0 -79 -43 -140q-42 -61 -122 -81l168 -238h-194l-148 230h-15v-230h-167zM354 543h-110v-169h110q47 -2 66.5 41.5t0 87t-66.5 40.5zM501 923l-110 -173h-156l-109 173h107l80 -90l80 90h108z" />
    <glyph glyph-name="rcaron" unicode="&#x159;" horiz-adv-x="429" 
d="M404 723l-110 -173h-156l-109 173h107l80 -90l80 90h108zM219 153v-153h-159v466h151v-115q17 61 57 94t90 33q42 0 69 -13l-39 -150q-33 12 -72 12q-50 0 -73.5 -39t-23.5 -135z" />
    <glyph glyph-name="Sacute" unicode="&#x15a;" horiz-adv-x="586" 
d="M40 205h169q5 -67 85 -67q37 0 61 16.5t24 45.5q0 8 -0.5 10.5t-5 9t-15.5 14.5q-14 12 -48 23l-81 27q-178 48 -180 203q0 93 68 152t173 59q106 0 171 -58q66 -57 66 -157h-167q0 64 -72 64q-34 0 -53.5 -15t-19.5 -40q0 -37 64 -56l79 -25q191 -59 191 -210
q0 -72 -41 -122q-40 -49 -96 -69q-54 -19 -118 -19q-117 0 -185 58q-69 59 -69 156zM213 749l93 174h148l-138 -174h-103z" />
    <glyph glyph-name="sacute" unicode="&#x15b;" horiz-adv-x="481" 
d="M244 166l-59 16q-74 20 -114 62q-15 17 -22 37q-8 26 -8 58q0 54 56 96q56 43 134 43q84 0 144 -39t60 -122h-149q0 42 -47 42q-39 0 -39 -26q0 -22 35 -30l83 -23q84 -23 110 -72q20 -36 20 -69q0 -73 -64 -110q-65 -38 -147 -38q-80 0 -142 44q-61 45 -61 121h149
q0 -20 14.5 -34t39.5 -14q21 0 35 8.5t14 22.5q0 10 -8 15t-34 12zM179 549l93 174h148l-138 -174h-103z" />
    <glyph glyph-name="Scircumflex" unicode="&#x15c;" horiz-adv-x="586" 
d="M40 205h169q5 -67 85 -67q37 0 61 16.5t24 45.5q0 7 -2 15q-3 8 -21 20.5t-46 21.5l-81 27q-178 48 -180 203q0 93 68 152t173 59q106 0 171 -58q66 -57 66 -157h-167q0 64 -72 64q-34 0 -53.5 -15t-19.5 -40q0 -37 64 -56l79 -25q191 -59 191 -210q0 -72 -41 -122
q-74 -88 -214 -88q-117 0 -185 58q-69 59 -69 156zM214 757h-107l109 173h156l110 -173h-108l-80 89z" />
    <glyph glyph-name="scircumflex" unicode="&#x15d;" horiz-adv-x="481" 
d="M244 166l-59 16q-74 20 -114 62q-15 17 -22 37q-8 26 -8 58q0 54 56 96q56 43 134 43q84 0 144 -39t60 -122h-149q0 42 -47 42q-39 0 -39 -26q0 -22 35 -30l83 -23q84 -23 110 -72q20 -36 20 -69q0 -73 -64 -110q-65 -38 -147 -38q-80 0 -142 44q-61 45 -61 121h149
q0 -20 14.5 -34t39.5 -14q21 0 35 8.5t14 22.5q0 10 -8 15t-34 12zM161 557h-107l109 173h156l110 -173h-108l-80 89z" />
    <glyph glyph-name="Scedilla" unicode="&#x15e;" horiz-adv-x="587" 
d="M324 -86l-40 77q-111 3 -177.5 60.5t-66.5 153.5h169q5 -67 85 -67q37 0 61 16.5t24 45.5q0 7 -2 15q-3 8 -21 20.5t-46 21.5l-81 27q-178 48 -180 203q0 93 68 152t173 59q106 0 171 -58q66 -57 66 -157h-167q0 64 -72 64q-34 0 -53.5 -15t-19.5 -40q0 -37 64 -56
l79 -25q191 -59 191 -210q0 -89 -57 -140q-56 -52 -140 -65l39 -56q11 -20 11 -51q0 -44 -31 -74q-31 -31 -73 -31q-48 0 -79.5 34.5t-29.5 94.5l70 -4q-4 -41 25 -52q25 -8 38 13q12 17 2 44z" />
    <glyph glyph-name="scedilla" unicode="&#x15f;" horiz-adv-x="483" 
d="M284 -6l36 -54q11 -20 11 -51q0 -44 -31 -74q-31 -31 -73 -31q-48 0 -79.5 34.5t-29.5 94.5l70 -4q-4 -41 25 -52q25 -8 38 13q12 17 2 44l-39 78q-74 6 -127 50q-52 43 -52 114h149q0 -20 14 -34t40 -14q21 0 35 8.5t14 22.5q0 10 -8 15t-34 12l-59 16q-74 20 -114 62
q-15 17 -22 37q-8 26 -8 58q0 54 56 96q56 43 134 43q84 0 144 -39t60 -122h-149q0 42 -47 42q-39 0 -39 -26q0 -22 35 -30l83 -23q84 -23 110 -72q20 -36 20 -69q0 -59 -46 -97t-119 -48z" />
    <glyph glyph-name="Scaron" unicode="&#x160;" horiz-adv-x="586" 
d="M40 205h169q5 -67 85 -67q37 0 61 16.5t24 45.5q0 8 -0.5 10.5t-5 9t-15.5 14.5q-14 12 -48 23l-81 27q-178 48 -180 203q0 93 68 152t173 59q106 0 171 -58q66 -57 66 -157h-167q0 64 -72 64q-34 0 -53.5 -15t-19.5 -40q0 -37 64 -56l79 -25q191 -59 191 -210
q0 -72 -41 -122q-40 -49 -96 -69q-54 -19 -118 -19q-117 0 -185 58q-69 59 -69 156zM482 923l-110 -173h-156l-109 173h107l80 -90l80 90h108z" />
    <glyph glyph-name="scaron" unicode="&#x161;" horiz-adv-x="481" 
d="M244 166l-59 16q-74 20 -114 62q-15 17 -22 37q-8 26 -8 58q0 54 56 96q56 43 134 43q84 0 144 -39t60 -122h-149q0 42 -47 42q-39 0 -39 -26q0 -22 35 -30l83 -23q84 -23 110 -72q20 -36 20 -69q0 -73 -64 -110q-65 -38 -147 -38q-80 0 -142 44q-61 45 -61 121h149
q0 -20 14.5 -34t39.5 -14q21 0 35 8.5t14 22.5q0 10 -8 15t-34 12zM429 723l-110 -173h-156l-109 173h107l80 -90l80 90h108z" />
    <glyph glyph-name="Tcommaaccent" unicode="&#x162;" horiz-adv-x="577" 
d="M205 0v543h-178v146h523v-146h-178v-543h-167zM228 -302l-72 42q34 46 48 91q13 43 15 113h128q-16 -160 -119 -246z" />
    <glyph glyph-name="tcommaaccent" unicode="&#x163;" horiz-adv-x="378" 
d="M105 633h157v-167h98v-117h-98v-349h-157v349h-85v117h85v167zM125 -302l-72 42q34 46 48 91q13 43 15 113h128q-16 -160 -119 -246z" />
    <glyph glyph-name="Tcaron" unicode="&#x164;" horiz-adv-x="577" 
d="M27 543v146h523v-146h-178v-543h-167v543h-178zM476 923l-110 -173h-156l-109 173h107l80 -90l80 90h108z" />
    <glyph glyph-name="tcaron" unicode="&#x165;" horiz-adv-x="378" 
d="M376 523l-62 38q34 49 47 92q14 42 16 113h116q-17 -159 -117 -243zM262 466h98v-117h-98v-349h-157v349h-85v117h85v167h157v-167z" />
    <glyph glyph-name="Tbar" unicode="&#x166;" horiz-adv-x="577" 
d="M205 0v283h-95v75h95v185h-178v146h523v-146h-178v-185h95v-75h-95v-283h-167z" />
    <glyph glyph-name="tbar" unicode="&#x167;" horiz-adv-x="378" 
d="M105 0v174h-54v75h54v100h-85v117h85v167h157v-167h98v-117h-98v-100h60v-75h-60v-174h-157z" />
    <glyph glyph-name="Utilde" unicode="&#x168;" horiz-adv-x="682" 
d="M297 797q-9 0 -17 -11.5t-9 -31.5h-75q3 63 32 96.5t69 33.5q23 0 50 -21q28 -20 37 -20t17 11t9 30h75q-3 -62 -32 -95t-69 -33q-21 0 -50 20q-29 21 -37 21zM69 251v438h168v-438q0 -46 31 -74q32 -29 73 -29q40 0 72 29t32 74v438h168v-438q0 -115 -81 -188
q-80 -72 -191 -72t-192 72q-80 74 -80 188z" />
    <glyph glyph-name="utilde" unicode="&#x169;" horiz-adv-x="590" 
d="M258 597q-9 0 -17 -11.5t-9 -31.5h-75q3 63 32 96.5t69 33.5q23 0 50 -21q28 -20 37 -20t17 11t9 30h75q-3 -62 -32 -95t-69 -33q-20 0 -49 20q-29 21 -38 21zM371 221v245h159v-466h-159v73q-10 -39 -52 -61q-41 -21 -79 -21q-92 0 -139 59t-47 171v245h159v-240
q0 -40 22 -60.5t54 -20.5q36 0 59 18.5t23 57.5z" />
    <glyph glyph-name="Umacron" unicode="&#x16a;" horiz-adv-x="682" 
d="M69 251v438h168v-438q0 -46 31 -74q32 -29 73 -29q40 0 72 29t32 74v438h168v-438q0 -115 -81 -188q-80 -72 -191 -72t-192 72q-80 74 -80 188zM485 866v-87h-288v87h288z" />
    <glyph glyph-name="umacron" unicode="&#x16b;" horiz-adv-x="590" 
d="M371 221v245h159v-466h-159v73q-10 -39 -52 -61q-41 -21 -79 -21q-92 0 -139 59t-47 171v245h159v-240q0 -40 22 -60.5t54 -20.5q36 0 59 18.5t23 57.5zM446 666v-87h-288v87h288z" />
    <glyph glyph-name="Ubreve" unicode="&#x16c;" horiz-adv-x="682" 
d="M613 251q0 -115 -81 -188q-80 -72 -191 -72t-192 72q-80 74 -80 188v438h168v-438q0 -46 31 -74q32 -29 73 -29q40 0 72 29t32 74v438h168v-438zM205 896h89q0 -27 10.5 -38.5t36.5 -11.5q45 0 45 50h91q0 -59 -38 -95.5t-98 -36.5q-63 0 -99.5 38t-36.5 94z" />
    <glyph glyph-name="ubreve" unicode="&#x16d;" horiz-adv-x="590" 
d="M371 221v245h159v-466h-159v73q-10 -39 -52 -61q-41 -21 -79 -21q-92 0 -139 59t-47 171v245h159v-240q0 -40 22 -60.5t54 -20.5q36 0 59 18.5t23 57.5zM166 696h89q0 -27 10.5 -38.5t36.5 -11.5q45 0 45 50h91q0 -59 -38 -95.5t-98 -36.5q-63 0 -99.5 38t-36.5 94z" />
    <glyph glyph-name="Uring" unicode="&#x16e;" horiz-adv-x="682" 
d="M613 251q0 -115 -81 -188q-80 -72 -191 -72t-192 72q-80 74 -80 188v438h168v-438q0 -46 31 -74q32 -29 73 -29q40 0 72 29t32 74v438h168v-438zM214 873q0 53 36 91q38 38 90 38q53 0 91 -38q37 -37 37 -91q0 -53 -37 -90t-91 -37q-53 0 -90 37q-36 37 -36 90zM276 873
q0 -28 18.5 -46.5t45.5 -18.5q28 0 47.5 18.5t19.5 46.5t-19.5 48t-47.5 20q-27 0 -45.5 -19.5t-18.5 -48.5z" />
    <glyph glyph-name="uring" unicode="&#x16f;" horiz-adv-x="590" 
d="M175 673q0 53 36 91q38 38 90 38q53 0 91 -38q37 -37 37 -91q0 -53 -37 -90t-91 -37q-53 0 -90 37q-36 37 -36 90zM237 673q0 -28 18.5 -46.5t45.5 -18.5q28 0 47.5 18.5t19.5 46.5t-19.5 48t-47.5 20q-27 0 -45.5 -19.5t-18.5 -48.5zM371 221v245h159v-466h-159v73
q-10 -39 -52 -61q-41 -21 -79 -21q-92 0 -139 59t-47 171v245h159v-240q0 -40 22 -60.5t54 -20.5q36 0 59 18.5t23 57.5z" />
    <glyph glyph-name="Uhungarumlaut" unicode="&#x170;" horiz-adv-x="682" 
d="M613 251q0 -115 -81 -188q-80 -72 -191 -72t-192 72q-80 74 -80 188v438h168v-438q0 -46 31 -74q32 -29 73 -29q40 0 72 29t32 74v438h168v-438zM198 747l93 173h105l-105 -173h-93zM341 747l107 173h108l-115 -173h-100z" />
    <glyph glyph-name="uhungarumlaut" unicode="&#x171;" horiz-adv-x="590" 
d="M371 221v245h159v-466h-159v73q-10 -39 -52 -61q-41 -21 -79 -21q-92 0 -139 59t-47 171v245h159v-240q0 -40 22 -60.5t54 -20.5q36 0 59 18.5t23 57.5zM150 547l93 173h105l-105 -173h-93zM293 547l107 173h108l-115 -173h-100z" />
    <glyph glyph-name="Uogonek" unicode="&#x172;" horiz-adv-x="684" 
d="M379 -6l-39 -80q-14 -38 12 -54q22 -13 41 5q15 15 12 44l70 4q2 -60 -29.5 -94.5t-79.5 -34.5q-42 0 -73 31q-31 30 -31 74q0 31 11 51l34 53q-100 12 -169 82q-68 71 -68 176v438h168v-438q0 -46 31 -74q32 -29 73 -29q40 0 72 29t32 74v438h168v-438q0 -104 -68 -175
q-67 -70 -167 -82z" />
    <glyph glyph-name="uogonek" unicode="&#x173;" horiz-adv-x="590" 
d="M530 0l-43 -86q-13 -38 12 -54q22 -13 41 5q15 15 12 44l70 4q2 -60 -29.5 -94.5t-79.5 -34.5q-42 0 -73 31q-31 30 -31 74q0 31 11 51l39 60h-88v73q-10 -39 -52 -61q-41 -21 -79 -21q-92 0 -139 58t-47 169v248h159v-243q0 -39 21.5 -58.5t54.5 -19.5q36 0 59 18.5
t23 57.5v245h159v-466z" />
    <glyph glyph-name="Wcircumflex" unicode="&#x174;" horiz-adv-x="883" 
d="M372 590h139l77 -293l120 392h182l-234 -689h-129l-87 335l-84 -335h-130l-232 689h181l119 -392zM361 757h-107l109 173h156l110 -173h-108l-80 89z" />
    <glyph glyph-name="wcircumflex" unicode="&#x175;" horiz-adv-x="759" 
d="M512 209l70 257h170l-160 -466h-135l-78 279l-74 -279h-135l-165 466h170l70 -257l71 257h125zM298 557h-107l109 173h156l110 -173h-108l-80 89z" />
    <glyph glyph-name="Ycircumflex" unicode="&#x176;" horiz-adv-x="663" 
d="M415 307v-307h-168v310l-269 379h199l153 -250l156 250h198zM250 757h-107l109 173h156l110 -173h-108l-80 89z" />
    <glyph glyph-name="ycircumflex" unicode="&#x177;" horiz-adv-x="518" 
d="M261 240l87 226h169l-288 -696h-167l117 292l-183 404h174zM179 557h-107l109 173h156l110 -173h-108l-80 89z" />
    <glyph glyph-name="Ydieresis" unicode="&#x178;" horiz-adv-x="663" 
d="M161 841q0 30 22.5 51t54.5 21q31 0 53 -21t22 -51q0 -31 -21.5 -52t-53.5 -21t-54.5 21t-22.5 52zM349 841q0 30 23 51t55 21q31 0 52.5 -21t21.5 -51q0 -31 -21.5 -52t-52.5 -21q-32 0 -55 21t-23 52zM415 307v-307h-168v310l-269 379h199l153 -250l156 250h198z" />
    <glyph glyph-name="Zacute" unicode="&#x179;" horiz-adv-x="602" 
d="M41 0v123l295 421h-282v145h501v-123l-299 -420h299v-146h-514zM240 749l93 174h148l-138 -174h-103z" />
    <glyph glyph-name="zacute" unicode="&#x17a;" horiz-adv-x="512" 
d="M53 466h412v-116l-200 -206h200v-144h-425v114l197 208h-184v144zM192 549l93 174h148l-138 -174h-103z" />
    <glyph glyph-name="Zdotaccent" unicode="&#x17b;" horiz-adv-x="602" 
d="M41 0v123l295 421h-282v145h501v-123l-299 -420h299v-146h-514zM215 847q0 34 24 57t59 23t59 -23t24 -57q0 -35 -24 -58t-59 -23q-36 0 -59.5 22.5t-23.5 58.5z" />
    <glyph glyph-name="zdotaccent" unicode="&#x17c;" horiz-adv-x="512" 
d="M53 466h412v-116l-200 -206h200v-144h-425v114l197 208h-184v144zM169 647q0 34 24 57t59 23t59 -23t24 -57q0 -35 -24 -58t-59 -23q-36 0 -59.5 22.5t-23.5 58.5z" />
    <glyph glyph-name="Zcaron" unicode="&#x17d;" horiz-adv-x="602" 
d="M41 0v123l295 421h-282v145h501v-123l-299 -420h299v-146h-514zM485 923l-110 -173h-156l-109 173h107l80 -90l80 90h108z" />
    <glyph glyph-name="zcaron" unicode="&#x17e;" horiz-adv-x="512" 
d="M53 466h412v-116l-200 -206h200v-144h-425v114l197 208h-184v144zM440 723l-110 -173h-156l-109 173h107l80 -90l80 90h108z" />
    <glyph glyph-name="longs" unicode="&#x17f;" horiz-adv-x="346" 
d="M331 711h60v-151h-60q-63 0 -65 -77v-483h-159v349h-87v117h87v17q0 110 59 169t165 59z" />
    <glyph glyph-name="florin" unicode="&#x192;" horiz-adv-x="631" 
d="M80 -194l-51 -1l31 153h48q67 0 82 78l62 313h-89l22 117h89l6 30q20 109 90.5 169.5t173.5 62.5h57l-30 -152h-48q-37 0 -58.5 -26.5t-31.5 -83.5h89l-22 -117h-88l-71 -360q-17 -87 -92 -133q-76 -49 -169 -50z" />
    <glyph glyph-name="Aringacute" unicode="&#x1fa;" horiz-adv-x="667" 
d="M443 158h-217l-58 -158h-179l254 689h182l253 -689h-177zM271 302h129l-67 227zM283 994l77 144h148l-118 -148q32 -16 51 -46.5t19 -68.5q0 -53 -37 -90t-91 -37q-53 0 -90 37q-36 37 -36 90q0 40 21 72t56 47zM268 875q0 -28 18.5 -46.5t45.5 -18.5q28 0 47.5 18.5
t19.5 46.5t-19.5 48t-47.5 20q-27 0 -45.5 -19.5t-18.5 -48.5z" />
    <glyph glyph-name="aringacute" unicode="&#x1fb;" horiz-adv-x="608" 
d="M389 466h159v-466h-159v53q-44 -62 -129 -62q-92 0 -159 67q-68 68 -68 176t68 176t159 68q38 0 73.5 -16.5t55.5 -45.5v50zM255 792l77 144h148l-118 -148q32 -16 51 -46.5t19 -68.5q0 -53 -37 -90t-91 -37q-53 0 -90 37q-36 37 -36 90q0 40 21 72t56 47zM223 164
q29 -28 69 -28t68 28q29 29 29 69t-29 68q-28 29 -68 29t-69 -29q-28 -28 -28 -68t28 -69zM240 673q0 -28 18.5 -46.5t45.5 -18.5q28 0 47.5 18.5t19.5 46.5t-19.5 48t-47.5 20q-27 0 -45.5 -19.5t-18.5 -48.5z" />
    <glyph glyph-name="AEacute" unicode="&#x1fc;" horiz-adv-x="936" 
d="M429 484l-96 -188h96v188zM407 689h472v-146h-281v-132h246v-141h-246v-124h289v-146h-457v1l-1 -1v152h-160l-95 -152h-202zM431 749l93 174h148l-138 -174h-103z" />
    <glyph glyph-name="aeacute" unicode="&#x1fd;" horiz-adv-x="985" 
d="M415 549l93 174h148l-138 -174h-103zM958 240q0 -12 -3 -51h-334q4 -31 35 -51t72 -20q56 0 89 39q11 -10 56 -41q42 -29 54 -38q-66 -87 -211 -87q-98 0 -167 60v-51h-159v53q-44 -62 -129 -62q-92 0 -159 67q-68 68 -68 176t68 176t159 68q38 0 73.5 -16.5t55.5 -45.5
v50h159v-47q68 59 167 59q103 0 172 -66q70 -64 70 -172zM224 164q29 -28 69 -28t68 28q29 29 29 69t-29 68q-28 29 -68 29t-69 -29q-28 -28 -28 -68t28 -69zM621 278h186q-12 38 -40 54.5t-53 14.5q-32 0 -58.5 -16.5t-34.5 -52.5z" />
    <glyph glyph-name="Oslashacute" unicode="&#x1fe;" horiz-adv-x="778" 
d="M342 749l93 174h148l-138 -174h-103zM388 158q76 0 130 54q54 56 54 132q0 58 -33 104l-253 -259q46 -31 102 -31zM206 344q0 -60 33 -109l255 261q-44 35 -106 35q-77 0 -129 -55q-53 -55 -53 -132zM170 68l15 15l-96 -98l-47 47l80 82q-85 100 -85 230q0 146 102 250
q104 104 249 104q128 0 223 -81l79 81l47 -46l-80 -82q83 -101 83 -226q0 -147 -103 -250q-102 -103 -249 -103q-123 0 -218 77z" />
    <glyph glyph-name="oslashacute" unicode="&#x1ff;" horiz-adv-x="563" 
d="M215 549l93 174h148l-138 -174h-103zM77 -19l-41 41l53 54q-56 67 -56 158q0 108 72 176q74 68 175 68q86 0 153 -49l51 52l41 -40l-50 -51q55 -65 55 -156q0 -107 -74 -175t-176 -68q-84 0 -148 46zM183 234q0 -29 13 -48l130 133q-24 12 -46 12q-40 0 -68.5 -28.5
t-28.5 -68.5zM280 137q40 0 68.5 28.5t28.5 68.5q0 20 -11 44l-128 -132q20 -9 42 -9z" />
    <glyph glyph-name="Scommaaccent" unicode="&#x218;" horiz-adv-x="586" 
d="M40 205h169q5 -67 85 -67q37 0 61 16.5t24 45.5q0 7 -2 15q-3 8 -21 20.5t-46 21.5l-81 27q-178 48 -180 203q0 93 68 152t173 59q106 0 171 -58q66 -57 66 -157h-167q0 64 -72 64q-34 0 -53.5 -15t-19.5 -40q0 -37 64 -56l79 -25q191 -59 191 -210q0 -72 -41 -122
q-74 -88 -214 -88q-117 0 -185 58q-69 59 -69 156zM252 -302l-72 42q34 46 48 91q13 43 15 113h128q-16 -160 -119 -246z" />
    <glyph glyph-name="scommaaccent" unicode="&#x219;" horiz-adv-x="481" 
d="M244 166l-59 16q-74 20 -114 62q-15 17 -22 37q-8 26 -8 58q0 54 56 96q56 43 134 43q84 0 144 -39t60 -122h-149q0 42 -47 42q-39 0 -39 -26q0 -22 35 -30l83 -23q84 -23 110 -72q20 -36 20 -69q0 -73 -64 -110q-65 -38 -147 -38q-80 0 -142 44q-61 45 -61 121h149
q0 -20 14.5 -34t39.5 -14q21 0 35 8.5t14 22.5q0 10 -8 15t-34 12zM196 -302l-72 42q34 46 48 91q13 43 15 113h128q-16 -160 -119 -246z" />
    <glyph glyph-name="circumflex" unicode="&#x2c6;" horiz-adv-x="585" 
d="M212 557h-107l109 173h156l110 -173h-108l-80 89z" />
    <glyph glyph-name="caron" unicode="&#x2c7;" horiz-adv-x="585" 
d="M480 723l-110 -173h-156l-109 173h107l80 -90l80 90h108z" />
    <glyph glyph-name="breve" unicode="&#x2d8;" horiz-adv-x="520" 
d="M124 696h89q0 -27 10.5 -38.5t36.5 -11.5q45 0 45 50h91q0 -59 -38 -95.5t-98 -36.5q-63 0 -99.5 38t-36.5 94z" />
    <glyph glyph-name="dotaccent" unicode="&#x2d9;" horiz-adv-x="330" 
d="M82 647q0 34 24 57t59 23t59 -23t24 -57q0 -35 -24 -58t-59 -23q-36 0 -59.5 22.5t-23.5 58.5z" />
    <glyph glyph-name="ring" unicode="&#x2da;" horiz-adv-x="574" 
d="M160 673q0 53 36 91q38 38 90 38q53 0 91 -38q37 -37 37 -91q0 -53 -37 -90t-91 -37q-53 0 -90 37q-36 37 -36 90zM222 673q0 -28 18.5 -46.5t45.5 -18.5q28 0 47.5 18.5t19.5 46.5t-19.5 48t-47.5 20q-27 0 -45.5 -19.5t-18.5 -48.5z" />
    <glyph glyph-name="ogonek" unicode="&#x2db;" horiz-adv-x="534" 
d="M292 23l-54 -109q-14 -38 12 -54q22 -13 41 5q15 15 12 44l70 4q2 -60 -29.5 -94.5t-79.5 -34.5q-42 0 -73 31q-31 30 -31 74q0 31 11 51l54 83h67z" />
    <glyph glyph-name="tilde" unicode="&#x2dc;" horiz-adv-x="449" 
d="M181 597q-9 0 -17 -11.5t-9 -31.5h-75q3 63 32 96.5t69 33.5q23 0 50 -21q28 -20 37 -20t17 11t9 30h75q-3 -62 -32 -95t-69 -33q-21 0 -50 20q-28 21 -37 21z" />
    <glyph glyph-name="hungarumlaut" unicode="&#x2dd;" horiz-adv-x="571" 
d="M80 547l93 173h105l-105 -173h-93zM223 547l107 173h108l-115 -173h-100z" />
    <glyph glyph-name="Wgrave" unicode="&#x1e80;" horiz-adv-x="883" 
d="M372 590h139l77 -293l120 392h182l-234 -689h-129l-87 335l-84 -335h-130l-232 689h181l119 -392zM374 749l-138 174h148l93 -174h-103z" />
    <glyph glyph-name="wgrave" unicode="&#x1e81;" horiz-adv-x="759" 
d="M512 209l70 257h170l-160 -466h-135l-78 279l-74 -279h-135l-165 466h170l70 -257l71 257h125zM326 549l-138 174h148l93 -174h-103z" />
    <glyph glyph-name="Wacute" unicode="&#x1e82;" horiz-adv-x="883" 
d="M588 297l120 392h182l-234 -689h-129l-87 335l-84 -335h-130l-232 689h181l119 -392l78 293h139zM396 749l93 174h148l-138 -174h-103z" />
    <glyph glyph-name="wacute" unicode="&#x1e83;" horiz-adv-x="759" 
d="M752 466l-160 -466h-135l-78 279l-74 -279h-135l-165 466h170l70 -257l71 257h125l71 -257l70 257h170zM322 549l93 174h148l-138 -174h-103z" />
    <glyph glyph-name="Wdieresis" unicode="&#x1e84;" horiz-adv-x="883" 
d="M588 297l120 392h182l-234 -689h-129l-87 335l-84 -335h-130l-232 689h181l119 -392l78 293h139zM272 841q0 30 22.5 51t54.5 21q31 0 53 -21t22 -51q0 -31 -21.5 -52t-53.5 -21t-54.5 21t-22.5 52zM460 841q0 30 23 51t55 21q31 0 52.5 -21t21.5 -51q0 -31 -21.5 -52
t-52.5 -21q-32 0 -55 21t-23 52z" />
    <glyph glyph-name="wdieresis" unicode="&#x1e85;" horiz-adv-x="759" 
d="M752 466l-160 -466h-135l-78 279l-74 -279h-135l-165 466h170l70 -257l71 257h125l71 -257l70 257h170zM208 641q0 30 22.5 51t54.5 21q31 0 53 -21t22 -51q0 -31 -21.5 -52t-53.5 -21t-54.5 21t-22.5 52zM396 641q0 30 23 51t55 21q31 0 52.5 -21t21.5 -51
q0 -31 -21.5 -52t-52.5 -21q-32 0 -55 21t-23 52z" />
    <glyph glyph-name="Ygrave" unicode="&#x1ef2;" horiz-adv-x="663" 
d="M415 307v-307h-168v310l-269 379h199l153 -250l156 250h198zM286 749l-138 174h148l93 -174h-103z" />
    <glyph glyph-name="ygrave" unicode="&#x1ef3;" horiz-adv-x="518" 
d="M261 240l87 226h169l-288 -696h-167l117 292l-183 404h174zM219 549l-138 174h148l93 -174h-103z" />
    <glyph glyph-name="thinspace" unicode="&#x2009;" horiz-adv-x="14" 
 />
    <glyph glyph-name="endash" unicode="&#x2013;" horiz-adv-x="654" 
d="M596 307v-135h-538v135h538z" />
    <glyph glyph-name="emdash" unicode="&#x2014;" horiz-adv-x="870" 
d="M812 306v-135h-754v135h754z" />
    <glyph glyph-name="quoteleft" unicode="&#x2018;" horiz-adv-x="266" 
d="M174 729l65 -40q-64 -88 -64 -227h-124q0 91 37 158q38 69 86 109z" />
    <glyph glyph-name="quoteright" unicode="&#x2019;" horiz-adv-x="257" 
d="M100 423l-65 40q64 88 64 227h124q0 -90 -38 -158q-39 -70 -85 -109z" />
    <glyph glyph-name="quotesinglbase" unicode="&#x201a;" horiz-adv-x="260" 
d="M73 -138l-65 40q64 88 64 227h124q0 -90 -38 -158q-39 -70 -85 -109z" />
    <glyph glyph-name="quotedblleft" unicode="&#x201c;" horiz-adv-x="441" 
d="M349 729l65 -40q-64 -88 -64 -227h-124q0 91 37 158q38 69 86 109zM174 729l65 -40q-64 -88 -64 -227h-124q0 91 37 158q38 69 86 109z" />
    <glyph glyph-name="quotedblright" unicode="&#x201d;" horiz-adv-x="432" 
d="M100 423l-65 40q64 88 64 227h124q0 -90 -38 -158q-39 -70 -85 -109zM275 423l-65 40q64 88 64 227h124q0 -90 -38 -158q-39 -70 -85 -109z" />
    <glyph glyph-name="quotedblbase" unicode="&#x201e;" horiz-adv-x="435" 
d="M73 -138l-65 40q64 88 64 227h124q0 -90 -38 -158q-39 -70 -85 -109zM248 -138l-65 40q64 88 64 227h124q0 -90 -38 -158q-39 -70 -85 -109z" />
    <glyph glyph-name="dagger" unicode="&#x2020;" horiz-adv-x="438" 
d="M150 533v156h138v-156h114v-102h-114v-545h-138v545h-114v102h114z" />
    <glyph glyph-name="daggerdbl" unicode="&#x2021;" horiz-adv-x="466" 
d="M164 533v156h138v-156h114v-102h-114v-213h114v-100h-114v-232h-138v232h-114v100h114v213h-114v102h114z" />
    <glyph glyph-name="bullet" unicode="&#x2022;" horiz-adv-x="490" 
d="M81 238q0 67 48 112q47 46 116 46t116 -46q48 -45 48 -112q0 -68 -48 -114q-48 -45 -116 -45t-116 45q-48 46 -48 114z" />
    <glyph glyph-name="ellipsis" unicode="&#x2026;" horiz-adv-x="927" 
d="M49 84q0 39 27.5 65t66.5 26q40 0 68 -26t28 -65t-28 -66t-68 -27q-39 0 -66.5 27t-27.5 66zM369 84q0 39 27.5 65t66.5 26q40 0 68 -26t28 -65t-28 -66t-68 -27q-39 0 -66.5 27t-27.5 66zM689 84q0 39 27.5 65t66.5 26t67 -26t28 -65t-28 -66t-67 -27t-66.5 27t-27.5 66
z" />
    <glyph glyph-name="perthousand" unicode="&#x2030;" horiz-adv-x="1011" 
d="M468 656h95l-330 -656h-94zM171 669q55 0 94 -40q40 -39 40 -94q0 -56 -39 -95q-40 -38 -95 -38t-95 38q-38 40 -38 95t38 95q39 39 95 39zM219 535q0 19 -14.5 33.5t-33.5 14.5q-31 0 -43 -29.5t9 -52.5q23 -21 52.5 -9t29.5 43zM533 258q55 0 94 -39q40 -39 40 -95
t-39 -95q-40 -38 -95 -38t-95 38q-38 40 -38 95t38 95q39 39 95 39zM533 172q-20 0 -33.5 -14t-13.5 -34t13.5 -33.5t33.5 -13.5t34 13.5t14 33.5t-14.5 34t-33.5 14zM843 258q55 0 94 -39q40 -39 40 -95t-39 -95q-40 -38 -95 -38t-95 38q-38 40 -38 95t38 95q39 39 95 39z
M843 172q-20 0 -33.5 -14t-13.5 -34t13.5 -33.5t33.5 -13.5t34 13.5t14 33.5t-14.5 34t-33.5 14z" />
    <glyph glyph-name="guilsinglleft" unicode="&#x2039;" horiz-adv-x="333" 
d="M174 26l-138 207l138 207h119l-138 -207l138 -207h-119z" />
    <glyph glyph-name="guilsinglright" unicode="&#x203a;" horiz-adv-x="333" 
d="M159 440l138 -207l-138 -207h-119l138 207l-138 207h119z" />
    <glyph glyph-name="fraction" unicode="&#x2044;" horiz-adv-x="180" 
d="M-186 -9l452 676h93l-451 -676h-94z" />
    <glyph glyph-name="zerosuperior" unicode="&#x2070;" horiz-adv-x="361" 
d="M31 681q0 203 151 203q148 0 148 -203q0 -201 -148 -201q-151 0 -151 201zM134 681q0 -102 48 -102q44 0 44 102q0 103 -44 103q-48 0 -48 -103z" />
    <glyph glyph-name="foursuperior" unicode="&#x2074;" horiz-adv-x="380" 
d="M141 665h62v122zM308 879v-214h45v-87h-45v-93h-105v93h-197l161 301h141z" />
    <glyph glyph-name="fivesuperior" unicode="&#x2075;" horiz-adv-x="363" 
d="M239 631q0 22 -18 37t-45 15q-56 0 -108 -40l-34 20l30 216h244v-87h-162l-8 -54q32 23 73 23q53 0 90 -36q38 -36 38 -94q0 -65 -47 -109q-46 -43 -125 -43q-39 0 -79 20t-66 52l77 60q37 -40 68 -40q30 0 51 18t21 42z" />
    <glyph glyph-name="sixsuperior" unicode="&#x2076;" horiz-adv-x="362" 
d="M144 613q0 -19 13 -32t35 -13q23 0 36.5 13t13.5 32q0 17 -13.5 29.5t-36.5 12.5q-20 0 -34 -13t-14 -29zM217 737q43 0 83 -30q41 -29 41 -88q0 -62 -41 -100.5t-114 -38.5q-57 0 -96 37.5t-50 100.5q-19 88 16 179q16 41 56 65t93 22q91 -4 127 -77l-78 -40
q-15 31 -52 31q-36 0 -53.5 -29.5t-20.5 -74.5q3 16 27 29.5t62 13.5z" />
    <glyph glyph-name="sevensuperior" unicode="&#x2077;" horiz-adv-x="321" 
d="M58 485l114 301h-152v93h298l-147 -394h-113z" />
    <glyph glyph-name="eightsuperior" unicode="&#x2078;" horiz-adv-x="370" 
d="M238 612q0 19 -14.5 32t-37.5 13q-37 4 -49.5 -26.5t10.5 -53.5q13 -13 39 -13q24 0 38 13.5t14 34.5zM50 778q0 48 40 76q40 30 96 30q55 0 92 -29.5t37 -76.5q0 -24 -11 -46t-28 -28q28 -5 47 -35q21 -31 21 -64q0 -57 -46 -91q-44 -34 -112 -34q-67 0 -113 34t-46 91
q0 35 17.5 63.5t46.5 35.5q-18 9 -29.5 30.5t-11.5 43.5zM145 774q0 -16 11.5 -26.5t29.5 -10.5t29 10.5t11 26.5q0 13 -11.5 23.5t-28.5 10.5q-41 0 -41 -34z" />
    <glyph glyph-name="ninesuperior" unicode="&#x2079;" horiz-adv-x="361" 
d="M222 751q0 19 -13 31.5t-35 12.5q-23 0 -36 -12.5t-13 -31.5q0 -17 13 -29.5t36 -12.5q20 0 34 13t14 29zM149 627q-16 0 -34.5 5.5t-40 17.5t-35.5 37t-14 58q0 62 41 100.5t114 38.5q57 0 96 -37t50 -101q19 -89 -17 -180q-15 -40 -55 -64t-93 -22q-91 4 -127 77l78 39
q14 -30 52 -30q36 0 53.5 29.5t20.5 74.5q-3 -16 -28 -29.5t-61 -13.5z" />
    <glyph glyph-name="zeroinferior" unicode="&#x2080;" horiz-adv-x="361" 
d="M31 6q0 203 151 203q148 0 148 -203q0 -201 -148 -201q-151 0 -151 201zM134 6q0 -102 48 -102q44 0 44 102q0 103 -44 103q-48 0 -48 -103z" />
    <glyph glyph-name="oneinferior" unicode="&#x2081;" horiz-adv-x="242" 
d="M19 37v87l176 91v-405h-106v259z" />
    <glyph glyph-name="twoinferior" unicode="&#x2082;" horiz-adv-x="341" 
d="M28 -190v61l166 187q12 20 3.5 35.5t-30.5 15.5q-35 0 -41 -40l-98 14q20 126 147 126q53 0 93 -35q39 -34 39 -87q-2 -59 -41 -98l-85 -88h128v-91h-281z" />
    <glyph glyph-name="threeinferior" unicode="&#x2083;" horiz-adv-x="338" 
d="M146 -23h-42v74h42q45 0 45 37q0 13 -11.5 22t-32.5 9q-38 0 -60 -25l-55 57q40 58 133 58q54 0 91 -34q38 -34 37 -77q0 -47 -56 -76q70 -25 73 -88q3 -62 -43 -95q-46 -34 -113 -34q-104 0 -137 68l54 54q27 -37 79 -37q29 0 44.5 13t15.5 34q0 18 -18.5 29t-45.5 11z
" />
    <glyph glyph-name="fourinferior" unicode="&#x2084;" horiz-adv-x="379" 
d="M141 -10h62v122zM308 204v-214h45v-87h-45v-93h-105v93h-197l161 301h141z" />
    <glyph glyph-name="fiveinferior" unicode="&#x2085;" horiz-adv-x="362" 
d="M239 -44q0 22 -18 37t-45 15q-56 0 -108 -40l-34 20l30 216h244v-87h-162l-8 -54q32 23 73 23q53 0 90 -36q38 -36 38 -94q0 -64 -47 -108t-125 -44q-39 0 -79 20t-66 52l77 60q33 -37 67 -39.5t53.5 17t19.5 42.5z" />
    <glyph glyph-name="sixinferior" unicode="&#x2086;" horiz-adv-x="361" 
d="M144 -62q0 -20 13 -32.5t35 -12.5q23 0 36.5 13t13.5 32q0 17 -13.5 29.5t-36.5 12.5q-20 0 -34 -13t-14 -29zM217 62q43 0 83 -30q41 -29 41 -88q0 -62 -41 -100.5t-114 -38.5q-57 0 -96 37.5t-50 100.5q-19 88 16 179q16 41 56 65t93 22q91 -4 127 -77l-78 -40
q-15 31 -52 31q-36 0 -53.5 -29.5t-20.5 -74.5q3 16 27 29.5t62 13.5z" />
    <glyph glyph-name="seveninferior" unicode="&#x2087;" horiz-adv-x="322" 
d="M58 -190l114 301h-152v93h298l-147 -394h-113z" />
    <glyph glyph-name="eightinferior" unicode="&#x2088;" horiz-adv-x="370" 
d="M238 -63q0 19 -14.5 32t-37.5 13q-37 4 -49.5 -27t10.5 -52q14 -14 39 -14q24 0 38 13.5t14 34.5zM50 103q0 48 40 76q40 30 96 30q55 0 92 -29.5t37 -76.5q0 -24 -11 -46t-28 -28q28 -5 47 -35q21 -32 21 -64q0 -57 -46 -91q-44 -34 -112 -34q-67 0 -113 34t-46 91
q0 35 17.5 63.5t46.5 35.5q-18 9 -29.5 30.5t-11.5 43.5zM145 99q0 -16 11.5 -26.5t29.5 -10.5t29 10.5t11 26.5q0 13 -11.5 23.5t-28.5 10.5q-41 0 -41 -34z" />
    <glyph glyph-name="nineinferior" unicode="&#x2089;" horiz-adv-x="362" 
d="M223 76q0 19 -13 31.5t-35 12.5q-23 0 -36 -12.5t-13 -31.5q0 -17 13 -29.5t36 -12.5q20 0 34 13t14 29zM150 -48q-16 0 -34.5 5.5t-40 17.5t-35.5 37t-14 58q0 62 41 100.5t114 38.5q57 0 96 -37t50 -101q19 -89 -17 -179q-15 -41 -55 -65t-93 -22q-91 4 -127 77l78 39
q13 -30 52 -30q36 0 53.5 29.5t20.5 74.5q-3 -16 -28 -29.5t-61 -13.5z" />
    <glyph glyph-name="colonmonetary" unicode="&#x20a1;" horiz-adv-x="719" 
d="M206 343q0 -58 23 -102l103 292q-57 -17 -91.5 -69t-34.5 -121zM407 538l-128 -356q23 -20 53 -28l132 367q-42 15 -57 17zM344 -8l-36 -105l-62 22l34 96q-29 7 -57 20l-37 -104l-63 23l43 121q-61 49 -95 122t-34 156q0 150 102 254t252 101l39 107l63 -24l-33 -91
q28 -7 58 -19l35 100l62 -25l-37 -104q62 -41 102 -103l-139 -91q-12 21 -21 33l-120 -336q-16 2 -18 2q51 0 95 26.5t69 71.5l137 -91q-45 -76 -125 -120t-176 -44q-20 0 -38 2z" />
    <glyph glyph-name="lira" unicode="&#x20a4;" horiz-adv-x="702" 
d="M150 133v89h-78v64h78v43h-78v64h78v85q0 99 59 160q60 60 157 60q239 0 239 -241h-158q0 81 -71 81q-30 0 -48 -21.5t-18 -54.5v-69h100v-64h-100v-43h100v-64h-100v-89h167q16 0 22 9.5t6 31.5v50h156v-86q0 -58 -42 -98q-40 -40 -96 -40h-485v133h112z" />
    <glyph glyph-name="uni20A6" unicode="&#x20a6;" horiz-adv-x="770" 
d="M122 0v242h-72v71h72v56h-72v71h72v249h151l206 -371v371h167v-249h74v-71h-74v-56h74v-71h-74v-242h-146l-211 376v-376h-167z" />
    <glyph glyph-name="peseta" unicode="&#x20a7;" horiz-adv-x="761" 
d="M295 230v-230h-167v361h-80v71h80v56h-80v71h80v130h285q157 0 215 -130h95v-71h-76q3 -30 0 -56h76v-71h-94q-25 -61 -81 -96t-135 -35h-118zM405 543h-110v-169h110q47 -2 66.5 41.5t0 87t-66.5 40.5z" />
    <glyph glyph-name="rupee" unicode="&#x20a8;" horiz-adv-x="660" 
d="M216 230h-158v144h253q53 0 70 51h-323v71h322q-18 47 -69 47h-253v146h558v-71h-119q44 -49 55 -122h64v-71h-63q-9 -70 -51 -120t-112 -67l168 -238h-194z" />
    <glyph glyph-name="uni20A9" unicode="&#x20a9;" horiz-adv-x="984" 
d="M938 689l-85 -249h78v-71h-102l-19 -56h121v-71h-145l-82 -242h-129l-87 335l-84 -335h-130l-82 242h-137v71h113l-19 56h-94v71h70l-83 249h181l119 -392l78 293h139l77 -293l120 392h182z" />
    <glyph glyph-name="afii57636" unicode="&#x20aa;" horiz-adv-x="1024" 
d="M720 332v-102h-161v66q0 35 -26 58.5t-68 23.5h-223v-378h-160v542h398q111 0 175.5 -57.5t64.5 -152.5zM304 210v102h161v-66q0 -35 26 -58.5t68 -23.5h223v378h160v-542h-398q-111 0 -175.5 57.5t-64.5 152.5z" />
    <glyph glyph-name="Euro" unicode="&#x20ac;" horiz-adv-x="834" 
d="M41 323h486v-66h-211q22 -51 66.5 -80t100.5 -29q54 0 98 25.5t68 70.5l140 -89q-43 -76 -124 -120t-182 -44q-125 0 -220 74q-95 75 -123 192h-99v66zM320 439h207v-66h-486v66h101q28 114 123 186q94 73 218 73q99 0 179 -42.5t123 -115.5l-141 -89q-51 89 -161 89
q-54 0 -97 -26.5t-66 -74.5z" />
    <glyph glyph-name="uni2113" unicode="&#x2113;" horiz-adv-x="404" 
d="M264 111h75v-111h-129q-154 0 -154 174v349q0 174 154 174q152 0 152 -184v-185q0 -72 -29 -109q-33 -42 -140 -42q0 -13 2 -22.5t8 -20.5t21.5 -17t39.5 -6zM188 526v-240h9q15 0 23 7.5t9 14.5t1 22v197q0 51 -19 51q-16 -3 -19.5 -14t-3.5 -38z" />
    <glyph glyph-name="afii61352" unicode="&#x2116;" horiz-adv-x="977" 
d="M606 689v-689h-146l-211 376v-376h-167v689h151l206 -371v371h167zM801 697q55 0 94 -40q40 -39 40 -94q0 -56 -39 -95q-40 -38 -95 -38t-95 38q-38 40 -38 95t38 95q39 39 95 39zM743 563q0 -25 16.5 -41.5t41.5 -16.5q39 0 54 36t-13 63q-27 28 -63 13t-36 -54z
M928 318h-254v67h254v-67z" />
    <glyph glyph-name="trademark" unicode="&#x2122;" horiz-adv-x="842" 
d="M420 323h-92l35 283h-95v-283h-92v283h-116v83h388l105 -215l103 215h79l44 -366h-93l-23 203l-76 -163h-66l-78 164z" />
    <glyph glyph-name="estimated" unicode="&#x212e;" horiz-adv-x="641" 
d="M602 279h-429v-193q66 -63 152 -63q72 0 120 31t90 96l31 -19q-47 -72 -102.5 -106.5t-138.5 -34.5q-119 0 -195 84q-76 85 -76 206q0 124 75 206q75 84 200 84t198 -85q75 -84 75 -206zM173 312h309v163q-68 62 -153 62q-96 0 -156 -62v-163z" />
    <glyph glyph-name="minus" unicode="&#x2212;" horiz-adv-x="502" 
d="M66 315h370v-110h-370v110z" />
    <glyph glyph-name="notequal" unicode="&#x2260;" horiz-adv-x="596" 
d="M527 267v-102h-267l-50 -103h-70l50 103h-123v102h173l49 102h-222v102h273l44 91h71l-44 -91h116v-102h-166l-51 -102h217z" />
    <glyph glyph-name="lessequal" unicode="&#x2264;" horiz-adv-x="631" 
d="M561 271v-116l-500 192v122l500 191v-115l-353 -138zM562 0h-501v101h501v-101z" />
    <glyph glyph-name="greaterequal" unicode="&#x2265;" horiz-adv-x="631" 
d="M570 469v-122l-500 -192v116l353 136l-353 138v115zM570 0h-501v101h501v-101z" />
    <glyph glyph-name="commaaccent" unicode="&#xf6c3;" horiz-adv-x="330" 
d="M142 -302l-72 42q34 46 48 91q13 43 15 113h128q-16 -160 -119 -246z" />
    <glyph glyph-name="rupiah" unicode="&#xf6dd;" horiz-adv-x="1240" 
d="M851 43v-273h-159v696h150v-67q18 38 56 58.5t82 20.5q92 0 159 -67q68 -68 68 -176q0 -109 -68 -177q-67 -67 -159 -67q-83 0 -129 52zM948 333q-40 0 -68 -30q-29 -31 -29 -70q-2 -39 29 -66.5t68.5 -27.5t67.5 28q23 20 27.5 50t-6 56t-35 44t-54.5 16zM235 230v-230
h-167v689h285q113 0 175 -68q61 -67 61 -162q0 -79 -43 -140q-42 -61 -122 -81l168 -238h-194l-148 230h-15zM345 543h-110v-169h110q47 -2 66.5 41.5t0 87t-66.5 40.5z" />
    <glyph glyph-name="apple" unicode="&#xf8ff;" horiz-adv-x="847" 
d="M80 687h687v-687h-687v687zM426 332l-262 263v-377h81l-74 75v178l255 -253l256 253v-178l-74 -75h84v377zM193 96l-14 36h-15v-53h9v37l13 -37h10l11 37v-37h9v53h-14zM248 132q-25 0 -25 -27q0 -26 25 -26q11 0 17 8t6 18q0 27 -23 27zM248 89q-6 0 -11.5 5.5
t-5.5 10.5q0 6 5 11.5t12 5.5q12 0 12 -17q0 -16 -12 -16zM284 99h-13q0 -20 22 -20t22 17q0 11 -15 14q-16 3 -16 6q0 6 9 6q10 0 10 -6h9q0 16 -19 16t-19 -16q0 -8 16 -15q13 0 13 -5q0 -7 -10 -7q-9 0 -9 10zM315 132v-10h17v-43h8v43h15v10h-40zM398 79l-21 53h-9
l-22 -53h12l4 13h22l3 -13h11zM371 119h3l7 -18h-16zM426 132h-28v-53h9v22h13q9 0 9 -9v-13h13q-3 3 -3 13q0 9 -7 13q7 3 7 11q0 16 -13 16zM420 108h-13v14h13q9 0 9 -6q0 -8 -9 -8zM466 132h-20v-53h20q25 0 25 29q0 24 -25 24zM466 89h-8v33h4q17 0 17 -17q0 -6 -4 -11
t-9 -5zM531 122v10h-37v-53h40v10h-28v12h25v9h-25v12h25zM543 99h-9q0 -20 22 -20t22 17q0 11 -15 14q-17 3 -17 6q0 6 7 6q12 0 12 -6h10q0 16 -19 16q-5 0 -11 -2.5t-9.5 -7t0.5 -10t17 -11.5q12 0 12 -5q0 -7 -9 -7q-13 0 -13 10zM589 79v53h-7v-53h7zM633 86l4 -7h6v29
h-22v-9h12q-4 -10 -12 -10q-6 0 -11 5t-5 11t4.5 11.5t11.5 5.5q9 0 9 -10h13q-5 20 -22 20q-11 0 -18 -8t-7 -19q0 -10 7 -18t18 -8q9 0 12 7zM679 99l-22 33h-8v-53h8v33l22 -33h13v53h-13v-33z" />
    <glyph glyph-name="NULL" horiz-adv-x="0" 
 />
    <glyph glyph-name="CR" horiz-adv-x="333" 
 />
    <glyph glyph-name="published" horiz-adv-x="792" 
d="M366 428v-81h55q23 0 32.5 20.5t0.5 40.5t-31 20h-57zM282 503h142q55 0 86 -32.5t31 -82.5q0 -49 -31 -82t-86 -33h-58v-106h-84v336zM148 93q-101 104 -101 250t101 250q102 104 248 104t248 -104t102 -250q0 -147 -102 -250t-248 -103t-248 103zM204 537
q-79 -79 -79 -194t79 -194q80 -80 192 -80t192 80q79 79 79 194t-79 194q-80 81 -192 81t-192 -81z" />
    <glyph glyph-name="frenchfranc" horiz-adv-x="754" 
d="M507 127v-127h-148v300h-102v-300h-170v689h446v-146h-276v-106h250v-106q16 58 48 86.5t71 28.5q57 0 93 -17l-29 -143q-31 16 -72 16q-57 0 -84 -41.5t-27 -133.5z" />
    <glyph glyph-name="parenleft.case" horiz-adv-x="397" 
d="M34 344q0 198 97 334q98 137 237 137v-116q-45 0 -93 -54q-49 -53 -80 -137q-31 -81 -31 -164q0 -81 31 -161q31 -79 79 -132q48 -51 94 -51v-115q-139 0 -237 131q-97 131 -97 328z" />
    <glyph glyph-name="parenright.case" horiz-adv-x="397" 
d="M363 344q0 -197 -97 -328q-98 -131 -237 -131v115q47 0 93 51q47 50 79 132t32 161q0 80 -32 164q-32 86 -79 137q-48 54 -93 54v116q138 0 236 -137t98 -334z" />
    <glyph glyph-name="hyphen.case" horiz-adv-x="471" 
d="M413 428v-135h-355v135h355z" />
    <glyph glyph-name="at.case" horiz-adv-x="963" 
d="M577 224v125q0 47 -33 79q-32 33 -78 33q-45 0 -78 -33q-33 -32 -33 -79q0 -44 33 -77t78 -33q43 0 71 16v-98q-25 -13 -71 -13q-86 0 -147 60q-60 60 -60 145q0 87 60 147q61 60 147 60t145 -58q60 -57 63 -139v-140q0 -29 16.5 -45t39.5 -16q59 0 81 75q19 66 19 129
q0 139 -104 232q-103 94 -250 94q-141 0 -239 -101q-97 -100 -97 -243t97 -240q98 -98 239 -98h61v-97h-61q-182 0 -307 126q-125 127 -125 309q0 183 125 311q126 129 307 129q118 3 223 -53t167.5 -155t60.5 -214q0 -102 -43 -192q-22 -47 -63 -75.5t-91 -28.5
q-69 0 -111 39.5t-42 118.5z" />
    <glyph glyph-name="bracketleft.case" horiz-adv-x="342" 
d="M311 -112h-243v919h243v-108h-114v-700h114v-111z" />
    <glyph glyph-name="bracketright.case" horiz-adv-x="342" 
d="M31 699v108h243v-919h-243v111h114v700h-114z" />
    <glyph glyph-name="braceleft.case" horiz-adv-x="414" 
d="M27 305v85q25 0 43 16.5t18 44.5v154q-1 90 58 146q61 56 146 56h93v-108h-80q-44 0 -66 -27.5t-22 -73.5v-136q0 -49 -30 -79q-28 -30 -61 -36q32 -5 61 -35q30 -30 30 -79v-136q0 -46 22 -73.5t66 -27.5h80v-108h-93q-85 0 -146 56q-59 56 -58 146v154q0 28 -18 44.5
t-43 16.5z" />
    <glyph glyph-name="braceright.case" horiz-adv-x="414" 
d="M387 390v-85q-25 0 -43 -16.5t-18 -44.5v-154q2 -90 -59 -146q-59 -56 -145 -56h-93v108h80q44 0 66 27.5t22 73.5v136q0 48 29 79q30 30 62 35q-32 6 -62 36q-29 31 -29 79v136q0 46 -22 73.5t-66 27.5h-80v108h93q86 0 145 -56q61 -56 59 -146v-154q0 -28 18 -44.5
t43 -16.5z" />
    <glyph glyph-name="exclamdown.case" horiz-adv-x="295" 
d="M231 0h-167l18 458h131zM52 606q0 39 27.5 66t66.5 27q40 0 68 -27t28 -66t-28 -65t-68 -26q-39 0 -66.5 26t-27.5 65z" />
    <glyph glyph-name="guillemotleft.case" horiz-adv-x="550" 
d="M183 144l-138 207l138 207h119l-138 -207l138 -207h-119zM378 144l-138 207l138 207h119l-138 -207l138 -207h-119z" />
    <glyph glyph-name="periodcentered.case" horiz-adv-x="289" 
d="M50 332q0 39 27.5 65t66.5 26t67 -26t28 -65t-28 -65.5t-67 -26.5q-40 0 -67 26t-27 66z" />
    <glyph glyph-name="guillemotright.case" horiz-adv-x="550" 
d="M367 558l138 -207l-138 -207h-119l138 207l-138 207h119zM172 558l138 -207l-138 -207h-119l138 207l-138 207h119z" />
    <glyph glyph-name="questiondown.case" horiz-adv-x="496" 
d="M216 459h143v-12q0 -65 -15 -105q-19 -50 -89 -80l-37 -16q-34 -13 -34 -50q0 -26 17.5 -40t48.5 -14q27 0 45.5 18.5t18.5 45.5h144q0 -103 -56.5 -159t-154.5 -56q-94 0 -153 53q-58 52 -58 142q0 70 33.5 118.5t94.5 70.5q30 11 41 29.5t11 54.5zM380 605
q0 -39 -27.5 -65t-66.5 -26q-40 0 -68 26t-28 65t28 66t68 27q39 0 66.5 -27t27.5 -66z" />
    <glyph glyph-name="endash.case" horiz-adv-x="656" 
d="M597 417v-135h-538v135h538z" />
    <glyph glyph-name="emdash.case" horiz-adv-x="872" 
d="M813 417v-135h-754v135h754z" />
    <glyph glyph-name="bullet.case" horiz-adv-x="472" 
d="M72 344q0 67 48 112q47 46 116 46t116 -46q48 -45 48 -112q0 -68 -48 -114q-48 -45 -116 -45t-116 45q-48 46 -48 114z" />
    <glyph glyph-name="guilsinglleft.case" horiz-adv-x="355" 
d="M183 144l-138 207l138 207h119l-138 -207l138 -207h-119z" />
    <glyph glyph-name="guilsinglright.case" horiz-adv-x="355" 
d="M172 558l138 -207l-138 -207h-119l138 207l-138 207h119z" />
    <glyph glyph-name="cent.case" horiz-adv-x="542" 
d="M245 581v118h77v-115q110 -11 179 -113l-130 -78q-28 46 -82 46q-40 0 -68.5 -28.5t-28.5 -68.5t28.5 -68.5t68.5 -28.5q50 0 80 43l133 -74q-70 -102 -180 -113v-110h-77v113q-91 15 -149 79q-59 65 -59 159q0 93 59 158q58 64 149 81z" />
    <glyph glyph-name="zero.tnum" 
d="M203 327q0 -84 22.5 -133t66.5 -49q85 0 85 182q0 184 -85 184q-44 0 -66.5 -49.5t-22.5 -134.5zM43 327q0 339 249 339q140 0 194 -99q51 -91 51 -240q0 -336 -245 -336q-249 0 -249 336z" />
    <glyph glyph-name="one.tnum" 
d="M128 394v137l278 140v-671h-163v446z" />
    <glyph glyph-name="two.tnum" 
d="M302 144h213v-144h-461v90l271 314q30 34 30 60q0 23 -17.5 38t-51.5 15q-38 0 -57 -22t-26 -67l-144 22q16 102 78.5 159t160.5 57q88 0 153 -57q64 -57 64 -145t-68 -164z" />
    <glyph glyph-name="three.tnum" 
d="M258 278h-67v123h67q47 0 60 32q9 23 9 41q0 16 -18 37q-16 22 -50 22q-50 0 -89 -41l-94 77q31 48 87.5 74.5t122.5 22.5q88 -5 144 -59q57 -54 55 -126q0 -80 -86 -127q54 -20 84.5 -62t30.5 -96q0 -94 -74 -150q-74 -54 -179 -54q-72 0 -128.5 32t-83.5 89l102 90
q13 -30 42 -51t68 -21q45 0 70 21.5t25 53.5q0 31 -26 51.5t-72 20.5z" />
    <glyph glyph-name="four.tnum" 
d="M479 283h78v-131h-78v-152h-162v152h-323l283 504h202v-373zM317 283v219l-117 -219h117z" />
    <glyph glyph-name="five.tnum" 
d="M388 239q0 42 -30 67t-79 25q-93 0 -162 -70l-69 39l52 356h398v-139h-272l-14 -89q52 36 121 36q89 0 151 -62t62 -163q0 -108 -77 -179q-76 -70 -203 -70q-68 0 -132 34q-65 35 -106 91l124 90q54 -64 114 -64q52 0 86 31q36 32 36 67z" />
    <glyph glyph-name="six.tnum" 
d="M338 421q62 0 129 -44q34 -22 55 -65.5t21 -96.5q0 -99 -66 -162q-67 -62 -185 -62q-94 0 -161 62q-66 63 -79 167q-9 50 -7 103t9 103.5t28.5 94.5t51.5 77t79 51.5t110 16.5q74 -3 125 -32t83 -96l-130 -62q-24 51 -83 51q-70 0 -98 -64q-24 -58 -24 -115q7 27 45.5 50
t96.5 23zM219 212q0 -34 23 -56.5t59 -22.5t60 23t24 56q0 31 -23.5 53.5t-60.5 22.5q-34 0 -58 -23t-24 -53z" />
    <glyph glyph-name="seven.tnum" 
d="M314 511h-259v145h496l-262 -656h-180z" />
    <glyph glyph-name="eight.tnum" 
d="M194 220q0 -37 27 -61.5t69 -24.5t68.5 24.5t26.5 61.5q0 34 -26 59t-64 25h-8q-40 0 -66.5 -24.5t-26.5 -59.5zM73 487q0 77 64 128q65 51 153 51q87 0 149 -51q61 -49 61 -128q0 -38 -16 -72t-42 -46q44 -13 75 -63q31 -49 31 -102q0 -94 -75 -154q-76 -59 -183 -59
t-184 59q-75 60 -75 154q0 57 27.5 102.5t74.5 62.5q-27 17 -43.5 50.5t-16.5 67.5zM223 481q0 -26 18.5 -43t48.5 -17q29 0 47 17t18 43q0 23 -17.5 40.5t-43.5 17.5h-6q-27 0 -46 -17t-19 -41z" />
    <glyph glyph-name="nine.tnum" 
d="M243 236q-62 0 -129 44q-34 22 -55 65.5t-21 96.5q0 100 66 161q66 63 185 63q95 0 160 -62q66 -62 80 -167q9 -50 7 -103t-9 -103.5t-28.5 -94.5t-51.5 -77t-79 -51.5t-110 -16.5q-74 3 -125 32t-83 96l130 62q24 -51 83 -51q71 0 97 64q25 57 25 115q-7 -27 -45.5 -50
t-96.5 -23zM362 445q0 34 -23 56.5t-59 22.5t-60 -23t-24 -56q0 -31 23.5 -53.5t60.5 -22.5q34 0 58 23t24 53z" />
    <glyph glyph-name="zero.taboldstyle" 
d="M290 -9q-102 0 -177 72t-75 184q0 115 75 185q76 71 177 71q103 0 177 -71t74 -185q0 -112 -74 -184q-73 -72 -177 -72zM290 131q42 0 76 33t34 83q0 52 -34 83q-35 32 -76 32q-42 0 -76 -32q-33 -32 -33 -83q0 -50 33 -83t76 -33z" />
    <glyph glyph-name="one.taboldstyle" 
d="M140 376l266 138v-514h-142v303l-124 -58v131z" />
    <glyph glyph-name="two.taboldstyle" 
d="M317 132h180v-132h-418v73l233 224q22 21 22 41q0 15 -14 25.5t-37 10.5q-49 0 -57 -56l-145 15q26 170 198 170q95 0 154 -44q58 -43 58 -105q0 -41 -13 -66.5t-51 -58.5z" />
    <glyph glyph-name="six.taboldstyle" 
d="M338 421q62 0 129 -44q34 -22 55 -65.5t21 -96.5q0 -99 -66 -162q-67 -62 -185 -62q-94 0 -161 62q-66 63 -79 167q-9 50 -7 103t9 103.5t28.5 94.5t51.5 77t79 51.5t110 16.5q74 -3 125 -32t83 -96l-130 -62q-24 51 -83 51q-70 0 -98 -64q-24 -58 -24 -115q7 27 45.5 50
t96.5 23zM219 212q0 -34 23 -56.5t59 -22.5t60 23t24 56q0 31 -23.5 53.5t-60.5 22.5q-34 0 -58 -23t-24 -53z" />
    <glyph glyph-name="eight.taboldstyle" 
d="M195 220q0 -37 27 -61.5t69 -24.5t68.5 24.5t26.5 61.5q0 34 -26 59t-64 25h-8q-40 0 -66.5 -24.5t-26.5 -59.5zM74 487q0 77 64 128t153 51q87 0 149 -51q61 -49 61 -128q0 -38 -16 -72t-42 -46q43 -13 75 -63q31 -49 31 -102q0 -94 -75 -154q-76 -59 -183 -59t-184 59
q-75 60 -75 154q0 57 27.5 102.5t74.5 62.5q-27 17 -43.5 50.5t-16.5 67.5zM224 481q0 -26 18.5 -43t48.5 -17q29 0 47 17t18 43q0 23 -18 40.5t-43 17.5h-6q-27 0 -46 -17t-19 -41z" />
    <glyph glyph-name="three.taboldstyle" 
d="M261 89h-67v123h67q47 0 60 32q9 23 9 41q0 16 -18 37q-16 22 -50 22q-50 0 -89 -41l-94 77q31 48 87.5 74.5t122.5 22.5q88 -5 144 -59q57 -54 55 -126q0 -80 -86 -127q54 -20 84.5 -62t30.5 -96q0 -95 -74 -149q-73 -55 -179 -55q-72 0 -128.5 32t-83.5 89l102 90
q13 -30 42 -51t68 -21q45 0 70 21.5t25 53.5q0 31 -26 51.5t-72 20.5z" />
    <glyph glyph-name="four.taboldstyle" 
d="M482 93h78v-131h-78v-152h-162v152h-323l283 504h202v-373zM320 93v219l-117 -219h117z" />
    <glyph glyph-name="five.taboldstyle" 
d="M389 49q0 42 -30 67t-79 25q-93 0 -162 -70l-69 39l52 356h398v-139h-272l-14 -89q53 36 121 36q89 0 151 -62t62 -163q0 -107 -77 -178t-203 -71q-67 0 -132 35q-66 35 -106 90l124 90q54 -64 114 -64q52 0 86 31q36 32 36 67z" />
    <glyph glyph-name="seven.taboldstyle" 
d="M316 321h-259v145h496l-262 -656h-180z" />
    <glyph glyph-name="nine.taboldstyle" 
d="M245 48q-62 0 -129 44q-34 22 -55 65.5t-21 96.5q0 100 66 161q66 63 185 63q95 0 160 -62q66 -62 80 -167q9 -50 7 -103t-9 -103.5t-28.5 -94.5t-51.5 -77t-79 -51.5t-110 -16.5q-74 3 -125 32t-83 96l130 62q24 -51 83 -51q71 0 97 64q25 57 25 115q-7 -27 -45.5 -50
t-96.5 -23zM364 257q0 34 -23 56.5t-59 22.5t-60 -23t-24 -56q0 -31 23.5 -53.5t60.5 -22.5q34 0 58 23t24 53z" />
    <glyph glyph-name="zero.oldstyle" horiz-adv-x="592" 
d="M296 -9q-102 0 -177 72t-75 184q0 115 75 185q76 71 177 71q103 0 177 -71t74 -185q0 -112 -74 -184q-73 -72 -177 -72zM296 131q42 0 76 33t34 83q0 52 -34 83q-35 32 -76 32q-42 0 -76 -32q-33 -32 -33 -83q0 -50 33 -83t76 -33z" />
    <glyph glyph-name="one.oldstyle" horiz-adv-x="376" 
d="M38 376l266 138v-514h-142v303l-124 -58v131z" />
    <glyph glyph-name="two.oldstyle" horiz-adv-x="520" 
d="M287 132h180v-132h-418v73l233 224q22 21 22 41q0 15 -14 25.5t-37 10.5q-49 0 -57 -56l-145 15q26 170 198 170q95 0 154 -44q58 -43 58 -105q0 -41 -13 -66.5t-51 -58.5z" />
    <glyph glyph-name="three.oldstyle" horiz-adv-x="528" 
d="M235 89h-67v123h67q47 0 60 32q9 23 9 41q0 16 -18 37q-16 22 -50 22q-50 0 -89 -41l-94 77q31 48 87.5 74.5t122.5 22.5q88 -5 144 -59q57 -54 55 -126q0 -80 -86 -127q54 -20 84.5 -62t30.5 -96q0 -95 -74 -149q-73 -55 -179 -55q-72 0 -128.5 32t-83.5 89l102 90
q13 -30 42 -51t68 -21q45 0 70 21.5t25 53.5q0 31 -26 51.5t-72 20.5z" />
    <glyph glyph-name="four.oldstyle" horiz-adv-x="612" 
d="M498 93h78v-131h-78v-152h-162v152h-323l283 504h202v-373zM336 93v219l-117 -219h117z" />
    <glyph glyph-name="five.oldstyle" horiz-adv-x="586" 
d="M392 49q0 42 -30 67t-79 25q-93 0 -162 -70l-69 39l52 356h398v-139h-272l-14 -89q52 36 121 36q89 0 151 -62t62 -163q0 -107 -77 -178t-203 -71q-67 0 -132 35q-66 35 -106 90l124 90q54 -64 114 -64q52 0 86 31q36 32 36 67z" />
    <glyph glyph-name="six.oldstyle" horiz-adv-x="598" 
d="M347 421q62 0 129 -44q34 -22 55 -65.5t21 -96.5q0 -99 -66 -162q-67 -62 -185 -62q-94 0 -161 62q-66 63 -79 167q-9 50 -7 103t9 103.5t28.5 94.5t51.5 77t79 51.5t110 16.5q74 -3 125 -32t83 -96l-130 -62q-24 51 -83 51q-70 0 -98 -64q-24 -58 -24 -115q7 27 45.5 50
t96.5 23zM228 212q0 -34 23 -56.5t59 -22.5t60 23t24 56q0 31 -23.5 53.5t-60.5 22.5q-34 0 -58 -23t-24 -53z" />
    <glyph glyph-name="seven.oldstyle" horiz-adv-x="527" 
d="M290 321h-259v145h496l-262 -656h-180z" />
    <glyph glyph-name="eight.oldstyle" horiz-adv-x="611" 
d="M210 220q0 -37 27 -61.5t69 -24.5t68.5 24.5t26.5 61.5q0 34 -26 59t-64 25h-8q-40 0 -66.5 -24.5t-26.5 -59.5zM89 487q0 77 64 128q65 51 153 51t149 -51q61 -49 61 -128q0 -38 -16 -72t-42 -46q44 -13 75 -63q31 -49 31 -102q0 -94 -75 -154q-76 -59 -183 -59t-184 59
q-75 60 -75 154q0 57 27.5 102.5t74.5 62.5q-27 17 -43.5 50.5t-16.5 67.5zM239 481q0 -26 18.5 -43t48.5 -17q29 0 47 17t18 43q0 23 -17.5 40.5t-43.5 17.5h-6q-27 0 -46 -17t-19 -41z" />
    <glyph glyph-name="nine.oldstyle" horiz-adv-x="579" 
d="M245 48q-62 0 -129 44q-34 22 -55 65.5t-21 96.5q0 100 66 161q66 63 185 63q95 0 160 -62q66 -62 80 -167q9 -50 7 -103t-9 -103.5t-28.5 -94.5t-51.5 -77t-79 -51.5t-110 -16.5q-74 3 -125 32t-83 96l130 62q24 -51 83 -51q71 0 97 64q25 57 25 115q-7 -27 -45.5 -50
t-96.5 -23zM364 257q0 34 -23 56.5t-59 22.5t-60 -23t-24 -56q0 -31 23.5 -53.5t60.5 -22.5q34 0 58 23t24 53z" />
    <glyph glyph-name="Lslash.sc" horiz-adv-x="455" 
d="M235 132h208v-132h-362v214l-64 -39v86l64 39v290h154v-195l86 55v-86l-86 -56v-176z" />
    <glyph glyph-name="Zcaron.sc" horiz-adv-x="536" 
d="M348 788h98l-96 -153h-140l-96 153h98l68 -76zM43 0v110l244 348h-233v132h433v-111l-249 -347h249v-132h-444z" />
    <glyph glyph-name="exclam.sc" horiz-adv-x="305" 
d="M213 204h-120l-15 386h149zM67 77q0 35 24 58t60 23t61 -23t25 -58q0 -36 -25 -60t-61 -24q-34 0 -59 24.5t-25 59.5z" />
    <glyph glyph-name="ampersand.sc" horiz-adv-x="622" 
d="M357 234v2h-81q-39 0 -56 -32q-12 -26 5.5 -49t57.5 -23q8 0 18 3.5t24 12.5t23 31.5t9 54.5zM231 -8q-84 0 -132.5 46.5t-48.5 123.5q0 51 26.5 88t68.5 52q-34 11 -58.5 49.5t-24.5 84.5q0 65 50 109q49 44 132 52q54 4 102 -16t82 -57l-106 -91q-16 25 -43 25
q-26 0 -41.5 -14.5t-15.5 -31.5q0 -54 65 -54h70v58h132v-64h75v-105h-75v-63q0 -86 37 -86q18 0 57 27v-105q-59 -27 -103 -27q-80 0 -100 71q-21 -33 -65 -53q-42 -19 -84 -19z" />
    <glyph glyph-name="question.sc" horiz-adv-x="437" 
d="M245 206h-126v30q0 84 76 126l21 12q23 12 34.5 22.5t13 15.5t1.5 14q0 38 -49 38q-24 0 -39.5 -14.5t-14.5 -37.5l-128 2q1 89 49.5 137.5t131.5 48.5q82 0 132 -45.5t50 -122.5q0 -60 -28.5 -102t-80.5 -61q-24 -9 -34 -23.5t-9 -39.5zM99 77q0 35 24 58t60 23t61 -23
t25 -58q0 -36 -25 -60t-61 -24q-35 0 -59.5 24t-24.5 60z" />
    <glyph glyph-name="A.sc" horiz-adv-x="600" 
d="M598 0h-160l-49 133h-177l-48 -133h-162l216 590h164zM355 264l-56 186l-50 -186h106z" />
    <glyph glyph-name="B.sc" horiz-adv-x="571" 
d="M499 433q0 -37 -18.5 -70.5t-56.5 -47.5q50 -12 78 -54q28 -41 28 -87q0 -73 -46 -123q-47 -51 -151 -51h-260v590h243q84 0 133.5 -43t49.5 -114zM225 458v-93h68q21 0 33.5 11.5t12.5 31.5q0 50 -43 50h-71zM305 241h-80v-109h80q30 0 47 15.5t17 39.5q0 23 -16.5 38.5
t-47.5 15.5z" />
    <glyph glyph-name="C.sc" horiz-adv-x="623" 
d="M469 216l125 -86q-45 -65 -111 -102t-142 -37q-124 0 -213 89t-89 213q0 126 89 215t213 89q77 0 144.5 -37t109.5 -101l-128 -88q-19 31 -53.5 51t-72.5 20q-61 0 -105 -44q-43 -43 -43 -105t43 -105t105 -43q81 0 128 71z" />
    <glyph glyph-name="D.sc" horiz-adv-x="619" 
d="M308 0h-235v590h235q124 0 196 -84q72 -82 72 -213q0 -129 -72 -211t-196 -82zM308 456h-83v-322h83q55 0 86 46t31 113q0 68 -31 115q-32 48 -86 48z" />
    <glyph glyph-name="E.sc" horiz-adv-x="516" 
d="M224 132h243v-132h-394v590h386v-132h-235v-102h207v-130h-207v-94z" />
    <glyph glyph-name="F.sc" horiz-adv-x="481" 
d="M409 225h-183v-225h-153v590h383v-132h-230v-102h183v-131z" />
    <glyph glyph-name="G.sc" horiz-adv-x="662" 
d="M577 488l-112 -95q-48 63 -122 63q-63 0 -107 -48q-44 -47 -44 -115q0 -66 44 -116q43 -49 107 -49q100 0 124 77h-160v113h328q0 -161 -77 -244t-215 -83q-128 0 -216 88t-88 214q0 127 88 215q89 89 216 89q71 0 132.5 -29t101.5 -80z" />
    <glyph glyph-name="H.sc" horiz-adv-x="617" 
d="M224 590v-229h166v229h154v-590h-154v225h-166v-225h-151v590h151z" />
    <glyph glyph-name="I.sc" horiz-adv-x="297" 
d="M224 0h-151v590h151v-590z" />
    <glyph glyph-name="J.sc" horiz-adv-x="299" 
d="M-74 -189l13 136q30 -10 86 -10q48 0 48 62v591h153v-591q0 -94 -51 -149.5t-150 -55.5q-53 0 -99 17z" />
    <glyph glyph-name="K.sc" horiz-adv-x="565" 
d="M523 590l-222 -291l276 -299h-209l-144 169v-169h-151v590h151v-157l107 157h192z" />
    <glyph glyph-name="L.sc" horiz-adv-x="446" 
d="M226 132h208v-132h-361v590h153v-458z" />
    <glyph glyph-name="M.sc" horiz-adv-x="797" 
d="M239 590l161 -347l157 347h127l72 -590h-157l-33 299l-110 -231h-114l-110 231l-35 -299h-156l72 590h126z" />
    <glyph glyph-name="N.sc" horiz-adv-x="598" 
d="M209 590l164 -299v299h152v-590h-132l-169 302v-302h-151v590h136z" />
    <glyph glyph-name="O.sc" horiz-adv-x="680" 
d="M192 293q0 -63 43 -106q44 -44 105 -44t105 44t44 106t-44 106q-43 45 -105 45q-61 0 -105 -44q-43 -43 -43 -107zM39 293q0 127 88 215q89 89 213 89q126 0 213 -89q88 -88 88 -215q0 -126 -88 -214q-87 -88 -213 -88q-125 0 -213 88t-88 214z" />
    <glyph glyph-name="P.sc" horiz-adv-x="547" 
d="M309 458h-85v-134h87q58 0 58 67t-60 67zM318 194h-94v-194h-151v590h245q99 0 152 -59t53 -140q0 -80 -53 -139q-52 -58 -152 -58z" />
    <glyph glyph-name="Q.sc" horiz-adv-x="688" 
d="M528 54l54 -92l-107 -63l-61 101q-32 -7 -71 -7q-128 0 -216 88t-88 214q0 127 88 215q89 89 216 89t216 -89t89 -215q0 -69 -32.5 -133.5t-87.5 -107.5zM295 203l105 61l50 -82q45 45 45 113q0 67 -45 114q-44 48 -107 48q-64 0 -108 -47q-43 -46 -43 -115
q0 -62 39 -105t103 -54z" />
    <glyph glyph-name="R.sc" horiz-adv-x="568" 
d="M311 458h-87v-134h88q58 0 58 67t-59 67zM229 194h-5v-194h-151v590h245q99 0 152 -59t53 -140q0 -67 -36.5 -119t-101.5 -70l143 -202h-174z" />
    <glyph glyph-name="S.sc" horiz-adv-x="520" 
d="M41 178h153q4 -54 66 -54q31 0 49 11t18 31q0 28 -55 47l-68 24q-80 25 -117.5 72.5t-37.5 103.5q0 83 58 132q59 51 150 51q92 0 148.5 -50.5t56.5 -137.5h-151q0 51 -56 51q-26 0 -41 -11t-15 -30q0 -26 51 -42l66 -21q88 -28 129 -74q17 -18 24 -42q12 -31 12 -65
q0 -48 -20 -85t-53.5 -57.5t-71 -30.5t-76.5 -10q-100 0 -159.5 50t-59.5 137z" />
    <glyph glyph-name="T.sc" horiz-adv-x="480" 
d="M315 0h-150v458h-150v132h450v-132h-150v-458z" />
    <glyph glyph-name="U.sc" horiz-adv-x="603" 
d="M301 -9q-95 0 -165 62q-69 63 -69 162v373h151v-373q0 -34 25 -58t58 -24q34 0 58.5 23.5t24.5 58.5v373h152v-373q0 -101 -69 -162q-70 -62 -166 -62z" />
    <glyph glyph-name="V.sc" horiz-adv-x="525" 
d="M509 590l-181 -590h-132l-180 590h158l88 -342l87 342h160z" />
    <glyph glyph-name="W.sc" horiz-adv-x="776" 
d="M264 275l61 230h126l61 -231l96 316h165l-201 -590h-115l-70 271l-67 -271h-117l-199 590h163z" />
    <glyph glyph-name="X.sc" horiz-adv-x="603" 
d="M207 590l94 -156l95 156h182l-186 -276l203 -314h-179l-115 192l-115 -192h-178l202 314l-185 276h182z" />
    <glyph glyph-name="Y.sc" horiz-adv-x="592" 
d="M372 261v-261h-152v264l-231 326h181l125 -208l129 208h177z" />
    <glyph glyph-name="Z.sc" horiz-adv-x="536" 
d="M43 0v110l244 348h-233v132h433v-111l-249 -347h249v-132h-444z" />
    <glyph glyph-name="Scaron.sc" horiz-adv-x="520" 
d="M328 788h98l-96 -153h-140l-95 153h97l68 -76zM41 178h153q4 -54 66 -54q31 0 49 11t18 31q0 28 -55 47l-68 24q-80 25 -117.5 72.5t-37.5 103.5q0 83 58 132q59 51 150 51q92 0 148.5 -50.5t56.5 -137.5h-151q0 51 -56 51q-26 0 -41 -11t-15 -30q0 -26 51 -42l66 -21
q88 -28 129 -74q17 -18 24 -42q12 -31 12 -65q0 -48 -20 -85t-53.5 -57.5t-71 -30.5t-76.5 -10q-100 0 -159.5 50t-59.5 137z" />
    <glyph glyph-name="OE.sc" horiz-adv-x="934" 
d="M340 143q62 0 106 44t44 106q0 63 -44 107t-106 44t-105 -45q-43 -43 -43 -106t43 -106q44 -44 105 -44zM641 132h244v-132h-395v28q-71 -37 -150 -37q-125 0 -213 88t-88 214q0 127 88 215q89 89 213 89q75 0 150 -39v32h387v-132h-236v-102h208v-130h-208v-94z" />
    <glyph glyph-name="Ydieresis.sc" horiz-adv-x="592" 
d="M147 711q0 28 20 47t49 19q28 0 47 -19t19 -47q0 -27 -19 -45.5t-47 -18.5t-48.5 19t-20.5 45zM310 711q0 28 20 47t49 19q28 0 47 -19t19 -47q0 -26 -19 -45t-47 -19t-48.5 19t-20.5 45zM372 261v-261h-152v264l-231 326h181l125 -208l129 208h177z" />
    <glyph glyph-name="exclamdown.sc" horiz-adv-x="303" 
d="M226 0h-149l15 386h120zM66 513q0 35 25 59.5t59 24.5q36 0 61 -24t25 -60q0 -35 -25 -58t-61 -23t-60 23t-24 58z" />
    <glyph glyph-name="questiondown.sc" horiz-adv-x="437" 
d="M191 385h126v-30q0 -84 -76 -126l-21 -12q-23 -12 -34.5 -22.5t-13 -15.5t-1.5 -14q0 -38 49 -38q24 0 39.5 14.5t14.5 37.5l128 -2q-1 -89 -49.5 -137.5t-131.5 -48.5q-82 0 -132 45.5t-50 122.5q0 60 28.5 102t80.5 61q24 9 34 23.5t9 39.5zM337 514q0 -35 -24 -58
t-60 -23t-61 23t-25 58q0 36 25 60t61 24q35 0 59.5 -24t24.5 -60z" />
    <glyph glyph-name="Agrave.sc" horiz-adv-x="600" 
d="M366 633h-91l-118 155h133zM598 0h-160l-49 133h-177l-48 -133h-162l216 590h164zM355 264l-56 186l-50 -186h106z" />
    <glyph glyph-name="Aacute.sc" horiz-adv-x="600" 
d="M228 633l76 155h134l-118 -155h-92zM598 0h-160l-49 133h-177l-48 -133h-162l216 590h164zM355 264l-56 186l-50 -186h106z" />
    <glyph glyph-name="Acircumflex.sc" horiz-adv-x="600" 
d="M300 717l-68 -76h-98l96 152h140l96 -152h-99zM598 0h-160l-49 133h-177l-48 -133h-162l216 590h164zM355 264l-56 186l-50 -186h106z" />
    <glyph glyph-name="Atilde.sc" horiz-adv-x="600" 
d="M598 0h-160l-49 133h-177l-48 -133h-162l216 590h164zM355 264l-56 186l-50 -186h106zM358 748h68q-3 -57 -28 -86.5t-60 -29.5q-17 0 -41 18q-23 18 -33 18q-3 0 -7.5 -3t-9 -11.5t-4.5 -21.5h-67q3 57 28 86.5t60 29.5q18 0 40 -18q24 -18 34 -18q3 0 7 3t8.5 11.5
t4.5 21.5z" />
    <glyph glyph-name="Adieresis.sc" horiz-adv-x="600" 
d="M154 711q0 28 20 47t48 19t47.5 -19t19.5 -47q0 -26 -19.5 -45t-47.5 -19t-48 19t-20 45zM316 711q0 28 20.5 47t49.5 19q28 0 46.5 -19t18.5 -47q0 -27 -18.5 -45.5t-46.5 -18.5q-29 0 -49.5 19t-20.5 45zM598 0h-160l-49 133h-177l-48 -133h-162l216 590h164zM355 264
l-56 186l-50 -186h106z" />
    <glyph glyph-name="Aring.sc" horiz-adv-x="600" 
d="M192 742q0 47 31 78q32 32 75 32q46 0 77.5 -32t31.5 -78q0 -45 -31.5 -76.5t-77.5 -31.5q-44 0 -75 31.5t-31 76.5zM298 688q24 0 40 15t16 39t-16.5 40t-39.5 16q-22 0 -37 -16t-15 -40t15 -39t37 -15zM598 0h-160l-49 133h-177l-48 -133h-162l216 590h164zM355 264
l-56 186l-50 -186h106z" />
    <glyph glyph-name="AE.sc" horiz-adv-x="826" 
d="M254 127l-80 -127h-184l363 590h417v-132h-236v-102h206v-128h-206v-96h243v-132h-396v127h-127zM381 403l-76 -148h76v148z" />
    <glyph glyph-name="Ccedilla.sc" horiz-adv-x="625" 
d="M470 216l125 -86q-40 -60 -99 -96t-128 -42q33 -35 33 -77q0 -41 -27.5 -66.5t-70.5 -25.5t-67.5 33.5t-23.5 81.5l63 -3q-5 -37 18 -48q16 -6 30.5 3.5t14.5 29.5q0 43 -44 75q-107 16 -181 101q-73 85 -73 197q0 126 89 215t213 89q77 0 144.5 -37t109.5 -101l-128 -88
q-19 31 -53.5 51t-72.5 20q-61 0 -105 -44q-43 -43 -43 -105t43 -105t105 -43q81 0 128 71z" />
    <glyph glyph-name="Egrave.sc" horiz-adv-x="516" 
d="M327 633h-92l-118 155h134zM224 132h243v-132h-394v590h386v-132h-235v-102h207v-130h-207v-94z" />
    <glyph glyph-name="Eacute.sc" horiz-adv-x="516" 
d="M467 0h-394v590h386v-132h-235v-102h207v-130h-207v-94h243v-132zM265 788h134l-118 -155h-92z" />
    <glyph glyph-name="Ecircumflex.sc" horiz-adv-x="516" 
d="M253 716l-68 -75h-97l95 152h140l97 -152h-99zM224 132h243v-132h-394v590h386v-132h-235v-102h207v-130h-207v-94z" />
    <glyph glyph-name="Edieresis.sc" horiz-adv-x="516" 
d="M467 0h-394v590h386v-132h-235v-102h207v-130h-207v-94h243v-132zM109 711q0 28 20 47t48 19t47.5 -19t19.5 -47q0 -26 -19.5 -45t-47.5 -19t-48 19t-20 45zM271 711q0 28 20.5 47t49.5 19q28 0 46.5 -19t18.5 -47q0 -27 -19 -45.5t-46 -18.5q-29 0 -49.5 19t-20.5 45z
" />
    <glyph glyph-name="Igrave.sc" horiz-adv-x="297" 
d="M227 633h-92l-118 155h133zM224 0h-151v590h151v-590z" />
    <glyph glyph-name="Iacute.sc" horiz-adv-x="297" 
d="M72 628l75 158h133l-117 -158h-91zM224 0h-151v590h151v-590z" />
    <glyph glyph-name="Icircumflex.sc" horiz-adv-x="297" 
d="M147 716l-68 -75h-97l95 152h140l96 -152h-98zM224 0h-151v590h151v-590z" />
    <glyph glyph-name="Idieresis.sc" horiz-adv-x="297" 
d="M0 711q0 28 20 47t48 19q29 0 48 -19t19 -47q0 -27 -19 -45.5t-48 -18.5q-28 0 -48 19t-20 45zM163 711q0 28 20 47t49 19q28 0 47 -19t19 -47q0 -26 -19 -45t-47 -19t-48.5 19t-20.5 45zM224 0h-151v590h151v-590z" />
    <glyph glyph-name="Eth.sc" horiz-adv-x="633" 
d="M322 0h-235v238h-80v93h80v259h235q124 0 196 -84q72 -82 72 -213q0 -129 -72 -211t-196 -82zM239 331h86v-93h-86v-104h83q55 0 86 46t31 113q0 68 -31 115q-31 48 -86 48h-83v-125z" />
    <glyph glyph-name="Ntilde.sc" horiz-adv-x="598" 
d="M209 590l164 -299v299h152v-590h-132l-169 302v-302h-151v590h136zM357 748h68q-3 -57 -28 -86.5t-60 -29.5q-17 0 -41 18q-22 18 -33 18q-3 0 -7.5 -3t-9 -11.5t-4.5 -21.5h-67q3 57 28 86.5t60 29.5q17 0 40 -18q24 -18 34 -18q3 0 7 3t8.5 11.5t4.5 21.5z" />
    <glyph glyph-name="Ograve.sc" horiz-adv-x="680" 
d="M388 633h-92l-118 155h134zM192 293q0 -63 43 -106q44 -44 105 -44t105 44t44 106t-44 106q-43 45 -105 45q-61 0 -105 -44q-43 -43 -43 -107zM39 293q0 127 88 215q89 89 213 89q126 0 213 -89q88 -88 88 -215q0 -126 -88 -214q-87 -88 -213 -88q-125 0 -213 88t-88 214
z" />
    <glyph glyph-name="Oacute.sc" horiz-adv-x="680" 
d="M278 633l78 155h133l-118 -155h-93zM192 293q0 -63 43 -106q44 -44 105 -44t105 44t44 106t-44 106q-43 45 -105 45q-61 0 -105 -44q-43 -43 -43 -107zM39 293q0 127 88 215q89 89 213 89q126 0 213 -89q88 -88 88 -215q0 -126 -88 -214q-87 -88 -213 -88q-125 0 -213 88
t-88 214z" />
    <glyph glyph-name="Ocircumflex.sc" horiz-adv-x="680" 
d="M340 716l-68 -75h-98l96 152h139l97 -152h-99zM192 293q0 -63 43 -106q44 -44 105 -44t105 44t44 106t-44 106q-43 45 -105 45q-61 0 -105 -44q-43 -43 -43 -107zM39 293q0 127 88 215q89 89 213 89q126 0 213 -89q88 -88 88 -215q0 -126 -88 -214q-87 -88 -213 -88
q-125 0 -213 88t-88 214z" />
    <glyph glyph-name="Otilde.sc" horiz-adv-x="680" 
d="M192 293q0 -63 43 -106q44 -44 105 -44t105 44t44 106t-44 106q-43 45 -105 45q-61 0 -105 -44q-43 -43 -43 -107zM39 293q0 127 88 215q89 89 213 89q126 0 213 -89q88 -88 88 -215q0 -126 -88 -214q-87 -88 -213 -88q-125 0 -213 88t-88 214zM398 748h68
q-3 -57 -28 -86.5t-60 -29.5q-17 0 -41 18q-23 18 -33 18q-3 0 -7.5 -3t-9 -11.5t-4.5 -21.5h-67q3 57 28 86.5t60 29.5q17 0 40 -18q24 -18 34 -18q3 0 7 3t8.5 11.5t4.5 21.5z" />
    <glyph glyph-name="Odieresis.sc" horiz-adv-x="680" 
d="M190 711q0 28 20 47t48 19t47.5 -19t19.5 -47q0 -26 -19.5 -45t-47.5 -19t-48 19t-20 45zM353 711q0 28 20 47t49 19q28 0 47 -19t19 -47q0 -26 -19 -45t-47 -19q-29 0 -49 19t-20 45zM192 293q0 -63 43 -106q44 -44 105 -44t105 44t44 106t-44 106q-43 45 -105 45
q-61 0 -105 -44q-43 -43 -43 -107zM39 293q0 127 88 215q89 89 213 89q126 0 213 -89q88 -88 88 -215q0 -126 -88 -214q-87 -88 -213 -88q-125 0 -213 88t-88 214z" />
    <glyph glyph-name="Oslash.sc" horiz-adv-x="680" 
d="M340 -9q-102 0 -185 65l-69 -71l-43 44l68 69q-72 86 -72 195q0 127 88 215q89 89 213 89q104 0 190 -68l67 68l42 -42l-68 -70q70 -85 70 -192q0 -126 -88 -214q-87 -88 -213 -88zM192 293q0 -45 24 -86l208 212q-35 26 -84 26q-62 0 -105 -45q-43 -43 -43 -107z
M340 142q61 0 105 44q44 46 44 107q0 44 -25 81l-204 -207q38 -25 80 -25z" />
    <glyph glyph-name="Ugrave.sc" horiz-adv-x="603" 
d="M363 633h-91l-119 155h133zM301 -9q-95 0 -165 62q-69 63 -69 162v373h151v-373q0 -34 25 -58t58 -24q34 0 58.5 23.5t24.5 58.5v373h152v-373q0 -101 -69 -162q-70 -62 -166 -62z" />
    <glyph glyph-name="Uacute.sc" horiz-adv-x="603" 
d="M247 633l76 155h134l-118 -155h-92zM301 -9q-95 0 -165 62q-69 63 -69 162v373h151v-373q0 -34 25 -58t58 -24q34 0 58.5 23.5t24.5 58.5v373h152v-373q0 -101 -69 -162q-70 -62 -166 -62z" />
    <glyph glyph-name="Ucircumflex.sc" horiz-adv-x="603" 
d="M301 716l-68 -75h-97l95 152h140l96 -152h-99zM301 -9q-95 0 -165 62q-69 63 -69 162v373h151v-373q0 -34 25 -58t58 -24q34 0 58.5 23.5t24.5 58.5v373h152v-373q0 -101 -69 -162q-70 -62 -166 -62z" />
    <glyph glyph-name="Udieresis.sc" horiz-adv-x="603" 
d="M153 711q0 28 20 47t48 19t47.5 -19t19.5 -47q0 -26 -19.5 -45t-47.5 -19t-48 19t-20 45zM315 711q0 28 20.5 47t49.5 19q28 0 46.5 -19t18.5 -47q0 -27 -19 -45.5t-46 -18.5q-29 0 -49.5 19t-20.5 45zM301 -9q-95 0 -165 62q-69 63 -69 162v373h151v-373q0 -34 25 -58
t58 -24q34 0 58.5 23.5t24.5 58.5v373h152v-373q0 -101 -69 -162q-70 -62 -166 -62z" />
    <glyph glyph-name="Yacute.sc" horiz-adv-x="592" 
d="M236 633l77 155h133l-118 -155h-92zM372 261v-261h-152v264l-231 326h181l125 -208l129 208h177z" />
    <glyph glyph-name="Thorn.sc" horiz-adv-x="508" 
d="M336 296q0 35 -17 55t-48 20h-47v-148h55q26 0 41.5 21t15.5 52zM287 98h-63v-98h-151v590h151v-94h63q84 0 139 -55q57 -54 57 -143q0 -88 -57 -144q-56 -56 -139 -56z" />
    <glyph glyph-name="Amacron.sc" horiz-adv-x="600" 
d="M174 733h252v-79h-252v79zM598 0h-160l-49 133h-177l-48 -133h-162l216 590h164zM355 264l-56 186l-50 -186h106z" />
    <glyph glyph-name="Abreve.sc" horiz-adv-x="600" 
d="M182 762h80q0 -22 8 -32t29 -10q36 0 36 42h82q0 -52 -33 -84.5t-85 -32.5q-54 0 -85.5 34t-31.5 83zM598 0h-160l-49 133h-177l-48 -133h-162l216 590h164zM355 264l-56 186l-50 -186h106z" />
    <glyph glyph-name="Cacute.sc" horiz-adv-x="623" 
d="M594 130q-45 -65 -111 -102t-142 -37q-124 0 -213 89t-89 213q0 126 89 215t213 89q77 0 144.5 -37t109.5 -101l-128 -88q-19 31 -53.5 51t-72.5 20q-61 0 -105 -44q-43 -43 -43 -105t43 -105t105 -43q81 0 128 71zM283 633l76 155h134l-118 -155h-92z" />
    <glyph glyph-name="Ccircumflex.sc" horiz-adv-x="623" 
d="M340 743l-68 -76h-97l95 152h140l96 -152h-99zM469 216l125 -86q-45 -65 -111 -102t-142 -37q-124 0 -213 89t-89 213q0 126 89 215t213 89q77 0 144.5 -37t109.5 -101l-128 -88q-19 31 -53.5 51t-72.5 20q-61 0 -105 -44q-43 -43 -43 -105t43 -105t105 -43q81 0 128 71z
" />
    <glyph glyph-name="Cdotaccent.sc" horiz-adv-x="623" 
d="M594 130q-45 -65 -111 -102t-142 -37q-124 0 -213 89t-89 213q0 126 89 215t213 89q77 0 144.5 -37t109.5 -101l-128 -88q-19 31 -53.5 51t-72.5 20q-61 0 -105 -44q-43 -43 -43 -105t43 -105t105 -43q81 0 128 71zM266 717q0 31 21.5 51.5t53.5 20.5q31 0 52.5 -20.5
t21.5 -51.5q0 -32 -21.5 -52.5t-52.5 -20.5q-32 0 -53.5 20.5t-21.5 52.5z" />
    <glyph glyph-name="Ccaron.sc" horiz-adv-x="623" 
d="M414 813h99l-96 -152h-140l-96 152h98l68 -75zM469 216l125 -86q-45 -65 -111 -102t-142 -37q-124 0 -213 89t-89 213q0 126 89 215t213 89q77 0 144.5 -37t109.5 -101l-128 -88q-19 31 -53.5 51t-72.5 20q-61 0 -105 -44q-43 -43 -43 -105t43 -105t105 -43q81 0 128 71z
" />
    <glyph glyph-name="Dcaron.sc" horiz-adv-x="618" 
d="M370 788h98l-96 -153h-139l-96 153h98l67 -77zM307 0h-234v589h234q124 0 196 -84q72 -82 72 -212q0 -129 -72 -211t-196 -82zM307 456h-83v-323h83q56 0 87 46t31 114q0 65 -32 114q-31 49 -86 49z" />
    <glyph glyph-name="Aogonek.sc" horiz-adv-x="600" 
d="M218 590h164l216 -590q-47 -39 -47 -80q0 -20 14.5 -29.5t30.5 -3.5q22 11 18 48l63 3q1 -50 -22.5 -82.5t-68.5 -32.5q-43 0 -70.5 25.5t-27.5 66.5q0 45 35 80l5 5h-90l-49 133h-177l-48 -133h-162zM355 264l-56 186l-50 -186h106z" />
    <glyph glyph-name="Emacron.sc" horiz-adv-x="516" 
d="M127 733h252v-79h-252v79zM224 132h243v-132h-394v590h386v-132h-235v-102h207v-130h-207v-94z" />
    <glyph glyph-name="Ebreve.sc" horiz-adv-x="516" 
d="M467 0h-394v590h386v-132h-235v-102h207v-130h-207v-94h243v-132zM142 762h80q0 -22 8 -32t29 -10q36 0 36 42h82q0 -52 -33 -84.5t-85 -32.5q-54 0 -85.5 34t-31.5 83z" />
    <glyph glyph-name="Edotaccent.sc" horiz-adv-x="516" 
d="M467 0h-394v590h386v-132h-235v-102h207v-130h-207v-94h243v-132zM185 717q0 31 21.5 51.5t53.5 20.5q31 0 52.5 -20.5t21.5 -51.5q0 -32 -21.5 -52.5t-52.5 -20.5q-32 0 -53.5 20.5t-21.5 52.5z" />
    <glyph glyph-name="Ecaron.sc" horiz-adv-x="516" 
d="M321 788h99l-97 -153h-140l-95 153h97l68 -77zM224 132h243v-132h-394v590h386v-132h-235v-102h207v-130h-207v-94z" />
    <glyph glyph-name="Gcircumflex.sc" horiz-adv-x="662" 
d="M577 488l-112 -95q-48 63 -122 63q-63 0 -107 -48q-44 -47 -44 -115q0 -66 44 -116q43 -49 107 -49q100 0 124 77h-160v113h328q0 -161 -77 -244t-215 -83q-128 0 -216 88t-88 214q0 127 88 215q89 89 216 89q71 0 132.5 -29t101.5 -80zM343 743l-68 -76h-97l95 152h140
l96 -152h-99z" />
    <glyph glyph-name="Gbreve.sc" horiz-adv-x="662" 
d="M226 762h81q0 -23 8 -32.5t29 -9.5q35 0 35 42h83q0 -52 -33 -84.5t-85 -32.5q-54 0 -86 34t-32 83zM577 488l-112 -95q-48 63 -122 63q-63 0 -107 -48q-44 -47 -44 -115q0 -66 44 -116q43 -49 107 -49q100 0 124 77h-160v113h328q0 -161 -77 -244t-215 -83
q-128 0 -216 88t-88 214q0 127 88 215q89 89 216 89q71 0 132.5 -29t101.5 -80z" />
    <glyph glyph-name="Eogonek.sc" horiz-adv-x="516" 
d="M467 132v-132q-47 -39 -47 -80q0 -20 14.5 -29.5t30.5 -3.5q23 11 18 48l63 3q1 -50 -22 -82.5t-69 -32.5q-43 0 -70.5 25.5t-27.5 66.5q0 45 40 85h-324v590h386v-132h-235v-102h207v-130h-207v-94h243z" />
    <glyph glyph-name="Dcroat.sc" horiz-adv-x="633" 
d="M322 0h-235v238h-80v93h80v259h235q124 0 196 -84q72 -82 72 -213q0 -129 -72 -211t-196 -82zM239 331h86v-93h-86v-104h83q55 0 86 46t31 113q0 68 -31 115q-31 48 -86 48h-83v-125z" />
    <glyph glyph-name="Gdotaccent.sc" horiz-adv-x="662" 
d="M273 717q0 31 21.5 51.5t52.5 20.5q32 0 53 -20.5t21 -51.5q0 -32 -21 -52.5t-53 -20.5q-31 0 -52.5 20.5t-21.5 52.5zM577 488l-112 -95q-48 63 -122 63q-63 0 -107 -48q-44 -47 -44 -115q0 -66 44 -116q43 -49 107 -49q100 0 124 77h-160v113h328q0 -161 -77 -244
t-215 -83q-128 0 -216 88t-88 214q0 127 88 215q89 89 216 89q71 0 132.5 -29t101.5 -80z" />
    <glyph glyph-name="Hcircumflex.sc" horiz-adv-x="617" 
d="M308 717l-68 -76h-97l95 152h140l96 -152h-99zM224 590v-229h166v229h154v-590h-154v225h-166v-225h-151v590h151z" />
    <glyph glyph-name="Hbar.sc" horiz-adv-x="631" 
d="M231 226v-226h-152v432h-62v74h62v84h152v-84h166v84h154v-84h63v-74h-63v-432h-154v226h-166zM397 361v71h-166v-71h166z" />
    <glyph glyph-name="Itilde.sc" horiz-adv-x="297" 
d="M224 0h-151v590h151v-590zM202 748h68q-3 -57 -28 -86.5t-60 -29.5q-17 0 -41 18q-23 18 -33 18q-3 0 -7.5 -3t-9 -11.5t-4.5 -21.5h-67q3 57 28 86.5t60 29.5q18 0 40 -18q24 -18 34 -18q3 0 7 3t8.5 11.5t4.5 21.5z" />
    <glyph glyph-name="Imacron.sc" horiz-adv-x="297" 
d="M23 733h252v-79h-252v79zM224 0h-151v590h151v-590z" />
    <glyph glyph-name="Iogonek.sc" horiz-adv-x="297" 
d="M73 590h151v-590q-47 -39 -47 -80q0 -20 14.5 -29.5t30.5 -3.5q22 11 18 48l63 3q1 -115 -91 -115q-43 0 -70.5 25.5t-27.5 66.5q0 45 40 85h-81v590z" />
    <glyph glyph-name="IJ.sc" horiz-adv-x="596" 
d="M223 -189l13 136q30 -10 86 -10q48 0 48 62v591h153v-591q0 -94 -51 -149.5t-150 -55.5q-53 0 -99 17zM224 0h-151v590h151v-590z" />
    <glyph glyph-name="Jcircumflex.sc" horiz-adv-x="299" 
d="M147 716l-67 -75h-98l96 152h139l96 -152h-98zM-74 -189l13 136q30 -10 86 -10q48 0 48 62v591h153v-591q0 -94 -51 -149.5t-150 -55.5q-53 0 -99 17z" />
    <glyph glyph-name="Lacute.sc" horiz-adv-x="446" 
d="M434 0h-361v590h153v-458h208v-132zM73 633l78 155h133l-118 -155h-93z" />
    <glyph glyph-name="Lcaron.sc" horiz-adv-x="476" 
d="M226 132h208v-132h-361v590h153v-458zM277 435l78 155h133l-118 -155h-93z" />
    <glyph glyph-name="Ldot.sc" horiz-adv-x="453" 
d="M226 132h208v-132h-361v590h153v-458zM284 285q0 31 21.5 51.5t53.5 20.5q31 0 52.5 -20.5t21.5 -51.5q0 -32 -21.5 -52.5t-52.5 -20.5q-32 0 -53.5 20.5t-21.5 52.5z" />
    <glyph glyph-name="Nacute.sc" horiz-adv-x="598" 
d="M373 590h152v-590h-132l-169 302v-302h-151v590h136l164 -299v299zM218 633l76 155h134l-118 -155h-92z" />
    <glyph glyph-name="Ncaron.sc" horiz-adv-x="598" 
d="M367 788h99l-97 -153h-139l-96 153h98l67 -77zM209 590l164 -299v299h152v-590h-132l-169 302v-302h-151v590h136z" />
    <glyph glyph-name="Omacron.sc" horiz-adv-x="680" 
d="M214 733h251v-79h-251v79zM192 293q0 -63 43 -106q44 -44 105 -44t105 44t44 106t-44 106q-43 45 -105 45q-61 0 -105 -44q-43 -43 -43 -107zM39 293q0 127 88 215q89 89 213 89q126 0 213 -89q88 -88 88 -215q0 -126 -88 -214q-87 -88 -213 -88q-125 0 -213 88t-88 214z
" />
    <glyph glyph-name="Obreve.sc" horiz-adv-x="680" 
d="M221 762h80q0 -22 8.5 -32t29.5 -10q36 0 36 42h83q0 -51 -34 -84t-85 -33q-54 0 -86 34t-32 83zM192 293q0 -63 43 -106q44 -44 105 -44t105 44t44 106t-44 106q-43 45 -105 45q-61 0 -105 -44q-43 -43 -43 -107zM39 293q0 127 88 215q89 89 213 89q126 0 213 -89
q88 -88 88 -215q0 -126 -88 -214q-87 -88 -213 -88q-125 0 -213 88t-88 214z" />
    <glyph glyph-name="Ohungarumlaut.sc" horiz-adv-x="680" 
d="M449 631h-88l88 154h96zM322 631h-82l76 154h92zM192 293q0 -63 43 -106q44 -44 105 -44t105 44t44 106t-44 106q-43 45 -105 45q-61 0 -105 -44q-43 -43 -43 -107zM39 293q0 127 88 215q89 89 213 89q126 0 213 -89q88 -88 88 -215q0 -126 -88 -214q-87 -88 -213 -88
q-125 0 -213 88t-88 214z" />
    <glyph glyph-name="Racute.sc" horiz-adv-x="568" 
d="M192 633l76 155h133l-117 -155h-92zM224 458v-134h88q58 0 58 67t-59 67h-87zM224 0h-151v590h245q99 0 152 -59t53 -140q0 -67 -36.5 -119t-101.5 -70l143 -202h-174l-125 194h-5v-194z" />
    <glyph glyph-name="Rcaron.sc" horiz-adv-x="568" 
d="M344 788h99l-97 -153h-140l-94 153h96l69 -76zM311 458h-87v-134h88q58 0 58 67t-59 67zM229 194h-5v-194h-151v590h245q99 0 152 -59t53 -140q0 -67 -36.5 -119t-101.5 -70l143 -202h-174z" />
    <glyph glyph-name="Sacute.sc" horiz-adv-x="520" 
d="M194 178q4 -54 66 -54q31 0 49 11t18 31q0 28 -55 47l-68 24q-80 25 -117.5 72.5t-37.5 103.5q0 83 58 132q59 51 150 51q92 0 148.5 -50.5t56.5 -137.5h-151q0 51 -56 51q-26 0 -41 -11t-15 -30q0 -26 51 -42l66 -21q132 -45 153 -116q12 -31 12 -65q0 -48 -20 -85
t-53.5 -57.5t-71 -30.5t-76.5 -10q-100 0 -159.5 50t-59.5 137h153zM203 633l76 155h133l-117 -155h-92z" />
    <glyph glyph-name="Scircumflex.sc" horiz-adv-x="520" 
d="M260 717l-68 -76h-98l96 152h140l96 -152h-98zM41 178h153q4 -54 66 -54q31 0 49 11t18 31q0 28 -55 47l-68 24q-80 25 -117.5 72.5t-37.5 103.5q0 83 58 132q59 51 150 51q92 0 148.5 -50.5t56.5 -137.5h-151q0 51 -56 51q-26 0 -41 -11t-15 -30q0 -26 51 -42l66 -21
q88 -28 129 -74q17 -18 24 -42q12 -31 12 -65q0 -48 -20 -85t-53.5 -57.5t-71 -30.5t-76.5 -10q-100 0 -159.5 50t-59.5 137z" />
    <glyph glyph-name="Scedilla.sc" horiz-adv-x="522" 
d="M42 178h153q5 -54 66 -54q31 0 49 11t18 31q0 28 -55 47l-68 24q-80 25 -117.5 72.5t-37.5 103.5q0 83 58 132q58 51 150 51t148.5 -50.5t56.5 -137.5h-151q0 51 -56 51q-26 0 -41 -11t-15 -30q0 -26 51 -42l66 -21q88 -28 129 -74q16 -18 24 -42q12 -31 12 -65
q0 -79 -51 -124t-123 -55q35 -37 35 -80q0 -41 -27.5 -66.5t-70.5 -25.5t-67.5 33.5t-23.5 81.5l63 -3q-5 -37 18 -48q16 -6 30.5 3.5t14.5 29.5q0 40 -39 72q-92 5 -145.5 54.5t-53.5 131.5z" />
    <glyph glyph-name="Utilde.sc" horiz-adv-x="603" 
d="M301 -9q-95 0 -165 62q-69 63 -69 162v373h151v-373q0 -34 25 -58t58 -24q34 0 58.5 23.5t24.5 58.5v373h152v-373q0 -101 -69 -162q-70 -62 -166 -62zM352 748h68q-3 -57 -28 -86.5t-60 -29.5q-17 0 -41 18q-23 18 -33 18q-3 0 -7.5 -3t-9 -11.5t-4.5 -21.5h-67
q3 57 28 86.5t60 29.5q18 0 40 -18q24 -18 34 -18q3 0 7 3t8.5 11.5t4.5 21.5z" />
    <glyph glyph-name="Umacron.sc" horiz-adv-x="603" 
d="M177 733h251v-79h-251v79zM301 -9q-95 0 -165 62q-69 63 -69 162v373h151v-373q0 -34 25 -58t58 -24q34 0 58.5 23.5t24.5 58.5v373h152v-373q0 -101 -69 -162q-70 -62 -166 -62z" />
    <glyph glyph-name="Ubreve.sc" horiz-adv-x="603" 
d="M184 762h81q0 -22 8 -32t29 -10q35 0 35 42h83q0 -51 -33.5 -84t-84.5 -33q-54 0 -86 33.5t-32 83.5zM301 -9q-95 0 -165 62q-69 63 -69 162v373h151v-373q0 -34 25 -58t58 -24q34 0 58.5 23.5t24.5 58.5v373h152v-373q0 -101 -69 -162q-70 -62 -166 -62z" />
    <glyph glyph-name="Uring.sc" horiz-adv-x="603" 
d="M301 -9q-95 0 -165 62q-69 63 -69 162v373h151v-373q0 -34 25 -58t58 -24q34 0 58.5 23.5t24.5 58.5v373h152v-373q0 -101 -69 -162q-70 -62 -166 -62zM195 742q0 47 31 78q32 32 75 32q46 0 77.5 -32t31.5 -78q0 -45 -31.5 -76.5t-77.5 -31.5q-44 0 -75 31.5t-31 76.5z
M301 688q24 0 40 15t16 39t-16.5 40t-39.5 16q-22 0 -37 -16t-15 -40t15 -39t37 -15z" />
    <glyph glyph-name="Uhungarumlaut.sc" horiz-adv-x="603" 
d="M301 -9q-95 0 -165 62q-69 63 -69 162v373h151v-373q0 -34 25 -58t58 -24q34 0 58.5 23.5t24.5 58.5v373h152v-373q0 -101 -69 -162q-70 -62 -166 -62zM393 631h-88l88 154h96zM266 631h-82l76 154h92z" />
    <glyph glyph-name="Uogonek.sc" horiz-adv-x="603" 
d="M328 -7q-39 -32 -39 -73q0 -20 14.5 -29.5t30.5 -3.5q22 11 18 48l63 3q1 -50 -22 -82.5t-69 -32.5q-43 0 -70.5 25.5t-27.5 66.5q0 45 34 79q-83 14 -138 73t-55 148v373h151v-373q0 -34 25 -58t58 -24q34 0 58.5 23.5t24.5 58.5v373h152v-373q0 -91 -60 -153
q-60 -60 -148 -69z" />
    <glyph glyph-name="Wcircumflex.sc" horiz-adv-x="776" 
d="M388 717l-68 -76h-97l94 152h141l96 -152h-99zM264 275l61 230h126l61 -231l96 316h165l-201 -590h-115l-70 271l-67 -271h-117l-199 590h163z" />
    <glyph glyph-name="Ycircumflex.sc" horiz-adv-x="592" 
d="M295 717l-68 -76h-97l95 152h140l96 -152h-99zM372 261v-261h-152v264l-231 326h181l125 -208l129 208h177z" />
    <glyph glyph-name="Tcaron.sc" horiz-adv-x="480" 
d="M303 788h99l-97 -153h-140l-95 153h97l68 -77zM315 0h-150v458h-150v132h450v-132h-150v-458z" />
    <glyph glyph-name="Tbar.sc" horiz-adv-x="482" 
d="M166 0v235h-104v83h104v140h-150v132h450v-132h-150v-140h100v-83h-100v-235h-150z" />
    <glyph glyph-name="Zacute.sc" horiz-adv-x="536" 
d="M43 0v110l244 348h-233v132h433v-111l-249 -347h249v-132h-444zM215 633l76 155h135l-118 -155h-93z" />
    <glyph glyph-name="Zdotaccent.sc" horiz-adv-x="536" 
d="M43 0v110l244 348h-233v132h433v-111l-249 -347h249v-132h-444zM186 717q0 31 21.5 51.5t53.5 20.5q31 0 52.5 -20.5t21.5 -51.5q0 -32 -21.5 -52.5t-52.5 -20.5q-32 0 -53.5 20.5t-21.5 52.5z" />
    <glyph glyph-name="Wgrave.sc" horiz-adv-x="776" 
d="M429 633h-92l-118 155h133zM264 275l61 230h126l61 -231l96 316h165l-201 -590h-115l-70 271l-67 -271h-117l-199 590h163z" />
    <glyph glyph-name="Wacute.sc" horiz-adv-x="776" 
d="M451 505l61 -231l96 316h165l-201 -590h-115l-70 271l-67 -271h-117l-199 590h163l97 -315l61 230h126zM424 788h133l-118 -155h-92z" />
    <glyph glyph-name="Wdieresis.sc" horiz-adv-x="776" 
d="M451 505l61 -231l96 316h165l-201 -590h-115l-70 271l-67 -271h-117l-199 590h163l97 -315l61 230h126zM237 711q0 28 20 47t48 19t47.5 -19t19.5 -47q0 -26 -19.5 -45t-47.5 -19t-48 19t-20 45zM399 711q0 28 20.5 47t49.5 19q28 0 46.5 -19t18.5 -47q0 -27 -19 -45.5
t-46 -18.5q-29 0 -49.5 19t-20.5 45z" />
    <glyph glyph-name="Aringacute.sc" horiz-adv-x="600" 
d="M598 0h-160l-49 133h-177l-48 -133h-162l216 590h164zM315 971h134l-102 -131q60 -32 60 -98q0 -45 -31.5 -76.5t-77.5 -31.5q-44 0 -75 31.5t-31 76.5q0 68 59 99zM355 264l-56 186l-50 -186h106zM298 688q24 0 40 15t16 39t-16.5 40t-39.5 16q-22 0 -37 -16t-15 -40
t15 -39t37 -15z" />
    <glyph glyph-name="AEacute.sc" horiz-adv-x="826" 
d="M363 633l76 155h133l-117 -155h-92zM-10 0l363 590h417v-132h-236v-102h206v-128h-206v-96h243v-132h-396v127h-127l-80 -127h-184zM381 255v148l-76 -148h76z" />
    <glyph glyph-name="Oslashacute.sc" horiz-adv-x="680" 
d="M297 633l76 155h134l-118 -155h-92zM340 -9q-102 0 -185 65l-69 -71l-43 44l68 69q-72 86 -72 195q0 127 88 215q89 89 213 89q104 0 190 -68l67 68l42 -42l-68 -70q70 -85 70 -192q0 -126 -88 -214q-87 -88 -213 -88zM192 293q0 -45 24 -86l208 212q-35 26 -84 26
q-62 0 -105 -45q-43 -43 -43 -107zM340 142q61 0 105 44q44 46 44 107q0 44 -25 81l-204 -207q38 -25 80 -25z" />
    <glyph glyph-name="Ibreve.sc" horiz-adv-x="297" 
d="M32 762h81q0 -23 8 -32.5t29 -9.5q35 0 35 42h83q0 -51 -33.5 -84t-84.5 -33q-54 0 -86 33.5t-32 83.5zM224 0h-151v590h151v-590z" />
    <glyph glyph-name="Eng.sc" horiz-adv-x="597" 
d="M380 10l-156 294v-304h-151v590h135l165 -310v310h151v-592q0 -94 -51 -149.5t-150 -55.5q-53 0 -99 17l13 134q30 -10 86 -10q26 0 41.5 21.5t15.5 54.5z" />
    <glyph glyph-name="Ygrave.sc" horiz-adv-x="592" 
d="M344 633h-91l-119 155h133zM372 261v-261h-152v264l-231 326h181l125 -208l129 208h177z" />
    <glyph glyph-name="Gcommaaccent.sc" horiz-adv-x="662" 
d="M291 -266l-68 42q61 85 61 166h118q0 -114 -111 -208zM577 488l-112 -95q-48 63 -122 63q-63 0 -107 -48q-44 -47 -44 -115q0 -66 44 -116q43 -49 107 -49q100 0 124 77h-160v113h328q0 -161 -77 -244t-215 -83q-128 0 -216 88t-88 214q0 127 88 215q89 89 216 89
q71 0 132.5 -29t101.5 -80z" />
    <glyph glyph-name="Kcommaaccent.sc" horiz-adv-x="565" 
d="M523 590l-222 -291l276 -299h-209l-144 169v-169h-151v590h151v-157l107 157h192zM241 -266l-68 42q61 85 61 166h118q0 -114 -111 -208z" />
    <glyph glyph-name="Lcommaaccent.sc" horiz-adv-x="446" 
d="M226 132h208v-132h-361v590h153v-458zM200 -266l-68 42q61 85 61 166h118q0 -114 -111 -208z" />
    <glyph glyph-name="Ncommaaccent.sc" horiz-adv-x="598" 
d="M209 590l164 -299v299h152v-590h-132l-169 302v-302h-151v590h136zM254 -266l-68 42q61 85 61 166h118q0 -114 -111 -208z" />
    <glyph glyph-name="Rcommaaccent.sc" horiz-adv-x="568" 
d="M311 458h-87v-134h88q58 0 58 67t-59 67zM229 194h-5v-194h-151v590h245q99 0 152 -59t53 -140q0 -67 -36.5 -119t-101.5 -70l143 -202h-174zM237 -266l-68 42q61 85 61 166h118q0 -114 -111 -208z" />
    <glyph glyph-name="Tcommaaccent.sc" horiz-adv-x="480" 
d="M315 0h-150v458h-150v132h450v-132h-150v-458zM182 -266l-68 42q61 85 61 166h118q0 -114 -111 -208z" />
    <glyph glyph-name="Scommaaccent.sc" horiz-adv-x="520" 
d="M41 178h153q4 -54 66 -54q31 0 49 11t18 31q0 28 -55 47l-68 24q-80 25 -117.5 72.5t-37.5 103.5q0 83 58 132q59 51 150 51q92 0 148.5 -50.5t56.5 -137.5h-151q0 51 -56 51q-26 0 -41 -11t-15 -30q0 -26 51 -42l66 -21q88 -28 129 -74q17 -18 24 -42q12 -31 12 -65
q0 -48 -20 -85t-53.5 -57.5t-71 -30.5t-76.5 -10q-100 0 -159.5 50t-59.5 137zM215 -266l-68 42q61 85 61 166h118q0 -114 -111 -208z" />
    <glyph glyph-name="Idotaccent.sc" horiz-adv-x="297" 
d="M78 720q0 30 20.5 50t51.5 20q30 0 50.5 -20t20.5 -50q0 -31 -20.5 -51t-50.5 -20q-31 0 -51.5 20t-20.5 51zM224 0h-151v590h151v-590z" />
    <glyph glyph-name="zero.numr" horiz-adv-x="361" 
d="M31 458q0 203 151 203q148 0 148 -203q0 -201 -148 -201q-151 0 -151 201zM134 458q0 -102 48 -102q44 0 44 102q0 103 -44 103q-48 0 -48 -103z" />
    <glyph glyph-name="one.numr" horiz-adv-x="242" 
d="M19 489v87l176 91v-405h-106v259z" />
    <glyph glyph-name="two.numr" horiz-adv-x="341" 
d="M28 262v61l166 187q12 20 3.5 35.5t-30.5 15.5q-35 0 -41 -40l-98 14q20 126 147 126q53 0 93 -35q39 -34 39 -87q-2 -59 -41 -98l-85 -88h128v-91h-281z" />
    <glyph glyph-name="three.numr" horiz-adv-x="338" 
d="M146 429h-42v74h42q45 0 45 37q0 13 -11.5 22t-32.5 9q-38 0 -60 -25l-55 57q40 58 133 58q54 0 91 -34q38 -34 37 -77q0 -47 -56 -76q70 -25 73 -88q3 -62 -43 -96q-47 -33 -113 -33q-104 0 -137 68l54 54q27 -37 79 -37q29 0 44.5 13t15.5 34q0 18 -18.5 29t-45.5 11z
" />
    <glyph glyph-name="four.numr" horiz-adv-x="379" 
d="M141 442h62v122zM308 656v-214h45v-87h-45v-93h-105v93h-197l161 301h141z" />
    <glyph glyph-name="five.numr" horiz-adv-x="362" 
d="M239 408q0 22 -18 37t-45 15q-56 0 -108 -40l-34 20l30 216h244v-87h-162l-8 -54q32 23 73 23q53 0 90 -36q38 -36 38 -94q0 -65 -47 -109q-46 -43 -125 -43q-39 0 -79 20t-66 52l77 60q37 -40 68 -40q30 0 51 18t21 42z" />
    <glyph glyph-name="six.numr" horiz-adv-x="361" 
d="M144 390q0 -20 13 -32.5t35 -12.5q23 0 36.5 13t13.5 32q0 17 -13.5 29.5t-36.5 12.5q-20 0 -34 -13t-14 -29zM217 514q43 0 83 -30q41 -29 41 -88q0 -62 -41 -100.5t-114 -38.5q-57 0 -96 37.5t-50 100.5q-19 88 16 179q16 41 56 65t93 22q91 -4 127 -77l-78 -40
q-15 31 -52 31q-36 0 -53.5 -29.5t-20.5 -74.5q3 16 27 29.5t62 13.5z" />
    <glyph glyph-name="seven.numr" horiz-adv-x="322" 
d="M58 262l114 301h-152v93h298l-147 -394h-113z" />
    <glyph glyph-name="eight.numr" horiz-adv-x="370" 
d="M238 389q0 19 -14.5 32t-37.5 13q-37 4 -49.5 -26.5t10.5 -53.5q13 -13 39 -13q24 0 38 13.5t14 34.5zM50 555q0 48 40 76q40 30 96 30q55 0 92 -29.5t37 -76.5q0 -24 -11 -46t-28 -28q28 -5 47 -35q21 -32 21 -64q0 -57 -46 -91q-44 -34 -112 -34q-67 0 -113 34t-46 91
q0 35 17.5 63.5t46.5 35.5q-18 9 -29.5 30.5t-11.5 43.5zM145 551q0 -16 11.5 -26.5t29.5 -10.5t29 10.5t11 26.5q0 13 -11.5 23.5t-28.5 10.5q-41 0 -41 -34z" />
    <glyph glyph-name="nine.numr" horiz-adv-x="362" 
d="M223 528q0 19 -13 31.5t-35 12.5q-23 0 -36 -12.5t-13 -31.5q0 -17 13 -29.5t36 -12.5q20 0 34 13t14 29zM150 404q-16 0 -34.5 5.5t-40 17.5t-35.5 37t-14 58q0 62 41 100.5t114 38.5q57 0 96 -37t50 -101q19 -89 -17 -180q-15 -40 -55 -64t-93 -22q-91 4 -127 77l78 39
q13 -30 52 -30q36 0 53.5 29.5t20.5 74.5q-3 -16 -28 -29.5t-61 -13.5z" />
    <glyph glyph-name="zero.dnom" horiz-adv-x="361" 
d="M31 196q0 203 151 203q148 0 148 -203q0 -201 -148 -201q-151 0 -151 201zM134 196q0 -102 48 -102q44 0 44 102q0 103 -44 103q-48 0 -48 -103z" />
    <glyph glyph-name="one.dnom" horiz-adv-x="242" 
d="M19 227v87l176 91v-405h-106v259z" />
    <glyph glyph-name="two.dnom" horiz-adv-x="341" 
d="M28 0v61l166 187q12 20 3.5 35.5t-30.5 15.5q-35 0 -41 -40l-98 14q20 126 147 126q53 0 93 -35q39 -34 39 -87q-2 -59 -41 -98l-85 -88h128v-91h-281z" />
    <glyph glyph-name="three.dnom" horiz-adv-x="337" 
d="M145 167h-42v74h42q45 0 45 37q0 13 -11.5 22t-32.5 9q-38 0 -60 -25l-55 57q40 58 133 58q54 0 91 -34q38 -34 37 -77q0 -47 -56 -76q70 -25 73 -88q3 -62 -43 -96q-46 -33 -113 -33q-104 0 -137 68l54 54q27 -37 79 -37q29 0 44.5 13t15.5 34q0 18 -18.5 29t-45.5 11z
" />
    <glyph glyph-name="four.dnom" horiz-adv-x="380" 
d="M142 180h62v122zM309 394v-214h45v-87h-45v-93h-105v93h-197l161 301h141z" />
    <glyph glyph-name="five.dnom" horiz-adv-x="362" 
d="M238 146q0 22 -18 37t-45 15q-56 0 -108 -40l-34 20l30 216h244v-87h-162l-8 -54q32 23 73 23q52 0 90 -36t38 -94q0 -65 -47 -109q-46 -43 -125 -43q-40 0 -79.5 20t-65.5 52l77 60q37 -40 68 -40q30 0 51 18t21 42z" />
    <glyph glyph-name="six.dnom" horiz-adv-x="362" 
d="M144 128q0 -20 13 -32.5t35 -12.5q23 0 36.5 13t13.5 32q0 17 -13.5 29.5t-36.5 12.5q-20 0 -34 -13t-14 -29zM217 252q43 0 83 -30q41 -29 41 -88q0 -62 -41 -100.5t-114 -38.5q-57 0 -96 37.5t-50 100.5q-19 88 16 179q16 41 56 65t93 22q91 -4 127 -77l-78 -40
q-15 31 -52 31q-36 0 -53.5 -29.5t-20.5 -74.5q3 16 27 29.5t62 13.5z" />
    <glyph glyph-name="seven.dnom" horiz-adv-x="322" 
d="M58 0l114 301h-152v93h298l-147 -394h-113z" />
    <glyph glyph-name="eight.dnom" horiz-adv-x="370" 
d="M238 127q0 19 -14.5 32t-37.5 13q-37 4 -49.5 -26.5t10.5 -53.5q13 -13 39 -13q24 0 38 13.5t14 34.5zM50 293q0 48 40 76q40 30 96 30q55 0 92 -29.5t37 -76.5q0 -24 -11 -46t-28 -28q28 -5 47 -35q21 -32 21 -64q0 -57 -46 -91q-44 -34 -112 -34q-67 0 -113 34t-46 91
q0 35 17.5 63.5t46.5 35.5q-18 9 -29.5 30.5t-11.5 43.5zM145 289q0 -16 11.5 -26.5t29.5 -10.5t29 10.5t11 26.5q0 13 -11.5 23.5t-28.5 10.5q-41 0 -41 -34z" />
    <glyph glyph-name="nine.dnom" horiz-adv-x="361" 
d="M222 266q0 19 -13 31.5t-35 12.5q-23 0 -36 -12.5t-13 -31.5q0 -17 13 -29.5t36 -12.5q20 0 34 13t14 29zM149 142q-16 0 -34.5 5.5t-40 17.5t-35.5 37t-14 58q0 62 41 100.5t114 38.5q57 0 96 -37t50 -101q19 -89 -17 -180q-15 -40 -55 -64t-93 -22q-91 4 -127 77l78 39
q14 -30 52 -30q36 0 53.5 29.5t20.5 74.5q-3 -16 -28 -29.5t-61 -13.5z" />
    <glyph glyph-name="l.alt1" horiz-adv-x="331" 
d="M277 151h45v-151h-45q-106 0 -165 59t-59 169v17v466h159v-466v-17q2 -77 65 -77z" />
    <glyph glyph-name="a.alt1" horiz-adv-x="545" 
d="M236 99q30 0 56.5 18t36.5 47q-30 24 -83 24q-30 0 -44.5 -13.5t-14.5 -31.5q0 -16 13.5 -30t35.5 -14zM141 300l-84 83q68 95 215 95q94 0 156 -51q63 -49 63 -150v-277h-159v50q-21 -28 -56 -43.5t-69 -15.5q-84 0 -131.5 39.5t-47.5 110.5q0 65 51.5 101.5t139.5 36.5
q68 0 111 -25v14q0 33 -25 56t-58 23q-68 0 -106 -47z" />
    <glyph glyph-name="y.alt1" horiz-adv-x="510" 
d="M144 -29l30 78l-172 417h162l92 -239l93 239h162l-228 -554q-36 -82 -78 -115q-40 -34 -115 -34q-32 0 -74 14v130q27 -7 63 -7q17 0 31 12l5 5l4.5 4.5t3.5 4t3 5.5t3 5.5t3.5 6.5t3.5 7.5t3.5 9.5t4.5 11z" />
    <glyph glyph-name="lslash.alt1" horiz-adv-x="379" 
d="M324 151h45v-151h-45q-106 0 -165 59t-59 169v44l-86 -53v93l86 53v346h159v-247l98 61v-93l-98 -61v-143q2 -77 65 -77z" />
    <glyph glyph-name="lacute.alt1" horiz-adv-x="330" 
d="M55 749l93 174h148l-138 -174h-103zM321 0h-45q-106 0 -165 59t-59 169v17v466h159v-466v-17q2 -77 65 -77h45v-151z" />
    <glyph glyph-name="lcommaaccent.alt1" horiz-adv-x="330" 
d="M276 151h45v-151h-45q-106 0 -165 59t-59 169v17v466h159v-466v-17q2 -77 65 -77zM178 -302l-72 42q34 46 48 91q13 43 15 113h128q-16 -160 -119 -246z" />
    <glyph glyph-name="lcaron.alt1" horiz-adv-x="330" 
d="M300 468l-62 38q34 49 47 92q14 42 16 113h116q-17 -159 -117 -243zM321 0h-45q-106 0 -165 59t-59 169v17v466h159v-466v-17q2 -77 65 -77h45v-151z" />
    <glyph glyph-name="aacute.alt1" horiz-adv-x="545" 
d="M236 99q30 0 56.5 18t36.5 47q-30 24 -83 24q-30 0 -44.5 -13.5t-14.5 -31.5q0 -16 13.5 -30t35.5 -14zM141 300l-84 83q68 95 215 95q94 0 156 -51q63 -49 63 -150v-277h-159v50q-21 -28 -56 -43.5t-69 -15.5q-84 0 -131.5 39.5t-47.5 110.5q0 65 51.5 101.5t139.5 36.5
q68 0 111 -25v14q0 33 -25 56t-58 23q-68 0 -106 -47zM202 549l93 174h148l-138 -174h-103z" />
    <glyph glyph-name="agrave.alt1" horiz-adv-x="545" 
d="M236 99q30 0 56.5 18t36.5 47q-30 24 -83 24q-30 0 -44.5 -13.5t-14.5 -31.5q0 -16 13.5 -30t35.5 -14zM141 300l-84 83q68 95 215 95q94 0 156 -51q63 -49 63 -150v-277h-159v50q-21 -28 -56 -43.5t-69 -15.5q-84 0 -131.5 39.5t-47.5 110.5q0 65 51.5 101.5t139.5 36.5
q68 0 111 -25v14q0 33 -25 56t-58 23q-68 0 -106 -47zM237 549l-138 174h148l93 -174h-103z" />
    <glyph glyph-name="acircumflex.alt1" horiz-adv-x="545" 
d="M236 99q30 0 56.5 18t36.5 47q-30 24 -83 24q-30 0 -44.5 -13.5t-14.5 -31.5q0 -16 13.5 -30t35.5 -14zM141 300l-84 83q68 95 215 95q94 0 156 -51q63 -49 63 -150v-277h-159v50q-21 -28 -56 -43.5t-69 -15.5q-84 0 -131.5 39.5t-47.5 110.5q0 65 51.5 101.5t139.5 36.5
q68 0 111 -25v14q0 33 -25 56t-58 23q-68 0 -106 -47zM193 557h-107l109 173h156l110 -173h-108l-80 89z" />
    <glyph glyph-name="adieresis.alt1" horiz-adv-x="545" 
d="M236 99q30 0 56.5 18t36.5 47q-30 24 -83 24q-30 0 -44.5 -13.5t-14.5 -31.5q0 -16 13.5 -30t35.5 -14zM141 300l-84 83q68 95 215 95q94 0 156 -51q63 -49 63 -150v-277h-159v50q-21 -28 -56 -43.5t-69 -15.5q-84 0 -131.5 39.5t-47.5 110.5q0 65 51.5 101.5t139.5 36.5
q68 0 111 -25v14q0 33 -25 56t-58 23q-68 0 -106 -47zM104 641q0 30 22.5 51t54.5 21q31 0 53 -21t22 -51q0 -31 -21.5 -52t-53.5 -21t-54.5 21t-22.5 52zM292 641q0 30 23 51t55 21q31 0 52.5 -21t21.5 -51q0 -31 -21.5 -52t-52.5 -21q-32 0 -55 21t-23 52z" />
    <glyph glyph-name="atilde.alt1" horiz-adv-x="545" 
d="M236 99q30 0 56.5 18t36.5 47q-30 24 -83 24q-30 0 -44.5 -13.5t-14.5 -31.5q0 -16 13.5 -30t35.5 -14zM141 300l-84 83q68 95 215 95q94 0 156 -51q63 -49 63 -150v-277h-159v50q-21 -28 -56 -43.5t-69 -15.5q-84 0 -131.5 39.5t-47.5 110.5q0 65 51.5 101.5t139.5 36.5
q68 0 111 -25v14q0 33 -25 56t-58 23q-68 0 -106 -47zM233 597q-9 0 -17 -11.5t-9 -31.5h-75q3 63 32 96.5t69 33.5q23 0 50 -21q28 -20 37 -20t17 11t9 30h75q-3 -62 -32 -95t-69 -33q-21 0 -50 20q-29 21 -37 21z" />
    <glyph glyph-name="aring.alt1" horiz-adv-x="545" 
d="M236 99q30 0 56.5 18t36.5 47q-30 24 -83 24q-30 0 -44.5 -13.5t-14.5 -31.5q0 -16 13.5 -30t35.5 -14zM141 300l-84 83q68 95 215 95q94 0 156 -51q63 -49 63 -150v-277h-159v50q-21 -28 -56 -43.5t-69 -15.5q-84 0 -131.5 39.5t-47.5 110.5q0 65 51.5 101.5t139.5 36.5
q68 0 111 -25v14q0 33 -25 56t-58 23q-68 0 -106 -47zM143 673q0 53 36 91q38 38 90 38q53 0 91 -38q37 -37 37 -91q0 -53 -37 -90t-91 -37q-53 0 -90 37q-36 37 -36 90zM205 673q0 -28 18.5 -46.5t45.5 -18.5q28 0 47.5 18.5t19.5 46.5t-19.5 48t-47.5 20
q-27 0 -45.5 -19.5t-18.5 -48.5z" />
    <glyph glyph-name="amacron.alt1" horiz-adv-x="545" 
d="M236 99q30 0 56.5 18t36.5 47q-30 24 -83 24q-30 0 -44.5 -13.5t-14.5 -31.5q0 -16 13.5 -30t35.5 -14zM141 300l-84 83q68 95 215 95q94 0 156 -51q63 -49 63 -150v-277h-159v50q-21 -28 -56 -43.5t-69 -15.5q-84 0 -131.5 39.5t-47.5 110.5q0 65 51.5 101.5t139.5 36.5
q68 0 111 -25v14q0 33 -25 56t-58 23q-68 0 -106 -47zM415 666v-87h-288v87h288z" />
    <glyph glyph-name="abreve.alt1" horiz-adv-x="545" 
d="M236 99q30 0 56.5 18t36.5 47q-30 24 -83 24q-30 0 -44.5 -13.5t-14.5 -31.5q0 -16 13.5 -30t35.5 -14zM141 300l-84 83q68 95 215 95q94 0 156 -51q63 -49 63 -150v-277h-159v50q-21 -28 -56 -43.5t-69 -15.5q-84 0 -131.5 39.5t-47.5 110.5q0 65 51.5 101.5t139.5 36.5
q68 0 111 -25v14q0 33 -25 56t-58 23q-68 0 -106 -47zM135 696h89q0 -27 10.5 -38.5t36.5 -11.5q45 0 45 50h91q0 -59 -38 -95.5t-98 -36.5q-63 0 -99.5 38t-36.5 94z" />
    <glyph glyph-name="aogonek.alt1" horiz-adv-x="545" 
d="M141 300l-84 83q68 95 215 95q94 0 156 -51q63 -49 63 -150v-277h-87l-44 -86q-14 -38 12 -54q22 -13 41 5q15 15 12 44l70 4q2 -60 -29.5 -94.5t-79.5 -34.5q-42 0 -73 31q-31 30 -31 74q0 31 11 51l39 60v50q-21 -28 -56 -43.5t-69 -15.5q-84 0 -131.5 39.5
t-47.5 110.5q0 65 51.5 101.5t139.5 36.5q68 0 111 -25v14q0 33 -25 56t-58 23q-68 0 -106 -47zM236 99q30 0 56.5 18t36.5 47q-30 24 -83 24q-30 0 -44.5 -13.5t-14.5 -31.5q0 -16 13.5 -30t35.5 -14z" />
    <glyph glyph-name="yacute.alt1" horiz-adv-x="510" 
d="M207 549l93 174h148l-138 -174h-103zM174 49l-172 417h162l92 -239l93 239h162l-228 -554q-36 -82 -78 -115q-40 -34 -115 -34q-32 0 -74 14v130q27 -7 63 -7q33 0 49 34q1 2 3.5 8t6 13.5t6.5 15.5z" />
    <glyph glyph-name="ydieresis.alt1" horiz-adv-x="510" 
d="M85 641q0 30 22.5 51t54.5 21q31 0 53 -21t22 -51q0 -31 -21.5 -52t-53.5 -21t-54.5 21t-22.5 52zM273 641q0 30 23 51t55 21q31 0 52.5 -21t21.5 -51q0 -31 -21.5 -52t-52.5 -21q-32 0 -55 21t-23 52zM174 49l-172 417h162l92 -239l93 239h162l-228 -554
q-36 -82 -78 -115q-40 -34 -115 -34q-32 0 -74 14v130q27 -7 63 -7q33 0 49 34q1 2 3.5 8t6 13.5t6.5 15.5z" />
    <glyph glyph-name="ae.alt1" horiz-adv-x="857" 
d="M490 275h186q-9 68 -93 68q-81 0 -93 -68zM223 -9q-91 0 -143.5 39t-52.5 110q0 63 52 100t139 37q76 0 111 -20v23q0 30 -23 50.5t-60 20.5q-66 0 -106 -51l-84 83q68 95 215 95q99 0 157 -51q66 51 157 51q103 0 172 -66q70 -64 70 -172q0 -11 -3 -50h-334
q4 -31 34 -49.5t73 -18.5q68 0 98 47l112 -74q-31 -52 -90.5 -78t-131.5 -26q-68 0 -115.5 25.5t-64.5 72.5q-15 -44 -65.5 -71t-116.5 -27zM240 104q66 0 88 63q-30 24 -83 24q-30 0 -44.5 -13.5t-14.5 -31.5q0 -14 15.5 -28t38.5 -14z" />
    <glyph glyph-name="aeacute.alt1" horiz-adv-x="857" 
d="M490 275h186q-9 68 -93 68q-81 0 -93 -68zM223 -9q-91 0 -143.5 39t-52.5 110q0 63 52 100t139 37q76 0 111 -20v23q0 30 -23 50.5t-60 20.5q-66 0 -106 -51l-84 83q68 95 215 95q99 0 157 -51q66 51 157 51q103 0 172 -66q70 -64 70 -172q0 -11 -3 -50h-334
q4 -31 34 -49.5t73 -18.5q68 0 98 47l112 -74q-31 -52 -90.5 -78t-131.5 -26q-68 0 -115.5 25.5t-64.5 72.5q-15 -44 -65.5 -71t-116.5 -27zM240 104q66 0 88 63q-30 24 -83 24q-30 0 -44.5 -13.5t-14.5 -31.5q0 -14 15.5 -28t38.5 -14zM375 549l93 174h148l-138 -174h-103z
" />
    <glyph glyph-name="ycircumflex.alt1" horiz-adv-x="510" 
d="M144 -29l30 78l-172 417h162l92 -239l93 239h162l-228 -554q-36 -82 -78 -115q-40 -34 -115 -34q-32 0 -74 14v130q27 -7 63 -7q17 0 31 12l5 5l4.5 4.5t3.5 4t3 5.5t3 5.5t3.5 6.5t3.5 7.5t3.5 9.5t4.5 11zM176 557h-107l109 173h156l110 -173h-108l-80 89z" />
    <glyph glyph-name="ldot.alt1" horiz-adv-x="467" 
d="M276 151h45v-151h-45q-106 0 -165 59t-59 169v17v466h159v-466v-17q2 -77 65 -77zM265 296q0 39 27.5 65t66.5 26t67 -26t28 -65t-28 -65.5t-67 -26.5q-40 0 -67 26t-27 66z" />
    <glyph glyph-name="t.alt1" horiz-adv-x="405" 
d="M327 151h33v-151h-53q-107 0 -156 41q-48 41 -48 150v158h-84v117h84v92l159 48v-140h97v-117h-97v-141q1 -34 15.5 -45.5t49.5 -11.5z" />
    <glyph glyph-name="tcaron.alt1" horiz-adv-x="405" 
d="M375 523l-62 38q34 49 47 92q14 42 16 113h116q-16 -159 -117 -243zM360 0h-53q-107 0 -156 41q-48 41 -48 150v158h-84v117h84v92l159 48v-140h97v-117h-97v-141q3 -37 17.5 -47.5t47.5 -9.5h33v-151z" />
    <glyph glyph-name="tbar.alt1" horiz-adv-x="406" 
d="M328 151h33v-151h-53q-107 0 -156 41q-48 41 -48 150v29h-52v72h52v57h-84v117h84v92l159 48v-140h97v-117h-97v-57h60v-72h-60v-12q1 -34 15.5 -45.5t49.5 -11.5z" />
    <glyph glyph-name="tcommaaccent.alt1" horiz-adv-x="406" 
d="M328 151h33v-151h-53q-107 0 -156 41q-48 41 -48 150v158h-84v117h84v92l159 48v-140h97v-117h-97v-141q1 -34 15.5 -45.5t49.5 -11.5zM229 -302l-72 42q34 46 48 91q13 43 15 113h128q-16 -160 -119 -246z" />
    <glyph glyph-name="T.sc.alt1" horiz-adv-x="480" 
d="M315 0h-150v458h-150v132h450v-132h-150v-458z" />
    <glyph glyph-name="Tcaron.sc.alt1" horiz-adv-x="480" 
d="M303 788h99l-97 -153h-140l-95 153h97l68 -77zM315 0h-150v458h-150v132h450v-132h-150v-458z" />
    <glyph glyph-name="Tbar.sc.alt1" horiz-adv-x="482" 
d="M166 0v235h-104v83h104v140h-150v132h450v-132h-150v-140h100v-83h-100v-235h-150z" />
    <glyph glyph-name="Tcommaaccent.sc.alt1" horiz-adv-x="480" 
d="M315 0h-150v458h-150v132h450v-132h-150v-458zM182 -266l-68 42q61 85 61 166h118q0 -114 -111 -208z" />
    <glyph glyph-name="aringacute.alt1" horiz-adv-x="545" 
d="M224 792l77 144h148l-118 -148q32 -16 51 -46.5t19 -68.5q0 -53 -37 -90t-91 -37q-53 0 -90 37q-36 37 -36 90q0 40 21 72t56 47zM209 673q0 -28 18.5 -46.5t45.5 -18.5q28 0 47.5 18.5t19.5 46.5t-19.5 48t-47.5 20q-27 0 -45.5 -19.5t-18.5 -48.5zM236 99q30 0 56.5 18
t36.5 47q-30 24 -83 24q-30 0 -44.5 -13.5t-14.5 -31.5q0 -16 13.5 -30t35.5 -14zM141 300l-84 83q68 95 215 95q94 0 156 -51q63 -49 63 -150v-277h-159v50q-21 -28 -56 -43.5t-69 -15.5q-84 0 -131.5 39.5t-47.5 110.5q0 65 51.5 101.5t139.5 36.5q68 0 111 -25v14
q0 33 -25 56t-58 23q-68 0 -106 -47z" />
    </font>
</defs>
</svg>
