<?xml version="1.0" encoding="UTF-8"?>
<svg width="274px" height="275px" viewBox="0 0 274 275" version="1.1" xmlns="http://www.w3.org/2000/svg" xmlns:xlink="http://www.w3.org/1999/xlink">
    <!-- Generator: Sketch 48.1 (47250) - http://www.bohemiancoding.com/sketch -->
    <title>Group 29</title>
    <desc>Created with Sketch.</desc>
    <defs></defs>
    <g id="Artboard-Copy-2" stroke="none" stroke-width="1" fill="none" fill-rule="evenodd" transform="translate(-1077.000000, -284.000000)">
        <g id="Group-5" transform="translate(142.000000, 172.000000)">
            <g id="Group-29" transform="translate(935.172797, 112.330326)">
                <path d="M41.3401412,274.557328 C18.6028339,274.557328 -0.000218743637,255.929447 -0.000218743637,233.161793 L-0.000218743637,41.9426315 C-0.000218743637,19.1755251 18.6028339,0.547096134 41.3401412,0.547096134 L232.30443,0.547096134 C255.041737,0.547096134 273.64479,19.1755251 273.64479,41.9426315 L273.64479,233.161793 C273.64479,255.929447 255.041737,274.557328 232.30443,274.557328 L41.3401412,274.557328 Z" id="Fill-1-Copy" fill="#FFFFFF"></path>
                <g id="Page-1" transform="translate(60.701359, 50.378185)">
                    <path d="M5.46859092e-05,72.9304171 L5.46859092e-05,7.67643065 C5.46859092e-05,1.91579475 6.10847075,-1.78700183 11.2057443,0.88468473 L76.0419052,34.8609372 L76.0419052,112.606523" id="Fill-1" fill="#293444"></path>
                    <path d="M152.083756,72.9304171 L152.083756,7.67643065 C152.083756,1.91579475 145.97534,-1.78700183 140.878066,0.88468473 L76.0419052,34.8609372 L76.0419052,112.606523" id="Fill-3" fill="#293444"></path>
                    <path d="M76.0419052,112.606578 L76.0419052,174.303974 L4.10587275,136.607402 C1.58211804,135.284427 5.46859092e-05,132.6675 5.46859092e-05,129.814561 L5.46859092e-05,72.9304719" id="Fill-5" fill="#FFD300"></path>
                    <path d="M76.0443114,112.606578 L76.0443114,174.303974 L147.979797,136.607402 C150.504099,135.284427 152.086162,132.6675 152.086162,129.814561 L152.083974,72.9304719" id="Fill-7" fill="#FFB800"></path>
                    <polygon id="Fill-9" fill="#FFFFFF" points="76.0443114 112.606578 0.000273429546 72.9304719 76.0443114 34.8971328 152.083974 72.9304719"></polygon>
                    <path d="M56.0839545,72.9304171 C56.0839545,75.954751 53.6356663,78.4063068 50.6153636,78.4063068 C47.5950608,78.4063068 45.1467727,75.954751 45.1467727,72.9304171 C45.1467727,69.9060833 47.5950608,67.4545275 50.6153636,67.4545275 C53.6356663,67.4545275 56.0839545,69.9060833 56.0839545,72.9304171" id="Fill-11" fill="#293444"></path>
                    <path d="M106.94185,72.9304171 C106.94185,75.954751 104.493562,78.4063068 101.473259,78.4063068 C98.4529564,78.4063068 96.0046682,75.954751 96.0046682,72.9304171 C96.0046682,69.9060833 98.4529564,67.4545275 101.473259,67.4545275 C104.493562,67.4545275 106.94185,69.9060833 106.94185,72.9304171" id="Fill-13" fill="#293444"></path>
                    <path d="M89.7703652,88.6380613 C89.7703652,94.6171852 80.2358769,100.012032 76.044202,100.012032 C71.8525271,100.012032 62.3180388,94.6171852 62.3180388,88.6380613 C62.3180388,82.6589374 68.161775,83.6369313 76.044202,83.6369313 C83.9271758,83.6369313 89.7703652,82.6589374 89.7703652,88.6380613" id="Fill-15" fill="#293444"></path>
                </g>
            </g>
        </g>
    </g>
</svg>