<?xml version="1.0" encoding="UTF-8" standalone="no"?><!DOCTYPE svg PUBLIC "-//W3C//DTD SVG 1.1//EN" "http://www.w3.org/Graphics/SVG/1.1/DTD/svg11.dtd"><svg width="100%" height="100%" viewBox="0 0 342 72" version="1.1" xmlns="http://www.w3.org/2000/svg" xmlns:xlink="http://www.w3.org/1999/xlink" xml:space="preserve" style="fill-rule:evenodd;clip-rule:evenodd;stroke-linejoin:round;stroke-miterlimit:1.41421;"><g><g><path d="M0.08,58.416l0,11.904l57.792,0l0,-12.672l-37.728,0l36.768,-43.968l0,-11.904l-53.952,0l0,12.672l33.888,0l-36.768,43.968Z" style="fill:#fff;fill-rule:nonzero;"/><path d="M124.88,44.4l0,-21.761l-15.072,0l0,21.761c0,5.12 -1.024,8.88 -3.072,11.28c-2.048,2.4 -5.76,3.6 -11.136,3.6c-3.072,0 -5.52,-0.432 -7.344,-1.296c-1.824,-0.864 -3.248,-1.984 -4.272,-3.36c-1.024,-1.376 -1.696,-2.96 -2.016,-4.752c-0.32,-1.792 -0.48,-3.616 -0.48,-5.472l0,-21.761l-15.072,0l0,21.761c0,9.344 2.544,16.256 7.632,20.736c5.088,4.48 12.272,6.72 21.552,6.72c9.152,0 16.32,-2.256 21.504,-6.768c5.184,-4.512 7.776,-11.408 7.776,-20.688Z" style="fill:#fff;fill-rule:nonzero;"/><path d="M149.936,36.336c0,-3.008 0.336,-5.92 1.008,-8.736c0.672,-2.816 1.744,-5.328 3.216,-7.536c1.472,-2.208 3.392,-3.968 5.76,-5.28c2.368,-1.312 5.248,-1.968 8.64,-1.968c3.392,0 6.272,0.656 8.64,1.968c2.368,1.312 4.288,3.072 5.76,5.28c1.472,2.208 2.544,4.72 3.216,7.536c0.672,2.816 1.008,5.728 1.008,8.736c0,2.88 -0.336,5.68 -1.008,8.4c-0.672,2.72 -1.744,5.168 -3.216,7.344c-1.472,2.176 -3.392,3.92 -5.76,5.232c-2.368,1.312 -5.248,1.968 -8.64,1.968c-3.392,0 -6.272,-0.656 -8.64,-1.968c-2.368,-1.312 -4.288,-3.056 -5.76,-5.232c-1.472,-2.176 -2.544,-4.624 -3.216,-7.344c-0.672,-2.72 -1.008,-5.52 -1.008,-8.4Zm-15.072,0c0,4.992 0.768,9.648 2.304,13.968c1.536,4.32 3.744,8.08 6.624,11.28c2.88,3.2 6.416,5.712 10.608,7.536c4.192,1.824 8.912,2.736 14.16,2.736c5.312,0 10.048,-0.912 14.208,-2.736c4.16,-1.824 7.68,-4.336 10.56,-7.536c2.88,-3.2 5.088,-6.96 6.624,-11.28c1.536,-4.32 2.304,-8.976 2.304,-13.968c0,-5.12 -0.768,-9.872 -2.304,-14.256c-1.536,-4.384 -3.744,-8.208 -6.624,-11.472c-2.88,-3.264 -6.4,-5.824 -10.56,-7.68c-4.16,-1.856 -8.896,-2.784 -14.208,-2.784c-5.248,0 -9.968,0.928 -14.16,2.784c-4.192,1.856 -7.728,4.416 -10.608,7.68c-2.88,3.264 -5.088,7.088 -6.624,11.472c-1.536,4.384 -2.304,9.136 -2.304,14.256Z" style="fill:#fff;fill-rule:nonzero;"/><path d="M212.528,1.776l0,68.544l14.112,0l0,-45.888l0.192,0l28.512,45.888l15.072,0l0,-68.544l-14.112,0l0,45.984l-0.192,0l-28.608,-45.984l-14.976,0Z" style="fill:#fff;fill-rule:nonzero;"/><path d="M300.464,34.416l-23.904,35.904l16.896,0l15.264,-23.712l14.976,23.712l17.952,0l-23.904,-35.808l21.984,-32.736l-16.512,0l-13.92,21.888l-13.44,-21.888l-17.472,0l22.08,32.64Z" style="fill:#fff;fill-rule:nonzero;"/></g><rect x="66.416" y="1.868" width="58.464" height="12.535" style="fill:#fff;"/></g></svg>