<?xml version="1.0" encoding="UTF-8"?>
<svg width="23px" height="22px" viewBox="0 0 23 22" version="1.1" xmlns="http://www.w3.org/2000/svg" xmlns:xlink="http://www.w3.org/1999/xlink">
    <!-- Generator: Sketch 46 (44423) - http://www.bohemiancoding.com/sketch -->
    <title>Group</title>
    <desc>Created with Sketch.</desc>
    <defs></defs>
    <g id="Page-1" stroke="none" stroke-width="1" fill="none" fill-rule="evenodd">
        <g id="Home" transform="translate(-1377.000000, -37.000000)" fill="#313D4F">
            <g id="Group-32" transform="translate(39.000000, 37.000000)">
                <g id="Group" transform="translate(1349.166667, 11.000000) scale(-1, 1) translate(-1349.166667, -11.000000) translate(1338.166667, 0.000000)">
                    <path d="M14.1070229,1 L18.8155751,1 L18.8155751,1 C19.297569,1 19.6883024,1.39073331 19.6883024,1.87272727 C19.6883024,2.04081108 19.6397642,2.20531908 19.548521,2.34648156 L7.74933005,20.601027 L7.74933005,20.601027 C7.588546,20.8497763 7.31257273,21 7.01638411,21 L2.3078319,21 L2.3078319,21 C1.82583794,21 1.43510463,20.6092667 1.43510463,20.1272727 C1.43510463,19.9591889 1.48364276,19.7946809 1.57488595,19.6535184 L13.3740769,1.39897298 L13.3740769,1.39897298 C13.534861,1.15022374 13.8108343,1 14.1070229,1 Z" id="矩形_2-copy-2"></path>
                    <path d="M2.51642525,1 L7.35322268,1 L7.35322268,1 C7.83521664,1 8.22594995,1.39073331 8.22594995,1.87272727 C8.22594995,2.04022348 8.17775033,2.20418169 8.08710464,2.34503032 L5.6687653,6.10273548 L5.6687653,6.10273548 C5.40791953,6.5080473 4.86789211,6.62516016 4.4625803,6.36431439 C4.35770279,6.29681857 4.26851012,6.20762789 4.20101195,6.10275189 L1.78255385,2.34504672 L1.78255385,2.34504672 C1.52169902,1.93974074 1.63879981,1.3997107 2.0441058,1.13885587 C2.18495798,1.04820344 2.34892241,1 2.51642525,1 Z" id="矩形_2-copy-3" transform="translate(4.934846, 3.942042) scale(-1, 1) rotate(-360.000000) translate(-4.934846, -3.942042) "></path>
                    <path d="M13.4400619,14.8181818 L18.6269678,14.8181818 L18.6269678,14.8181818 C19.1089618,14.8181818 19.4996951,15.2089151 19.4996951,15.6909091 C19.4996951,15.8584053 19.4514955,16.0223635 19.3608498,16.1632121 L16.7674605,20.1929164 L16.7674605,20.1929164 C16.5066147,20.5982282 15.9665873,20.7153411 15.5612755,20.4544953 C15.456398,20.3869995 15.3672053,20.2978088 15.2997071,20.1929328 L12.7061905,16.1632285 L12.7061905,16.1632285 C12.4453356,15.7579226 12.5624364,15.2178925 12.9677424,14.9570377 C13.1085946,14.8663853 13.272559,14.8181818 13.4400619,14.8181818 Z" id="矩形_2-copy-4" transform="translate(16.033553, 17.896313) scale(-1, -1) translate(-16.033553, -17.896313) "></path>
                </g>
            </g>
        </g>
    </g>
</svg>