<?xml version="1.0" encoding="UTF-8"?>
<svg width="436px" height="457px" viewBox="0 0 436 457" version="1.1" xmlns="http://www.w3.org/2000/svg" xmlns:xlink="http://www.w3.org/1999/xlink">
    <!-- Generator: Sketch 48.1 (47250) - http://www.bohemiancoding.com/sketch -->
    <title>Group 22</title>
    <desc>Created with Sketch.</desc>
    <defs></defs>
    <g id="Home" stroke="none" stroke-width="1" fill="none" fill-rule="evenodd" transform="translate(-801.000000, -221.000000)" stroke-dasharray="1,8">
        <g id="Group-22" transform="translate(801.000000, 222.000000)" stroke="#FFFFFF">
            <path d="M20.5666567,194.665885 L20.5666567,9 C20.5666567,4.02943725 24.596094,9.13077564e-16 29.5666567,0 L148.109028,5.32907052e-15 C153.079591,4.41599295e-15 157.109028,4.02943725 157.109028,9 C157.109028,10.7162445 156.618309,12.396708 155.694731,13.8432547 L37.1523593,199.50914 C34.4775036,203.698608 28.9128699,204.926443 24.723402,202.251588 C22.1338863,200.598256 20.5666567,197.738197 20.5666567,194.665885 Z M408.832243,254.313608 L408.832243,439.549172 C408.832243,444.519735 404.802806,448.549172 399.832243,448.549172 L281.308981,448.549172 C276.338419,448.549172 272.308981,444.519735 272.308981,439.549172 C272.308981,437.829928 272.801415,436.146655 273.728028,434.698487 L392.251289,249.462923 C394.930249,245.276078 400.496083,244.053695 404.682928,246.732654 C407.268184,248.386835 408.832243,251.244428 408.832243,254.313608 Z M289.542445,0 L421.035122,2.48689958e-14 C426.005685,-6.94730778e-15 430.035122,4.02943725 430.035122,9 C430.035122,10.7354672 429.533359,12.4339229 428.590271,13.8907798 L148.937685,445.89078 C147.27903,448.453026 144.434788,450 141.382536,450 L9.88985923,450 C4.91929648,450 0.889859232,445.970563 0.889859232,441 C0.889859232,439.264533 1.39162294,437.566077 2.33471048,436.10922 L281.987297,4.10922017 C283.645951,1.5469738 286.490193,-8.32109461e-15 289.542445,-8.8817842e-15 Z" id="Combined-Shape"></path>
            <path d="M25.6767975,199.665885 L25.6767975,14 C25.6767975,9.02943725 29.7062347,5 34.6767975,5 L153.219169,5 C158.189731,5 162.219169,9.02943725 162.219169,14 C162.219169,15.7162445 161.72845,17.396708 160.804871,18.8432547 L42.2625001,204.50914 C39.5876444,208.698608 34.0230106,209.926443 29.8335428,207.251588 C27.2440271,205.598256 25.6767975,202.738197 25.6767975,199.665885 Z M413.942384,259.313608 L413.942384,444.549172 C413.942384,449.519735 409.912946,453.549172 404.942384,453.549172 L286.419122,453.549172 C281.448559,453.549172 277.419122,449.519735 277.419122,444.549172 C277.419122,442.829928 277.911556,441.146655 278.838169,439.698487 L397.36143,254.462923 C400.040389,250.276078 405.606223,249.053695 409.793068,251.732654 C412.378325,253.386835 413.942384,256.244428 413.942384,259.313608 Z M294.652586,5 L426.145263,5 C431.115826,5 435.145263,9.02943725 435.145263,14 C435.145263,15.7354672 434.6435,17.4339229 433.700412,18.8907798 L154.047826,450.89078 C152.389171,453.453026 149.544929,455 146.492677,455 L15,455 C10.0294373,455 6,450.970563 6,446 C6,444.264533 6.5017637,442.566077 7.44485125,441.10922 L287.097437,9.10922017 C288.756092,6.5469738 291.600334,5 294.652586,5 Z" id="Combined-Shape"></path>
        </g>
    </g>
</svg>