<svg width="451" height="523" viewBox="0 0 451 523" fill="none" xmlns="http://www.w3.org/2000/svg">
<g opacity="0.6">
<circle cx="241" cy="6" r="6" fill="white"/>
<circle cx="275" cy="6" r="6" fill="white"/>
<circle cx="309" cy="6" r="6" fill="white"/>
<circle cx="343" cy="6" r="6" fill="white"/>
<circle cx="377" cy="6" r="6" fill="white"/>
<circle cx="411" cy="6" r="6" fill="white"/>
<circle cx="445" cy="6" r="6" fill="white"/>
<circle cx="241" cy="40" r="6" fill="white"/>
<circle cx="275" cy="40" r="6" fill="white"/>
<circle cx="309" cy="40" r="6" fill="white"/>
<circle cx="343" cy="40" r="6" fill="white"/>
<circle cx="377" cy="40" r="6" fill="white"/>
<circle cx="411" cy="40" r="6" fill="white"/>
<circle cx="445" cy="40" r="6" fill="white"/>
<circle cx="241" cy="74" r="6" fill="white"/>
<circle cx="275" cy="74" r="6" fill="white"/>
<circle cx="309" cy="74" r="6" fill="white"/>
<circle cx="343" cy="74" r="6" fill="white"/>
<circle cx="377" cy="74" r="6" fill="white"/>
<circle cx="411" cy="74" r="6" fill="white"/>
<circle cx="445" cy="74" r="6" fill="white"/>
<circle cx="241" cy="108" r="6" fill="white"/>
<circle cx="275" cy="108" r="6" fill="white"/>
<circle cx="309" cy="108" r="6" fill="white"/>
<circle cx="343" cy="108" r="6" fill="white"/>
<circle cx="377" cy="108" r="6" fill="white"/>
<circle cx="411" cy="108" r="6" fill="white"/>
<circle cx="445" cy="108" r="6" fill="white"/>
<circle cx="241" cy="142" r="6" fill="white"/>
<circle cx="275" cy="142" r="6" fill="white"/>
<circle cx="309" cy="142" r="6" fill="white"/>
<circle cx="343" cy="142" r="6" fill="white"/>
<circle cx="377" cy="142" r="6" fill="white"/>
<circle cx="411" cy="142" r="6" fill="white"/>
<circle cx="445" cy="142" r="6" fill="white"/>
<circle cx="241" cy="176" r="6" fill="white"/>
<circle cx="275" cy="176" r="6" fill="white"/>
<circle cx="309" cy="176" r="6" fill="white"/>
<circle cx="343" cy="176" r="6" fill="white"/>
<circle cx="377" cy="176" r="6" fill="white"/>
<circle cx="411" cy="176" r="6" fill="white"/>
<circle cx="445" cy="176" r="6" fill="white"/>
<circle cx="241" cy="210" r="6" fill="white"/>
<circle cx="275" cy="210" r="6" fill="white"/>
<circle cx="309" cy="210" r="6" fill="white"/>
<circle cx="343" cy="210" r="6" fill="white"/>
<circle cx="377" cy="210" r="6" fill="white"/>
<circle cx="411" cy="210" r="6" fill="white"/>
<circle cx="445" cy="210" r="6" fill="white"/>
<circle cx="241" cy="244" r="6" fill="white"/>
<circle cx="275" cy="244" r="6" fill="white"/>
<circle cx="309" cy="244" r="6" fill="white"/>
<circle cx="343" cy="244" r="6" fill="white"/>
<circle cx="377" cy="244" r="6" fill="white"/>
<circle cx="411" cy="244" r="6" fill="white"/>
<circle cx="445" cy="244" r="6" fill="white"/>
<circle cx="241" cy="278" r="6" fill="white"/>
<circle cx="275" cy="278" r="6" fill="white"/>
<circle cx="309" cy="278" r="6" fill="white"/>
<circle cx="343" cy="278" r="6" fill="white"/>
<circle cx="377" cy="278" r="6" fill="white"/>
<circle cx="411" cy="278" r="6" fill="white"/>
<circle cx="445" cy="278" r="6" fill="white"/>
<circle cx="241" cy="312" r="6" fill="white"/>
<circle cx="275" cy="312" r="6" fill="white"/>
<circle cx="309" cy="312" r="6" fill="white"/>
<circle cx="343" cy="312" r="6" fill="white"/>
<circle cx="377" cy="312" r="6" fill="white"/>
<circle cx="411" cy="312" r="6" fill="white"/>
<circle cx="445" cy="312" r="6" fill="white"/>
<circle cx="6" cy="6" r="6" fill="white"/>
<circle cx="40" cy="6" r="6" fill="white"/>
<circle cx="74" cy="6" r="6" fill="white"/>
<circle cx="108" cy="6" r="6" fill="white"/>
<circle cx="142" cy="6" r="6" fill="white"/>
<circle cx="176" cy="6" r="6" fill="white"/>
<circle cx="210" cy="6" r="6" fill="white"/>
<circle cx="6" cy="40" r="6" fill="white"/>
<circle cx="40" cy="40" r="6" fill="white"/>
<circle cx="74" cy="40" r="6" fill="white"/>
<circle cx="108" cy="40" r="6" fill="white"/>
<circle cx="142" cy="40" r="6" fill="white"/>
<circle cx="176" cy="40" r="6" fill="white"/>
<circle cx="210" cy="40" r="6" fill="white"/>
<circle cx="6" cy="74" r="6" fill="white"/>
<circle cx="40" cy="74" r="6" fill="white"/>
<circle cx="74" cy="74" r="6" fill="white"/>
<circle cx="108" cy="74" r="6" fill="white"/>
<circle cx="142" cy="74" r="6" fill="white"/>
<circle cx="176" cy="74" r="6" fill="white"/>
<circle cx="210" cy="74" r="6" fill="white"/>
<circle cx="6" cy="108" r="6" fill="white"/>
<circle cx="40" cy="108" r="6" fill="white"/>
<circle cx="74" cy="108" r="6" fill="white"/>
<circle cx="108" cy="108" r="6" fill="white"/>
<circle cx="142" cy="108" r="6" fill="white"/>
<circle cx="176" cy="108" r="6" fill="white"/>
<circle cx="210" cy="108" r="6" fill="white"/>
<circle cx="6" cy="142" r="6" fill="white"/>
<circle cx="40" cy="142" r="6" fill="white"/>
<circle cx="74" cy="142" r="6" fill="white"/>
<circle cx="108" cy="142" r="6" fill="white"/>
<circle cx="142" cy="142" r="6" fill="white"/>
<circle cx="176" cy="142" r="6" fill="white"/>
<circle cx="210" cy="142" r="6" fill="white"/>
<circle cx="6" cy="176" r="6" fill="white"/>
<circle cx="40" cy="176" r="6" fill="white"/>
<circle cx="74" cy="176" r="6" fill="white"/>
<circle cx="108" cy="176" r="6" fill="white"/>
<circle cx="142" cy="176" r="6" fill="white"/>
<circle cx="176" cy="176" r="6" fill="white"/>
<circle cx="210" cy="176" r="6" fill="white"/>
<circle cx="6" cy="210" r="6" fill="white"/>
<circle cx="40" cy="210" r="6" fill="white"/>
<circle cx="74" cy="210" r="6" fill="white"/>
<circle cx="108" cy="210" r="6" fill="white"/>
<circle cx="142" cy="210" r="6" fill="white"/>
<circle cx="176" cy="210" r="6" fill="white"/>
<circle cx="210" cy="210" r="6" fill="white"/>
<circle cx="6" cy="244" r="6" fill="white"/>
<circle cx="40" cy="244" r="6" fill="white"/>
<circle cx="74" cy="244" r="6" fill="white"/>
<circle cx="108" cy="244" r="6" fill="white"/>
<circle cx="142" cy="244" r="6" fill="white"/>
<circle cx="176" cy="244" r="6" fill="white"/>
<circle cx="210" cy="244" r="6" fill="white"/>
<circle cx="6" cy="278" r="6" fill="white"/>
<circle cx="40" cy="278" r="6" fill="white"/>
<circle cx="74" cy="278" r="6" fill="white"/>
<circle cx="108" cy="278" r="6" fill="white"/>
<circle cx="142" cy="278" r="6" fill="white"/>
<circle cx="176" cy="278" r="6" fill="white"/>
<circle cx="210" cy="278" r="6" fill="white"/>
<circle cx="6" cy="312" r="6" fill="white"/>
<circle cx="40" cy="312" r="6" fill="white"/>
<circle cx="74" cy="312" r="6" fill="white"/>
<circle cx="108" cy="312" r="6" fill="white"/>
<circle cx="142" cy="312" r="6" fill="white"/>
<circle cx="176" cy="312" r="6" fill="white"/>
<circle cx="210" cy="312" r="6" fill="white"/>
</g>
<g opacity="0.6">
<circle cx="241" cy="347" r="6" fill="white"/>
<circle cx="275" cy="347" r="6" fill="white"/>
<circle cx="309" cy="347" r="6" fill="white"/>
<circle cx="343" cy="347" r="6" fill="white"/>
<circle cx="377" cy="347" r="6" fill="white"/>
<circle cx="411" cy="347" r="6" fill="white"/>
<circle cx="445" cy="347" r="6" fill="white"/>
<circle cx="241" cy="381" r="6" fill="white"/>
<circle cx="275" cy="381" r="6" fill="white"/>
<circle cx="309" cy="381" r="6" fill="white"/>
<circle cx="343" cy="381" r="6" fill="white"/>
<circle cx="377" cy="381" r="6" fill="white"/>
<circle cx="411" cy="381" r="6" fill="white"/>
<circle cx="445" cy="381" r="6" fill="white"/>
<circle cx="241" cy="415" r="6" fill="white"/>
<circle cx="275" cy="415" r="6" fill="white"/>
<circle cx="309" cy="415" r="6" fill="white"/>
<circle cx="343" cy="415" r="6" fill="white"/>
<circle cx="377" cy="415" r="6" fill="white"/>
<circle cx="411" cy="415" r="6" fill="white"/>
<circle cx="445" cy="415" r="6" fill="white"/>
<circle cx="241" cy="449" r="6" fill="white"/>
<circle cx="275" cy="449" r="6" fill="white"/>
<circle cx="309" cy="449" r="6" fill="white"/>
<circle cx="343" cy="449" r="6" fill="white"/>
<circle cx="377" cy="449" r="6" fill="white"/>
<circle cx="411" cy="449" r="6" fill="white"/>
<circle cx="445" cy="449" r="6" fill="white"/>
<circle cx="241" cy="483" r="6" fill="white"/>
<circle cx="275" cy="483" r="6" fill="white"/>
<circle cx="309" cy="483" r="6" fill="white"/>
<circle cx="343" cy="483" r="6" fill="white"/>
<circle cx="377" cy="483" r="6" fill="white"/>
<circle cx="411" cy="483" r="6" fill="white"/>
<circle cx="445" cy="483" r="6" fill="white"/>
<circle cx="241" cy="517" r="6" fill="white"/>
<circle cx="275" cy="517" r="6" fill="white"/>
<circle cx="309" cy="517" r="6" fill="white"/>
<circle cx="343" cy="517" r="6" fill="white"/>
<circle cx="377" cy="517" r="6" fill="white"/>
<circle cx="411" cy="517" r="6" fill="white"/>
<circle cx="445" cy="517" r="6" fill="white"/>
<circle cx="6" cy="347" r="6" fill="white"/>
<circle cx="40" cy="347" r="6" fill="white"/>
<circle cx="74" cy="347" r="6" fill="white"/>
<circle cx="108" cy="347" r="6" fill="white"/>
<circle cx="142" cy="347" r="6" fill="white"/>
<circle cx="176" cy="347" r="6" fill="white"/>
<circle cx="210" cy="347" r="6" fill="white"/>
<circle cx="6" cy="381" r="6" fill="white"/>
<circle cx="40" cy="381" r="6" fill="white"/>
<circle cx="74" cy="381" r="6" fill="white"/>
<circle cx="108" cy="381" r="6" fill="white"/>
<circle cx="142" cy="381" r="6" fill="white"/>
<circle cx="176" cy="381" r="6" fill="white"/>
<circle cx="210" cy="381" r="6" fill="white"/>
<circle cx="6" cy="415" r="6" fill="white"/>
<circle cx="40" cy="415" r="6" fill="white"/>
<circle cx="74" cy="415" r="6" fill="white"/>
<circle cx="108" cy="415" r="6" fill="white"/>
<circle cx="142" cy="415" r="6" fill="white"/>
<circle cx="176" cy="415" r="6" fill="white"/>
<circle cx="210" cy="415" r="6" fill="white"/>
<circle cx="6" cy="449" r="6" fill="white"/>
<circle cx="40" cy="449" r="6" fill="white"/>
<circle cx="74" cy="449" r="6" fill="white"/>
<circle cx="108" cy="449" r="6" fill="white"/>
<circle cx="142" cy="449" r="6" fill="white"/>
<circle cx="176" cy="449" r="6" fill="white"/>
<circle cx="210" cy="449" r="6" fill="white"/>
<circle cx="6" cy="483" r="6" fill="white"/>
<circle cx="40" cy="483" r="6" fill="white"/>
<circle cx="74" cy="483" r="6" fill="white"/>
<circle cx="108" cy="483" r="6" fill="white"/>
<circle cx="142" cy="483" r="6" fill="white"/>
<circle cx="176" cy="483" r="6" fill="white"/>
<circle cx="210" cy="483" r="6" fill="white"/>
<circle cx="6" cy="517" r="6" fill="white"/>
<circle cx="40" cy="517" r="6" fill="white"/>
<circle cx="74" cy="517" r="6" fill="white"/>
<circle cx="108" cy="517" r="6" fill="white"/>
<circle cx="142" cy="517" r="6" fill="white"/>
<circle cx="176" cy="517" r="6" fill="white"/>
<circle cx="210" cy="517" r="6" fill="white"/>
</g>
</svg>
