<svg width="451" height="318" viewBox="0 0 451 318" fill="none" xmlns="http://www.w3.org/2000/svg">
<circle cx="241" cy="6" r="6" fill="#202020"/>
<circle cx="275" cy="6" r="6" fill="#202020"/>
<circle cx="309" cy="6" r="6" fill="#202020"/>
<circle cx="343" cy="6" r="6" fill="#202020"/>
<circle cx="377" cy="6" r="6" fill="#202020"/>
<circle cx="411" cy="6" r="6" fill="#202020"/>
<circle cx="445" cy="6" r="6" fill="#202020"/>
<circle cx="241" cy="40" r="6" fill="#202020"/>
<circle cx="275" cy="40" r="6" fill="#202020"/>
<circle cx="309" cy="40" r="6" fill="#202020"/>
<circle cx="343" cy="40" r="6" fill="#202020"/>
<circle cx="377" cy="40" r="6" fill="#202020"/>
<circle cx="411" cy="40" r="6" fill="#202020"/>
<circle cx="445" cy="40" r="6" fill="#202020"/>
<circle cx="241" cy="74" r="6" fill="#202020"/>
<circle cx="275" cy="74" r="6" fill="#202020"/>
<circle cx="309" cy="74" r="6" fill="#202020"/>
<circle cx="343" cy="74" r="6" fill="#202020"/>
<circle cx="377" cy="74" r="6" fill="#202020"/>
<circle cx="411" cy="74" r="6" fill="#202020"/>
<circle cx="445" cy="74" r="6" fill="#202020"/>
<circle cx="241" cy="108" r="6" fill="#202020"/>
<circle cx="275" cy="108" r="6" fill="#202020"/>
<circle cx="309" cy="108" r="6" fill="#202020"/>
<circle cx="343" cy="108" r="6" fill="#202020"/>
<circle cx="377" cy="108" r="6" fill="#202020"/>
<circle cx="411" cy="108" r="6" fill="#202020"/>
<circle cx="445" cy="108" r="6" fill="#202020"/>
<circle cx="241" cy="142" r="6" fill="#202020"/>
<circle cx="275" cy="142" r="6" fill="#202020"/>
<circle cx="309" cy="142" r="6" fill="#202020"/>
<circle cx="343" cy="142" r="6" fill="#202020"/>
<circle cx="377" cy="142" r="6" fill="#202020"/>
<circle cx="411" cy="142" r="6" fill="#202020"/>
<circle cx="445" cy="142" r="6" fill="#202020"/>
<circle cx="241" cy="176" r="6" fill="#202020"/>
<circle cx="275" cy="176" r="6" fill="#202020"/>
<circle cx="309" cy="176" r="6" fill="#202020"/>
<circle cx="343" cy="176" r="6" fill="#202020"/>
<circle cx="377" cy="176" r="6" fill="#202020"/>
<circle cx="411" cy="176" r="6" fill="#202020"/>
<circle cx="445" cy="176" r="6" fill="#202020"/>
<circle cx="241" cy="210" r="6" fill="#202020"/>
<circle cx="275" cy="210" r="6" fill="#202020"/>
<circle cx="309" cy="210" r="6" fill="#202020"/>
<circle cx="343" cy="210" r="6" fill="#202020"/>
<circle cx="377" cy="210" r="6" fill="#202020"/>
<circle cx="411" cy="210" r="6" fill="#202020"/>
<circle cx="445" cy="210" r="6" fill="#202020"/>
<circle cx="241" cy="244" r="6" fill="#202020"/>
<circle cx="275" cy="244" r="6" fill="#202020"/>
<circle cx="309" cy="244" r="6" fill="#202020"/>
<circle cx="343" cy="244" r="6" fill="#202020"/>
<circle cx="377" cy="244" r="6" fill="#202020"/>
<circle cx="411" cy="244" r="6" fill="#202020"/>
<circle cx="445" cy="244" r="6" fill="#202020"/>
<circle cx="241" cy="278" r="6" fill="#202020"/>
<circle cx="275" cy="278" r="6" fill="#202020"/>
<circle cx="309" cy="278" r="6" fill="#202020"/>
<circle cx="343" cy="278" r="6" fill="#202020"/>
<circle cx="377" cy="278" r="6" fill="#202020"/>
<circle cx="411" cy="278" r="6" fill="#202020"/>
<circle cx="445" cy="278" r="6" fill="#202020"/>
<circle cx="241" cy="312" r="6" fill="#202020"/>
<circle cx="275" cy="312" r="6" fill="#202020"/>
<circle cx="309" cy="312" r="6" fill="#202020"/>
<circle cx="343" cy="312" r="6" fill="#202020"/>
<circle cx="377" cy="312" r="6" fill="#202020"/>
<circle cx="411" cy="312" r="6" fill="#202020"/>
<circle cx="445" cy="312" r="6" fill="#202020"/>
<circle cx="6" cy="6" r="6" fill="#202020"/>
<circle cx="40" cy="6" r="6" fill="#202020"/>
<circle cx="74" cy="6" r="6" fill="#202020"/>
<circle cx="108" cy="6" r="6" fill="#202020"/>
<circle cx="142" cy="6" r="6" fill="#202020"/>
<circle cx="176" cy="6" r="6" fill="#202020"/>
<circle cx="210" cy="6" r="6" fill="#202020"/>
<circle cx="6" cy="40" r="6" fill="#202020"/>
<circle cx="40" cy="40" r="6" fill="#202020"/>
<circle cx="74" cy="40" r="6" fill="#202020"/>
<circle cx="108" cy="40" r="6" fill="#202020"/>
<circle cx="142" cy="40" r="6" fill="#202020"/>
<circle cx="176" cy="40" r="6" fill="#202020"/>
<circle cx="210" cy="40" r="6" fill="#202020"/>
<circle cx="6" cy="74" r="6" fill="#202020"/>
<circle cx="40" cy="74" r="6" fill="#202020"/>
<circle cx="74" cy="74" r="6" fill="#202020"/>
<circle cx="108" cy="74" r="6" fill="#202020"/>
<circle cx="142" cy="74" r="6" fill="#202020"/>
<circle cx="176" cy="74" r="6" fill="#202020"/>
<circle cx="210" cy="74" r="6" fill="#202020"/>
<circle cx="6" cy="108" r="6" fill="#202020"/>
<circle cx="40" cy="108" r="6" fill="#202020"/>
<circle cx="74" cy="108" r="6" fill="#202020"/>
<circle cx="108" cy="108" r="6" fill="#202020"/>
<circle cx="142" cy="108" r="6" fill="#202020"/>
<circle cx="176" cy="108" r="6" fill="#202020"/>
<circle cx="210" cy="108" r="6" fill="#202020"/>
<circle cx="6" cy="142" r="6" fill="#202020"/>
<circle cx="40" cy="142" r="6" fill="#202020"/>
<circle cx="74" cy="142" r="6" fill="#202020"/>
<circle cx="108" cy="142" r="6" fill="#202020"/>
<circle cx="142" cy="142" r="6" fill="#202020"/>
<circle cx="176" cy="142" r="6" fill="#202020"/>
<circle cx="210" cy="142" r="6" fill="#202020"/>
<circle cx="6" cy="176" r="6" fill="#202020"/>
<circle cx="40" cy="176" r="6" fill="#202020"/>
<circle cx="74" cy="176" r="6" fill="#202020"/>
<circle cx="108" cy="176" r="6" fill="#202020"/>
<circle cx="142" cy="176" r="6" fill="#202020"/>
<circle cx="176" cy="176" r="6" fill="#202020"/>
<circle cx="210" cy="176" r="6" fill="#202020"/>
<circle cx="6" cy="210" r="6" fill="#202020"/>
<circle cx="40" cy="210" r="6" fill="#202020"/>
<circle cx="74" cy="210" r="6" fill="#202020"/>
<circle cx="108" cy="210" r="6" fill="#202020"/>
<circle cx="142" cy="210" r="6" fill="#202020"/>
<circle cx="176" cy="210" r="6" fill="#202020"/>
<circle cx="210" cy="210" r="6" fill="#202020"/>
<circle cx="6" cy="244" r="6" fill="#202020"/>
<circle cx="40" cy="244" r="6" fill="#202020"/>
<circle cx="74" cy="244" r="6" fill="#202020"/>
<circle cx="108" cy="244" r="6" fill="#202020"/>
<circle cx="142" cy="244" r="6" fill="#202020"/>
<circle cx="176" cy="244" r="6" fill="#202020"/>
<circle cx="210" cy="244" r="6" fill="#202020"/>
<circle cx="6" cy="278" r="6" fill="#202020"/>
<circle cx="40" cy="278" r="6" fill="#202020"/>
<circle cx="74" cy="278" r="6" fill="#202020"/>
<circle cx="108" cy="278" r="6" fill="#202020"/>
<circle cx="142" cy="278" r="6" fill="#202020"/>
<circle cx="176" cy="278" r="6" fill="#202020"/>
<circle cx="210" cy="278" r="6" fill="#202020"/>
<circle cx="6" cy="312" r="6" fill="#202020"/>
<circle cx="40" cy="312" r="6" fill="#202020"/>
<circle cx="74" cy="312" r="6" fill="#202020"/>
<circle cx="108" cy="312" r="6" fill="#202020"/>
<circle cx="142" cy="312" r="6" fill="#202020"/>
<circle cx="176" cy="312" r="6" fill="#202020"/>
<circle cx="210" cy="312" r="6" fill="#202020"/>
</svg>
