<?xml version="1.0" encoding="UTF-8"?>
<svg width="147px" height="147px" viewBox="0 0 147 147" version="1.1" xmlns="http://www.w3.org/2000/svg" xmlns:xlink="http://www.w3.org/1999/xlink">
    <!-- Generator: Sketch 48.1 (47250) - http://www.bohemiancoding.com/sketch -->
    <title>Group 51</title>
    <desc>Created with Sketch.</desc>
    <defs>
        <rect id="path-1" x="0" y="0" width="64.8410826" height="64.8410826"></rect>
    </defs>
    <g id="Artboard-Copy-3" stroke="none" stroke-width="1" fill="none" fill-rule="evenodd" transform="translate(-238.000000, -757.000000)">
        <g id="Group-45-Copy" transform="translate(142.000000, 174.000000)">
            <g id="Group-51" transform="translate(96.804997, 583.569743)">
                <g id="Group-46" stroke="#FFFFFF" stroke-linecap="square" stroke-width="5.47952811">
                    <g id="Group-14" transform="translate(74.683626, 75.042898) rotate(-315.000000) translate(-74.683626, -75.042898) translate(-37.646701, -19.478961)">
                        <path d="M-3.55271368e-14,47.0326162 L210.900536,47.0326162" id="Line-5"></path>
                        <path d="M-3.55271368e-14,47.0326162 L210.900536,47.0326162" id="Line-5-Copy-2"></path>
                        <path d="M-9.59232693e-14,62.5579459 L210.900536,62.5579459" id="Line-5-Copy-3"></path>
                        <path d="M-9.23705556e-14,78.0832755 L210.900536,78.0832755" id="Line-5-Copy-4"></path>
                        <path d="M-9.05941988e-14,93.6086051 L210.900536,93.6086051" id="Line-5-Copy-5"></path>
                        <path d="M-6.75015599e-14,109.133935 L210.900536,109.133935" id="Line-5-Copy-6"></path>
                        <path d="M-8.52651283e-14,124.659264 L210.900536,124.659264" id="Line-5-Copy-7"></path>
                        <path d="M-1.20792265e-13,140.184594 L210.900536,140.184594" id="Line-5-Copy-8"></path>
                        <path d="M-8.17124146e-14,155.709924 L210.900536,155.709924" id="Line-5-Copy-9"></path>
                        <path d="M-9.23705556e-14,171.235253 L210.900536,171.235253" id="Line-5-Copy-10"></path>
                        <path d="M-4.97379915e-14,187.673838 L210.900536,187.673838" id="Line-5-Copy-12"></path>
                        <path d="M-4.26325641e-14,31.5072866 L210.900536,31.5072866" id="Line-5-Copy"></path>
                        <path d="M13.6988203,15.981957 L224.599357,15.981957" id="Line-5-Copy-11"></path>
                        <path d="M12.4072831,1.7481645 L223.30782,1.7481645" id="Line-5-Copy-13"></path>
                    </g>
                </g>
                <g id="Group-46-Copy" transform="translate(41.096461, 41.096461)">
                    <mask id="mask-2" fill="white">
                        <use xlink:href="#path-1"></use>
                    </mask>
                    <use id="Mask" fill="#E94567" xlink:href="#path-1"></use>
                    <g id="Group-14" mask="url(#mask-2)" stroke="#FFFFFF" stroke-linecap="square" stroke-width="5.47952811">
                        <g transform="translate(86.337818, 70.021444) rotate(-315.000000) translate(-86.337818, -70.021444) translate(-26.162182, -24.978556)">
                            <path d="M-3.55271368e-14,47.0326162 L210.900536,47.0326162" id="Line-5"></path>
                            <path d="M-3.55271368e-14,47.0326162 L210.900536,47.0326162" id="Line-5-Copy-2"></path>
                            <path d="M-9.59232693e-14,62.5579459 L210.900536,62.5579459" id="Line-5-Copy-3"></path>
                            <path d="M-9.23705556e-14,78.0832755 L210.900536,78.0832755" id="Line-5-Copy-4"></path>
                            <path d="M-9.05941988e-14,93.6086051 L210.900536,93.6086051" id="Line-5-Copy-5"></path>
                            <path d="M-6.75015599e-14,109.133935 L210.900536,109.133935" id="Line-5-Copy-6"></path>
                            <path d="M-8.52651283e-14,124.659264 L210.900536,124.659264" id="Line-5-Copy-7"></path>
                            <path d="M-1.20792265e-13,140.184594 L210.900536,140.184594" id="Line-5-Copy-8"></path>
                            <path d="M-8.17124146e-14,155.709924 L210.900536,155.709924" id="Line-5-Copy-9"></path>
                            <path d="M-9.23705556e-14,171.235253 L210.900536,171.235253" id="Line-5-Copy-10"></path>
                            <path d="M-4.97379915e-14,187.673838 L210.900536,187.673838" id="Line-5-Copy-12"></path>
                            <path d="M-4.26325641e-14,31.5072866 L210.900536,31.5072866" id="Line-5-Copy"></path>
                            <path d="M13.6988203,15.981957 L224.599357,15.981957" id="Line-5-Copy-11"></path>
                            <path d="M12.4072831,1.7481645 L223.30782,1.7481645" id="Line-5-Copy-13"></path>
                        </g>
                    </g>
                </g>
            </g>
        </g>
    </g>
</svg>