<?xml version="1.0" encoding="UTF-8"?>
<svg width="160px" height="160px" viewBox="0 0 160 160" version="1.1" xmlns="http://www.w3.org/2000/svg" xmlns:xlink="http://www.w3.org/1999/xlink">
    <!-- Generator: Sketch 48.1 (47250) - http://www.bohemiancoding.com/sketch -->
    <title>Group 40</title>
    <desc>Created with Sketch.</desc>
    <defs></defs>
    <g id="Home" stroke="none" stroke-width="1" fill="none" fill-rule="evenodd" transform="translate(-105.000000, -2407.000000)">
        <g id="Group-45" transform="translate(-1.000000, 1765.000000)" fill="#FFFFFF">
            <g id="Group-40" transform="translate(106.000000, 642.000000)">
                <circle id="Oval-3" cx="155.9375" cy="4.0625" r="4.0625"></circle>
                <circle id="Oval-3-Copy-10" cx="139.0625" cy="4.0625" r="4.0625"></circle>
                <circle id="Oval-3-Copy" cx="155.9375" cy="20.9375" r="4.0625"></circle>
                <circle id="Oval-3-Copy-11" cx="139.0625" cy="20.9375" r="4.0625"></circle>
                <circle id="Oval-3-Copy-2" cx="155.9375" cy="37.8125" r="4.0625"></circle>
                <circle id="Oval-3-Copy-12" cx="139.0625" cy="37.8125" r="4.0625"></circle>
                <circle id="Oval-3-Copy-3" cx="155.9375" cy="54.6875" r="4.0625"></circle>
                <circle id="Oval-3-Copy-13" cx="139.0625" cy="54.6875" r="4.0625"></circle>
                <circle id="Oval-3-Copy-4" cx="155.9375" cy="71.5625" r="4.0625"></circle>
                <circle id="Oval-3-Copy-14" cx="139.0625" cy="71.5625" r="4.0625"></circle>
                <circle id="Oval-3-Copy-5" cx="155.9375" cy="88.4375" r="4.0625"></circle>
                <circle id="Oval-3-Copy-15" cx="139.0625" cy="88.4375" r="4.0625"></circle>
                <circle id="Oval-3-Copy-6" cx="155.9375" cy="105.3125" r="4.0625"></circle>
                <circle id="Oval-3-Copy-16" cx="139.0625" cy="105.3125" r="4.0625"></circle>
                <circle id="Oval-3-Copy-7" cx="155.9375" cy="122.1875" r="4.0625"></circle>
                <circle id="Oval-3-Copy-17" cx="139.0625" cy="122.1875" r="4.0625"></circle>
                <circle id="Oval-3-Copy-8" cx="155.9375" cy="139.0625" r="4.0625"></circle>
                <circle id="Oval-3-Copy-18" cx="139.0625" cy="139.0625" r="4.0625"></circle>
                <circle id="Oval-3-Copy-9" cx="155.9375" cy="155.9375" r="4.0625"></circle>
                <circle id="Oval-3-Copy-19" cx="139.0625" cy="155.9375" r="4.0625"></circle>
                <circle id="Oval-3-Copy-29" cx="122.1875" cy="4.0625" r="4.0625"></circle>
                <circle id="Oval-3-Copy-28" cx="122.1875" cy="20.9375" r="4.0625"></circle>
                <circle id="Oval-3-Copy-27" cx="122.1875" cy="37.8125" r="4.0625"></circle>
                <circle id="Oval-3-Copy-26" cx="122.1875" cy="54.6875" r="4.0625"></circle>
                <circle id="Oval-3-Copy-25" cx="122.1875" cy="71.5625" r="4.0625"></circle>
                <circle id="Oval-3-Copy-24" cx="122.1875" cy="88.4375" r="4.0625"></circle>
                <circle id="Oval-3-Copy-23" cx="122.1875" cy="105.3125" r="4.0625"></circle>
                <circle id="Oval-3-Copy-22" cx="122.1875" cy="122.1875" r="4.0625"></circle>
                <circle id="Oval-3-Copy-21" cx="122.1875" cy="139.0625" r="4.0625"></circle>
                <circle id="Oval-3-Copy-20" cx="122.1875" cy="155.9375" r="4.0625"></circle>
                <circle id="Oval-3-Copy-39" cx="105.3125" cy="4.0625" r="4.0625"></circle>
                <circle id="Oval-3-Copy-38" cx="105.3125" cy="20.9375" r="4.0625"></circle>
                <circle id="Oval-3-Copy-37" cx="105.3125" cy="37.8125" r="4.0625"></circle>
                <circle id="Oval-3-Copy-36" cx="105.3125" cy="54.6875" r="4.0625"></circle>
                <circle id="Oval-3-Copy-35" cx="105.3125" cy="71.5625" r="4.0625"></circle>
                <circle id="Oval-3-Copy-34" cx="105.3125" cy="88.4375" r="4.0625"></circle>
                <circle id="Oval-3-Copy-33" cx="105.3125" cy="105.3125" r="4.0625"></circle>
                <circle id="Oval-3-Copy-32" cx="105.3125" cy="122.1875" r="4.0625"></circle>
                <circle id="Oval-3-Copy-31" cx="105.3125" cy="139.0625" r="4.0625"></circle>
                <circle id="Oval-3-Copy-30" cx="105.3125" cy="155.9375" r="4.0625"></circle>
                <circle id="Oval-3-Copy-49" cx="88.4375" cy="4.0625" r="4.0625"></circle>
                <circle id="Oval-3-Copy-48" cx="88.4375" cy="20.9375" r="4.0625"></circle>
                <circle id="Oval-3-Copy-47" cx="88.4375" cy="37.8125" r="4.0625"></circle>
                <circle id="Oval-3-Copy-46" cx="88.4375" cy="54.6875" r="4.0625"></circle>
                <circle id="Oval-3-Copy-45" cx="88.4375" cy="71.5625" r="4.0625"></circle>
                <circle id="Oval-3-Copy-44" cx="88.4375" cy="88.4375" r="4.0625"></circle>
                <circle id="Oval-3-Copy-43" cx="88.4375" cy="105.3125" r="4.0625"></circle>
                <circle id="Oval-3-Copy-42" cx="88.4375" cy="122.1875" r="4.0625"></circle>
                <circle id="Oval-3-Copy-41" cx="88.4375" cy="139.0625" r="4.0625"></circle>
                <circle id="Oval-3-Copy-40" cx="88.4375" cy="155.9375" r="4.0625"></circle>
                <circle id="Oval-3-Copy-59" cx="71.5625" cy="4.0625" r="4.0625"></circle>
                <circle id="Oval-3-Copy-58" cx="71.5625" cy="20.9375" r="4.0625"></circle>
                <circle id="Oval-3-Copy-57" cx="71.5625" cy="37.8125" r="4.0625"></circle>
                <circle id="Oval-3-Copy-56" cx="71.5625" cy="54.6875" r="4.0625"></circle>
                <circle id="Oval-3-Copy-55" cx="71.5625" cy="71.5625" r="4.0625"></circle>
                <circle id="Oval-3-Copy-54" cx="71.5625" cy="88.4375" r="4.0625"></circle>
                <circle id="Oval-3-Copy-53" cx="71.5625" cy="105.3125" r="4.0625"></circle>
                <circle id="Oval-3-Copy-52" cx="71.5625" cy="122.1875" r="4.0625"></circle>
                <circle id="Oval-3-Copy-51" cx="71.5625" cy="139.0625" r="4.0625"></circle>
                <circle id="Oval-3-Copy-50" cx="71.5625" cy="155.9375" r="4.0625"></circle>
                <circle id="Oval-3-Copy-69" cx="54.6875" cy="4.0625" r="4.0625"></circle>
                <circle id="Oval-3-Copy-68" cx="54.6875" cy="20.9375" r="4.0625"></circle>
                <circle id="Oval-3-Copy-67" cx="54.6875" cy="37.8125" r="4.0625"></circle>
                <circle id="Oval-3-Copy-66" cx="54.6875" cy="54.6875" r="4.0625"></circle>
                <circle id="Oval-3-Copy-65" cx="54.6875" cy="71.5625" r="4.0625"></circle>
                <circle id="Oval-3-Copy-64" cx="54.6875" cy="88.4375" r="4.0625"></circle>
                <circle id="Oval-3-Copy-63" cx="54.6875" cy="105.3125" r="4.0625"></circle>
                <circle id="Oval-3-Copy-62" cx="54.6875" cy="122.1875" r="4.0625"></circle>
                <circle id="Oval-3-Copy-61" cx="54.6875" cy="139.0625" r="4.0625"></circle>
                <circle id="Oval-3-Copy-60" cx="54.6875" cy="155.9375" r="4.0625"></circle>
                <circle id="Oval-3-Copy-79" cx="37.8125" cy="4.0625" r="4.0625"></circle>
                <circle id="Oval-3-Copy-80" cx="20.9375" cy="4.0625" r="4.0625"></circle>
                <circle id="Oval-3-Copy-78" cx="37.8125" cy="20.9375" r="4.0625"></circle>
                <circle id="Oval-3-Copy-81" cx="20.9375" cy="20.9375" r="4.0625"></circle>
                <circle id="Oval-3-Copy-77" cx="37.8125" cy="37.8125" r="4.0625"></circle>
                <circle id="Oval-3-Copy-82" cx="20.9375" cy="37.8125" r="4.0625"></circle>
                <circle id="Oval-3-Copy-76" cx="37.8125" cy="54.6875" r="4.0625"></circle>
                <circle id="Oval-3-Copy-83" cx="20.9375" cy="54.6875" r="4.0625"></circle>
                <circle id="Oval-3-Copy-75" cx="37.8125" cy="71.5625" r="4.0625"></circle>
                <circle id="Oval-3-Copy-84" cx="20.9375" cy="71.5625" r="4.0625"></circle>
                <circle id="Oval-3-Copy-74" cx="37.8125" cy="88.4375" r="4.0625"></circle>
                <circle id="Oval-3-Copy-85" cx="20.9375" cy="88.4375" r="4.0625"></circle>
                <circle id="Oval-3-Copy-73" cx="37.8125" cy="105.3125" r="4.0625"></circle>
                <circle id="Oval-3-Copy-86" cx="20.9375" cy="105.3125" r="4.0625"></circle>
                <circle id="Oval-3-Copy-72" cx="37.8125" cy="122.1875" r="4.0625"></circle>
                <circle id="Oval-3-Copy-87" cx="20.9375" cy="122.1875" r="4.0625"></circle>
                <circle id="Oval-3-Copy-71" cx="37.8125" cy="139.0625" r="4.0625"></circle>
                <circle id="Oval-3-Copy-88" cx="20.9375" cy="139.0625" r="4.0625"></circle>
                <circle id="Oval-3-Copy-70" cx="37.8125" cy="155.9375" r="4.0625"></circle>
                <circle id="Oval-3-Copy-89" cx="20.9375" cy="155.9375" r="4.0625"></circle>
                <circle id="Oval-3-Copy-99" cx="4.0625" cy="4.0625" r="4.0625"></circle>
                <circle id="Oval-3-Copy-98" cx="4.0625" cy="20.9375" r="4.0625"></circle>
                <circle id="Oval-3-Copy-97" cx="4.0625" cy="37.8125" r="4.0625"></circle>
                <circle id="Oval-3-Copy-96" cx="4.0625" cy="54.6875" r="4.0625"></circle>
                <circle id="Oval-3-Copy-95" cx="4.0625" cy="71.5625" r="4.0625"></circle>
                <circle id="Oval-3-Copy-94" cx="4.0625" cy="88.4375" r="4.0625"></circle>
                <circle id="Oval-3-Copy-93" cx="4.0625" cy="105.3125" r="4.0625"></circle>
                <circle id="Oval-3-Copy-92" cx="4.0625" cy="122.1875" r="4.0625"></circle>
                <circle id="Oval-3-Copy-91" cx="4.0625" cy="139.0625" r="4.0625"></circle>
                <circle id="Oval-3-Copy-90" cx="4.0625" cy="155.9375" r="4.0625"></circle>
            </g>
        </g>
    </g>
</svg>