<?xml version="1.0" encoding="UTF-8"?>
<svg width="177px" height="178px" viewBox="0 0 177 178" version="1.1" xmlns="http://www.w3.org/2000/svg" xmlns:xlink="http://www.w3.org/1999/xlink">
    <!-- Generator: Sketch 48.1 (47250) - http://www.bohemiancoding.com/sketch -->
    <title>Group 6</title>
    <desc>Created with Sketch.</desc>
    <defs>
        <filter x="-0.5%" y="-0.6%" width="101.1%" height="101.8%" filterUnits="objectBoundingBox" id="filter-1">
            <feOffset dx="0" dy="2" in="SourceAlpha" result="shadowOffsetOuter1"></feOffset>
            <feGaussianBlur stdDeviation="2" in="shadowOffsetOuter1" result="shadowBlurOuter1"></feGaussianBlur>
            <feColorMatrix values="0 0 0 0 0   0 0 0 0 0   0 0 0 0 0  0 0 0 0.5 0" type="matrix" in="shadowBlurOuter1" result="shadowMatrixOuter1"></feColorMatrix>
            <feMerge>
                <feMergeNode in="shadowMatrixOuter1"></feMergeNode>
                <feMergeNode in="SourceGraphic"></feMergeNode>
            </feMerge>
        </filter>
    </defs>
    <g id="Artboard-Copy-2" stroke="none" stroke-width="1" fill="none" fill-rule="evenodd" transform="translate(-223.000000, -744.000000)">
        <g id="Group-5" transform="translate(142.000000, 172.000000)">
            <g id="Group-45-Copy-2" filter="url(#filter-1)" transform="translate(0.000000, 2.739764)">
                <g id="Group-34">
                    <g id="Group-39" transform="translate(0.000000, 486.764747)">
                        <g id="Group-6" transform="translate(85.000000, 85.000000)">
                            <g id="Group-14" opacity="0.6" transform="translate(19.000000, 19.000000)">
                                <polygon id="Path" fill="#7642EE" points="130 1.13686838e-13 130 130 0 130 0 1.13686838e-13"></polygon>
                                <polygon id="Rectangle-3" fill="#FFFFFF" fill-rule="nonzero" points="10 10 10 120 120 120 120 10"></polygon>
                            </g>
                            <g id="Group-13" opacity="0.6" transform="translate(59.000000, 59.000000)">
                                <polygon id="Path" fill="#7642EE" points="110 1.13686838e-13 110 110 0 110 0 1.13686838e-13"></polygon>
                                <polygon id="Rectangle-3-Copy" fill="#FFFFFF" fill-rule="nonzero" points="10 10 10 100 100 100 100 10"></polygon>
                            </g>
                            <g id="Group-7" opacity="0.601392663">
                                <polygon id="Rectangle-3-Copy-2" fill="#7642EE" fill-rule="nonzero" points="110 1.13686838e-13 110 110 0 110 0 1.13686838e-13"></polygon>
                                <polygon id="Path" fill="#FFFFFF" points="10 10 10 100 100 100 100 10"></polygon>
                            </g>
                        </g>
                    </g>
                </g>
            </g>
        </g>
    </g>
</svg>