<?xml version="1.0" encoding="UTF-8"?>
<svg width="23px" height="23px" viewBox="0 0 23 23" version="1.1" xmlns="http://www.w3.org/2000/svg" xmlns:xlink="http://www.w3.org/1999/xlink">
    <!-- Generator: Sketch 46 (44423) - http://www.bohemiancoding.com/sketch -->
    <title>Group 2</title>
    <desc>Created with Sketch.</desc>
    <defs></defs>
    <g id="Page-1" stroke="none" stroke-width="1" fill="none" fill-rule="evenodd">
        <g id="Home" transform="translate(-1043.000000, -37.000000)">
            <g id="Group-29" transform="translate(100.000000, 0.000000)"></g>
            <g id="Group-32" transform="translate(39.000000, 37.000000)" fill="#313D4F">
                <g id="Group-2" transform="translate(1015.083333, 11.000000) rotate(-180.000000) translate(-1015.083333, -11.000000) translate(1004.083333, 0.000000)">
                    <path d="M7.88703693,20.8735083 C7.81985714,20.8692457 7.75966928,20.8648658 7.70647334,20.8603685 C5.73886544,20.6940234 4.3272894,20.1439219 3.47171254,19.2100535 C2.49056594,18.1370428 2,16.3014239 2,13.7031418 L2,1.86486486 L2,1.86486486 C2,1.38721319 2.38721319,1 2.86486486,1 L7.94180562,1 L7.94180562,1 C8.4194573,1 8.80667049,1.38721319 8.80667049,1.86486486 C8.80667049,7.87421468 8.80667049,13.8835645 8.80667049,19.8929143 C8.80667049,19.9291587 8.80667049,19.9683014 8.80667049,20.0103427 L8.8067071,20.0103427 C8.8067071,20.4880146 8.41947752,20.8752442 7.94180562,20.8752442 C7.92353564,20.8752442 7.90527025,20.8746653 7.88703693,20.8735083 Z" id="Path-Copy-4"></path>
                    <path d="M13.3915858,20.0478087 L13.3915858,1.86486486 L13.3915858,1.86486486 C13.3915858,1.38721319 13.7787989,1 14.2564506,1 L19.3333914,1 L19.3333914,1 C19.8110431,1 20.1982562,1.38721319 20.1982562,1.86486486 L20.1982562,20.0478087 L20.1982562,20.0478087 C20.1982562,20.5254604 19.8110431,20.9126736 19.3333914,20.9126736 L14.2564506,20.9126736 L14.2564506,20.9126736 C13.7787989,20.9126736 13.3915858,20.5254604 13.3915858,20.0478087 Z" id="Path-Copy-5"></path>
                </g>
            </g>
        </g>
    </g>
</svg>