<?xml version="1.0" encoding="UTF-8"?>
<svg width="22px" height="22px" viewBox="0 0 22 22" version="1.1" xmlns="http://www.w3.org/2000/svg" xmlns:xlink="http://www.w3.org/1999/xlink">
    <!-- Generator: Sketch 47 (45396) - http://www.bohemiancoding.com/sketch -->
    <title>Group 5</title>
    <desc>Created with Sketch.</desc>
    <defs></defs>
    <g id="Page-1" stroke="none" stroke-width="1" fill="none" fill-rule="evenodd">
        <g id="Home" transform="translate(-708.000000, -37.000000)" fill="#313D4F">
            <g id="Group-32" transform="translate(39.000000, 37.000000)">
                <g id="Group-5" transform="translate(668.500000, 0.000000)">
                    <path d="M13.8623188,20.0177512 C13.8623188,20.0177512 13.8623188,20.0177512 13.8623188,20.0177512 C13.8623188,14.1119428 13.8623188,8.1459281 13.8623188,2.17991337 C13.8623188,2.09680328 13.8623188,2.00510536 13.8623188,1.90481962 L13.8623529,1.90481962 C13.8623529,1.42375561 14.2523323,1.03377619 14.7333963,1.03377619 C14.776599,1.03377619 14.8197418,1.03699037 14.8624675,1.04339214 C15.0476353,1.07113657 15.2031595,1.09836997 15.3290401,1.12509233 C17.3769789,1.55983577 18.9482221,2.57352475 20.0428031,4.16617686 C21.2016497,5.85595429 21.7810644,8.10895706 21.7810644,10.9252528 C21.7810644,13.7415485 21.2016497,15.9945513 20.0428031,17.6843287 C18.8809986,19.3632935 17.1962588,20.3955922 14.9885447,20.7812455 C14.9275704,20.7918967 14.8579829,20.8027859 14.7797822,20.8139131 L14.7797816,20.8139091 C14.3400758,20.876475 13.9329041,20.5707426 13.8703382,20.1310368 C13.8649986,20.0935111 13.8623188,20.0556549 13.8623188,20.0177512 Z" id="Path-Copy-6"></path>
                    <path d="M7.98439004,20.8202916 C7.93869398,20.8136586 7.89663895,20.8071378 7.85822495,20.8007293 C5.61257447,20.4260923 3.90593341,19.3892834 2.73826121,17.6902813 C1.57941461,16.0005038 1,13.7475011 1,10.9312053 C1,8.11490964 1.57941461,5.86190687 2.73826121,4.17212944 C3.90314492,2.46549536 5.61886784,1.42365956 7.88547107,1.04660042 C7.88769374,1.04623067 7.88992889,1.04586048 7.89217652,1.04548985 L7.89218128,1.0455187 C8.36683796,0.967248766 8.81507353,1.28858371 8.89334347,1.76324039 C8.90106808,1.81008522 8.90494979,1.85748319 8.90494979,1.90496064 C8.90494979,1.94077785 8.90494979,1.9743529 8.90494979,2.00568577 C8.90494979,8.02823861 8.90494979,14.0507915 8.90494979,20.0237038 C8.90494979,20.0237038 8.90494979,20.0237038 8.90494979,20.0237038 L8.90494979,20.0237038 C8.90494979,20.4682546 8.54457016,20.8286342 8.10001935,20.8286342 C8.06132597,20.8286342 8.02268295,20.8258442 7.98439087,20.8202859 Z" id="Path-Copy-7"></path>
                </g>
            </g>
        </g>
    </g>
</svg>