<?xml version="1.0" encoding="UTF-8"?>
<svg width="22px" height="22px" viewBox="0 0 22 22" version="1.1" xmlns="http://www.w3.org/2000/svg" xmlns:xlink="http://www.w3.org/1999/xlink">
    <!-- Generator: Sketch 46 (44423) - http://www.bohemiancoding.com/sketch -->
    <title>Group 4</title>
    <desc>Created with Sketch.</desc>
    <defs></defs>
    <g id="Page-1" stroke="none" stroke-width="1" fill="none" fill-rule="evenodd">
        <g id="Home" transform="translate(-372.000000, -37.000000)">
            <g id="Group-29" transform="translate(100.000000, 0.000000)"></g>
            <g id="Group-32" transform="translate(39.000000, 37.000000)" fill="#313D4F">
                <g id="Group-4" transform="translate(332.250000, 0.000000)">
                    <path d="M9.2,21 C6.50346142,20.964373 4.62239915,20.3943498 3.47692308,19.3636364 C2.51891373,18.2121968 2,16.3685279 2,13.7272727 L2,1.91428571 L2,1.91428571 C2,1.40933966 2.40933966,1 2.91428571,1 L8.28571429,1 L8.28571429,1 C8.79066034,1 9.2,1.40933966 9.2,1.91428571 L9.2,21 Z" id="UONX-Copy"></path>
                    <path d="M14,20.1707834 C14,20.1707834 14,20.1707834 14,20.1707834 C14,14.0852842 14,7.99978495 14,1.91428571 L14,1.91428571 C14,1.40933966 14.4093397,1 14.9142857,1 L20.2857143,1 L20.2857143,1 C20.7906603,1 21.2,1.40933966 21.2,1.91428571 L21.2,13.7750991 C21.2,16.3880993 20.6810863,18.2341161 19.6432432,19.3132049 C18.7032886,20.2886188 17.1289209,20.8477188 14.9201014,20.9905167 C14.9048556,20.9915024 14.8889515,20.9924815 14.8723892,20.9934542 L14.8723884,20.9934402 C14.4180476,21.0201233 14.0281007,20.6734383 14.0014175,20.2190975 C14.0004727,20.2030101 14,20.1868985 14,20.1707834 Z" id="Path-Copy-3"></path>
                </g>
            </g>
        </g>
    </g>
</svg>