<?xml version="1.0" encoding="UTF-8" standalone="no"?><!DOCTYPE svg PUBLIC "-//W3C//DTD SVG 1.1//EN" "http://www.w3.org/Graphics/SVG/1.1/DTD/svg11.dtd"><svg width="100%" height="100%" viewBox="0 0 512 512" version="1.1" xmlns="http://www.w3.org/2000/svg" xmlns:xlink="http://www.w3.org/1999/xlink" xml:space="preserve" style="fill-rule:evenodd;clip-rule:evenodd;stroke-linejoin:round;stroke-miterlimit:1.41421;"><g><path id="cachemoment_icon_-color-a" d="M512,46.545c0,-25.689 -20.856,-46.545 -46.545,-46.545l-418.91,0c-25.689,0 -46.545,20.856 -46.545,46.545l0,418.91c0,25.689 20.856,46.545 46.545,46.545l418.91,0c25.689,0 46.545,-20.856 46.545,-46.545l0,-418.91Z" style="fill:url(#_Linear1);"/><g><path d="M155,261l58,0l0,-91l-58,0l0,91Z" style="fill:#fff;"/><path d="M299,261l58,0l0,-91l-58,0l0,91Z" style="fill:#fff;"/><path d="M83,342l58,0l0,-91l-58,0l0,91Z" style="fill:#fff;"/><path d="M227,342l58,0l0,-91l-58,0l0,91Z" style="fill:#fff;"/><path d="M371,342l58,0l0,-91l-58,0l0,91Z" style="fill:#fff;"/></g></g><defs><linearGradient id="_Linear1" x1="0" y1="0" x2="1" y2="0" gradientUnits="userSpaceOnUse" gradientTransform="matrix(476.513,-474.092,474.092,476.513,16.4915,491.305)"><stop offset="0%" style="stop-color:#8a62ef;stop-opacity:1"/><stop offset="100%" style="stop-color:#7b4bea;stop-opacity:1"/></linearGradient></defs></svg>